<?xml version="1.0" encoding="UTF-8"?>
<svg xmlns="http://www.w3.org/2000/svg" version="1.1" viewBox="0 0 3201.03 3006.59">
  <defs>
    <style>
      .cls-1 {
        fill: #471414;
      }

      .cls-2 {
        fill: #d7d5f0;
      }

      .cls-3 {
        fill: #e5e4f5;
      }

      .cls-4 {
        fill: #fff;
      }

      .cls-5 {
        fill: #726cc8;
      }

      .cls-6 {
        fill: #bd5b39;
      }

      .cls-7 {
        fill: #746ddd;
      }

      .cls-8 {
        fill: #d0cdf5;
      }

      .cls-9 {
        fill: #2c2334;
      }

      .cls-10 {
        fill: #feb747;
      }

      .cls-11 {
        fill: #e2e8f8;
      }

      .cls-12 {
        fill: #5b2319;
      }

      .cls-13 {
        fill: #eb7a52;
      }

      .cls-14 {
        fill: #cecbf3;
      }
    </style>
  </defs>
  <!-- Generator: Adobe Illustrator 28.7.1, SVG Export Plug-In . SVG Version: 1.2.0 Build 142)  -->
  <g>
    <g id="Layer_1">
      <g>
        <path class="cls-11" d="M73.18,1886.15c.88-233.43,157.72-458.49,376.39-540.16,123.52-46.13,260.75-49.41,381.21-103.02,178.85-79.59,293.11-256.81,377.27-433.56,84.16-176.75,151.12-366.2,279.34-514.13,116.16-134.02,282.7-226.99,459.54-240.41,176.84-13.42,361.33,57.58,472.57,195.71,111.25,138.12,139.79,342.06,58.21,499.53-59.77,115.36-168.14,196.76-247.86,299.36-79.72,102.59-128.08,253.74-52.27,359.26,81.23,113.07,248.4,106.59,376.54,161.03,190.83,81.07,289.23,317.2,241.14,518.88-48.09,201.68-220.71,360-418.15,423.3-197.44,63.3-414.92,40.79-610.42-28.27-199.35-70.42-382.52-187.77-589.43-231.22-126.33-26.53-266.44-45.61-383.65,8.15-339.13,155.53-562.06,29.53-609.44-36.72-69.99-97.87-111.45-216.96-110.99-337.72Z"/>
        <path class="cls-7" d="M2308.26,2742.06s526.38,183.92,634.19-608.82c0,0-913.23,149.04-634.19,608.82Z"/>
        <path class="cls-10" d="M2311.44,2355.43s442.47,62.07,403-577.8c0,0-694.32,260.19-403,577.8Z"/>
        <ellipse class="cls-2" cx="1596.37" cy="2859.29" rx="1583.89" ry="79.57"/>
        <g>
          <path class="cls-13" d="M811.03,1707.5s-31.24,41.71,33.08,56.75c0,0,22.9,6.2,5.76,20.68-17.13,14.47-61.59,28.95-78.13,0-16.54-28.95-9.11-93.39-9.11-93.39l48.39,15.96Z"/>
          <path class="cls-13" d="M910.43,1403.7l22.4,62.33c9.03,25.14,3.55,53.21-14.28,73.1l-107.52,168.38-48.39-15.96s33.23-129.57,40.12-154.96c5.26-19.39,6.78-48.66,1.85-68.14l-14.19-56.04,120.01-8.71Z"/>
          <path class="cls-7" d="M765.55,1945.86l187.47,860.14h-118.54s-140.6-272.93-135.09-413.53l-148.87-446.61h215.03Z"/>
          <path class="cls-7" d="M550.51,2806l33.08-860.14h-270.17s71.68,322.55,66.16,416.29c-5.51,93.73,11.03,394.23,33.08,443.85h137.84Z"/>
          <path class="cls-8" d="M305.49,1904.51c-3.12,0-5.54-2.71-5.2-5.8,4.21-38.31,26.93-258.84,13.13-439.43-15.16-198.49,13.78-243.98,59.27-268.79,45.49-24.81,351.5-33.08,401.12,0,22.32,14.88,20.53,124.23,4.14,264.66-12.25,104.93,38.63,380.2-10.5,446.94-1.14,1.54-2.96,2.43-4.88,2.43h-457.09Z"/>
          <path class="cls-13" d="M594.5,1230.37c-20.81,8.83-44.24,8.2-66.83,7.42-10.39-.37-21.01-.77-30.71-4.52-9.69-3.76-18.46-11.57-20.48-21.77-3.31-16.72,11.41-30.76,21.79-44.27,3.66-4.78,6.86-9.87,9.57-15.2,6.59-12.94,10.36-27.27,11.29-41.79.54-8.38-.35-17.05.96-25.1.94-5.87,3.06-11.4,7.72-16.23,8.74-9.05,29.73-16.34,41.98-15.58,27.03,1.69,17.17,25.84,16.93,44.09-.22,16.97,11.33,30.3,22.54,43.92,9.28,11.27,18.32,22.74,20.27,36.64,3.15,22.38-14.25,43.55-35.05,52.39Z"/>
          <path class="cls-14" d="M777.13,1193.6s45.62,12.4,84.21,94.03c11.68,24.7,35.46,73.61,58.58,109.61,0,0-45.61,37.64-139.82,38.83l-2.97-242.48Z"/>
          <path class="cls-6" d="M609.27,1141.33s-32.41,28.41-101.42,10.68c6.59-12.94,10.36-27.27,11.29-41.79.54-8.38-.35-17.05.96-25.1l89.17,56.2Z"/>
          <path class="cls-7" d="M313.42,1945.86s-8.96-19.99-6.89-41.35h450.75l8.27,41.35h-452.12Z"/>
          <path class="cls-13" d="M667.77,1010.89c0,30.55-9.17,69.28-25.85,97.42-.17.3-.36.6-.53.89-8.14,13.51-18.05,24.48-29.52,30.8-.76.43-1.54.82-2.31,1.2-6.21,3.02-12.83,4.69-19.88,4.69-48.94,0-88.61-80.52-88.61-135s29.15-98.64,78.09-98.64,88.61,44.16,88.61,98.64Z"/>
          <path class="cls-12" d="M505.45,1024.01c4.52-8.77,13.66-15,23.48-16,8.48-.86,17.24,1.91,25.48-.26,19.64-5.19,24.75-34.2,44.19-40.09,10.6-3.21,21.82,1.72,31.53,7.05,9.71,5.33,19.94,11.38,30.98,10.51,11.73-.92,21.9-10.17,25.51-21.36,3.61-11.2,1.21-23.79-4.8-33.9-6.01-10.11-15.35-17.92-25.56-23.76-28.02-16.01-61.68-17.73-93.92-19.02-22.1-.88-45.42-1.49-64.92,8.95-20.45,10.94-33.38,32.68-39.01,55.18-5.63,22.51-4.9,46.05-4.13,69.23.42,12.77,7.53,44.91,30.01,65.91,7.24,6.76,26.04,9.43,33.57,1.06,7.29-8.1-17.4-53.82-12.41-63.51Z"/>
          <path class="cls-13" d="M532.74,1030.78c-1.32,18.6-13.18,32.92-26.49,31.97-13.31-.95-23.02-16.8-21.7-35.4,1.32-18.6,13.18-32.92,26.49-31.97,13.31.95,23.02,16.8,21.7,35.4Z"/>
          <path class="cls-13" d="M641.36,1514.68c-45.32-26.81-115.77-156.32-148.74-188.89-18.9,37.19-41.58,78.41-64.69,114.39,28.38,22.12,80.98,140.34,169.05,169.48,96.33,31.87,186.32,45.64,274.21,59.32,0,0,7.74-46.04,10.73-64.8,0,0-156.54-39.79-240.57-89.5Z"/>
          <path class="cls-14" d="M500,1391.82c7.29-15.06,12.58-31.49,12.15-48.22-.31-12.19-3.93-24.69-12.19-33.66-8.26-8.97-21.68-13.67-33.19-9.63-13.71,4.81-20.86,19.52-26.61,32.86-11.73,27.21-23.45,54.42-35.18,81.63-4.43,10.27-8.95,21.06-8.08,32.21,2.96,37.92,36.72,21.24,54.15,6.88,20.49-16.88,37.37-38.16,48.94-62.06Z"/>
          <rect class="cls-13" x="439.89" y="2806" width="80.64" height="48.59"/>
          <polygon class="cls-13" points="947.3 2854.59 883.2 2854.59 858.39 2806 929.21 2806 947.3 2854.59"/>
          <path class="cls-1" d="M893.68,2846.89c16.05,5.61,21.89,6.4,37.35-.67,8.94-4.09,17.27-10.52,26.58-13.09,15.54-4.28,58.87,24.01,95.22,44.37,8.14,4.56,6.92,16.67-1.99,19.42-.16.05-.31.09-.46.14-9.12,2.67-18.62,3.67-28.12,3.61-26.09-.18-89.02.16-115.11-.02-10.29-.07-20.73-.16-30.6-3.07-22.25-6.56-34.34-33.33-26.3-55.35,11.07-30.33,23.82-2.21,43.45,4.65Z"/>
          <path class="cls-1" d="M500.83,2828.69h-41.24c-13.92,0-26.16,6.62-30.01,16.24l-10.86,27.17c-5.73,14.33,9.25,28.61,30.01,28.61h62.96c20.76,0,35.74-14.28,30.01-28.61l-10.86-27.17c-3.84-9.61-16.08-16.24-30.01-16.24Z"/>
          <path class="cls-1" d="M584.69,2023.01c-.18,0-.35-.01-.53-.04-1.82-.29-3.06-2-2.77-3.82,4.67-29.12,5.1-58.72,1.27-87.96-.24-1.83,1.05-3.5,2.87-3.74,1.82-.25,3.5,1.05,3.74,2.87,3.91,29.89,3.47,60.13-1.3,89.89-.26,1.64-1.68,2.81-3.29,2.81Z"/>
          <path class="cls-1" d="M588.96,1986.75c-1.15,0-2.28-.6-2.89-1.67-.92-1.6-.37-3.64,1.23-4.56,7.76-4.47,13.81-11.91,16.63-20.41,2.81-8.5,2.38-18.08-1.18-26.29-.73-1.69.04-3.66,1.73-4.39,1.68-.74,3.66.04,4.39,1.73,4.21,9.69,4.72,21.01,1.4,31.05-3.32,10.03-10.47,18.82-19.63,24.09-.53.3-1.1.45-1.66.45Z"/>
        </g>
        <path class="cls-5" d="M1362.07,572.11h945.49c52.5,0,95.13,42.63,95.13,95.13v2092.23c0,52.5-42.63,95.13-95.13,95.13h-945.49c-52.5,0-95.13-42.63-95.13-95.13V667.24c0-52.5,42.63-95.13,95.13-95.13Z"/>
        <path class="cls-3" d="M788.7,1195.52h2092.22c24.88,0,45.09,20.2,45.09,45.09v945.49c0,24.88-20.2,45.09-45.09,45.09H788.7c-24.88,0-45.09-20.2-45.09-45.09v-945.49c0-24.88,20.2-45.09,45.09-45.09Z" transform="translate(3548.16 -121.46) rotate(90)"/>
        <rect class="cls-7" x="1791.83" y="874.21" width="506.6" height="17.02"/>
        <rect class="cls-7" x="1791.83" y="933.27" width="407.79" height="17.02"/>
        <rect class="cls-7" x="1791.83" y="1365.66" width="506.6" height="17.02"/>
        <rect class="cls-7" x="1791.83" y="1424.72" width="230.92" height="17.02"/>
        <rect class="cls-7" x="1791.83" y="1857.11" width="305.26" height="17.02"/>
        <rect class="cls-7" x="2181.65" y="1857.11" width="116.78" height="17.02"/>
        <rect class="cls-7" x="1791.83" y="1916.16" width="107.61" height="17.02"/>
        <rect class="cls-7" x="1791.83" y="2348.55" width="232.86" height="17.02"/>
        <rect class="cls-7" x="1791.83" y="2407.61" width="506.6" height="17.02"/>
        <g>
          <path class="cls-9" d="M914.36,858.4c-1.92,0-3.69-1.25-4.26-3.19-.7-2.36.65-4.83,3-5.53l110.61-32.71c2.34-.7,4.83.65,5.53,3,.7,2.36-.65,4.83-3,5.53l-110.61,32.71c-.42.12-.84.18-1.26.18Z"/>
          <path class="cls-9" d="M986.02,897.35c-1.92,0-3.69-1.25-4.26-3.19l-32.71-110.61c-.7-2.36.65-4.83,3-5.53,2.34-.7,4.83.65,5.53,3l32.71,110.61c.7,2.36-.65,4.83-3,5.53-.42.12-.84.18-1.26.18Z"/>
        </g>
        <g>
          <path class="cls-9" d="M160.3,2523.32c-1.92,0-3.69-1.25-4.26-3.19-.7-2.36.65-4.83,3-5.53l110.61-32.71c2.34-.69,4.83.65,5.53,3,.7,2.36-.65,4.83-3,5.53l-110.61,32.71c-.42.12-.84.18-1.26.18Z"/>
          <path class="cls-9" d="M231.97,2562.27c-1.92,0-3.69-1.25-4.26-3.19l-32.71-110.61c-.7-2.35.65-4.83,3-5.53,2.34-.7,4.83.65,5.53,3l32.71,110.61c.7,2.35-.65,4.83-3,5.53-.42.12-.84.18-1.26.18Z"/>
        </g>
        <g>
          <path class="cls-4" d="M2580.14,1751.04c-1.49,0-2.95-.75-3.79-2.11l-60.64-98.12c-1.29-2.09-.64-4.83,1.44-6.12,2.09-1.29,4.83-.64,6.12,1.44l60.64,98.12c1.29,2.09.64,4.83-1.44,6.12-.73.45-1.54.67-2.33.67Z"/>
          <path class="cls-4" d="M2500.76,1732.3c-1.49,0-2.95-.75-3.79-2.11-1.29-2.09-.64-4.83,1.44-6.12l98.12-60.64c2.09-1.29,4.83-.64,6.12,1.44,1.29,2.09.64,4.83-1.44,6.12l-98.12,60.64c-.73.45-1.54.67-2.33.67Z"/>
        </g>
        <path class="cls-4" d="M919.93,2004.03c-29.55,0-53.6-24.04-53.6-53.6s24.04-53.6,53.6-53.6,53.6,24.04,53.6,53.6-24.04,53.6-53.6,53.6ZM919.93,1905.73c-24.65,0-44.7,20.05-44.7,44.7s20.05,44.7,44.7,44.7,44.7-20.05,44.7-44.7-20.05-44.7-44.7-44.7Z"/>
        <path class="cls-4" d="M1938.58,350.34c-29.55,0-53.6-24.04-53.6-53.6s24.04-53.6,53.6-53.6,53.6,24.04,53.6,53.6-24.04,53.6-53.6,53.6ZM1938.58,252.04c-24.65,0-44.7,20.05-44.7,44.7s20.05,44.7,44.7,44.7,44.7-20.05,44.7-44.7-20.05-44.7-44.7-44.7Z"/>
        <path class="cls-9" d="M2598.87,1301.65c-29.55,0-53.6-24.04-53.6-53.6s24.04-53.6,53.6-53.6,53.6,24.04,53.6,53.6-24.04,53.6-53.6,53.6ZM2598.87,1203.35c-24.65,0-44.7,20.05-44.7,44.7s20.05,44.7,44.7,44.7,44.7-20.05,44.7-44.7-20.05-44.7-44.7-44.7Z"/>
        <path class="cls-13" d="M871.2,1668.97s77.7,22.02,127.99-2.64c50.29-24.67-11.81-76.34-35.89-59.7-7.45,5.15-13.57,10.52-28.88,12.41-31.16,3.85-31.73-11.16-52.49-14.87l-10.73,64.8Z"/>
        <path class="cls-6" d="M881.65,1605.92c-.15,0-.31-.01-.46-.03-30.81-4.29-60.89-12.79-89.4-25.28-1.69-.74-2.46-2.71-1.72-4.39.74-1.69,2.71-2.46,4.39-1.72,27.95,12.24,57.43,20.58,87.64,24.78,1.82.25,3.1,1.94,2.84,3.76-.23,1.67-1.66,2.88-3.3,2.88Z"/>
        <circle class="cls-8" cx="1554.82" cy="912.25" r="139.77" transform="translate(-189.66 1366.61) rotate(-45)"/>
        <path class="cls-4" d="M1546.36,979.38c-1.5,0-2.96-.49-4.16-1.41l-70.23-53.82c-3-2.3-3.57-6.6-1.27-9.6,2.3-3,6.6-3.57,9.6-1.27l64.63,49.53,80.31-111.79c2.21-3.07,6.48-3.77,9.55-1.57,3.07,2.21,3.77,6.48,1.57,9.55l-84.43,117.52c-1.08,1.5-2.73,2.51-4.56,2.78-.33.05-.67.07-1,.07Z"/>
        <circle class="cls-10" cx="1554.82" cy="1403.7" r="139.77"/>
        <path class="cls-4" d="M1546.36,1470.83c-1.5,0-2.96-.49-4.16-1.41l-70.23-53.82c-3-2.3-3.57-6.6-1.27-9.6,2.3-3,6.6-3.57,9.6-1.27l64.63,49.53,80.31-111.79c2.21-3.07,6.48-3.77,9.55-1.57,3.07,2.21,3.77,6.48,1.57,9.55l-84.43,117.52c-1.08,1.5-2.73,2.51-4.56,2.78-.33.05-.67.07-1,.07Z"/>
        <circle class="cls-7" cx="1554.82" cy="1895.14" r="139.77"/>
        <path class="cls-4" d="M1546.36,1962.28c-1.5,0-2.96-.49-4.16-1.41l-70.23-53.82c-3-2.3-3.57-6.6-1.27-9.6,2.3-3,6.6-3.57,9.6-1.27l64.63,49.53,80.31-111.79c2.21-3.07,6.48-3.77,9.55-1.56,3.07,2.21,3.77,6.48,1.57,9.55l-84.43,117.52c-1.08,1.5-2.73,2.5-4.56,2.78-.33.05-.67.07-1,.07Z"/>
        <circle class="cls-10" cx="1554.82" cy="2386.59" r="139.77" transform="translate(-1232.18 1798.44) rotate(-45)"/>
        <path class="cls-4" d="M1546.36,2453.73c-1.5,0-2.96-.49-4.16-1.41l-70.23-53.82c-3-2.3-3.57-6.6-1.27-9.6,2.3-3,6.6-3.56,9.6-1.27l64.63,49.53,80.31-111.79c2.21-3.07,6.48-3.77,9.55-1.57,3.07,2.21,3.77,6.48,1.57,9.55l-84.43,117.52c-1.08,1.5-2.73,2.5-4.56,2.78-.33.05-.67.07-1,.07Z"/>
        <path class="cls-9" d="M2402.68,2694.75c-2.46,0-4.45-1.99-4.45-4.45v-324.73c0-2.46,1.99-4.45,4.45-4.45s4.45,1.99,4.45,4.45v324.73c0,2.46-1.99,4.45-4.45,4.45Z"/>
        <path class="cls-9" d="M2457.34,2575.18c-1.79,0-3.47-1.08-4.15-2.85-.89-2.29.25-4.87,2.54-5.75,158.03-61.06,291.29-175.73,375.23-322.88,1.22-2.13,3.93-2.88,6.07-1.66,2.13,1.22,2.88,3.93,1.66,6.07-42,73.62-96.49,139.51-161.95,195.84-65.47,56.33-138.75,100.38-217.8,130.93-.53.2-1.07.3-1.6.3Z"/>
        <path class="cls-9" d="M2443.48,2208.7c-1.26,0-2.51-.53-3.39-1.57-1.59-1.87-1.36-4.68.52-6.27,100.63-85.35,175.66-202.33,211.27-329.38.67-2.36,3.12-3.75,5.48-3.08,2.37.66,3.75,3.12,3.08,5.48-36.09,128.75-112.11,247.28-214.08,333.77-.84.71-1.86,1.06-2.88,1.06Z"/>
      </g>
    </g>
  </g>
</svg>