<svg width="32" height="32" viewBox="0 0 32 32" fill="none" xmlns="http://www.w3.org/2000/svg">
<path d="M13.3334 0H18.2716C19.0926 0 19.7531 0.660495 19.7531 1.48148V11.8519H25.1667C26.2655 11.8519 26.8149 13.179 26.0371 13.9568L16.6482 23.3519C16.1852 23.8148 15.4259 23.8148 14.963 23.3519L5.56174 13.9568C4.78396 13.179 5.33334 11.8519 6.43211 11.8519H11.8519V1.48148C11.8519 0.660495 12.5124 0 13.3334 0ZM31.605 23.2099V30.1235C31.605 30.9445 30.9445 31.605 30.1235 31.605H1.48148C0.660495 31.605 0 30.9445 0 30.1235V23.2099C0 22.3889 0.660495 21.7284 1.48148 21.7284H10.5371L13.5617 24.7531C14.8025 25.9939 16.8025 25.9939 18.0432 24.7531L21.0679 21.7284H30.1235C30.9445 21.7284 31.605 22.3889 31.605 23.2099Z" fill="white"/>
</svg>
