<svg width="839" height="129" viewBox="0 0 839 129" fill="none" xmlns="http://www.w3.org/2000/svg">
<rect x="0.952148" y="1.38867" width="837.098" height="127.016" rx="18.5" stroke="white"/>
<path d="M30.1917 30.8213L26.9917 25.2613H25.2517V30.8213H22.9717V16.9213H27.7717C28.8383 16.9213 29.7383 17.108 30.4717 17.4813C31.2183 17.8546 31.7717 18.3546 32.1317 18.9813C32.505 19.608 32.6917 20.308 32.6917 21.0813C32.6917 21.988 32.425 22.8146 31.8917 23.5613C31.3717 24.2946 30.565 24.7946 29.4717 25.0613L32.9117 30.8213H30.1917ZM25.2517 23.4613H27.7717C28.625 23.4613 29.265 23.248 29.6917 22.8213C30.1317 22.3946 30.3517 21.8146 30.3517 21.0813C30.3517 20.3346 30.1383 19.7546 29.7117 19.3413C29.285 18.9146 28.6383 18.7013 27.7717 18.7013H25.2517V23.4613ZM45.7084 25.0013C45.7084 25.388 45.6817 25.748 45.6284 26.0813H37.1884C37.2551 27.0013 37.5817 27.7346 38.1684 28.2813C38.7551 28.8146 39.4817 29.0813 40.3484 29.0813C41.5751 29.0813 42.4417 28.568 42.9484 27.5413H45.4084C45.0751 28.5546 44.4684 29.388 43.5884 30.0413C42.7217 30.6813 41.6417 31.0013 40.3484 31.0013C39.2951 31.0013 38.3484 30.768 37.5084 30.3013C36.6817 29.8213 36.0284 29.1546 35.5484 28.3013C35.0817 27.4346 34.8484 26.4346 34.8484 25.3013C34.8484 24.168 35.0751 23.1746 35.5284 22.3213C35.9951 21.4546 36.6417 20.788 37.4684 20.3213C38.3084 19.8546 39.2684 19.6213 40.3484 19.6213C41.3884 19.6213 42.3151 19.848 43.1284 20.3013C43.9417 20.7546 44.5751 21.388 45.0284 22.2013C45.4817 23.0146 45.7084 23.948 45.7084 25.0013ZM43.3284 24.4413C43.3151 23.548 43.0151 22.8413 42.4284 22.3213C41.8551 21.8013 41.1284 21.5413 40.2484 21.5413C39.4484 21.5413 38.7617 21.8013 38.1884 22.3213C37.6284 22.8413 37.3017 23.548 37.2084 24.4413H43.3284ZM47.1921 25.2613C47.1921 24.1546 47.4188 23.1746 47.8721 22.3213C48.3388 21.468 48.9655 20.808 49.7521 20.3413C50.5521 19.8613 51.4388 19.6213 52.4121 19.6213C53.2655 19.6213 54.0188 19.7946 54.6721 20.1413C55.3388 20.488 55.8521 20.908 56.2121 21.4013V19.8013H58.5121V36.0613H56.2121V29.2213C55.8521 29.7146 55.3321 30.1346 54.6521 30.4813C53.9721 30.828 53.1988 31.0013 52.3321 31.0013C51.3855 31.0013 50.5188 30.7613 49.7321 30.2813C48.9588 29.788 48.3388 29.108 47.8721 28.2413C47.4188 27.3613 47.1921 26.368 47.1921 25.2613ZM56.2121 25.3013C56.2121 24.5413 56.0521 23.8813 55.7321 23.3213C55.4255 22.7613 55.0188 22.3346 54.5121 22.0413C54.0055 21.748 53.4588 21.6013 52.8721 21.6013C52.2855 21.6013 51.7388 21.748 51.2321 22.0413C50.7255 22.3213 50.3121 22.7413 49.9921 23.3013C49.6855 23.848 49.5321 24.5013 49.5321 25.2613C49.5321 26.0213 49.6855 26.688 49.9921 27.2613C50.3121 27.8346 50.7255 28.2746 51.2321 28.5813C51.7521 28.8746 52.2988 29.0213 52.8721 29.0213C53.4588 29.0213 54.0055 28.8746 54.5121 28.5813C55.0188 28.288 55.4255 27.8613 55.7321 27.3013C56.0521 26.728 56.2121 26.0613 56.2121 25.3013ZM71.4868 19.8013V30.8213H69.2068V29.5213C68.8468 29.9746 68.3735 30.3346 67.7868 30.6013C67.2135 30.8546 66.6002 30.9813 65.9468 30.9813C65.0802 30.9813 64.3002 30.8013 63.6068 30.4413C62.9268 30.0813 62.3868 29.548 61.9868 28.8413C61.6002 28.1346 61.4068 27.2813 61.4068 26.2813V19.8013H63.6668V25.9413C63.6668 26.928 63.9135 27.688 64.4068 28.2213C64.9002 28.7413 65.5735 29.0013 66.4268 29.0013C67.2802 29.0013 67.9535 28.7413 68.4468 28.2213C68.9535 27.688 69.2068 26.928 69.2068 25.9413V19.8013H71.4868ZM75.6551 18.3413C75.2418 18.3413 74.8951 18.2013 74.6151 17.9213C74.3351 17.6413 74.1951 17.2946 74.1951 16.8813C74.1951 16.468 74.3351 16.1213 74.6151 15.8413C74.8951 15.5613 75.2418 15.4213 75.6551 15.4213C76.0551 15.4213 76.3951 15.5613 76.6751 15.8413C76.9551 16.1213 77.0951 16.468 77.0951 16.8813C77.0951 17.2946 76.9551 17.6413 76.6751 17.9213C76.3951 18.2013 76.0551 18.3413 75.6551 18.3413ZM76.7751 19.8013V30.8213H74.4951V19.8013H76.7751ZM82.0486 21.7213C82.3819 21.0546 82.8219 20.5413 83.3686 20.1813C83.9286 19.808 84.5886 19.6213 85.3486 19.6213V21.9813H84.7686C83.8752 21.9813 83.1952 22.208 82.7286 22.6613C82.2752 23.1146 82.0486 23.9013 82.0486 25.0213V30.8213H79.7686V19.8013H82.0486V21.7213ZM97.5443 25.0013C97.5443 25.388 97.5177 25.748 97.4643 26.0813H89.0243C89.091 27.0013 89.4177 27.7346 90.0043 28.2813C90.591 28.8146 91.3177 29.0813 92.1843 29.0813C93.411 29.0813 94.2777 28.568 94.7843 27.5413H97.2443C96.911 28.5546 96.3043 29.388 95.4243 30.0413C94.5577 30.6813 93.4777 31.0013 92.1843 31.0013C91.131 31.0013 90.1843 30.768 89.3443 30.3013C88.5177 29.8213 87.8643 29.1546 87.3843 28.3013C86.9177 27.4346 86.6843 26.4346 86.6843 25.3013C86.6843 24.168 86.911 23.1746 87.3643 22.3213C87.831 21.4546 88.4777 20.788 89.3043 20.3213C90.1443 19.8546 91.1043 19.6213 92.1843 19.6213C93.2243 19.6213 94.151 19.848 94.9643 20.3013C95.7777 20.7546 96.411 21.388 96.8643 22.2013C97.3177 23.0146 97.5443 23.948 97.5443 25.0013ZM95.1643 24.4413C95.151 23.548 94.851 22.8413 94.2643 22.3213C93.691 21.8013 92.9643 21.5413 92.0843 21.5413C91.2843 21.5413 90.5977 21.8013 90.0243 22.3213C89.4643 22.8413 89.1377 23.548 89.0443 24.4413H95.1643ZM113.128 19.6213C113.995 19.6213 114.768 19.8013 115.448 20.1613C116.141 20.5213 116.681 21.0546 117.068 21.7613C117.468 22.468 117.668 23.3213 117.668 24.3213V30.8213H115.408V24.6613C115.408 23.6746 115.161 22.9213 114.668 22.4013C114.175 21.868 113.501 21.6013 112.648 21.6013C111.795 21.6013 111.115 21.868 110.608 22.4013C110.115 22.9213 109.868 23.6746 109.868 24.6613V30.8213H107.608V24.6613C107.608 23.6746 107.361 22.9213 106.868 22.4013C106.375 21.868 105.701 21.6013 104.848 21.6013C103.995 21.6013 103.315 21.868 102.808 22.4013C102.315 22.9213 102.068 23.6746 102.068 24.6613V30.8213H99.7881V19.8013H102.068V21.0613C102.441 20.608 102.915 20.2546 103.488 20.0013C104.061 19.748 104.675 19.6213 105.328 19.6213C106.208 19.6213 106.995 19.808 107.688 20.1813C108.381 20.5546 108.915 21.0946 109.288 21.8013C109.621 21.1346 110.141 20.608 110.848 20.2213C111.555 19.8213 112.315 19.6213 113.128 19.6213ZM130.669 25.0013C130.669 25.388 130.643 25.748 130.589 26.0813H122.149C122.216 27.0013 122.543 27.7346 123.129 28.2813C123.716 28.8146 124.443 29.0813 125.309 29.0813C126.536 29.0813 127.403 28.568 127.909 27.5413H130.369C130.036 28.5546 129.429 29.388 128.549 30.0413C127.683 30.6813 126.603 31.0013 125.309 31.0013C124.256 31.0013 123.309 30.768 122.469 30.3013C121.643 29.8213 120.989 29.1546 120.509 28.3013C120.043 27.4346 119.809 26.4346 119.809 25.3013C119.809 24.168 120.036 23.1746 120.489 22.3213C120.956 21.4546 121.603 20.788 122.429 20.3213C123.269 19.8546 124.229 19.6213 125.309 19.6213C126.349 19.6213 127.276 19.848 128.089 20.3013C128.903 20.7546 129.536 21.388 129.989 22.2013C130.443 23.0146 130.669 23.948 130.669 25.0013ZM128.289 24.4413C128.276 23.548 127.976 22.8413 127.389 22.3213C126.816 21.8013 126.089 21.5413 125.209 21.5413C124.409 21.5413 123.723 21.8013 123.149 22.3213C122.589 22.8413 122.263 23.548 122.169 24.4413H128.289ZM138.473 19.6213C139.34 19.6213 140.113 19.8013 140.793 20.1613C141.486 20.5213 142.026 21.0546 142.413 21.7613C142.8 22.468 142.993 23.3213 142.993 24.3213V30.8213H140.733V24.6613C140.733 23.6746 140.486 22.9213 139.993 22.4013C139.5 21.868 138.826 21.6013 137.973 21.6013C137.12 21.6013 136.44 21.868 135.933 22.4013C135.44 22.9213 135.193 23.6746 135.193 24.6613V30.8213H132.913V19.8013H135.193V21.0613C135.566 20.608 136.04 20.2546 136.613 20.0013C137.2 19.748 137.82 19.6213 138.473 19.6213ZM148.561 21.6613V27.7613C148.561 28.1746 148.655 28.4746 148.841 28.6613C149.041 28.8346 149.375 28.9213 149.841 28.9213H151.241V30.8213H149.441C148.415 30.8213 147.628 30.5813 147.081 30.1013C146.535 29.6213 146.261 28.8413 146.261 27.7613V21.6613H144.961V19.8013H146.261V17.0613H148.561V19.8013H151.241V21.6613H148.561ZM158.739 18.7013V16.6213H162.899V30.8213H160.599V18.7013H158.739Z" fill="white"/>
<path d="M32.8117 64.7918V77.3018H30.7597V71.8298H24.8737V77.3018H22.8217V64.7918H24.8737V70.1558H30.7597V64.7918H32.8117ZM39.8151 77.4638C38.8791 77.4638 38.0331 77.2538 37.2771 76.8338C36.5211 76.4018 35.9271 75.8018 35.4951 75.0338C35.0631 74.2538 34.8471 73.3538 34.8471 72.3338C34.8471 71.3258 35.0691 70.4318 35.5131 69.6518C35.9571 68.8718 36.5631 68.2718 37.3311 67.8518C38.0991 67.4318 38.9571 67.2218 39.9051 67.2218C40.8531 67.2218 41.7111 67.4318 42.4791 67.8518C43.2471 68.2718 43.8531 68.8718 44.2971 69.6518C44.7411 70.4318 44.9631 71.3258 44.9631 72.3338C44.9631 73.3418 44.7351 74.2358 44.2791 75.0158C43.8231 75.7958 43.1991 76.4018 42.4071 76.8338C41.6271 77.2538 40.7631 77.4638 39.8151 77.4638ZM39.8151 75.6818C40.3431 75.6818 40.8351 75.5558 41.2911 75.3038C41.7591 75.0518 42.1371 74.6738 42.4251 74.1698C42.7131 73.6658 42.8571 73.0538 42.8571 72.3338C42.8571 71.6138 42.7191 71.0078 42.4431 70.5158C42.1671 70.0118 41.8011 69.6338 41.3451 69.3818C40.8891 69.1298 40.3971 69.0038 39.8691 69.0038C39.3411 69.0038 38.8491 69.1298 38.3931 69.3818C37.9491 69.6338 37.5951 70.0118 37.3311 70.5158C37.0671 71.0078 36.9351 71.6138 36.9351 72.3338C36.9351 73.4018 37.2051 74.2298 37.7451 74.8178C38.2971 75.3938 38.9871 75.6818 39.8151 75.6818ZM50.5916 77.4638C49.8116 77.4638 49.1096 77.3258 48.4856 77.0498C47.8736 76.7618 47.3876 76.3778 47.0276 75.8978C46.6676 75.4058 46.4756 74.8598 46.4516 74.2598H48.5756C48.6116 74.6798 48.8096 75.0338 49.1696 75.3218C49.5416 75.5978 50.0036 75.7358 50.5556 75.7358C51.1316 75.7358 51.5756 75.6278 51.8876 75.4118C52.2116 75.1838 52.3736 74.8958 52.3736 74.5478C52.3736 74.1758 52.1936 73.8998 51.8336 73.7198C51.4856 73.5398 50.9276 73.3418 50.1596 73.1258C49.4156 72.9218 48.8096 72.7238 48.3416 72.5318C47.8736 72.3398 47.4656 72.0458 47.1176 71.6498C46.7816 71.2538 46.6136 70.7318 46.6136 70.0838C46.6136 69.5558 46.7696 69.0758 47.0816 68.6438C47.3936 68.1998 47.8376 67.8518 48.4136 67.5998C49.0016 67.3478 49.6736 67.2218 50.4296 67.2218C51.5576 67.2218 52.4636 67.5098 53.1476 68.0858C53.8436 68.6498 54.2156 69.4238 54.2636 70.4078H52.2116C52.1756 69.9638 51.9956 69.6098 51.6716 69.3458C51.3476 69.0818 50.9096 68.9498 50.3576 68.9498C49.8176 68.9498 49.4036 69.0518 49.1156 69.2558C48.8276 69.4598 48.6836 69.7298 48.6836 70.0658C48.6836 70.3298 48.7796 70.5518 48.9716 70.7318C49.1636 70.9118 49.3976 71.0558 49.6736 71.1638C49.9496 71.2598 50.3576 71.3858 50.8976 71.5418C51.6176 71.7338 52.2056 71.9318 52.6616 72.1358C53.1296 72.3278 53.5316 72.6158 53.8676 72.9998C54.2036 73.3838 54.3776 73.8938 54.3896 74.5298C54.3896 75.0938 54.2336 75.5978 53.9216 76.0418C53.6096 76.4858 53.1656 76.8338 52.5896 77.0858C52.0256 77.3378 51.3596 77.4638 50.5916 77.4638ZM59.0008 69.0578V74.5478C59.0008 74.9198 59.0848 75.1898 59.2528 75.3578C59.4328 75.5138 59.7328 75.5918 60.1528 75.5918H61.4128V77.3018H59.7928C58.8688 77.3018 58.1608 77.0858 57.6688 76.6538C57.1768 76.2218 56.9308 75.5198 56.9308 74.5478V69.0578H55.7608V67.3838H56.9308V64.9178H59.0008V67.3838H61.4128V69.0578H59.0008ZM66.9041 77.4638C66.1241 77.4638 65.4221 77.3258 64.7981 77.0498C64.1861 76.7618 63.7001 76.3778 63.3401 75.8978C62.9801 75.4058 62.7881 74.8598 62.7641 74.2598H64.8881C64.9241 74.6798 65.1221 75.0338 65.4821 75.3218C65.8541 75.5978 66.3161 75.7358 66.8681 75.7358C67.4441 75.7358 67.8881 75.6278 68.2001 75.4118C68.5241 75.1838 68.6861 74.8958 68.6861 74.5478C68.6861 74.1758 68.5061 73.8998 68.1461 73.7198C67.7981 73.5398 67.2401 73.3418 66.4721 73.1258C65.7281 72.9218 65.1221 72.7238 64.6541 72.5318C64.1861 72.3398 63.7781 72.0458 63.4301 71.6498C63.0941 71.2538 62.9261 70.7318 62.9261 70.0838C62.9261 69.5558 63.0821 69.0758 63.3941 68.6438C63.7061 68.1998 64.1501 67.8518 64.7261 67.5998C65.3141 67.3478 65.9861 67.2218 66.7421 67.2218C67.8701 67.2218 68.7761 67.5098 69.4601 68.0858C70.1561 68.6498 70.5281 69.4238 70.5761 70.4078H68.5241C68.4881 69.9638 68.3081 69.6098 67.9841 69.3458C67.6601 69.0818 67.2221 68.9498 66.6701 68.9498C66.1301 68.9498 65.7161 69.0518 65.4281 69.2558C65.1401 69.4598 64.9961 69.7298 64.9961 70.0658C64.9961 70.3298 65.0921 70.5518 65.2841 70.7318C65.4761 70.9118 65.7101 71.0558 65.9861 71.1638C66.2621 71.2598 66.6701 71.3858 67.2101 71.5418C67.9301 71.7338 68.5181 71.9318 68.9741 72.1358C69.4421 72.3278 69.8441 72.6158 70.1801 72.9998C70.5161 73.3838 70.6901 73.8938 70.7021 74.5298C70.7021 75.0938 70.5461 75.5978 70.2341 76.0418C69.9221 76.4858 69.4781 76.8338 68.9021 77.0858C68.3381 77.3378 67.6721 77.4638 66.9041 77.4638ZM82.5991 67.2218C83.3791 67.2218 84.0751 67.3838 84.6871 67.7078C85.3111 68.0318 85.7971 68.5118 86.1451 69.1478C86.4931 69.7838 86.6671 70.5518 86.6671 71.4518V77.3018H84.6331V71.7578C84.6331 70.8698 84.4111 70.1918 83.9671 69.7238C83.5231 69.2438 82.9171 69.0038 82.1491 69.0038C81.3811 69.0038 80.7691 69.2438 80.3131 69.7238C79.8691 70.1918 79.6471 70.8698 79.6471 71.7578V77.3018H77.5951V67.3838H79.6471V68.5178C79.9831 68.1098 80.4091 67.7918 80.9251 67.5638C81.4531 67.3358 82.0111 67.2218 82.5991 67.2218ZM98.3746 72.0998C98.3746 72.4718 98.3506 72.8078 98.3026 73.1078H90.7246C90.7846 73.8998 91.0786 74.5358 91.6066 75.0158C92.1346 75.4958 92.7826 75.7358 93.5506 75.7358C94.6546 75.7358 95.4346 75.2738 95.8906 74.3498H98.1046C97.8046 75.2618 97.2586 76.0118 96.4666 76.5998C95.6866 77.1758 94.7146 77.4638 93.5506 77.4638C92.6026 77.4638 91.7506 77.2538 90.9946 76.8338C90.2506 76.4018 89.6626 75.8018 89.2306 75.0338C88.8106 74.2538 88.6006 73.3538 88.6006 72.3338C88.6006 71.3138 88.8046 70.4198 89.2126 69.6518C89.6326 68.8718 90.2146 68.2718 90.9586 67.8518C91.7146 67.4318 92.5786 67.2218 93.5506 67.2218C94.4866 67.2218 95.3206 67.4258 96.0526 67.8338C96.7846 68.2418 97.3546 68.8178 97.7626 69.5618C98.1706 70.2938 98.3746 71.1398 98.3746 72.0998ZM96.2326 71.4518C96.2206 70.6958 95.9506 70.0898 95.4226 69.6338C94.8946 69.1778 94.2406 68.9498 93.4606 68.9498C92.7526 68.9498 92.1466 69.1778 91.6426 69.6338C91.1386 70.0778 90.8386 70.6838 90.7426 71.4518H96.2326ZM109.484 72.0998C109.484 72.4718 109.46 72.8078 109.412 73.1078H101.834C101.894 73.8998 102.188 74.5358 102.716 75.0158C103.244 75.4958 103.892 75.7358 104.66 75.7358C105.764 75.7358 106.544 75.2738 107 74.3498H109.214C108.914 75.2618 108.368 76.0118 107.576 76.5998C106.796 77.1758 105.824 77.4638 104.66 77.4638C103.712 77.4638 102.86 77.2538 102.104 76.8338C101.36 76.4018 100.772 75.8018 100.34 75.0338C99.9199 74.2538 99.7099 73.3538 99.7099 72.3338C99.7099 71.3138 99.9139 70.4198 100.322 69.6518C100.742 68.8718 101.324 68.2718 102.068 67.8518C102.824 67.4318 103.688 67.2218 104.66 67.2218C105.596 67.2218 106.43 67.4258 107.162 67.8338C107.894 68.2418 108.464 68.8178 108.872 69.5618C109.28 70.2938 109.484 71.1398 109.484 72.0998ZM107.342 71.4518C107.33 70.6958 107.06 70.0898 106.532 69.6338C106.004 69.1778 105.35 68.9498 104.57 68.9498C103.862 68.9498 103.256 69.1778 102.752 69.6338C102.248 70.0778 101.948 70.6838 101.852 71.4518H107.342ZM110.819 72.2978C110.819 71.3018 111.023 70.4198 111.431 69.6518C111.851 68.8838 112.415 68.2898 113.123 67.8698C113.843 67.4378 114.641 67.2218 115.517 67.2218C116.165 67.2218 116.801 67.3658 117.425 67.6538C118.061 67.9298 118.565 68.3018 118.937 68.7698V63.9818H121.007V77.3018H118.937V75.8078C118.601 76.2878 118.133 76.6838 117.533 76.9958C116.945 77.3078 116.267 77.4638 115.499 77.4638C114.635 77.4638 113.843 77.2478 113.123 76.8158C112.415 76.3718 111.851 75.7598 111.431 74.9798C111.023 74.1878 110.819 73.2938 110.819 72.2978ZM118.937 72.3338C118.937 71.6498 118.793 71.0558 118.505 70.5518C118.229 70.0478 117.863 69.6638 117.407 69.3998C116.951 69.1358 116.459 69.0038 115.931 69.0038C115.403 69.0038 114.911 69.1358 114.455 69.3998C113.999 69.6518 113.627 70.0298 113.339 70.5338C113.063 71.0258 112.925 71.6138 112.925 72.2978C112.925 72.9818 113.063 73.5818 113.339 74.0978C113.627 74.6138 113.999 75.0098 114.455 75.2858C114.923 75.5498 115.415 75.6818 115.931 75.6818C116.459 75.6818 116.951 75.5498 117.407 75.2858C117.863 75.0218 118.229 74.6378 118.505 74.1338C118.793 73.6178 118.937 73.0178 118.937 72.3338ZM130.772 69.0578V74.5478C130.772 74.9198 130.856 75.1898 131.024 75.3578C131.204 75.5138 131.504 75.5918 131.924 75.5918H133.184V77.3018H131.564C130.64 77.3018 129.932 77.0858 129.44 76.6538C128.948 76.2218 128.702 75.5198 128.702 74.5478V69.0578H127.532V67.3838H128.702V64.9178H130.772V67.3838H133.184V69.0578H130.772ZM139.378 77.4638C138.442 77.4638 137.596 77.2538 136.84 76.8338C136.084 76.4018 135.49 75.8018 135.058 75.0338C134.626 74.2538 134.41 73.3538 134.41 72.3338C134.41 71.3258 134.632 70.4318 135.076 69.6518C135.52 68.8718 136.126 68.2718 136.894 67.8518C137.662 67.4318 138.52 67.2218 139.468 67.2218C140.416 67.2218 141.274 67.4318 142.042 67.8518C142.81 68.2718 143.416 68.8718 143.86 69.6518C144.304 70.4318 144.526 71.3258 144.526 72.3338C144.526 73.3418 144.298 74.2358 143.842 75.0158C143.386 75.7958 142.762 76.4018 141.97 76.8338C141.19 77.2538 140.326 77.4638 139.378 77.4638ZM139.378 75.6818C139.906 75.6818 140.398 75.5558 140.854 75.3038C141.322 75.0518 141.7 74.6738 141.988 74.1698C142.276 73.6658 142.42 73.0538 142.42 72.3338C142.42 71.6138 142.282 71.0078 142.006 70.5158C141.73 70.0118 141.364 69.6338 140.908 69.3818C140.452 69.1298 139.96 69.0038 139.432 69.0038C138.904 69.0038 138.412 69.1298 137.956 69.3818C137.512 69.6338 137.158 70.0118 136.894 70.5158C136.63 71.0078 136.498 71.6138 136.498 72.3338C136.498 73.4018 136.768 74.2298 137.308 74.8178C137.86 75.3938 138.55 75.6818 139.378 75.6818ZM160.32 72.0998C160.32 72.4718 160.296 72.8078 160.248 73.1078H152.67C152.73 73.8998 153.024 74.5358 153.552 75.0158C154.08 75.4958 154.728 75.7358 155.496 75.7358C156.6 75.7358 157.38 75.2738 157.836 74.3498H160.05C159.75 75.2618 159.204 76.0118 158.412 76.5998C157.632 77.1758 156.66 77.4638 155.496 77.4638C154.548 77.4638 153.696 77.2538 152.94 76.8338C152.196 76.4018 151.608 75.8018 151.176 75.0338C150.756 74.2538 150.546 73.3538 150.546 72.3338C150.546 71.3138 150.75 70.4198 151.158 69.6518C151.578 68.8718 152.16 68.2718 152.904 67.8518C153.66 67.4318 154.524 67.2218 155.496 67.2218C156.432 67.2218 157.266 67.4258 157.998 67.8338C158.73 68.2418 159.3 68.8178 159.708 69.5618C160.116 70.2938 160.32 71.1398 160.32 72.0998ZM158.178 71.4518C158.166 70.6958 157.896 70.0898 157.368 69.6338C156.84 69.1778 156.186 68.9498 155.406 68.9498C154.698 68.9498 154.092 69.1778 153.588 69.6338C153.084 70.0778 152.784 70.6838 152.688 71.4518H158.178ZM161.655 72.2978C161.655 71.3018 161.859 70.4198 162.267 69.6518C162.687 68.8838 163.251 68.2898 163.959 67.8698C164.679 67.4378 165.471 67.2218 166.335 67.2218C167.115 67.2218 167.793 67.3778 168.369 67.6898C168.957 67.9898 169.425 68.3678 169.773 68.8238V67.3838H171.843V77.3018H169.773V75.8258C169.425 76.2938 168.951 76.6838 168.351 76.9958C167.751 77.3078 167.067 77.4638 166.299 77.4638C165.447 77.4638 164.667 77.2478 163.959 76.8158C163.251 76.3718 162.687 75.7598 162.267 74.9798C161.859 74.1878 161.655 73.2938 161.655 72.2978ZM169.773 72.3338C169.773 71.6498 169.629 71.0558 169.341 70.5518C169.065 70.0478 168.699 69.6638 168.243 69.3998C167.787 69.1358 167.295 69.0038 166.767 69.0038C166.239 69.0038 165.747 69.1358 165.291 69.3998C164.835 69.6518 164.463 70.0298 164.175 70.5338C163.899 71.0258 163.761 71.6138 163.761 72.2978C163.761 72.9818 163.899 73.5818 164.175 74.0978C164.463 74.6138 164.835 75.0098 165.291 75.2858C165.759 75.5498 166.251 75.6818 166.767 75.6818C167.295 75.6818 167.787 75.5498 168.243 75.2858C168.699 75.0218 169.065 74.6378 169.341 74.1338C169.629 73.6178 169.773 73.0178 169.773 72.3338ZM176.59 68.8238C176.89 68.3198 177.286 67.9298 177.778 67.6538C178.282 67.3658 178.876 67.2218 179.56 67.2218V69.3458H179.038C178.234 69.3458 177.622 69.5498 177.202 69.9578C176.794 70.3658 176.59 71.0738 176.59 72.0818V77.3018H174.538V67.3838H176.59V68.8238ZM186.451 67.2218C187.231 67.2218 187.927 67.3838 188.539 67.7078C189.163 68.0318 189.649 68.5118 189.997 69.1478C190.345 69.7838 190.519 70.5518 190.519 71.4518V77.3018H188.485V71.7578C188.485 70.8698 188.263 70.1918 187.819 69.7238C187.375 69.2438 186.769 69.0038 186.001 69.0038C185.233 69.0038 184.621 69.2438 184.165 69.7238C183.721 70.1918 183.499 70.8698 183.499 71.7578V77.3018H181.447V67.3838H183.499V68.5178C183.835 68.1098 184.261 67.7918 184.777 67.5638C185.305 67.3358 185.863 67.2218 186.451 67.2218ZM197.128 72.2978C197.128 71.3018 197.332 70.4198 197.74 69.6518C198.16 68.8838 198.724 68.2898 199.432 67.8698C200.152 67.4378 200.944 67.2218 201.808 67.2218C202.588 67.2218 203.266 67.3778 203.842 67.6898C204.43 67.9898 204.898 68.3678 205.246 68.8238V67.3838H207.316V77.3018H205.246V75.8258C204.898 76.2938 204.424 76.6838 203.824 76.9958C203.224 77.3078 202.54 77.4638 201.772 77.4638C200.92 77.4638 200.14 77.2478 199.432 76.8158C198.724 76.3718 198.16 75.7598 197.74 74.9798C197.332 74.1878 197.128 73.2938 197.128 72.2978ZM205.246 72.3338C205.246 71.6498 205.102 71.0558 204.814 70.5518C204.538 70.0478 204.172 69.6638 203.716 69.3998C203.26 69.1358 202.768 69.0038 202.24 69.0038C201.712 69.0038 201.22 69.1358 200.764 69.3998C200.308 69.6518 199.936 70.0298 199.648 70.5338C199.372 71.0258 199.234 71.6138 199.234 72.2978C199.234 72.9818 199.372 73.5818 199.648 74.0978C199.936 74.6138 200.308 75.0098 200.764 75.2858C201.232 75.5498 201.724 75.6818 202.24 75.6818C202.768 75.6818 203.26 75.5498 203.716 75.2858C204.172 75.0218 204.538 74.6378 204.814 74.1338C205.102 73.6178 205.246 73.0178 205.246 72.3338ZM226.693 67.2218C227.473 67.2218 228.169 67.3838 228.781 67.7078C229.405 68.0318 229.891 68.5118 230.239 69.1478C230.599 69.7838 230.779 70.5518 230.779 71.4518V77.3018H228.745V71.7578C228.745 70.8698 228.523 70.1918 228.079 69.7238C227.635 69.2438 227.029 69.0038 226.261 69.0038C225.493 69.0038 224.881 69.2438 224.425 69.7238C223.981 70.1918 223.759 70.8698 223.759 71.7578V77.3018H221.725V71.7578C221.725 70.8698 221.503 70.1918 221.059 69.7238C220.615 69.2438 220.009 69.0038 219.241 69.0038C218.473 69.0038 217.861 69.2438 217.405 69.7238C216.961 70.1918 216.739 70.8698 216.739 71.7578V77.3018H214.687V67.3838H216.739V68.5178C217.075 68.1098 217.501 67.7918 218.017 67.5638C218.533 67.3358 219.085 67.2218 219.673 67.2218C220.465 67.2218 221.173 67.3898 221.797 67.7258C222.421 68.0618 222.901 68.5478 223.237 69.1838C223.537 68.5838 224.005 68.1098 224.641 67.7618C225.277 67.4018 225.961 67.2218 226.693 67.2218ZM234.434 66.0698C234.062 66.0698 233.75 65.9438 233.498 65.6918C233.246 65.4398 233.12 65.1278 233.12 64.7558C233.12 64.3838 233.246 64.0718 233.498 63.8198C233.75 63.5678 234.062 63.4418 234.434 63.4418C234.794 63.4418 235.1 63.5678 235.352 63.8198C235.604 64.0718 235.73 64.3838 235.73 64.7558C235.73 65.1278 235.604 65.4398 235.352 65.6918C235.1 65.9438 234.794 66.0698 234.434 66.0698ZM235.442 67.3838V77.3018H233.39V67.3838H235.442ZM243.14 67.2218C243.92 67.2218 244.616 67.3838 245.228 67.7078C245.852 68.0318 246.338 68.5118 246.686 69.1478C247.034 69.7838 247.208 70.5518 247.208 71.4518V77.3018H245.174V71.7578C245.174 70.8698 244.952 70.1918 244.508 69.7238C244.064 69.2438 243.458 69.0038 242.69 69.0038C241.922 69.0038 241.31 69.2438 240.854 69.7238C240.41 70.1918 240.188 70.8698 240.188 71.7578V77.3018H238.136V67.3838H240.188V68.5178C240.524 68.1098 240.95 67.7918 241.466 67.5638C241.994 67.3358 242.552 67.2218 243.14 67.2218ZM250.87 66.0698C250.498 66.0698 250.186 65.9438 249.934 65.6918C249.682 65.4398 249.556 65.1278 249.556 64.7558C249.556 64.3838 249.682 64.0718 249.934 63.8198C250.186 63.5678 250.498 63.4418 250.87 63.4418C251.23 63.4418 251.536 63.5678 251.788 63.8198C252.04 64.0718 252.166 64.3838 252.166 64.7558C252.166 65.1278 252.04 65.4398 251.788 65.6918C251.536 65.9438 251.23 66.0698 250.87 66.0698ZM251.878 67.3838V77.3018H249.826V67.3838H251.878ZM266.578 67.2218C267.358 67.2218 268.054 67.3838 268.666 67.7078C269.29 68.0318 269.776 68.5118 270.124 69.1478C270.484 69.7838 270.664 70.5518 270.664 71.4518V77.3018H268.63V71.7578C268.63 70.8698 268.408 70.1918 267.964 69.7238C267.52 69.2438 266.914 69.0038 266.146 69.0038C265.378 69.0038 264.766 69.2438 264.31 69.7238C263.866 70.1918 263.644 70.8698 263.644 71.7578V77.3018H261.61V71.7578C261.61 70.8698 261.388 70.1918 260.944 69.7238C260.5 69.2438 259.894 69.0038 259.126 69.0038C258.358 69.0038 257.746 69.2438 257.29 69.7238C256.846 70.1918 256.624 70.8698 256.624 71.7578V77.3018H254.572V67.3838H256.624V68.5178C256.96 68.1098 257.386 67.7918 257.902 67.5638C258.418 67.3358 258.97 67.2218 259.558 67.2218C260.35 67.2218 261.058 67.3898 261.682 67.7258C262.306 68.0618 262.786 68.5478 263.122 69.1838C263.422 68.5838 263.89 68.1098 264.526 67.7618C265.162 67.4018 265.846 67.2218 266.578 67.2218ZM282.257 67.3838V77.3018H280.205V76.1318C279.881 76.5398 279.455 76.8638 278.927 77.1038C278.411 77.3318 277.859 77.4458 277.271 77.4458C276.491 77.4458 275.789 77.2838 275.165 76.9598C274.553 76.6358 274.067 76.1558 273.707 75.5198C273.359 74.8838 273.185 74.1158 273.185 73.2158V67.3838H275.219V72.9098C275.219 73.7978 275.441 74.4818 275.885 74.9618C276.329 75.4298 276.935 75.6638 277.703 75.6638C278.471 75.6638 279.077 75.4298 279.521 74.9618C279.977 74.4818 280.205 73.7978 280.205 72.9098V67.3838H282.257ZM296.97 67.2218C297.75 67.2218 298.446 67.3838 299.058 67.7078C299.682 68.0318 300.168 68.5118 300.516 69.1478C300.876 69.7838 301.056 70.5518 301.056 71.4518V77.3018H299.022V71.7578C299.022 70.8698 298.8 70.1918 298.356 69.7238C297.912 69.2438 297.306 69.0038 296.538 69.0038C295.77 69.0038 295.158 69.2438 294.702 69.7238C294.258 70.1918 294.036 70.8698 294.036 71.7578V77.3018H292.002V71.7578C292.002 70.8698 291.78 70.1918 291.336 69.7238C290.892 69.2438 290.286 69.0038 289.518 69.0038C288.75 69.0038 288.138 69.2438 287.682 69.7238C287.238 70.1918 287.016 70.8698 287.016 71.7578V77.3018H284.964V67.3838H287.016V68.5178C287.352 68.1098 287.778 67.7918 288.294 67.5638C288.81 67.3358 289.362 67.2218 289.95 67.2218C290.742 67.2218 291.45 67.3898 292.074 67.7258C292.698 68.0618 293.178 68.5478 293.514 69.1838C293.814 68.5838 294.282 68.1098 294.918 67.7618C295.554 67.4018 296.238 67.2218 296.97 67.2218ZM312.645 77.4638C311.709 77.4638 310.863 77.2538 310.107 76.8338C309.351 76.4018 308.757 75.8018 308.325 75.0338C307.893 74.2538 307.677 73.3538 307.677 72.3338C307.677 71.3258 307.899 70.4318 308.343 69.6518C308.787 68.8718 309.393 68.2718 310.161 67.8518C310.929 67.4318 311.787 67.2218 312.735 67.2218C313.683 67.2218 314.541 67.4318 315.309 67.8518C316.077 68.2718 316.683 68.8718 317.127 69.6518C317.571 70.4318 317.793 71.3258 317.793 72.3338C317.793 73.3418 317.565 74.2358 317.109 75.0158C316.653 75.7958 316.029 76.4018 315.237 76.8338C314.457 77.2538 313.593 77.4638 312.645 77.4638ZM312.645 75.6818C313.173 75.6818 313.665 75.5558 314.121 75.3038C314.589 75.0518 314.967 74.6738 315.255 74.1698C315.543 73.6658 315.687 73.0538 315.687 72.3338C315.687 71.6138 315.549 71.0078 315.273 70.5158C314.997 70.0118 314.631 69.6338 314.175 69.3818C313.719 69.1298 313.227 69.0038 312.699 69.0038C312.171 69.0038 311.679 69.1298 311.223 69.3818C310.779 69.6338 310.425 70.0118 310.161 70.5158C309.897 71.0078 309.765 71.6138 309.765 72.3338C309.765 73.4018 310.035 74.2298 310.575 74.8178C311.127 75.3938 311.817 75.6818 312.645 75.6818ZM323.98 69.0578H322.144V77.3018H320.074V69.0578H318.904V67.3838H320.074V66.6818C320.074 65.5418 320.374 64.7138 320.974 64.1978C321.586 63.6698 322.54 63.4058 323.836 63.4058V65.1158C323.212 65.1158 322.774 65.2358 322.522 65.4758C322.27 65.7038 322.144 66.1058 322.144 66.6818V67.3838H323.98V69.0578ZM338.916 73.7378C338.916 74.3378 338.766 74.9018 338.466 75.4298C338.178 75.9578 337.746 76.4018 337.17 76.7618C336.606 77.1218 335.934 77.3378 335.154 77.4098V78.8678H333.984V77.4098C332.856 77.3018 331.944 76.9478 331.248 76.3478C330.552 75.7478 330.204 74.9558 330.204 73.9718H332.4C332.436 74.4398 332.586 74.8298 332.85 75.1418C333.114 75.4418 333.492 75.6338 333.984 75.7178V71.7578C333.18 71.5538 332.526 71.3498 332.022 71.1458C331.518 70.9298 331.086 70.5938 330.726 70.1378C330.378 69.6818 330.204 69.0578 330.204 68.2658C330.204 67.2698 330.552 66.4478 331.248 65.7998C331.944 65.1398 332.856 64.7558 333.984 64.6478V63.1898H335.154V64.6478C336.21 64.7438 337.056 65.0798 337.692 65.6558C338.34 66.2198 338.706 66.9998 338.79 67.9958H336.594C336.558 67.6238 336.414 67.2938 336.162 67.0058C335.91 66.7058 335.574 66.5018 335.154 66.3938V70.2818C335.958 70.4738 336.612 70.6778 337.116 70.8938C337.62 71.0978 338.046 71.4278 338.394 71.8838C338.742 72.3278 338.916 72.9458 338.916 73.7378ZM332.292 68.1578C332.292 68.6498 332.436 69.0338 332.724 69.3098C333.024 69.5858 333.444 69.8078 333.984 69.9758V66.3398C333.468 66.3998 333.054 66.5858 332.742 66.8978C332.442 67.2098 332.292 67.6298 332.292 68.1578ZM335.154 75.7178C335.682 75.6338 336.096 75.4238 336.396 75.0878C336.696 74.7398 336.846 74.3258 336.846 73.8458C336.846 73.3658 336.696 72.9938 336.396 72.7298C336.108 72.4538 335.694 72.2318 335.154 72.0638V75.7178ZM341.641 66.0518V64.1798H345.385V77.3018H343.315V66.0518H341.641ZM348.204 70.5698C348.204 68.4938 348.552 66.8738 349.248 65.7098C349.956 64.5338 351.168 63.9458 352.884 63.9458C354.6 63.9458 355.806 64.5338 356.502 65.7098C357.21 66.8738 357.564 68.4938 357.564 70.5698C357.564 72.6698 357.21 74.3138 356.502 75.5018C355.806 76.6778 354.6 77.2658 352.884 77.2658C351.168 77.2658 349.956 76.6778 349.248 75.5018C348.552 74.3138 348.204 72.6698 348.204 70.5698ZM355.548 70.5698C355.548 69.5978 355.482 68.7758 355.35 68.1038C355.23 67.4318 354.978 66.8858 354.594 66.4658C354.21 66.0338 353.64 65.8178 352.884 65.8178C352.128 65.8178 351.558 66.0338 351.174 66.4658C350.79 66.8858 350.532 67.4318 350.4 68.1038C350.28 68.7758 350.22 69.5978 350.22 70.5698C350.22 71.5778 350.28 72.4238 350.4 73.1078C350.52 73.7918 350.772 74.3438 351.156 74.7638C351.552 75.1838 352.128 75.3938 352.884 75.3938C353.64 75.3938 354.21 75.1838 354.594 74.7638C354.99 74.3438 355.248 73.7918 355.368 73.1078C355.488 72.4238 355.548 71.5778 355.548 70.5698ZM366.665 60.3098L361.769 80.4518H359.753L364.631 60.3098H366.665ZM36.1417 91.3838L33.0637 101.302H30.9037L28.9057 93.9758L26.9077 101.302H24.7477L21.6517 91.3838H23.7397L25.8097 99.3578L27.9157 91.3838H30.0577L32.0737 99.3218L34.1257 91.3838H36.1417ZM46.7652 96.0998C46.7652 96.4718 46.7412 96.8078 46.6932 97.1078H39.1152C39.1752 97.8998 39.4692 98.5358 39.9972 99.0158C40.5252 99.4958 41.1732 99.7358 41.9412 99.7358C43.0452 99.7358 43.8252 99.2738 44.2812 98.3498H46.4952C46.1952 99.2618 45.6492 100.012 44.8572 100.6C44.0772 101.176 43.1052 101.464 41.9412 101.464C40.9932 101.464 40.1412 101.254 39.3852 100.834C38.6412 100.402 38.0532 99.8018 37.6212 99.0338C37.2012 98.2538 36.9912 97.3538 36.9912 96.3338C36.9912 95.3138 37.1952 94.4198 37.6032 93.6518C38.0232 92.8718 38.6052 92.2718 39.3492 91.8518C40.1052 91.4318 40.9692 91.2218 41.9412 91.2218C42.8772 91.2218 43.7112 91.4258 44.4432 91.8338C45.1752 92.2418 45.7452 92.8178 46.1532 93.5618C46.5612 94.2938 46.7652 95.1398 46.7652 96.0998ZM44.6232 95.4518C44.6112 94.6958 44.3412 94.0898 43.8132 93.6338C43.2852 93.1778 42.6312 92.9498 41.8512 92.9498C41.1432 92.9498 40.5372 93.1778 40.0332 93.6338C39.5292 94.0778 39.2292 94.6838 39.1332 95.4518H44.6232ZM57.8746 96.0998C57.8746 96.4718 57.8506 96.8078 57.8026 97.1078H50.2246C50.2846 97.8998 50.5786 98.5358 51.1066 99.0158C51.6346 99.4958 52.2826 99.7358 53.0506 99.7358C54.1546 99.7358 54.9346 99.2738 55.3906 98.3498H57.6046C57.3046 99.2618 56.7586 100.012 55.9666 100.6C55.1866 101.176 54.2146 101.464 53.0506 101.464C52.1026 101.464 51.2506 101.254 50.4946 100.834C49.7506 100.402 49.1626 99.8018 48.7306 99.0338C48.3106 98.2538 48.1006 97.3538 48.1006 96.3338C48.1006 95.3138 48.3046 94.4198 48.7126 93.6518C49.1326 92.8718 49.7146 92.2718 50.4586 91.8518C51.2146 91.4318 52.0786 91.2218 53.0506 91.2218C53.9866 91.2218 54.8206 91.4258 55.5526 91.8338C56.2846 92.2418 56.8546 92.8178 57.2626 93.5618C57.6706 94.2938 57.8746 95.1398 57.8746 96.0998ZM55.7326 95.4518C55.7206 94.6958 55.4506 94.0898 54.9226 93.6338C54.3946 93.1778 53.7406 92.9498 52.9606 92.9498C52.2526 92.9498 51.6466 93.1778 51.1426 93.6338C50.6386 94.0778 50.3386 94.6838 50.2426 95.4518H55.7326ZM63.8179 96.3518L68.3899 101.302H65.6179L61.9459 97.0358V101.302H59.8939V87.9818H61.9459V95.7218L65.5459 91.3838H68.3899L63.8179 96.3518ZM70.6887 101.428C70.3167 101.428 70.0047 101.302 69.7527 101.05C69.5007 100.798 69.3747 100.486 69.3747 100.114C69.3747 99.7418 69.5007 99.4298 69.7527 99.1778C70.0047 98.9258 70.3167 98.7998 70.6887 98.7998C71.0487 98.7998 71.3547 98.9258 71.6067 99.1778C71.8587 99.4298 71.9847 99.7418 71.9847 100.114C71.9847 100.486 71.8587 100.798 71.6067 101.05C71.3547 101.302 71.0487 101.428 70.6887 101.428ZM83.4143 104.65C82.2383 103.522 81.3323 102.088 80.6963 100.348C80.0723 98.6078 79.7603 96.7418 79.7603 94.7498C79.7603 92.7098 80.0963 90.7838 80.7683 88.9718C81.4523 87.1598 82.4543 85.6658 83.7743 84.4898H85.8983V84.6878C84.5183 85.9598 83.4803 87.4838 82.7843 89.2598C82.0883 91.0358 81.7403 92.8658 81.7403 94.7498C81.7403 96.5618 82.0643 98.3138 82.7123 100.006C83.3603 101.698 84.3023 103.18 85.5383 104.452V104.65H83.4143ZM96.1797 97.7378C96.1797 98.3378 96.0297 98.9018 95.7297 99.4298C95.4417 99.9578 95.0097 100.402 94.4337 100.762C93.8697 101.122 93.1977 101.338 92.4177 101.41V102.868H91.2477V101.41C90.1197 101.302 89.2077 100.948 88.5117 100.348C87.8157 99.7478 87.4677 98.9558 87.4677 97.9718H89.6637C89.6997 98.4398 89.8497 98.8298 90.1137 99.1418C90.3777 99.4418 90.7557 99.6338 91.2477 99.7178V95.7578C90.4437 95.5538 89.7897 95.3498 89.2857 95.1458C88.7817 94.9298 88.3497 94.5938 87.9897 94.1378C87.6417 93.6818 87.4677 93.0578 87.4677 92.2658C87.4677 91.2698 87.8157 90.4478 88.5117 89.7998C89.2077 89.1398 90.1197 88.7558 91.2477 88.6478V87.1898H92.4177V88.6478C93.4737 88.7438 94.3197 89.0798 94.9557 89.6558C95.6037 90.2198 95.9697 90.9998 96.0537 91.9958H93.8577C93.8217 91.6238 93.6777 91.2938 93.4257 91.0058C93.1737 90.7058 92.8377 90.5018 92.4177 90.3938V94.2818C93.2217 94.4738 93.8757 94.6778 94.3797 94.8938C94.8837 95.0978 95.3097 95.4278 95.6577 95.8838C96.0057 96.3278 96.1797 96.9458 96.1797 97.7378ZM89.5557 92.1578C89.5557 92.6498 89.6997 93.0338 89.9877 93.3098C90.2877 93.5858 90.7077 93.8078 91.2477 93.9758V90.3398C90.7317 90.3998 90.3177 90.5858 90.0057 90.8978C89.7057 91.2098 89.5557 91.6298 89.5557 92.1578ZM92.4177 99.7178C92.9457 99.6338 93.3597 99.4238 93.6597 99.0878C93.9597 98.7398 94.1097 98.3258 94.1097 97.8458C94.1097 97.3658 93.9597 96.9938 93.6597 96.7298C93.3717 96.4538 92.9577 96.2318 92.4177 96.0638V99.7178ZM98.9047 90.0518V88.1798H102.649V101.302H100.579V90.0518H98.9047ZM105.468 94.5698C105.468 92.4938 105.816 90.8738 106.512 89.7098C107.22 88.5338 108.432 87.9458 110.148 87.9458C111.864 87.9458 113.07 88.5338 113.766 89.7098C114.474 90.8738 114.828 92.4938 114.828 94.5698C114.828 96.6698 114.474 98.3138 113.766 99.5018C113.07 100.678 111.864 101.266 110.148 101.266C108.432 101.266 107.22 100.678 106.512 99.5018C105.816 98.3138 105.468 96.6698 105.468 94.5698ZM112.812 94.5698C112.812 93.5978 112.746 92.7758 112.614 92.1038C112.494 91.4318 112.242 90.8858 111.858 90.4658C111.474 90.0338 110.904 89.8178 110.148 89.8178C109.392 89.8178 108.822 90.0338 108.438 90.4658C108.054 90.8858 107.796 91.4318 107.664 92.1038C107.544 92.7758 107.484 93.5978 107.484 94.5698C107.484 95.5778 107.544 96.4238 107.664 97.1078C107.784 97.7918 108.036 98.3438 108.42 98.7638C108.816 99.1838 109.392 99.3938 110.148 99.3938C110.904 99.3938 111.474 99.1838 111.858 98.7638C112.254 98.3438 112.512 97.7918 112.632 97.1078C112.752 96.4238 112.812 95.5778 112.812 94.5698ZM132.349 91.8878V93.6158H122.773V91.8878H132.349ZM132.349 95.9738V97.7018H122.773V95.9738H132.349ZM148.606 89.7638L143.602 101.302H141.532L146.59 89.9798H139.93V88.2338H148.606V89.7638ZM150.362 94.5698C150.362 92.4938 150.71 90.8738 151.406 89.7098C152.114 88.5338 153.326 87.9458 155.042 87.9458C156.758 87.9458 157.964 88.5338 158.66 89.7098C159.368 90.8738 159.722 92.4938 159.722 94.5698C159.722 96.6698 159.368 98.3138 158.66 99.5018C157.964 100.678 156.758 101.266 155.042 101.266C153.326 101.266 152.114 100.678 151.406 99.5018C150.71 98.3138 150.362 96.6698 150.362 94.5698ZM157.706 94.5698C157.706 93.5978 157.64 92.7758 157.508 92.1038C157.388 91.4318 157.136 90.8858 156.752 90.4658C156.368 90.0338 155.798 89.8178 155.042 89.8178C154.286 89.8178 153.716 90.0338 153.332 90.4658C152.948 90.8858 152.69 91.4318 152.558 92.1038C152.438 92.7758 152.378 93.5978 152.378 94.5698C152.378 95.5778 152.438 96.4238 152.558 97.1078C152.678 97.7918 152.93 98.3438 153.314 98.7638C153.71 99.1838 154.286 99.3938 155.042 99.3938C155.798 99.3938 156.368 99.1838 156.752 98.7638C157.148 98.3438 157.406 97.7918 157.526 97.1078C157.646 96.4238 157.706 95.5778 157.706 94.5698ZM164.413 98.8358L162.235 103.804H160.903L162.181 98.8358H164.413ZM165.936 94.5698C165.936 92.4938 166.284 90.8738 166.98 89.7098C167.688 88.5338 168.9 87.9458 170.616 87.9458C172.332 87.9458 173.538 88.5338 174.234 89.7098C174.942 90.8738 175.296 92.4938 175.296 94.5698C175.296 96.6698 174.942 98.3138 174.234 99.5018C173.538 100.678 172.332 101.266 170.616 101.266C168.9 101.266 167.688 100.678 166.98 99.5018C166.284 98.3138 165.936 96.6698 165.936 94.5698ZM173.28 94.5698C173.28 93.5978 173.214 92.7758 173.082 92.1038C172.962 91.4318 172.71 90.8858 172.326 90.4658C171.942 90.0338 171.372 89.8178 170.616 89.8178C169.86 89.8178 169.29 90.0338 168.906 90.4658C168.522 90.8858 168.264 91.4318 168.132 92.1038C168.012 92.7758 167.952 93.5978 167.952 94.5698C167.952 95.5778 168.012 96.4238 168.132 97.1078C168.252 97.7918 168.504 98.3438 168.888 98.7638C169.284 99.1838 169.86 99.3938 170.616 99.3938C171.372 99.3938 171.942 99.1838 172.326 98.7638C172.722 98.3438 172.98 97.7918 173.1 97.1078C173.22 96.4238 173.28 95.5778 173.28 94.5698ZM177.468 94.5698C177.468 92.4938 177.816 90.8738 178.512 89.7098C179.22 88.5338 180.432 87.9458 182.148 87.9458C183.864 87.9458 185.07 88.5338 185.766 89.7098C186.474 90.8738 186.828 92.4938 186.828 94.5698C186.828 96.6698 186.474 98.3138 185.766 99.5018C185.07 100.678 183.864 101.266 182.148 101.266C180.432 101.266 179.22 100.678 178.512 99.5018C177.816 98.3138 177.468 96.6698 177.468 94.5698ZM184.812 94.5698C184.812 93.5978 184.746 92.7758 184.614 92.1038C184.494 91.4318 184.242 90.8858 183.858 90.4658C183.474 90.0338 182.904 89.8178 182.148 89.8178C181.392 89.8178 180.822 90.0338 180.438 90.4658C180.054 90.8858 179.796 91.4318 179.664 92.1038C179.544 92.7758 179.484 93.5978 179.484 94.5698C179.484 95.5778 179.544 96.4238 179.664 97.1078C179.784 97.7918 180.036 98.3438 180.42 98.7638C180.816 99.1838 181.392 99.3938 182.148 99.3938C182.904 99.3938 183.474 99.1838 183.858 98.7638C184.254 98.3438 184.512 97.7918 184.632 97.1078C184.752 96.4238 184.812 95.5778 184.812 94.5698ZM188.999 94.5698C188.999 92.4938 189.347 90.8738 190.043 89.7098C190.751 88.5338 191.963 87.9458 193.679 87.9458C195.395 87.9458 196.601 88.5338 197.297 89.7098C198.005 90.8738 198.359 92.4938 198.359 94.5698C198.359 96.6698 198.005 98.3138 197.297 99.5018C196.601 100.678 195.395 101.266 193.679 101.266C191.963 101.266 190.751 100.678 190.043 99.5018C189.347 98.3138 188.999 96.6698 188.999 94.5698ZM196.343 94.5698C196.343 93.5978 196.277 92.7758 196.145 92.1038C196.025 91.4318 195.773 90.8858 195.389 90.4658C195.005 90.0338 194.435 89.8178 193.679 89.8178C192.923 89.8178 192.353 90.0338 191.969 90.4658C191.585 90.8858 191.327 91.4318 191.195 92.1038C191.075 92.7758 191.015 93.5978 191.015 94.5698C191.015 95.5778 191.075 96.4238 191.195 97.1078C191.315 97.7918 191.567 98.3438 191.951 98.7638C192.347 99.1838 192.923 99.3938 193.679 99.3938C194.435 99.3938 195.005 99.1838 195.389 98.7638C195.785 98.3438 196.043 97.7918 196.163 97.1078C196.283 96.4238 196.343 95.5778 196.343 94.5698ZM204.792 96.2978C204.792 95.3018 204.996 94.4198 205.404 93.6518C205.824 92.8838 206.388 92.2898 207.096 91.8698C207.816 91.4378 208.614 91.2218 209.49 91.2218C210.138 91.2218 210.774 91.3658 211.398 91.6538C212.034 91.9298 212.538 92.3018 212.91 92.7698V87.9818H214.98V101.302H212.91V99.8078C212.574 100.288 212.106 100.684 211.506 100.996C210.918 101.308 210.24 101.464 209.472 101.464C208.608 101.464 207.816 101.248 207.096 100.816C206.388 100.372 205.824 99.7598 205.404 98.9798C204.996 98.1878 204.792 97.2938 204.792 96.2978ZM212.91 96.3338C212.91 95.6498 212.766 95.0558 212.478 94.5518C212.202 94.0478 211.836 93.6638 211.38 93.3998C210.924 93.1358 210.432 93.0038 209.904 93.0038C209.376 93.0038 208.884 93.1358 208.428 93.3998C207.972 93.6518 207.6 94.0298 207.312 94.5338C207.036 95.0258 206.898 95.6138 206.898 96.2978C206.898 96.9818 207.036 97.5818 207.312 98.0978C207.6 98.6138 207.972 99.0098 208.428 99.2858C208.896 99.5498 209.388 99.6818 209.904 99.6818C210.432 99.6818 210.924 99.5498 211.38 99.2858C211.836 99.0218 212.202 98.6378 212.478 98.1338C212.766 97.6178 212.91 97.0178 212.91 96.3338ZM218.719 90.0698C218.347 90.0698 218.035 89.9438 217.783 89.6918C217.531 89.4398 217.405 89.1278 217.405 88.7558C217.405 88.3838 217.531 88.0718 217.783 87.8198C218.035 87.5678 218.347 87.4418 218.719 87.4418C219.079 87.4418 219.385 87.5678 219.637 87.8198C219.889 88.0718 220.015 88.3838 220.015 88.7558C220.015 89.1278 219.889 89.4398 219.637 89.6918C219.385 89.9438 219.079 90.0698 218.719 90.0698ZM219.727 91.3838V101.302H217.675V91.3838H219.727ZM221.737 96.2978C221.737 95.3018 221.941 94.4198 222.349 93.6518C222.769 92.8838 223.333 92.2898 224.041 91.8698C224.761 91.4378 225.553 91.2218 226.417 91.2218C227.197 91.2218 227.875 91.3778 228.451 91.6898C229.039 91.9898 229.507 92.3678 229.855 92.8238V91.3838H231.925V101.302H229.855V99.8258C229.507 100.294 229.033 100.684 228.433 100.996C227.833 101.308 227.149 101.464 226.381 101.464C225.529 101.464 224.749 101.248 224.041 100.816C223.333 100.372 222.769 99.7598 222.349 98.9798C221.941 98.1878 221.737 97.2938 221.737 96.2978ZM229.855 96.3338C229.855 95.6498 229.711 95.0558 229.423 94.5518C229.147 94.0478 228.781 93.6638 228.325 93.3998C227.869 93.1358 227.377 93.0038 226.849 93.0038C226.321 93.0038 225.829 93.1358 225.373 93.3998C224.917 93.6518 224.545 94.0298 224.257 94.5338C223.981 95.0258 223.843 95.6138 223.843 96.2978C223.843 96.9818 223.981 97.5818 224.257 98.0978C224.545 98.6138 224.917 99.0098 225.373 99.2858C225.841 99.5498 226.333 99.6818 226.849 99.6818C227.377 99.6818 227.869 99.5498 228.325 99.2858C228.781 99.0218 229.147 98.6378 229.423 98.1338C229.711 97.6178 229.855 97.0178 229.855 96.3338ZM246.627 91.2218C247.407 91.2218 248.103 91.3838 248.715 91.7078C249.339 92.0318 249.825 92.5118 250.173 93.1478C250.533 93.7838 250.713 94.5518 250.713 95.4518V101.302H248.679V95.7578C248.679 94.8698 248.457 94.1918 248.013 93.7238C247.569 93.2438 246.963 93.0038 246.195 93.0038C245.427 93.0038 244.815 93.2438 244.359 93.7238C243.915 94.1918 243.693 94.8698 243.693 95.7578V101.302H241.659V95.7578C241.659 94.8698 241.437 94.1918 240.993 93.7238C240.549 93.2438 239.943 93.0038 239.175 93.0038C238.407 93.0038 237.795 93.2438 237.339 93.7238C236.895 94.1918 236.673 94.8698 236.673 95.7578V101.302H234.621V91.3838H236.673V92.5178C237.009 92.1098 237.435 91.7918 237.951 91.5638C238.467 91.3358 239.019 91.2218 239.607 91.2218C240.399 91.2218 241.107 91.3898 241.731 91.7258C242.355 92.0618 242.835 92.5478 243.171 93.1838C243.471 92.5838 243.939 92.1098 244.575 91.7618C245.211 91.4018 245.895 91.2218 246.627 91.2218ZM257.626 101.464C256.69 101.464 255.844 101.254 255.088 100.834C254.332 100.402 253.738 99.8018 253.306 99.0338C252.874 98.2538 252.658 97.3538 252.658 96.3338C252.658 95.3258 252.88 94.4318 253.324 93.6518C253.768 92.8718 254.374 92.2718 255.142 91.8518C255.91 91.4318 256.768 91.2218 257.716 91.2218C258.664 91.2218 259.522 91.4318 260.29 91.8518C261.058 92.2718 261.664 92.8718 262.108 93.6518C262.552 94.4318 262.774 95.3258 262.774 96.3338C262.774 97.3418 262.546 98.2358 262.09 99.0158C261.634 99.7958 261.01 100.402 260.218 100.834C259.438 101.254 258.574 101.464 257.626 101.464ZM257.626 99.6818C258.154 99.6818 258.646 99.5558 259.102 99.3038C259.57 99.0518 259.948 98.6738 260.236 98.1698C260.524 97.6658 260.668 97.0538 260.668 96.3338C260.668 95.6138 260.53 95.0078 260.254 94.5158C259.978 94.0118 259.612 93.6338 259.156 93.3818C258.7 93.1298 258.208 93.0038 257.68 93.0038C257.152 93.0038 256.66 93.1298 256.204 93.3818C255.76 93.6338 255.406 94.0118 255.142 94.5158C254.878 95.0078 254.746 95.6138 254.746 96.3338C254.746 97.4018 255.016 98.2298 255.556 98.8178C256.108 99.3938 256.798 99.6818 257.626 99.6818ZM269.806 91.2218C270.586 91.2218 271.282 91.3838 271.894 91.7078C272.518 92.0318 273.004 92.5118 273.352 93.1478C273.7 93.7838 273.874 94.5518 273.874 95.4518V101.302H271.84V95.7578C271.84 94.8698 271.618 94.1918 271.174 93.7238C270.73 93.2438 270.124 93.0038 269.356 93.0038C268.588 93.0038 267.976 93.2438 267.52 93.7238C267.076 94.1918 266.854 94.8698 266.854 95.7578V101.302H264.802V91.3838H266.854V92.5178C267.19 92.1098 267.616 91.7918 268.132 91.5638C268.66 91.3358 269.218 91.2218 269.806 91.2218ZM275.808 96.2978C275.808 95.3018 276.012 94.4198 276.42 93.6518C276.84 92.8838 277.404 92.2898 278.112 91.8698C278.832 91.4378 279.63 91.2218 280.506 91.2218C281.154 91.2218 281.79 91.3658 282.414 91.6538C283.05 91.9298 283.554 92.3018 283.926 92.7698V87.9818H285.996V101.302H283.926V99.8078C283.59 100.288 283.122 100.684 282.522 100.996C281.934 101.308 281.256 101.464 280.488 101.464C279.624 101.464 278.832 101.248 278.112 100.816C277.404 100.372 276.84 99.7598 276.42 98.9798C276.012 98.1878 275.808 97.2938 275.808 96.2978ZM283.926 96.3338C283.926 95.6498 283.782 95.0558 283.494 94.5518C283.218 94.0478 282.852 93.6638 282.396 93.3998C281.94 93.1358 281.448 93.0038 280.92 93.0038C280.392 93.0038 279.9 93.1358 279.444 93.3998C278.988 93.6518 278.616 94.0298 278.328 94.5338C278.052 95.0258 277.914 95.6138 277.914 96.2978C277.914 96.9818 278.052 97.5818 278.328 98.0978C278.616 98.6138 278.988 99.0098 279.444 99.2858C279.912 99.5498 280.404 99.6818 280.92 99.6818C281.448 99.6818 281.94 99.5498 282.396 99.2858C282.852 99.0218 283.218 98.6378 283.494 98.1338C283.782 97.6178 283.926 97.0178 283.926 96.3338ZM292.291 101.464C291.511 101.464 290.809 101.326 290.185 101.05C289.573 100.762 289.087 100.378 288.727 99.8978C288.367 99.4058 288.175 98.8598 288.151 98.2598H290.275C290.311 98.6798 290.509 99.0338 290.869 99.3218C291.241 99.5978 291.703 99.7358 292.255 99.7358C292.831 99.7358 293.275 99.6278 293.587 99.4118C293.911 99.1838 294.073 98.8958 294.073 98.5478C294.073 98.1758 293.893 97.8998 293.533 97.7198C293.185 97.5398 292.627 97.3418 291.859 97.1258C291.115 96.9218 290.509 96.7238 290.041 96.5318C289.573 96.3398 289.165 96.0458 288.817 95.6498C288.481 95.2538 288.313 94.7318 288.313 94.0838C288.313 93.5558 288.469 93.0758 288.781 92.6438C289.093 92.1998 289.537 91.8518 290.113 91.5998C290.701 91.3478 291.373 91.2218 292.129 91.2218C293.257 91.2218 294.163 91.5098 294.847 92.0858C295.543 92.6498 295.915 93.4238 295.963 94.4078H293.911C293.875 93.9638 293.695 93.6098 293.371 93.3458C293.047 93.0818 292.609 92.9498 292.057 92.9498C291.517 92.9498 291.103 93.0518 290.815 93.2558C290.527 93.4598 290.383 93.7298 290.383 94.0658C290.383 94.3298 290.479 94.5518 290.671 94.7318C290.863 94.9118 291.097 95.0558 291.373 95.1638C291.649 95.2598 292.057 95.3858 292.597 95.5418C293.317 95.7338 293.905 95.9318 294.361 96.1358C294.829 96.3278 295.231 96.6158 295.567 96.9998C295.903 97.3838 296.077 97.8938 296.089 98.5298C296.089 99.0938 295.933 99.5978 295.621 100.042C295.309 100.486 294.865 100.834 294.289 101.086C293.725 101.338 293.059 101.464 292.291 101.464ZM297.802 104.65V104.452C299.038 103.18 299.98 101.698 300.628 100.006C301.276 98.3138 301.6 96.5618 301.6 94.7498C301.6 92.8658 301.252 91.0358 300.556 89.2598C299.86 87.4838 298.822 85.9598 297.442 84.6878V84.4898H299.566C300.886 85.6658 301.882 87.1598 302.554 88.9718C303.238 90.7838 303.58 92.7098 303.58 94.7498C303.58 96.7418 303.262 98.6078 302.626 100.348C302.002 102.088 301.102 103.522 299.926 104.65H297.802ZM309.973 89.1698V90.6818L305.995 88.7198V86.9738L309.973 89.1698Z" fill="white"/>
<path d="M460.201 74.7458H454.963L454.063 77.3018H451.921L456.403 64.7738H458.779L463.261 77.3018H461.101L460.201 74.7458ZM459.625 73.0718L457.591 67.2578L455.539 73.0718H459.625ZM469.205 67.2218C469.973 67.2218 470.651 67.3778 471.239 67.6898C471.839 67.9898 472.307 68.3678 472.643 68.8238V67.3838H474.713V77.4638C474.713 78.3758 474.521 79.1858 474.137 79.8938C473.753 80.6138 473.195 81.1778 472.463 81.5858C471.743 81.9938 470.879 82.1978 469.871 82.1978C468.527 82.1978 467.411 81.8798 466.523 81.2438C465.635 80.6198 465.131 79.7678 465.011 78.6878H467.045C467.201 79.2038 467.531 79.6178 468.035 79.9298C468.551 80.2538 469.163 80.4158 469.871 80.4158C470.699 80.4158 471.365 80.1638 471.869 79.6598C472.385 79.1558 472.643 78.4238 472.643 77.4638V75.8078C472.295 76.2758 471.821 76.6718 471.221 76.9958C470.633 77.3078 469.961 77.4638 469.205 77.4638C468.341 77.4638 467.549 77.2478 466.829 76.8158C466.121 76.3718 465.557 75.7598 465.137 74.9798C464.729 74.1878 464.525 73.2938 464.525 72.2978C464.525 71.3018 464.729 70.4198 465.137 69.6518C465.557 68.8838 466.121 68.2898 466.829 67.8698C467.549 67.4378 468.341 67.2218 469.205 67.2218ZM472.643 72.3338C472.643 71.6498 472.499 71.0558 472.211 70.5518C471.935 70.0478 471.569 69.6638 471.113 69.3998C470.657 69.1358 470.165 69.0038 469.637 69.0038C469.109 69.0038 468.617 69.1358 468.161 69.3998C467.705 69.6518 467.333 70.0298 467.045 70.5338C466.769 71.0258 466.631 71.6138 466.631 72.2978C466.631 72.9818 466.769 73.5818 467.045 74.0978C467.333 74.6138 467.705 75.0098 468.161 75.2858C468.629 75.5498 469.121 75.6818 469.637 75.6818C470.165 75.6818 470.657 75.5498 471.113 75.2858C471.569 75.0218 471.935 74.6378 472.211 74.1338C472.499 73.6178 472.643 73.0178 472.643 72.3338ZM486.499 72.0998C486.499 72.4718 486.475 72.8078 486.427 73.1078H478.849C478.909 73.8998 479.203 74.5358 479.731 75.0158C480.259 75.4958 480.907 75.7358 481.675 75.7358C482.779 75.7358 483.559 75.2738 484.015 74.3498H486.229C485.929 75.2618 485.383 76.0118 484.591 76.5998C483.811 77.1758 482.839 77.4638 481.675 77.4638C480.727 77.4638 479.875 77.2538 479.119 76.8338C478.375 76.4018 477.787 75.8018 477.355 75.0338C476.935 74.2538 476.725 73.3538 476.725 72.3338C476.725 71.3138 476.929 70.4198 477.337 69.6518C477.757 68.8718 478.339 68.2718 479.083 67.8518C479.839 67.4318 480.703 67.2218 481.675 67.2218C482.611 67.2218 483.445 67.4258 484.177 67.8338C484.909 68.2418 485.479 68.8178 485.887 69.5618C486.295 70.2938 486.499 71.1398 486.499 72.0998ZM484.357 71.4518C484.345 70.6958 484.075 70.0898 483.547 69.6338C483.019 69.1778 482.365 68.9498 481.585 68.9498C480.877 68.9498 480.271 69.1778 479.767 69.6338C479.263 70.0778 478.963 70.6838 478.867 71.4518H484.357ZM493.522 67.2218C494.302 67.2218 494.998 67.3838 495.61 67.7078C496.234 68.0318 496.72 68.5118 497.068 69.1478C497.416 69.7838 497.59 70.5518 497.59 71.4518V77.3018H495.556V71.7578C495.556 70.8698 495.334 70.1918 494.89 69.7238C494.446 69.2438 493.84 69.0038 493.072 69.0038C492.304 69.0038 491.692 69.2438 491.236 69.7238C490.792 70.1918 490.57 70.8698 490.57 71.7578V77.3018H488.518V67.3838H490.57V68.5178C490.906 68.1098 491.332 67.7918 491.848 67.5638C492.376 67.3358 492.934 67.2218 493.522 67.2218ZM499.523 72.3338C499.523 71.3138 499.727 70.4198 500.135 69.6518C500.555 68.8718 501.131 68.2718 501.863 67.8518C502.595 67.4318 503.435 67.2218 504.383 67.2218C505.583 67.2218 506.573 67.5098 507.353 68.0858C508.145 68.6498 508.679 69.4598 508.955 70.5158H506.741C506.561 70.0238 506.273 69.6398 505.877 69.3638C505.481 69.0878 504.983 68.9498 504.383 68.9498C503.543 68.9498 502.871 69.2498 502.367 69.8498C501.875 70.4378 501.629 71.2658 501.629 72.3338C501.629 73.4018 501.875 74.2358 502.367 74.8358C502.871 75.4358 503.543 75.7358 504.383 75.7358C505.571 75.7358 506.357 75.2138 506.741 74.1698H508.955C508.667 75.1778 508.127 75.9818 507.335 76.5818C506.543 77.1698 505.559 77.4638 504.383 77.4638C503.435 77.4638 502.595 77.2538 501.863 76.8338C501.131 76.4018 500.555 75.8018 500.135 75.0338C499.727 74.2538 499.523 73.3538 499.523 72.3338ZM512.044 66.0698C511.672 66.0698 511.36 65.9438 511.108 65.6918C510.856 65.4398 510.73 65.1278 510.73 64.7558C510.73 64.3838 510.856 64.0718 511.108 63.8198C511.36 63.5678 511.672 63.4418 512.044 63.4418C512.404 63.4418 512.71 63.5678 512.962 63.8198C513.214 64.0718 513.34 64.3838 513.34 64.7558C513.34 65.1278 513.214 65.4398 512.962 65.6918C512.71 65.9438 512.404 66.0698 512.044 66.0698ZM513.052 67.3838V77.3018H511V67.3838H513.052ZM524.836 72.0998C524.836 72.4718 524.812 72.8078 524.764 73.1078H517.186C517.246 73.8998 517.54 74.5358 518.068 75.0158C518.596 75.4958 519.244 75.7358 520.012 75.7358C521.116 75.7358 521.896 75.2738 522.352 74.3498H524.566C524.266 75.2618 523.72 76.0118 522.928 76.5998C522.148 77.1758 521.176 77.4638 520.012 77.4638C519.064 77.4638 518.212 77.2538 517.456 76.8338C516.712 76.4018 516.124 75.8018 515.692 75.0338C515.272 74.2538 515.062 73.3538 515.062 72.3338C515.062 71.3138 515.266 70.4198 515.674 69.6518C516.094 68.8718 516.676 68.2718 517.42 67.8518C518.176 67.4318 519.04 67.2218 520.012 67.2218C520.948 67.2218 521.782 67.4258 522.514 67.8338C523.246 68.2418 523.816 68.8178 524.224 69.5618C524.632 70.2938 524.836 71.1398 524.836 72.0998ZM522.694 71.4518C522.682 70.6958 522.412 70.0898 521.884 69.6338C521.356 69.1778 520.702 68.9498 519.922 68.9498C519.214 68.9498 518.608 69.1778 518.104 69.6338C517.6 70.0778 517.3 70.6838 517.204 71.4518H522.694ZM530.456 77.4638C529.676 77.4638 528.974 77.3258 528.35 77.0498C527.738 76.7618 527.252 76.3778 526.892 75.8978C526.532 75.4058 526.34 74.8598 526.316 74.2598H528.44C528.476 74.6798 528.674 75.0338 529.034 75.3218C529.406 75.5978 529.868 75.7358 530.42 75.7358C530.996 75.7358 531.44 75.6278 531.752 75.4118C532.076 75.1838 532.238 74.8958 532.238 74.5478C532.238 74.1758 532.058 73.8998 531.698 73.7198C531.35 73.5398 530.792 73.3418 530.024 73.1258C529.28 72.9218 528.674 72.7238 528.206 72.5318C527.738 72.3398 527.33 72.0458 526.982 71.6498C526.646 71.2538 526.478 70.7318 526.478 70.0838C526.478 69.5558 526.634 69.0758 526.946 68.6438C527.258 68.1998 527.702 67.8518 528.278 67.5998C528.866 67.3478 529.538 67.2218 530.294 67.2218C531.422 67.2218 532.328 67.5098 533.012 68.0858C533.708 68.6498 534.08 69.4238 534.128 70.4078H532.076C532.04 69.9638 531.86 69.6098 531.536 69.3458C531.212 69.0818 530.774 68.9498 530.222 68.9498C529.682 68.9498 529.268 69.0518 528.98 69.2558C528.692 69.4598 528.548 69.7298 528.548 70.0658C528.548 70.3298 528.644 70.5518 528.836 70.7318C529.028 70.9118 529.262 71.0558 529.538 71.1638C529.814 71.2598 530.222 71.3858 530.762 71.5418C531.482 71.7338 532.07 71.9318 532.526 72.1358C532.994 72.3278 533.396 72.6158 533.732 72.9998C534.068 73.3838 534.242 73.8938 534.254 74.5298C534.254 75.0938 534.098 75.5978 533.786 76.0418C533.474 76.4858 533.03 76.8338 532.454 77.0858C531.89 77.3378 531.224 77.4638 530.456 77.4638ZM546.151 67.2218C546.931 67.2218 547.627 67.3838 548.239 67.7078C548.863 68.0318 549.349 68.5118 549.697 69.1478C550.045 69.7838 550.219 70.5518 550.219 71.4518V77.3018H548.185V71.7578C548.185 70.8698 547.963 70.1918 547.519 69.7238C547.075 69.2438 546.469 69.0038 545.701 69.0038C544.933 69.0038 544.321 69.2438 543.865 69.7238C543.421 70.1918 543.199 70.8698 543.199 71.7578V77.3018H541.147V67.3838H543.199V68.5178C543.535 68.1098 543.961 67.7918 544.477 67.5638C545.005 67.3358 545.563 67.2218 546.151 67.2218ZM561.926 72.0998C561.926 72.4718 561.902 72.8078 561.854 73.1078H554.276C554.336 73.8998 554.63 74.5358 555.158 75.0158C555.686 75.4958 556.334 75.7358 557.102 75.7358C558.206 75.7358 558.986 75.2738 559.442 74.3498H561.656C561.356 75.2618 560.81 76.0118 560.018 76.5998C559.238 77.1758 558.266 77.4638 557.102 77.4638C556.154 77.4638 555.302 77.2538 554.546 76.8338C553.802 76.4018 553.214 75.8018 552.782 75.0338C552.362 74.2538 552.152 73.3538 552.152 72.3338C552.152 71.3138 552.356 70.4198 552.764 69.6518C553.184 68.8718 553.766 68.2718 554.51 67.8518C555.266 67.4318 556.13 67.2218 557.102 67.2218C558.038 67.2218 558.872 67.4258 559.604 67.8338C560.336 68.2418 560.906 68.8178 561.314 69.5618C561.722 70.2938 561.926 71.1398 561.926 72.0998ZM559.784 71.4518C559.772 70.6958 559.502 70.0898 558.974 69.6338C558.446 69.1778 557.792 68.9498 557.012 68.9498C556.304 68.9498 555.698 69.1778 555.194 69.6338C554.69 70.0778 554.39 70.6838 554.294 71.4518H559.784ZM573.036 72.0998C573.036 72.4718 573.012 72.8078 572.964 73.1078H565.386C565.446 73.8998 565.74 74.5358 566.268 75.0158C566.796 75.4958 567.444 75.7358 568.212 75.7358C569.316 75.7358 570.096 75.2738 570.552 74.3498H572.766C572.466 75.2618 571.92 76.0118 571.128 76.5998C570.348 77.1758 569.376 77.4638 568.212 77.4638C567.264 77.4638 566.412 77.2538 565.656 76.8338C564.912 76.4018 564.324 75.8018 563.892 75.0338C563.472 74.2538 563.262 73.3538 563.262 72.3338C563.262 71.3138 563.466 70.4198 563.874 69.6518C564.294 68.8718 564.876 68.2718 565.62 67.8518C566.376 67.4318 567.24 67.2218 568.212 67.2218C569.148 67.2218 569.982 67.4258 570.714 67.8338C571.446 68.2418 572.016 68.8178 572.424 69.5618C572.832 70.2938 573.036 71.1398 573.036 72.0998ZM570.894 71.4518C570.882 70.6958 570.612 70.0898 570.084 69.6338C569.556 69.1778 568.902 68.9498 568.122 68.9498C567.414 68.9498 566.808 69.1778 566.304 69.6338C565.8 70.0778 565.5 70.6838 565.404 71.4518H570.894ZM574.371 72.2978C574.371 71.3018 574.575 70.4198 574.983 69.6518C575.403 68.8838 575.967 68.2898 576.675 67.8698C577.395 67.4378 578.193 67.2218 579.069 67.2218C579.717 67.2218 580.353 67.3658 580.977 67.6538C581.613 67.9298 582.117 68.3018 582.489 68.7698V63.9818H584.559V77.3018H582.489V75.8078C582.153 76.2878 581.685 76.6838 581.085 76.9958C580.497 77.3078 579.819 77.4638 579.051 77.4638C578.187 77.4638 577.395 77.2478 576.675 76.8158C575.967 76.3718 575.403 75.7598 574.983 74.9798C574.575 74.1878 574.371 73.2938 574.371 72.2978ZM582.489 72.3338C582.489 71.6498 582.345 71.0558 582.057 70.5518C581.781 70.0478 581.415 69.6638 580.959 69.3998C580.503 69.1358 580.011 69.0038 579.483 69.0038C578.955 69.0038 578.463 69.1358 578.007 69.3998C577.551 69.6518 577.179 70.0298 576.891 70.5338C576.615 71.0258 576.477 71.6138 576.477 72.2978C576.477 72.9818 576.615 73.5818 576.891 74.0978C577.179 74.6138 577.551 75.0098 578.007 75.2858C578.475 75.5498 578.967 75.6818 579.483 75.6818C580.011 75.6818 580.503 75.5498 580.959 75.2858C581.415 75.0218 581.781 74.6378 582.057 74.1338C582.345 73.6178 582.489 73.0178 582.489 72.3338ZM594.324 69.0578V74.5478C594.324 74.9198 594.408 75.1898 594.576 75.3578C594.756 75.5138 595.056 75.5918 595.476 75.5918H596.736V77.3018H595.116C594.192 77.3018 593.484 77.0858 592.992 76.6538C592.5 76.2218 592.254 75.5198 592.254 74.5478V69.0578H591.084V67.3838H592.254V64.9178H594.324V67.3838H596.736V69.0578H594.324ZM602.929 77.4638C601.993 77.4638 601.147 77.2538 600.391 76.8338C599.635 76.4018 599.041 75.8018 598.609 75.0338C598.177 74.2538 597.961 73.3538 597.961 72.3338C597.961 71.3258 598.183 70.4318 598.627 69.6518C599.071 68.8718 599.677 68.2718 600.445 67.8518C601.213 67.4318 602.071 67.2218 603.019 67.2218C603.967 67.2218 604.825 67.4318 605.593 67.8518C606.361 68.2718 606.967 68.8718 607.411 69.6518C607.855 70.4318 608.077 71.3258 608.077 72.3338C608.077 73.3418 607.849 74.2358 607.393 75.0158C606.937 75.7958 606.313 76.4018 605.521 76.8338C604.741 77.2538 603.877 77.4638 602.929 77.4638ZM602.929 75.6818C603.457 75.6818 603.949 75.5558 604.405 75.3038C604.873 75.0518 605.251 74.6738 605.539 74.1698C605.827 73.6658 605.971 73.0538 605.971 72.3338C605.971 71.6138 605.833 71.0078 605.557 70.5158C605.281 70.0118 604.915 69.6338 604.459 69.3818C604.003 69.1298 603.511 69.0038 602.983 69.0038C602.455 69.0038 601.963 69.1298 601.507 69.3818C601.063 69.6338 600.709 70.0118 600.445 70.5158C600.181 71.0078 600.049 71.6138 600.049 72.3338C600.049 73.4018 600.319 74.2298 600.859 74.8178C601.411 75.3938 602.101 75.6818 602.929 75.6818ZM623.872 72.0998C623.872 72.4718 623.848 72.8078 623.8 73.1078H616.222C616.282 73.8998 616.576 74.5358 617.104 75.0158C617.632 75.4958 618.28 75.7358 619.048 75.7358C620.152 75.7358 620.932 75.2738 621.388 74.3498H623.602C623.302 75.2618 622.756 76.0118 621.964 76.5998C621.184 77.1758 620.212 77.4638 619.048 77.4638C618.1 77.4638 617.248 77.2538 616.492 76.8338C615.748 76.4018 615.16 75.8018 614.728 75.0338C614.308 74.2538 614.098 73.3538 614.098 72.3338C614.098 71.3138 614.302 70.4198 614.71 69.6518C615.13 68.8718 615.712 68.2718 616.456 67.8518C617.212 67.4318 618.076 67.2218 619.048 67.2218C619.984 67.2218 620.818 67.4258 621.55 67.8338C622.282 68.2418 622.852 68.8178 623.26 69.5618C623.668 70.2938 623.872 71.1398 623.872 72.0998ZM621.73 71.4518C621.718 70.6958 621.448 70.0898 620.92 69.6338C620.392 69.1778 619.738 68.9498 618.958 68.9498C618.25 68.9498 617.644 69.1778 617.14 69.6338C616.636 70.0778 616.336 70.6838 616.24 71.4518H621.73ZM625.207 72.2978C625.207 71.3018 625.411 70.4198 625.819 69.6518C626.239 68.8838 626.803 68.2898 627.511 67.8698C628.231 67.4378 629.023 67.2218 629.887 67.2218C630.667 67.2218 631.345 67.3778 631.921 67.6898C632.509 67.9898 632.977 68.3678 633.325 68.8238V67.3838H635.395V77.3018H633.325V75.8258C632.977 76.2938 632.503 76.6838 631.903 76.9958C631.303 77.3078 630.619 77.4638 629.851 77.4638C628.999 77.4638 628.219 77.2478 627.511 76.8158C626.803 76.3718 626.239 75.7598 625.819 74.9798C625.411 74.1878 625.207 73.2938 625.207 72.2978ZM633.325 72.3338C633.325 71.6498 633.181 71.0558 632.893 70.5518C632.617 70.0478 632.251 69.6638 631.795 69.3998C631.339 69.1358 630.847 69.0038 630.319 69.0038C629.791 69.0038 629.299 69.1358 628.843 69.3998C628.387 69.6518 628.015 70.0298 627.727 70.5338C627.451 71.0258 627.313 71.6138 627.313 72.2978C627.313 72.9818 627.451 73.5818 627.727 74.0978C628.015 74.6138 628.387 75.0098 628.843 75.2858C629.311 75.5498 629.803 75.6818 630.319 75.6818C630.847 75.6818 631.339 75.5498 631.795 75.2858C632.251 75.0218 632.617 74.6378 632.893 74.1338C633.181 73.6178 633.325 73.0178 633.325 72.3338ZM640.142 68.8238C640.442 68.3198 640.838 67.9298 641.33 67.6538C641.834 67.3658 642.428 67.2218 643.112 67.2218V69.3458H642.59C641.786 69.3458 641.174 69.5498 640.754 69.9578C640.346 70.3658 640.142 71.0738 640.142 72.0818V77.3018H638.09V67.3838H640.142V68.8238ZM650.002 67.2218C650.782 67.2218 651.478 67.3838 652.09 67.7078C652.714 68.0318 653.2 68.5118 653.548 69.1478C653.896 69.7838 654.07 70.5518 654.07 71.4518V77.3018H652.036V71.7578C652.036 70.8698 651.814 70.1918 651.37 69.7238C650.926 69.2438 650.32 69.0038 649.552 69.0038C648.784 69.0038 648.172 69.2438 647.716 69.7238C647.272 70.1918 647.05 70.8698 647.05 71.7578V77.3018H644.998V67.3838H647.05V68.5178C647.386 68.1098 647.812 67.7918 648.328 67.5638C648.856 67.3358 649.414 67.2218 650.002 67.2218ZM669.806 73.7378C669.806 74.3378 669.656 74.9018 669.356 75.4298C669.068 75.9578 668.636 76.4018 668.06 76.7618C667.496 77.1218 666.824 77.3378 666.044 77.4098V78.8678H664.874V77.4098C663.746 77.3018 662.834 76.9478 662.138 76.3478C661.442 75.7478 661.094 74.9558 661.094 73.9718H663.29C663.326 74.4398 663.476 74.8298 663.74 75.1418C664.004 75.4418 664.382 75.6338 664.874 75.7178V71.7578C664.07 71.5538 663.416 71.3498 662.912 71.1458C662.408 70.9298 661.976 70.5938 661.616 70.1378C661.268 69.6818 661.094 69.0578 661.094 68.2658C661.094 67.2698 661.442 66.4478 662.138 65.7998C662.834 65.1398 663.746 64.7558 664.874 64.6478V63.1898H666.044V64.6478C667.1 64.7438 667.946 65.0798 668.582 65.6558C669.23 66.2198 669.596 66.9998 669.68 67.9958H667.484C667.448 67.6238 667.304 67.2938 667.052 67.0058C666.8 66.7058 666.464 66.5018 666.044 66.3938V70.2818C666.848 70.4738 667.502 70.6778 668.006 70.8938C668.51 71.0978 668.936 71.4278 669.284 71.8838C669.632 72.3278 669.806 72.9458 669.806 73.7378ZM663.182 68.1578C663.182 68.6498 663.326 69.0338 663.614 69.3098C663.914 69.5858 664.334 69.8078 664.874 69.9758V66.3398C664.358 66.3998 663.944 66.5858 663.632 66.8978C663.332 67.2098 663.182 67.6298 663.182 68.1578ZM666.044 75.7178C666.572 75.6338 666.986 75.4238 667.286 75.0878C667.586 74.7398 667.736 74.3258 667.736 73.8458C667.736 73.3658 667.586 72.9938 667.286 72.7298C666.998 72.4538 666.584 72.2318 666.044 72.0638V75.7178ZM672.531 66.0518V64.1798H676.275V77.3018H674.205V66.0518H672.531ZM679.094 70.5698C679.094 68.4938 679.442 66.8738 680.138 65.7098C680.846 64.5338 682.058 63.9458 683.774 63.9458C685.49 63.9458 686.696 64.5338 687.392 65.7098C688.1 66.8738 688.454 68.4938 688.454 70.5698C688.454 72.6698 688.1 74.3138 687.392 75.5018C686.696 76.6778 685.49 77.2658 683.774 77.2658C682.058 77.2658 680.846 76.6778 680.138 75.5018C679.442 74.3138 679.094 72.6698 679.094 70.5698ZM686.438 70.5698C686.438 69.5978 686.372 68.7758 686.24 68.1038C686.12 67.4318 685.868 66.8858 685.484 66.4658C685.1 66.0338 684.53 65.8178 683.774 65.8178C683.018 65.8178 682.448 66.0338 682.064 66.4658C681.68 66.8858 681.422 67.4318 681.29 68.1038C681.17 68.7758 681.11 69.5978 681.11 70.5698C681.11 71.5778 681.17 72.4238 681.29 73.1078C681.41 73.7918 681.662 74.3438 682.046 74.7638C682.442 75.1838 683.018 75.3938 683.774 75.3938C684.53 75.3938 685.1 75.1838 685.484 74.7638C685.88 74.3438 686.138 73.7918 686.258 73.1078C686.378 72.4238 686.438 71.5778 686.438 70.5698ZM690.625 70.5698C690.625 68.4938 690.973 66.8738 691.669 65.7098C692.377 64.5338 693.589 63.9458 695.305 63.9458C697.021 63.9458 698.227 64.5338 698.923 65.7098C699.631 66.8738 699.985 68.4938 699.985 70.5698C699.985 72.6698 699.631 74.3138 698.923 75.5018C698.227 76.6778 697.021 77.2658 695.305 77.2658C693.589 77.2658 692.377 76.6778 691.669 75.5018C690.973 74.3138 690.625 72.6698 690.625 70.5698ZM697.969 70.5698C697.969 69.5978 697.903 68.7758 697.771 68.1038C697.651 67.4318 697.399 66.8858 697.015 66.4658C696.631 66.0338 696.061 65.8178 695.305 65.8178C694.549 65.8178 693.979 66.0338 693.595 66.4658C693.211 66.8858 692.953 67.4318 692.821 68.1038C692.701 68.7758 692.641 69.5978 692.641 70.5698C692.641 71.5778 692.701 72.4238 692.821 73.1078C692.941 73.7918 693.193 74.3438 693.577 74.7638C693.973 75.1838 694.549 75.3938 695.305 75.3938C696.061 75.3938 696.631 75.1838 697.015 74.7638C697.411 74.3438 697.669 73.7918 697.789 73.1078C697.909 72.4238 697.969 71.5778 697.969 70.5698ZM709.086 60.3098L704.19 80.4518H702.174L707.052 60.3098H709.086ZM724.992 67.3838L721.914 77.3018H719.754L717.756 69.9758L715.758 77.3018H713.598L710.502 67.3838H712.59L714.66 75.3578L716.766 67.3838H718.908L720.924 75.3218L722.976 67.3838H724.992ZM735.616 72.0998C735.616 72.4718 735.592 72.8078 735.544 73.1078H727.966C728.026 73.8998 728.32 74.5358 728.848 75.0158C729.376 75.4958 730.024 75.7358 730.792 75.7358C731.896 75.7358 732.676 75.2738 733.132 74.3498H735.346C735.046 75.2618 734.5 76.0118 733.708 76.5998C732.928 77.1758 731.956 77.4638 730.792 77.4638C729.844 77.4638 728.992 77.2538 728.236 76.8338C727.492 76.4018 726.904 75.8018 726.472 75.0338C726.052 74.2538 725.842 73.3538 725.842 72.3338C725.842 71.3138 726.046 70.4198 726.454 69.6518C726.874 68.8718 727.456 68.2718 728.2 67.8518C728.956 67.4318 729.82 67.2218 730.792 67.2218C731.728 67.2218 732.562 67.4258 733.294 67.8338C734.026 68.2418 734.596 68.8178 735.004 69.5618C735.412 70.2938 735.616 71.1398 735.616 72.0998ZM733.474 71.4518C733.462 70.6958 733.192 70.0898 732.664 69.6338C732.136 69.1778 731.482 68.9498 730.702 68.9498C729.994 68.9498 729.388 69.1778 728.884 69.6338C728.38 70.0778 728.08 70.6838 727.984 71.4518H733.474ZM746.725 72.0998C746.725 72.4718 746.701 72.8078 746.653 73.1078H739.075C739.135 73.8998 739.429 74.5358 739.957 75.0158C740.485 75.4958 741.133 75.7358 741.901 75.7358C743.005 75.7358 743.785 75.2738 744.241 74.3498H746.455C746.155 75.2618 745.609 76.0118 744.817 76.5998C744.037 77.1758 743.065 77.4638 741.901 77.4638C740.953 77.4638 740.101 77.2538 739.345 76.8338C738.601 76.4018 738.013 75.8018 737.581 75.0338C737.161 74.2538 736.951 73.3538 736.951 72.3338C736.951 71.3138 737.155 70.4198 737.563 69.6518C737.983 68.8718 738.565 68.2718 739.309 67.8518C740.065 67.4318 740.929 67.2218 741.901 67.2218C742.837 67.2218 743.671 67.4258 744.403 67.8338C745.135 68.2418 745.705 68.8178 746.113 69.5618C746.521 70.2938 746.725 71.1398 746.725 72.0998ZM744.583 71.4518C744.571 70.6958 744.301 70.0898 743.773 69.6338C743.245 69.1778 742.591 68.9498 741.811 68.9498C741.103 68.9498 740.497 69.1778 739.993 69.6338C739.489 70.0778 739.189 70.6838 739.093 71.4518H744.583ZM752.669 72.3518L757.241 77.3018H754.469L750.797 73.0358V77.3018H748.745V63.9818H750.797V71.7218L754.397 67.3838H757.241L752.669 72.3518ZM759.539 77.4278C759.167 77.4278 758.855 77.3018 758.603 77.0498C758.351 76.7978 758.225 76.4858 758.225 76.1138C758.225 75.7418 758.351 75.4298 758.603 75.1778C758.855 74.9258 759.167 74.7998 759.539 74.7998C759.899 74.7998 760.205 74.9258 760.457 75.1778C760.709 75.4298 760.835 75.7418 760.835 76.1138C760.835 76.4858 760.709 76.7978 760.457 77.0498C760.205 77.3018 759.899 77.4278 759.539 77.4278ZM457.195 104.65C456.019 103.522 455.113 102.088 454.477 100.348C453.853 98.6078 453.541 96.7418 453.541 94.7498C453.541 92.7098 453.877 90.7838 454.549 88.9718C455.233 87.1598 456.235 85.6658 457.555 84.4898H459.679V84.6878C458.299 85.9598 457.261 87.4838 456.565 89.2598C455.869 91.0358 455.521 92.8658 455.521 94.7498C455.521 96.5618 455.845 98.3138 456.493 100.006C457.141 101.698 458.083 103.18 459.319 104.452V104.65H457.195ZM469.96 97.7378C469.96 98.3378 469.81 98.9018 469.51 99.4298C469.222 99.9578 468.79 100.402 468.214 100.762C467.65 101.122 466.978 101.338 466.198 101.41V102.868H465.028V101.41C463.9 101.302 462.988 100.948 462.292 100.348C461.596 99.7478 461.248 98.9558 461.248 97.9718H463.444C463.48 98.4398 463.63 98.8298 463.894 99.1418C464.158 99.4418 464.536 99.6338 465.028 99.7178V95.7578C464.224 95.5538 463.57 95.3498 463.066 95.1458C462.562 94.9298 462.13 94.5938 461.77 94.1378C461.422 93.6818 461.248 93.0578 461.248 92.2658C461.248 91.2698 461.596 90.4478 462.292 89.7998C462.988 89.1398 463.9 88.7558 465.028 88.6478V87.1898H466.198V88.6478C467.254 88.7438 468.1 89.0798 468.736 89.6558C469.384 90.2198 469.75 90.9998 469.834 91.9958H467.638C467.602 91.6238 467.458 91.2938 467.206 91.0058C466.954 90.7058 466.618 90.5018 466.198 90.3938V94.2818C467.002 94.4738 467.656 94.6778 468.16 94.8938C468.664 95.0978 469.09 95.4278 469.438 95.8838C469.786 96.3278 469.96 96.9458 469.96 97.7378ZM463.336 92.1578C463.336 92.6498 463.48 93.0338 463.768 93.3098C464.068 93.5858 464.488 93.8078 465.028 93.9758V90.3398C464.512 90.3998 464.098 90.5858 463.786 90.8978C463.486 91.2098 463.336 91.6298 463.336 92.1578ZM466.198 99.7178C466.726 99.6338 467.14 99.4238 467.44 99.0878C467.74 98.7398 467.89 98.3258 467.89 97.8458C467.89 97.3658 467.74 96.9938 467.44 96.7298C467.152 96.4538 466.738 96.2318 466.198 96.0638V99.7178ZM472.685 90.0518V88.1798H476.429V101.302H474.359V90.0518H472.685ZM479.248 94.5698C479.248 92.4938 479.596 90.8738 480.292 89.7098C481 88.5338 482.212 87.9458 483.928 87.9458C485.644 87.9458 486.85 88.5338 487.546 89.7098C488.254 90.8738 488.608 92.4938 488.608 94.5698C488.608 96.6698 488.254 98.3138 487.546 99.5018C486.85 100.678 485.644 101.266 483.928 101.266C482.212 101.266 481 100.678 480.292 99.5018C479.596 98.3138 479.248 96.6698 479.248 94.5698ZM486.592 94.5698C486.592 93.5978 486.526 92.7758 486.394 92.1038C486.274 91.4318 486.022 90.8858 485.638 90.4658C485.254 90.0338 484.684 89.8178 483.928 89.8178C483.172 89.8178 482.602 90.0338 482.218 90.4658C481.834 90.8858 481.576 91.4318 481.444 92.1038C481.324 92.7758 481.264 93.5978 481.264 94.5698C481.264 95.5778 481.324 96.4238 481.444 97.1078C481.564 97.7918 481.816 98.3438 482.2 98.7638C482.596 99.1838 483.172 99.3938 483.928 99.3938C484.684 99.3938 485.254 99.1838 485.638 98.7638C486.034 98.3438 486.292 97.7918 486.412 97.1078C486.532 96.4238 486.592 95.5778 486.592 94.5698ZM490.779 94.5698C490.779 92.4938 491.127 90.8738 491.823 89.7098C492.531 88.5338 493.743 87.9458 495.459 87.9458C497.175 87.9458 498.381 88.5338 499.077 89.7098C499.785 90.8738 500.139 92.4938 500.139 94.5698C500.139 96.6698 499.785 98.3138 499.077 99.5018C498.381 100.678 497.175 101.266 495.459 101.266C493.743 101.266 492.531 100.678 491.823 99.5018C491.127 98.3138 490.779 96.6698 490.779 94.5698ZM498.123 94.5698C498.123 93.5978 498.057 92.7758 497.925 92.1038C497.805 91.4318 497.553 90.8858 497.169 90.4658C496.785 90.0338 496.215 89.8178 495.459 89.8178C494.703 89.8178 494.133 90.0338 493.749 90.4658C493.365 90.8858 493.107 91.4318 492.975 92.1038C492.855 92.7758 492.795 93.5978 492.795 94.5698C492.795 95.5778 492.855 96.4238 492.975 97.1078C493.095 97.7918 493.347 98.3438 493.731 98.7638C494.127 99.1838 494.703 99.3938 495.459 99.3938C496.215 99.3938 496.785 99.1838 497.169 98.7638C497.565 98.3438 497.823 97.7918 497.943 97.1078C498.063 96.4238 498.123 95.5778 498.123 94.5698ZM517.66 91.8878V93.6158H508.084V91.8878H517.66ZM517.66 95.9738V97.7018H508.084V95.9738H517.66ZM533.917 89.7638L528.913 101.302H526.843L531.901 89.9798H525.241V88.2338H533.917V89.7638ZM535.674 94.5698C535.674 92.4938 536.022 90.8738 536.718 89.7098C537.426 88.5338 538.638 87.9458 540.354 87.9458C542.07 87.9458 543.276 88.5338 543.972 89.7098C544.68 90.8738 545.034 92.4938 545.034 94.5698C545.034 96.6698 544.68 98.3138 543.972 99.5018C543.276 100.678 542.07 101.266 540.354 101.266C538.638 101.266 537.426 100.678 536.718 99.5018C536.022 98.3138 535.674 96.6698 535.674 94.5698ZM543.018 94.5698C543.018 93.5978 542.952 92.7758 542.82 92.1038C542.7 91.4318 542.448 90.8858 542.064 90.4658C541.68 90.0338 541.11 89.8178 540.354 89.8178C539.598 89.8178 539.028 90.0338 538.644 90.4658C538.26 90.8858 538.002 91.4318 537.87 92.1038C537.75 92.7758 537.69 93.5978 537.69 94.5698C537.69 95.5778 537.75 96.4238 537.87 97.1078C537.99 97.7918 538.242 98.3438 538.626 98.7638C539.022 99.1838 539.598 99.3938 540.354 99.3938C541.11 99.3938 541.68 99.1838 542.064 98.7638C542.46 98.3438 542.718 97.7918 542.838 97.1078C542.958 96.4238 543.018 95.5778 543.018 94.5698ZM547.205 94.5698C547.205 92.4938 547.553 90.8738 548.249 89.7098C548.957 88.5338 550.169 87.9458 551.885 87.9458C553.601 87.9458 554.807 88.5338 555.503 89.7098C556.211 90.8738 556.565 92.4938 556.565 94.5698C556.565 96.6698 556.211 98.3138 555.503 99.5018C554.807 100.678 553.601 101.266 551.885 101.266C550.169 101.266 548.957 100.678 548.249 99.5018C547.553 98.3138 547.205 96.6698 547.205 94.5698ZM554.549 94.5698C554.549 93.5978 554.483 92.7758 554.351 92.1038C554.231 91.4318 553.979 90.8858 553.595 90.4658C553.211 90.0338 552.641 89.8178 551.885 89.8178C551.129 89.8178 550.559 90.0338 550.175 90.4658C549.791 90.8858 549.533 91.4318 549.401 92.1038C549.281 92.7758 549.221 93.5978 549.221 94.5698C549.221 95.5778 549.281 96.4238 549.401 97.1078C549.521 97.7918 549.773 98.3438 550.157 98.7638C550.553 99.1838 551.129 99.3938 551.885 99.3938C552.641 99.3938 553.211 99.1838 553.595 98.7638C553.991 98.3438 554.249 97.7918 554.369 97.1078C554.489 96.4238 554.549 95.5778 554.549 94.5698ZM561.256 98.8358L559.078 103.804H557.746L559.024 98.8358H561.256ZM562.779 94.5698C562.779 92.4938 563.127 90.8738 563.823 89.7098C564.531 88.5338 565.743 87.9458 567.459 87.9458C569.175 87.9458 570.381 88.5338 571.077 89.7098C571.785 90.8738 572.139 92.4938 572.139 94.5698C572.139 96.6698 571.785 98.3138 571.077 99.5018C570.381 100.678 569.175 101.266 567.459 101.266C565.743 101.266 564.531 100.678 563.823 99.5018C563.127 98.3138 562.779 96.6698 562.779 94.5698ZM570.123 94.5698C570.123 93.5978 570.057 92.7758 569.925 92.1038C569.805 91.4318 569.553 90.8858 569.169 90.4658C568.785 90.0338 568.215 89.8178 567.459 89.8178C566.703 89.8178 566.133 90.0338 565.749 90.4658C565.365 90.8858 565.107 91.4318 564.975 92.1038C564.855 92.7758 564.795 93.5978 564.795 94.5698C564.795 95.5778 564.855 96.4238 564.975 97.1078C565.095 97.7918 565.347 98.3438 565.731 98.7638C566.127 99.1838 566.703 99.3938 567.459 99.3938C568.215 99.3938 568.785 99.1838 569.169 98.7638C569.565 98.3438 569.823 97.7918 569.943 97.1078C570.063 96.4238 570.123 95.5778 570.123 94.5698ZM574.31 94.5698C574.31 92.4938 574.658 90.8738 575.354 89.7098C576.062 88.5338 577.274 87.9458 578.99 87.9458C580.706 87.9458 581.912 88.5338 582.608 89.7098C583.316 90.8738 583.67 92.4938 583.67 94.5698C583.67 96.6698 583.316 98.3138 582.608 99.5018C581.912 100.678 580.706 101.266 578.99 101.266C577.274 101.266 576.062 100.678 575.354 99.5018C574.658 98.3138 574.31 96.6698 574.31 94.5698ZM581.654 94.5698C581.654 93.5978 581.588 92.7758 581.456 92.1038C581.336 91.4318 581.084 90.8858 580.7 90.4658C580.316 90.0338 579.746 89.8178 578.99 89.8178C578.234 89.8178 577.664 90.0338 577.28 90.4658C576.896 90.8858 576.638 91.4318 576.506 92.1038C576.386 92.7758 576.326 93.5978 576.326 94.5698C576.326 95.5778 576.386 96.4238 576.506 97.1078C576.626 97.7918 576.878 98.3438 577.262 98.7638C577.658 99.1838 578.234 99.3938 578.99 99.3938C579.746 99.3938 580.316 99.1838 580.7 98.7638C581.096 98.3438 581.354 97.7918 581.474 97.1078C581.594 96.4238 581.654 95.5778 581.654 94.5698ZM585.842 94.5698C585.842 92.4938 586.19 90.8738 586.886 89.7098C587.594 88.5338 588.806 87.9458 590.522 87.9458C592.238 87.9458 593.444 88.5338 594.14 89.7098C594.848 90.8738 595.202 92.4938 595.202 94.5698C595.202 96.6698 594.848 98.3138 594.14 99.5018C593.444 100.678 592.238 101.266 590.522 101.266C588.806 101.266 587.594 100.678 586.886 99.5018C586.19 98.3138 585.842 96.6698 585.842 94.5698ZM593.186 94.5698C593.186 93.5978 593.12 92.7758 592.988 92.1038C592.868 91.4318 592.616 90.8858 592.232 90.4658C591.848 90.0338 591.278 89.8178 590.522 89.8178C589.766 89.8178 589.196 90.0338 588.812 90.4658C588.428 90.8858 588.17 91.4318 588.038 92.1038C587.918 92.7758 587.858 93.5978 587.858 94.5698C587.858 95.5778 587.918 96.4238 588.038 97.1078C588.158 97.7918 588.41 98.3438 588.794 98.7638C589.19 99.1838 589.766 99.3938 590.522 99.3938C591.278 99.3938 591.848 99.1838 592.232 98.7638C592.628 98.3438 592.886 97.7918 593.006 97.1078C593.126 96.4238 593.186 95.5778 593.186 94.5698ZM601.635 96.2978C601.635 95.3018 601.839 94.4198 602.247 93.6518C602.667 92.8838 603.231 92.2898 603.939 91.8698C604.659 91.4378 605.457 91.2218 606.333 91.2218C606.981 91.2218 607.617 91.3658 608.241 91.6538C608.877 91.9298 609.381 92.3018 609.753 92.7698V87.9818H611.823V101.302H609.753V99.8078C609.417 100.288 608.949 100.684 608.349 100.996C607.761 101.308 607.083 101.464 606.315 101.464C605.451 101.464 604.659 101.248 603.939 100.816C603.231 100.372 602.667 99.7598 602.247 98.9798C601.839 98.1878 601.635 97.2938 601.635 96.2978ZM609.753 96.3338C609.753 95.6498 609.609 95.0558 609.321 94.5518C609.045 94.0478 608.679 93.6638 608.223 93.3998C607.767 93.1358 607.275 93.0038 606.747 93.0038C606.219 93.0038 605.727 93.1358 605.271 93.3998C604.815 93.6518 604.443 94.0298 604.155 94.5338C603.879 95.0258 603.741 95.6138 603.741 96.2978C603.741 96.9818 603.879 97.5818 604.155 98.0978C604.443 98.6138 604.815 99.0098 605.271 99.2858C605.739 99.5498 606.231 99.6818 606.747 99.6818C607.275 99.6818 607.767 99.5498 608.223 99.2858C608.679 99.0218 609.045 98.6378 609.321 98.1338C609.609 97.6178 609.753 97.0178 609.753 96.3338ZM615.562 90.0698C615.19 90.0698 614.878 89.9438 614.626 89.6918C614.374 89.4398 614.248 89.1278 614.248 88.7558C614.248 88.3838 614.374 88.0718 614.626 87.8198C614.878 87.5678 615.19 87.4418 615.562 87.4418C615.922 87.4418 616.228 87.5678 616.48 87.8198C616.732 88.0718 616.858 88.3838 616.858 88.7558C616.858 89.1278 616.732 89.4398 616.48 89.6918C616.228 89.9438 615.922 90.0698 615.562 90.0698ZM616.57 91.3838V101.302H614.518V91.3838H616.57ZM618.58 96.2978C618.58 95.3018 618.784 94.4198 619.192 93.6518C619.612 92.8838 620.176 92.2898 620.884 91.8698C621.604 91.4378 622.396 91.2218 623.26 91.2218C624.04 91.2218 624.718 91.3778 625.294 91.6898C625.882 91.9898 626.35 92.3678 626.698 92.8238V91.3838H628.768V101.302H626.698V99.8258C626.35 100.294 625.876 100.684 625.276 100.996C624.676 101.308 623.992 101.464 623.224 101.464C622.372 101.464 621.592 101.248 620.884 100.816C620.176 100.372 619.612 99.7598 619.192 98.9798C618.784 98.1878 618.58 97.2938 618.58 96.2978ZM626.698 96.3338C626.698 95.6498 626.554 95.0558 626.266 94.5518C625.99 94.0478 625.624 93.6638 625.168 93.3998C624.712 93.1358 624.22 93.0038 623.692 93.0038C623.164 93.0038 622.672 93.1358 622.216 93.3998C621.76 93.6518 621.388 94.0298 621.1 94.5338C620.824 95.0258 620.686 95.6138 620.686 96.2978C620.686 96.9818 620.824 97.5818 621.1 98.0978C621.388 98.6138 621.76 99.0098 622.216 99.2858C622.684 99.5498 623.176 99.6818 623.692 99.6818C624.22 99.6818 624.712 99.5498 625.168 99.2858C625.624 99.0218 625.99 98.6378 626.266 98.1338C626.554 97.6178 626.698 97.0178 626.698 96.3338ZM643.469 91.2218C644.249 91.2218 644.945 91.3838 645.557 91.7078C646.181 92.0318 646.667 92.5118 647.015 93.1478C647.375 93.7838 647.555 94.5518 647.555 95.4518V101.302H645.521V95.7578C645.521 94.8698 645.299 94.1918 644.855 93.7238C644.411 93.2438 643.805 93.0038 643.037 93.0038C642.269 93.0038 641.657 93.2438 641.201 93.7238C640.757 94.1918 640.535 94.8698 640.535 95.7578V101.302H638.501V95.7578C638.501 94.8698 638.279 94.1918 637.835 93.7238C637.391 93.2438 636.785 93.0038 636.017 93.0038C635.249 93.0038 634.637 93.2438 634.181 93.7238C633.737 94.1918 633.515 94.8698 633.515 95.7578V101.302H631.463V91.3838H633.515V92.5178C633.851 92.1098 634.277 91.7918 634.793 91.5638C635.309 91.3358 635.861 91.2218 636.449 91.2218C637.241 91.2218 637.949 91.3898 638.573 91.7258C639.197 92.0618 639.677 92.5478 640.013 93.1838C640.313 92.5838 640.781 92.1098 641.417 91.7618C642.053 91.4018 642.737 91.2218 643.469 91.2218ZM654.468 101.464C653.532 101.464 652.686 101.254 651.93 100.834C651.174 100.402 650.58 99.8018 650.148 99.0338C649.716 98.2538 649.5 97.3538 649.5 96.3338C649.5 95.3258 649.722 94.4318 650.166 93.6518C650.61 92.8718 651.216 92.2718 651.984 91.8518C652.752 91.4318 653.61 91.2218 654.558 91.2218C655.506 91.2218 656.364 91.4318 657.132 91.8518C657.9 92.2718 658.506 92.8718 658.95 93.6518C659.394 94.4318 659.616 95.3258 659.616 96.3338C659.616 97.3418 659.388 98.2358 658.932 99.0158C658.476 99.7958 657.852 100.402 657.06 100.834C656.28 101.254 655.416 101.464 654.468 101.464ZM654.468 99.6818C654.996 99.6818 655.488 99.5558 655.944 99.3038C656.412 99.0518 656.79 98.6738 657.078 98.1698C657.366 97.6658 657.51 97.0538 657.51 96.3338C657.51 95.6138 657.372 95.0078 657.096 94.5158C656.82 94.0118 656.454 93.6338 655.998 93.3818C655.542 93.1298 655.05 93.0038 654.522 93.0038C653.994 93.0038 653.502 93.1298 653.046 93.3818C652.602 93.6338 652.248 94.0118 651.984 94.5158C651.72 95.0078 651.588 95.6138 651.588 96.3338C651.588 97.4018 651.858 98.2298 652.398 98.8178C652.95 99.3938 653.64 99.6818 654.468 99.6818ZM666.649 91.2218C667.429 91.2218 668.125 91.3838 668.737 91.7078C669.361 92.0318 669.847 92.5118 670.195 93.1478C670.543 93.7838 670.717 94.5518 670.717 95.4518V101.302H668.683V95.7578C668.683 94.8698 668.461 94.1918 668.017 93.7238C667.573 93.2438 666.967 93.0038 666.199 93.0038C665.431 93.0038 664.819 93.2438 664.363 93.7238C663.919 94.1918 663.697 94.8698 663.697 95.7578V101.302H661.645V91.3838H663.697V92.5178C664.033 92.1098 664.459 91.7918 664.975 91.5638C665.503 91.3358 666.061 91.2218 666.649 91.2218ZM672.65 96.2978C672.65 95.3018 672.854 94.4198 673.262 93.6518C673.682 92.8838 674.246 92.2898 674.954 91.8698C675.674 91.4378 676.472 91.2218 677.348 91.2218C677.996 91.2218 678.632 91.3658 679.256 91.6538C679.892 91.9298 680.396 92.3018 680.768 92.7698V87.9818H682.838V101.302H680.768V99.8078C680.432 100.288 679.964 100.684 679.364 100.996C678.776 101.308 678.098 101.464 677.33 101.464C676.466 101.464 675.674 101.248 674.954 100.816C674.246 100.372 673.682 99.7598 673.262 98.9798C672.854 98.1878 672.65 97.2938 672.65 96.2978ZM680.768 96.3338C680.768 95.6498 680.624 95.0558 680.336 94.5518C680.06 94.0478 679.694 93.6638 679.238 93.3998C678.782 93.1358 678.29 93.0038 677.762 93.0038C677.234 93.0038 676.742 93.1358 676.286 93.3998C675.83 93.6518 675.458 94.0298 675.17 94.5338C674.894 95.0258 674.756 95.6138 674.756 96.2978C674.756 96.9818 674.894 97.5818 675.17 98.0978C675.458 98.6138 675.83 99.0098 676.286 99.2858C676.754 99.5498 677.246 99.6818 677.762 99.6818C678.29 99.6818 678.782 99.5498 679.238 99.2858C679.694 99.0218 680.06 98.6378 680.336 98.1338C680.624 97.6178 680.768 97.0178 680.768 96.3338ZM689.134 101.464C688.354 101.464 687.652 101.326 687.028 101.05C686.416 100.762 685.93 100.378 685.57 99.8978C685.21 99.4058 685.018 98.8598 684.994 98.2598H687.118C687.154 98.6798 687.352 99.0338 687.712 99.3218C688.084 99.5978 688.546 99.7358 689.098 99.7358C689.674 99.7358 690.118 99.6278 690.43 99.4118C690.754 99.1838 690.916 98.8958 690.916 98.5478C690.916 98.1758 690.736 97.8998 690.376 97.7198C690.028 97.5398 689.47 97.3418 688.702 97.1258C687.958 96.9218 687.352 96.7238 686.884 96.5318C686.416 96.3398 686.008 96.0458 685.66 95.6498C685.324 95.2538 685.156 94.7318 685.156 94.0838C685.156 93.5558 685.312 93.0758 685.624 92.6438C685.936 92.1998 686.38 91.8518 686.956 91.5998C687.544 91.3478 688.216 91.2218 688.972 91.2218C690.1 91.2218 691.006 91.5098 691.69 92.0858C692.386 92.6498 692.758 93.4238 692.806 94.4078H690.754C690.718 93.9638 690.538 93.6098 690.214 93.3458C689.89 93.0818 689.452 92.9498 688.9 92.9498C688.36 92.9498 687.946 93.0518 687.658 93.2558C687.37 93.4598 687.226 93.7298 687.226 94.0658C687.226 94.3298 687.322 94.5518 687.514 94.7318C687.706 94.9118 687.94 95.0558 688.216 95.1638C688.492 95.2598 688.9 95.3858 689.44 95.5418C690.16 95.7338 690.748 95.9318 691.204 96.1358C691.672 96.3278 692.074 96.6158 692.41 96.9998C692.746 97.3838 692.92 97.8938 692.932 98.5298C692.932 99.0938 692.776 99.5978 692.464 100.042C692.152 100.486 691.708 100.834 691.132 101.086C690.568 101.338 689.902 101.464 689.134 101.464ZM694.645 104.65V104.452C695.881 103.18 696.823 101.698 697.471 100.006C698.119 98.3138 698.443 96.5618 698.443 94.7498C698.443 92.8658 698.095 91.0358 697.399 89.2598C696.703 87.4838 695.665 85.9598 694.285 84.6878V84.4898H696.409C697.729 85.6658 698.725 87.1598 699.397 88.9718C700.081 90.7838 700.423 92.7098 700.423 94.7498C700.423 96.7418 700.105 98.6078 699.469 100.348C698.845 102.088 697.945 103.522 696.769 104.65H694.645Z" fill="white"/>
<path d="M460.029 30.8213L456.829 25.2613H455.089V30.8213H452.809V16.9213H457.609C458.675 16.9213 459.575 17.108 460.309 17.4813C461.055 17.8546 461.609 18.3546 461.969 18.9813C462.342 19.608 462.529 20.308 462.529 21.0813C462.529 21.988 462.262 22.8146 461.729 23.5613C461.209 24.2946 460.402 24.7946 459.309 25.0613L462.749 30.8213H460.029ZM455.089 23.4413H457.609C458.462 23.4413 459.102 23.228 459.529 22.8013C459.969 22.3746 460.189 21.8013 460.189 21.0813C460.189 20.3613 459.975 19.8013 459.549 19.4013C459.122 18.988 458.475 18.7813 457.609 18.7813H455.089V23.4413ZM475.545 25.0413C475.545 25.4546 475.519 25.828 475.465 26.1613H467.045C467.112 27.0413 467.439 27.748 468.025 28.2813C468.612 28.8146 469.332 29.0813 470.185 29.0813C471.412 29.0813 472.279 28.568 472.785 27.5413H475.245C474.912 28.5546 474.305 29.388 473.425 30.0413C472.559 30.6813 471.479 31.0013 470.185 31.0013C469.132 31.0013 468.185 30.768 467.345 30.3013C466.519 29.8213 465.865 29.1546 465.385 28.3013C464.919 27.4346 464.685 26.4346 464.685 25.3013C464.685 24.168 464.912 23.1746 465.365 22.3213C465.832 21.4546 466.479 20.788 467.305 20.3213C468.145 19.8546 469.105 19.6213 470.185 19.6213C471.225 19.6213 472.152 19.848 472.965 20.3013C473.779 20.7546 474.412 21.3946 474.865 22.2213C475.319 23.0346 475.545 23.9746 475.545 25.0413ZM473.165 24.3213C473.152 23.4813 472.852 22.808 472.265 22.3013C471.679 21.7946 470.952 21.5413 470.085 21.5413C469.299 21.5413 468.625 21.7946 468.065 22.3013C467.505 22.7946 467.172 23.468 467.065 24.3213H473.165ZM477.029 25.2613C477.029 24.1546 477.256 23.1746 477.709 22.3213C478.176 21.468 478.802 20.808 479.589 20.3413C480.389 19.8613 481.276 19.6213 482.249 19.6213C483.102 19.6213 483.856 19.7946 484.509 20.1413C485.176 20.488 485.689 20.908 486.049 21.4013V19.8013H488.349V36.0613H486.049V29.2213C485.689 29.7146 485.169 30.1346 484.489 30.4813C483.809 30.828 483.036 31.0013 482.169 31.0013C481.222 31.0013 480.356 30.7613 479.569 30.2813C478.796 29.788 478.176 29.108 477.709 28.2413C477.256 27.3613 477.029 26.368 477.029 25.2613ZM486.049 25.3013C486.049 24.5413 485.889 23.8813 485.569 23.3213C485.262 22.7613 484.856 22.3346 484.349 22.0413C483.842 21.748 483.296 21.6013 482.709 21.6013C482.122 21.6013 481.576 21.748 481.069 22.0413C480.562 22.3213 480.149 22.7413 479.829 23.3013C479.522 23.848 479.369 24.5013 479.369 25.2613C479.369 26.0213 479.522 26.688 479.829 27.2613C480.149 27.8346 480.562 28.2746 481.069 28.5813C481.589 28.8746 482.136 29.0213 482.709 29.0213C483.296 29.0213 483.842 28.8746 484.349 28.5813C484.856 28.288 485.262 27.8613 485.569 27.3013C485.889 26.728 486.049 26.0613 486.049 25.3013ZM501.324 19.8013V30.8213H499.044V29.5213C498.684 29.9746 498.21 30.3346 497.624 30.6013C497.05 30.8546 496.437 30.9813 495.784 30.9813C494.917 30.9813 494.137 30.8013 493.444 30.4413C492.764 30.0813 492.224 29.548 491.824 28.8413C491.437 28.1346 491.244 27.2813 491.244 26.2813V19.8013H493.504V25.9413C493.504 26.928 493.75 27.688 494.244 28.2213C494.737 28.7413 495.41 29.0013 496.264 29.0013C497.117 29.0013 497.79 28.7413 498.284 28.2213C498.79 27.688 499.044 26.928 499.044 25.9413V19.8013H501.324ZM505.492 18.3413C505.079 18.3413 504.732 18.2013 504.452 17.9213C504.172 17.6413 504.032 17.2946 504.032 16.8813C504.032 16.468 504.172 16.1213 504.452 15.8413C504.732 15.5613 505.079 15.4213 505.492 15.4213C505.892 15.4213 506.232 15.5613 506.512 15.8413C506.792 16.1213 506.932 16.468 506.932 16.8813C506.932 17.2946 506.792 17.6413 506.512 17.9213C506.232 18.2013 505.892 18.3413 505.492 18.3413ZM506.612 19.8013V30.8213H504.332V19.8013H506.612ZM511.885 21.4013C512.219 20.8413 512.659 20.408 513.205 20.1013C513.765 19.7813 514.425 19.6213 515.185 19.6213V21.9813H514.605C513.712 21.9813 513.032 22.208 512.565 22.6613C512.112 23.1146 511.885 23.9013 511.885 25.0213V30.8213H509.605V19.8013H511.885V21.4013ZM527.381 25.0413C527.381 25.4546 527.355 25.828 527.301 26.1613H518.881C518.948 27.0413 519.275 27.748 519.861 28.2813C520.448 28.8146 521.168 29.0813 522.021 29.0813C523.248 29.0813 524.115 28.568 524.621 27.5413H527.081C526.748 28.5546 526.141 29.388 525.261 30.0413C524.395 30.6813 523.315 31.0013 522.021 31.0013C520.968 31.0013 520.021 30.768 519.181 30.3013C518.355 29.8213 517.701 29.1546 517.221 28.3013C516.755 27.4346 516.521 26.4346 516.521 25.3013C516.521 24.168 516.748 23.1746 517.201 22.3213C517.668 21.4546 518.315 20.788 519.141 20.3213C519.981 19.8546 520.941 19.6213 522.021 19.6213C523.061 19.6213 523.988 19.848 524.801 20.3013C525.615 20.7546 526.248 21.3946 526.701 22.2213C527.155 23.0346 527.381 23.9746 527.381 25.0413ZM525.001 24.3213C524.988 23.4813 524.688 22.808 524.101 22.3013C523.515 21.7946 522.788 21.5413 521.921 21.5413C521.135 21.5413 520.461 21.7946 519.901 22.3013C519.341 22.7946 519.008 23.468 518.901 24.3213H525.001ZM542.965 19.6213C543.832 19.6213 544.605 19.8013 545.285 20.1613C545.978 20.5213 546.518 21.0546 546.905 21.7613C547.305 22.468 547.505 23.3213 547.505 24.3213V30.8213H545.245V24.6613C545.245 23.6746 544.998 22.9213 544.505 22.4013C544.012 21.868 543.338 21.6013 542.485 21.6013C541.632 21.6013 540.952 21.868 540.445 22.4013C539.952 22.9213 539.705 23.6746 539.705 24.6613V30.8213H537.445V24.6613C537.445 23.6746 537.198 22.9213 536.705 22.4013C536.212 21.868 535.538 21.6013 534.685 21.6013C533.832 21.6013 533.152 21.868 532.645 22.4013C532.152 22.9213 531.905 23.6746 531.905 24.6613V30.8213H529.625V19.8013H531.905V21.0613C532.278 20.608 532.752 20.2546 533.325 20.0013C533.898 19.748 534.512 19.6213 535.165 19.6213C536.045 19.6213 536.832 19.808 537.525 20.1813C538.218 20.5546 538.752 21.0946 539.125 21.8013C539.458 21.1346 539.978 20.608 540.685 20.2213C541.392 19.8213 542.152 19.6213 542.965 19.6213ZM560.506 25.0413C560.506 25.4546 560.48 25.828 560.426 26.1613H552.006C552.073 27.0413 552.4 27.748 552.986 28.2813C553.573 28.8146 554.293 29.0813 555.146 29.0813C556.373 29.0813 557.24 28.568 557.746 27.5413H560.206C559.873 28.5546 559.266 29.388 558.386 30.0413C557.52 30.6813 556.44 31.0013 555.146 31.0013C554.093 31.0013 553.146 30.768 552.306 30.3013C551.48 29.8213 550.826 29.1546 550.346 28.3013C549.88 27.4346 549.646 26.4346 549.646 25.3013C549.646 24.168 549.873 23.1746 550.326 22.3213C550.793 21.4546 551.44 20.788 552.266 20.3213C553.106 19.8546 554.066 19.6213 555.146 19.6213C556.186 19.6213 557.113 19.848 557.926 20.3013C558.74 20.7546 559.373 21.3946 559.826 22.2213C560.28 23.0346 560.506 23.9746 560.506 25.0413ZM558.126 24.3213C558.113 23.4813 557.813 22.808 557.226 22.3013C556.64 21.7946 555.913 21.5413 555.046 21.5413C554.26 21.5413 553.586 21.7946 553.026 22.3013C552.466 22.7946 552.133 23.468 552.026 24.3213H558.126ZM568.31 19.6213C569.177 19.6213 569.95 19.8013 570.63 20.1613C571.323 20.5213 571.863 21.0546 572.25 21.7613C572.637 22.468 572.83 23.3213 572.83 24.3213V30.8213H570.57V24.6613C570.57 23.6746 570.323 22.9213 569.83 22.4013C569.337 21.868 568.663 21.6013 567.81 21.6013C566.957 21.6013 566.277 21.868 565.77 22.4013C565.277 22.9213 565.03 23.6746 565.03 24.6613V30.8213H562.75V19.8013H565.03V21.0613C565.403 20.608 565.877 20.2546 566.45 20.0013C567.037 19.748 567.657 19.6213 568.31 19.6213ZM578.398 21.6613V27.7613C578.398 28.1746 578.492 28.4746 578.678 28.6613C578.878 28.8346 579.212 28.9213 579.678 28.9213H581.078V30.8213H579.278C578.252 30.8213 577.465 30.5813 576.918 30.1013C576.372 29.6213 576.098 28.8413 576.098 27.7613V21.6613H574.798V19.8013H576.098V17.0613H578.398V19.8013H581.078V21.6613H578.398ZM589.335 27.7213C590.615 26.6146 591.622 25.708 592.355 25.0013C593.102 24.2813 593.722 23.5346 594.215 22.7613C594.708 21.988 594.955 21.2146 594.955 20.4413C594.955 19.6413 594.762 19.0146 594.375 18.5613C594.002 18.108 593.408 17.8813 592.595 17.8813C591.808 17.8813 591.195 18.1346 590.755 18.6413C590.328 19.1346 590.102 19.8013 590.075 20.6413H587.875C587.915 19.1213 588.368 17.9613 589.235 17.1613C590.115 16.348 591.228 15.9413 592.575 15.9413C594.028 15.9413 595.162 16.3413 595.975 17.1413C596.802 17.9413 597.215 19.008 597.215 20.3413C597.215 21.3013 596.968 22.228 596.475 23.1213C595.995 24.0013 595.415 24.7946 594.735 25.5013C594.068 26.1946 593.215 27.0013 592.175 27.9213L591.275 28.7213H597.615V30.6213H587.895V28.9613L589.335 27.7213Z" fill="white"/>
<line x1="419.92" y1="0.888039" x2="420.082" y2="128.904" stroke="white"/>
<line x1="838.549" y1="45.5596" x2="0.451172" y2="45.5596" stroke="white"/>
</svg>
