<?xml version="1.0" encoding="UTF-8"?>
<svg xmlns="http://www.w3.org/2000/svg" version="1.1" viewBox="0 0 378.1 404.06">
  <defs>
    <style>
      .cls-1 {
        fill: #dadada;
      }

      .cls-2 {
        fill: #003447;
      }

      .cls-3 {
        fill: #002738;
      }

      .cls-4 {
        fill: #61b9d9;
      }

      .cls-4, .cls-5, .cls-6 {
        mix-blend-mode: multiply;
      }

      .cls-5 {
        fill: #dedede;
      }

      .cls-7 {
        isolation: isolate;
      }

      .cls-8 {
        fill: #001926;
      }

      .cls-9 {
        fill: #f9bb8d;
      }

      .cls-6, .cls-10 {
        fill: #b41f1c;
      }

      .cls-11 {
        fill: #b2b2b2;
      }
    </style>
  </defs>
  <!-- Generator: Adobe Illustrator 28.7.1, SVG Export Plug-In . SVG Version: 1.2.0 Build 142)  -->
  <g class="cls-7">
    <g id="Capa_1">
      <g>
        <g>
          <g>
            <path class="cls-8" d="M217.2,112.32c0,9.29-6.06,20.51-15.35,20.51s-15.35-11.22-15.35-20.51,6.06-16.83,15.35-16.83,15.35,7.53,15.35,16.83Z"/>
            <g>
              <polygon class="cls-8" points="204.89 146.71 200.39 146.71 197.75 137.86 202.56 135.69 207.37 137.86 204.89 146.71"/>
              <polygon class="cls-8" points="204.89 146.71 200.39 146.71 197.75 181.63 207.37 181.63 204.89 146.71"/>
            </g>
            <path class="cls-8" d="M223.01,199.86h-38.81s-9.11-11.47-10-24.99c-.88-13.52,6.47-31.75,6.47-31.75,0,0,7.06-6.17,11.76-6.17,2.37,0,10.58,36.46,10.58,36.46,0,0,8.11-36.46,10.58-36.46,5,0,12.05,6.17,12.05,6.17,0,0,5.88,23,5.29,34.43-.59,11.43-7.94,22.31-7.94,22.31Z"/>
            <polygon class="cls-8" points="223.96 192.51 183.62 192.51 191.36 285.73 178.91 291.59 203.9 291.59 205.37 227.5 208.9 291.59 230.99 291.59 219.18 286 223.96 192.51"/>
          </g>
          <g>
            <path class="cls-3" d="M274.87,112.32c0,9.29-6.06,20.51-15.35,20.51s-15.35-11.22-15.35-20.51,6.06-16.83,15.35-16.83,15.35,7.53,15.35,16.83Z"/>
            <g>
              <polygon class="cls-3" points="262.56 146.71 258.06 146.71 255.42 137.86 260.23 135.69 265.04 137.86 262.56 146.71"/>
              <polygon class="cls-3" points="262.56 146.71 258.06 146.71 255.42 181.63 265.04 181.63 262.56 146.71"/>
            </g>
            <path class="cls-3" d="M280.68,199.86h-38.81s-9.11-11.47-10-24.99c-.88-13.52,6.47-31.75,6.47-31.75,0,0,7.06-6.17,11.76-6.17,2.37,0,10.58,36.46,10.58,36.46,0,0,8.11-36.46,10.58-36.46,5,0,12.05,6.17,12.05,6.17,0,0,5.88,23,5.29,34.43-.59,11.43-7.94,22.31-7.94,22.31Z"/>
            <polygon class="cls-3" points="281.62 192.51 241.29 192.51 249.03 285.73 236.58 291.59 261.57 291.59 263.04 227.5 266.57 291.59 288.66 291.59 276.85 286 281.62 192.51"/>
          </g>
          <g>
            <path class="cls-3" d="M160.34,112.32c0,9.29-6.06,20.51-15.35,20.51s-15.35-11.22-15.35-20.51,6.06-16.83,15.35-16.83,15.35,7.53,15.35,16.83Z"/>
            <g>
              <polygon class="cls-3" points="148.03 146.71 143.53 146.71 140.89 137.86 145.71 135.69 150.52 137.86 148.03 146.71"/>
              <polygon class="cls-3" points="148.03 146.71 143.53 146.71 140.89 181.63 150.52 181.63 148.03 146.71"/>
            </g>
            <path class="cls-3" d="M166.15,199.86h-38.81s-9.11-11.47-10-24.99c-.88-13.52,6.47-31.75,6.47-31.75,0,0,7.06-6.17,11.76-6.17,2.37,0,10.58,36.46,10.58,36.46,0,0,8.11-36.46,10.58-36.46,5,0,12.05,6.17,12.05,6.17,0,0,5.88,23,5.29,34.43-.59,11.43-7.94,22.31-7.94,22.31Z"/>
            <polygon class="cls-3" points="167.1 192.51 126.76 192.51 134.5 285.73 122.05 291.59 147.04 291.59 148.51 227.5 152.04 291.59 174.13 291.59 162.32 286 167.1 192.51"/>
          </g>
          <g>
            <path class="cls-2" d="M330.59,112.86c0,9.27-6.04,20.45-15.31,20.45s-15.31-11.18-15.31-20.45,6.04-16.78,15.31-16.78,15.31,7.51,15.31,16.78Z"/>
            <g>
              <polygon class="cls-2" points="318.33 147.14 313.84 147.14 311.21 138.32 316 136.16 320.8 138.32 318.33 147.14"/>
              <polygon class="cls-2" points="318.33 147.14 313.84 147.14 311.21 181.96 320.8 181.96 318.33 147.14"/>
            </g>
            <path class="cls-2" d="M336.39,200.14h-38.69s-9.09-11.43-9.97-24.91,6.45-31.66,6.45-31.66c0,0,7.03-6.16,11.72-6.16,2.37,0,10.55,36.35,10.55,36.35,0,0,8.08-36.35,10.55-36.35,4.98,0,12.02,6.16,12.02,6.16,0,0,5.86,22.93,5.28,34.33-.59,11.4-7.91,22.24-7.91,22.24Z"/>
            <polygon class="cls-2" points="337.33 192.81 297.11 192.81 304.83 285.74 292.42 291.59 317.34 291.59 318.8 227.69 322.32 291.59 344.35 291.59 332.57 286.02 337.33 192.81"/>
          </g>
          <g>
            <path class="cls-2" d="M103.52,112.86c0,9.27-6.04,20.45-15.31,20.45s-15.31-11.18-15.31-20.45,6.04-16.78,15.31-16.78,15.31,7.51,15.31,16.78Z"/>
            <g>
              <polygon class="cls-2" points="91.26 147.14 86.77 147.14 84.14 138.32 88.93 136.16 93.73 138.32 91.26 147.14"/>
              <polygon class="cls-2" points="91.26 147.14 86.77 147.14 84.14 181.96 93.73 181.96 91.26 147.14"/>
            </g>
            <path class="cls-2" d="M109.32,200.14h-38.69s-9.09-11.43-9.97-24.91c-.88-13.48,6.45-31.66,6.45-31.66,0,0,7.03-6.16,11.72-6.16,2.37,0,10.55,36.35,10.55,36.35,0,0,8.08-36.35,10.55-36.35,4.98,0,12.02,6.16,12.02,6.16,0,0,5.86,22.93,5.28,34.33-.59,11.4-7.91,22.24-7.91,22.24Z"/>
            <polygon class="cls-2" points="110.26 192.81 70.04 192.81 77.77 285.74 65.35 291.59 90.27 291.59 91.73 227.69 95.25 291.59 117.28 291.59 105.5 286.02 110.26 192.81"/>
          </g>
        </g>
        <g>
          <g>
            <path class="cls-4" d="M219.86,188.26c-27.19,13.26-59.98,1.97-73.23-25.22-13.26-27.19-1.97-59.98,25.22-73.24,27.19-13.26,59.98-1.97,73.24,25.22s1.97,59.98-25.22,73.23Z"/>
            <path class="cls-1" d="M250.9,112.18c-14.83-30.41-51.5-43.03-81.9-28.21-30.4,14.83-43.03,51.5-28.21,81.9,14.83,30.41,51.5,43.03,81.9,28.21,30.4-14.83,43.03-51.49,28.21-81.9ZM149.64,161.56c-12.44-25.52-1.85-56.29,23.67-68.74,25.52-12.44,56.29-1.85,68.74,23.67,12.44,25.52,1.85,56.29-23.67,68.74-25.52,12.44-56.29,1.85-68.74-23.67Z"/>
            <rect class="cls-1" x="136.76" y="188.28" width="32.47" height="14.75" transform="translate(-95.35 199.58) rotate(-52.88)"/>
            <rect class="cls-11" x="140.32" y="191.07" width="14.5" height="23.5" transform="translate(-103.21 198.11) rotate(-52.88)"/>
            <rect class="cls-10" x="32.56" y="251.87" width="138" height="23.5" transform="translate(-169.94 185.53) rotate(-52.88)"/>
            <rect class="cls-6" x="27.88" y="254.2" width="138" height="11.75" transform="translate(-168.97 180.38) rotate(-52.88)"/>
            <rect class="cls-5" x="135.64" y="193.4" width="14.5" height="11.75" transform="translate(-102.24 192.96) rotate(-52.88)"/>
          </g>
          <path class="cls-9" d="M62.11,300.42l-2.82-36.67s-2.28-11.34-1.88-15.13c.7-6.72,9.84-13.54,9.57-10.24-.47,5.8,2.15,11.5,2.15,11.5,0,0-1.38-8.38.14-13.88,1.93-7.01,12.95-15.54,11.15-11.15-4.83,11.77,1.23,18.16,1.23,18.16-2.11-5.62-1.34-16.2,1.68-20.57,5.61-8.13,14.61-9.35,18.6-8.82-3.79,5.24-8.3,13.4-8.73,15.74-.96,5.24,1.17,9.93,1.17,9.93l.25-8.98s6.17-14.01,10.94-17.62c4.77-3.61,19.74-6.28,26.38-8.68-7.2,9.51-11.65,15.4-14.98,19.79-1.12.63-2.43,2.54-2.73,3.01-1.6,2.41,3.68,25.87,6.72,26.56,1.13.26,6.29-1.22,9.34-8.24,5.25-6.93,9.11-12.04,12.69-16.76-1.37,10.9,5.42,37.13.87,44.99-5.65,9.78-41.75,36.54-45.57,44.8-.43.93-8.68,27.26-8.68,27.26h-55.84l28.36-44.99Z"/>
        </g>
      </g>
    </g>
  </g>
</svg>