<?xml version="1.0" encoding="UTF-8"?>
<svg xmlns="http://www.w3.org/2000/svg" version="1.1" viewBox="0 0 378.1 404.06">
  <defs>
    <style>
      .cls-1 {
        fill: #bce2ee;
      }

      .cls-2 {
        fill: #2f65ae;
      }

      .cls-3 {
        fill: #fdfeff;
      }

      .cls-4 {
        fill: #d1b17b;
      }

      .cls-5 {
        fill: #d0b07d;
      }

      .cls-6 {
        fill: #1556a4;
      }

      .cls-7 {
        fill: #fbbc2f;
      }

      .cls-8 {
        fill: #a1d7df;
        opacity: .68;
      }

      .cls-9 {
        fill: #b79451;
      }

      .cls-10 {
        fill: #fff;
      }

      .cls-11 {
        fill: #79a73d;
      }

      .cls-12 {
        fill: #e8f5f7;
      }

      .cls-13 {
        fill: #362824;
      }

      .cls-14 {
        fill: #fbc487;
      }

      .cls-15 {
        fill: #fed787;
      }

      .cls-16 {
        fill: #a65e53;
      }

      .cls-17 {
        fill: #a4ca68;
      }

      .cls-18 {
        fill: #f9dfae;
      }

      .cls-19 {
        fill: #7acada;
      }

      .cls-20 {
        fill: #c7846e;
      }

      .cls-21 {
        fill: #005182;
      }

      .cls-22 {
        fill: #fff3c3;
      }

      .cls-23 {
        fill: #1c2545;
      }

      .cls-24 {
        fill: #d3b57e;
      }

      .cls-25 {
        fill: #92d2df;
        opacity: .62;
      }

      .cls-26 {
        fill: #f8b070;
      }

      .cls-27 {
        fill: #1b2b4b;
      }

      .cls-28 {
        fill: #a3ca69;
      }

      .cls-29 {
        fill: #b1705a;
      }

      .cls-30 {
        fill: #bdbdbc;
      }

      .cls-31 {
        fill: #004469;
      }

      .cls-32 {
        fill: #16466d;
      }

      .cls-33 {
        fill: #eacc93;
      }

      .cls-34 {
        fill: #ffeda3;
      }

      .cls-35 {
        opacity: .71;
      }

      .cls-36 {
        fill: #61342d;
      }

      .cls-37 {
        fill: #a2c3e2;
      }

      .cls-38 {
        fill: #5b4630;
      }

      .cls-39 {
        fill: #1c2f52;
      }

      .cls-40 {
        fill: #12172b;
      }

      .cls-41 {
        fill: #77413b;
      }

      .cls-42 {
        fill: #51819f;
      }
    </style>
  </defs>
  <!-- Generator: Adobe Illustrator 28.7.1, SVG Export Plug-In . SVG Version: 1.2.0 Build 142)  -->
  <g>
    <g id="Capa_1">
      <g>
        <path class="cls-25" d="M32.57,243.28c-1.73-2.66-3.51-5.28-5.39-7.83-5.38-7.31-11.78-14.67-12.65-23.7-.85-8.76,3.91-17.31,10.45-23.21,21.55-19.42,54.16-20.48,79.62-32.17,5.59-2.57,11.22-5.56,15.04-10.38,6.23-7.84,6.44-18.68,9.23-28.3,2.68-9.24,8.09-17.81,15.87-23.47,7.78-5.66,17.99-8.16,27.33-5.87,17.04,4.19,21.8,23.18,37.07,28.34,9.72,3.28,20.05-1.65,29.44-5.77,20.76-9.13,40.17-1.8,43.71,22.08,1.09,7.34,1.17,14.85,3.11,22,2.45,9.03,7.96,17.19,15.32,22.95,7.31,5.73,17.45,9.92,19.32,20.19,1.59,8.74-4.38,16-7.27,23.72-3.14,8.37-1.43,15.7,1.33,24.29,9.45,29.43-13.55,43.49-39.37,47.88-37.45,6.37-75.23-3.21-112.72,4.28-12.24,2.45-24.16,6.4-36.47,8.5-27.44,4.68-53.9-5.34-70.52-27.92-8.32-11.31-14.8-23.86-22.45-35.63Z"/>
        <g>
          <rect class="cls-1" x="187.79" y="55.77" width="34.95" height="23.3" rx="3.22" ry="3.22" transform="translate(410.54 134.84) rotate(180)"/>
          <polygon class="cls-1" points="191.68 86.92 203.33 77.32 191.68 77.32 191.68 86.92"/>
        </g>
        <path class="cls-19" d="M155.79,132.82l-19.63-16.17h-42.36c-3.74,0-6.78-3.04-6.78-6.78v-37.42c0-3.74,3.04-6.78,6.78-6.78h60.69c3.74,0,6.78,3.04,6.78,6.78v37.42c0,3.29-2.36,6.04-5.47,6.65v16.3ZM93.8,70.12c-1.29,0-2.34,1.05-2.34,2.34v37.42c0,1.29,1.05,2.34,2.34,2.34h43.95l13.6,11.2v-11.2h3.14c1.29,0,2.34-1.05,2.34-2.34v-37.42c0-1.29-1.05-2.34-2.34-2.34h-60.69Z"/>
        <path class="cls-1" d="M325.52,162.89v21.25c0,1.43,1.16,2.59,2.59,2.59h.52v7.77l9.43-7.77h24.5c1.43,0,2.59-1.16,2.59-2.59v-21.25c0-1.43-1.16-2.59-2.59-2.59h-34.46c-1.43,0-2.59,1.16-2.59,2.59Z"/>
        <path class="cls-19" d="M86.1,261.75l-20.74-17.09H20.01c-3.9,0-7.07-3.17-7.07-7.07v-40c0-3.9,3.17-7.07,7.07-7.07h64.87c3.9,0,7.07,3.17,7.07,7.07v40c0,3.48-2.53,6.38-5.85,6.96v17.19ZM20.01,194.92c-1.48,0-2.68,1.2-2.68,2.68v40c0,1.48,1.2,2.68,2.68,2.68h46.92l14.78,12.17v-12.17h3.17c1.48,0,2.68-1.2,2.68-2.68v-40c0-1.48-1.2-2.68-2.68-2.68H20.01Z"/>
        <g>
          <polygon class="cls-19" points="285.5 124.36 296.21 115.55 285.5 115.55 285.5 124.36"/>
          <rect class="cls-19" x="284.32" y="78.69" width="60.64" height="40.42" rx="3.33" ry="3.33" transform="translate(629.27 197.81) rotate(180)"/>
        </g>
        <g>
          <polygon class="cls-19" points="158.12 161.24 161.69 158.3 158.12 158.3 158.12 161.24"/>
          <rect class="cls-19" x="157.72" y="146" width="20.23" height="13.49" rx="3.33" ry="3.33" transform="translate(335.68 305.49) rotate(180)"/>
        </g>
        <path class="cls-12" d="M252.12,202.33l2.56-19.43c-11.13-1.66-22.21-6.64-28.31-12.34l6.31-12.28c6.32,5.53,15.84,10.5,26.61,11.92,13.66,1.8,23.93-4.87,25.37-15.83,1.39-10.58-5.25-18.11-18.72-25.75-18.6-10.28-29.56-20.72-27.35-37.45,2.1-15.96,15.05-26.59,33.12-27.14l2.56-19.43,11.93,1.57-2.46,18.66c11.49,1.9,18.97,6.02,24.12,10.02l-6.48,12.06c-3.74-2.84-11.06-8.11-23.37-9.73-14.81-1.95-21.55,6.16-22.57,13.86-1.32,10,5.14,15.94,20.96,25.07,18.75,10.69,27.43,22.01,25.18,39.12-2,15.19-14.45,28.03-34.7,28.69l-2.63,20-12.12-1.6Z"/>
        <path class="cls-7" d="M66.35,212.72l-4.05-10.3c-5.95,2.22-12.79,2.79-17.36,1.65l-.24-7.79c4.63,1,10.7.85,16.41-1.39,7.24-2.85,10.49-8.95,8.2-14.76-2.21-5.61-7.55-7.51-16.29-7.6-12,.01-20.27-2.15-23.76-11.02-3.33-8.46.16-17.25,8.94-22.47l-4.05-10.3,6.32-2.49,3.89,9.89c6.2-2.2,11.02-2.22,14.66-1.65l.1,7.73c-2.62-.38-7.68-.98-14.21,1.59-7.85,3.09-8.96,8.94-7.36,13.02,2.09,5.3,6.9,6.47,17.21,6.65,12.19.15,19.57,3.37,23.14,12.44,3.17,8.05.53,17.81-9.29,23.67l4.17,10.6-6.42,2.53Z"/>
        <path class="cls-7" d="M175.69,130.31l-.92-5.13c-2.95.48-6.16.11-8.16-.84l.61-3.62c2.04.89,4.86,1.38,7.7.87,3.6-.64,5.67-3.16,5.15-6.05-.5-2.79-2.79-4.16-6.81-5.01-5.54-1.1-9.15-2.87-9.94-7.28-.75-4.21,1.67-7.94,6.2-9.54l-.92-5.13,3.15-.56.88,4.92c3.06-.44,5.29,0,6.91.6l-.67,3.58c-1.17-.42-3.45-1.16-6.7-.58-3.91.7-4.96,3.3-4.6,5.33.47,2.64,2.59,3.62,7.33,4.66,5.61,1.2,8.72,3.36,9.53,7.88.72,4.01-1.4,8.26-6.47,10.06l.94,5.28-3.2.57Z"/>
        <polygon class="cls-7" points="171.88 196.52 170.2 174.29 173.56 173.96 171.88 196.52"/>
        <polygon class="cls-7" points="183.33 177.32 177.6 192.14 186.36 178.67 183.33 177.32"/>
        <polygon class="cls-7" points="166.83 192.81 159.42 176.31 157.06 179.01 166.83 192.81"/>
      </g>
      <g>
        <g>
          <polygon class="cls-34" points="337.97 321.63 87.76 321.63 87.76 190.82 244.57 190.82 244.57 264.94 337.97 265.2 337.97 321.63"/>
          <g>
            <rect class="cls-5" x="87.76" y="266.6" width="111.71" height="55.03"/>
            <polygon class="cls-4" points="244.57 266.6 206.9 266.6 206.9 315.26 258.19 315.26 258.19 266.63 244.57 266.6"/>
          </g>
          <g>
            <g>
              <rect class="cls-33" x="87.76" y="270.34" width="111.71" height="51.29"/>
              <g>
                <rect class="cls-32" x="90.63" y="274.03" width="105.79" height="44.12"/>
                <polygon class="cls-37" points="95.3 279.51 196.42 279.51 196.42 274.03 90.63 274.03 90.63 318.15 95.3 318.15 95.3 279.51"/>
              </g>
              <g>
                <g>
                  <polygon class="cls-42" points="130.51 318.15 132.59 318.15 140.17 279.61 138.09 279.61 130.51 318.15"/>
                  <polygon class="cls-42" points="98.85 318.15 100.93 318.15 108.51 279.61 106.43 279.61 98.85 318.15"/>
                  <polygon class="cls-42" points="105.61 318.15 110.46 318.15 118.04 279.61 113.19 279.61 105.61 318.15"/>
                </g>
                <polygon class="cls-42" points="171.89 318.15 176.75 318.15 184.33 279.61 179.48 279.61 171.89 318.15"/>
                <polygon class="cls-42" points="138.12 318.15 149.91 318.15 157.5 279.61 145.71 279.61 138.12 318.15"/>
                <polygon class="cls-42" points="181.84 318.15 183.92 318.15 191.5 279.61 189.42 279.61 181.84 318.15"/>
              </g>
              <g>
                <rect class="cls-33" x="88.54" y="286.03" width="110.09" height="3.69"/>
                <polygon class="cls-33" points="122.42 271.57 122.56 320.25 119.61 320.27 119.48 271.58 122.42 271.57"/>
                <polygon class="cls-33" points="168.63 271.57 168.76 320.25 165.81 320.27 165.68 271.58 168.63 271.57"/>
              </g>
            </g>
            <rect class="cls-9" x="81.83" y="266.6" width="117.63" height="9.4"/>
            <polygon class="cls-9" points="244.57 266.6 206.9 266.6 206.9 275.99 258.19 275.99 258.19 266.63 244.57 266.6"/>
            <polygon class="cls-5" points="265.62 266.64 265.62 321.63 275.53 321.63 275.53 275.99 337.97 275.99 337.97 266.79 265.62 266.64"/>
          </g>
          <rect class="cls-4" x="87.76" y="192.94" width="156.81" height="8.76"/>
          <g>
            <polygon class="cls-3" points="250.5 196.56 81.83 196.56 84.71 169.85 247.63 169.85 250.5 196.56"/>
            <polygon class="cls-29" points="250.5 193.38 81.83 193.38 84.71 166.67 247.63 166.67 250.5 193.38"/>
            <g>
              <rect class="cls-20" x="86.32" y="166.67" width="2.03" height="26.71"/>
              <rect class="cls-20" x="93.18" y="166.67" width="2.03" height="26.71"/>
              <rect class="cls-20" x="100.03" y="166.67" width="2.03" height="26.71"/>
              <rect class="cls-20" x="106.89" y="166.67" width="2.03" height="26.71"/>
              <rect class="cls-20" x="113.74" y="166.67" width="2.04" height="26.71"/>
              <rect class="cls-20" x="120.6" y="166.67" width="2.04" height="26.71"/>
              <rect class="cls-20" x="127.45" y="166.67" width="2.04" height="26.71"/>
              <rect class="cls-20" x="134.3" y="166.67" width="2.04" height="26.71"/>
              <rect class="cls-20" x="141.16" y="166.67" width="2.03" height="26.71"/>
              <rect class="cls-20" x="148.01" y="166.67" width="2.03" height="26.71"/>
              <rect class="cls-20" x="154.87" y="166.67" width="2.03" height="26.71"/>
              <rect class="cls-20" x="161.72" y="166.67" width="2.03" height="26.71"/>
              <rect class="cls-20" x="168.58" y="166.67" width="2.04" height="26.71"/>
              <rect class="cls-20" x="175.43" y="166.67" width="2.04" height="26.71"/>
              <rect class="cls-20" x="182.29" y="166.67" width="2.04" height="26.71"/>
              <rect class="cls-20" x="189.14" y="166.67" width="2.04" height="26.71"/>
              <rect class="cls-20" x="196" y="166.67" width="2.03" height="26.71"/>
              <rect class="cls-20" x="202.85" y="166.67" width="2.03" height="26.71"/>
              <rect class="cls-20" x="209.7" y="166.67" width="2.03" height="26.71"/>
              <rect class="cls-20" x="216.56" y="166.67" width="2.03" height="26.71"/>
              <rect class="cls-20" x="223.41" y="166.67" width="2.03" height="26.71"/>
              <rect class="cls-20" x="230.27" y="166.67" width="2.04" height="26.71"/>
              <rect class="cls-20" x="237.12" y="166.67" width="2.04" height="26.71"/>
              <rect class="cls-20" x="243.98" y="166.67" width="2.04" height="26.71"/>
            </g>
          </g>
        </g>
        <g>
          <g class="cls-35">
            <polygon class="cls-36" points="222.94 171.9 232.47 171.9 237.31 166.66 232.58 166.66 222.94 171.9"/>
          </g>
          <g>
            <rect class="cls-22" x="224.14" y="148.02" width="7.08" height="23.88"/>
            <rect class="cls-24" x="224.14" y="153.16" width="7.08" height="2.21"/>
            <rect class="cls-15" x="222.94" y="162.33" width="9.54" height="9.58"/>
            <rect class="cls-15" x="222.94" y="150.91" width="9.54" height="2.61"/>
          </g>
        </g>
        <g>
          <g>
            <polygon class="cls-18" points="155.91 189.36 91.67 189.36 93.8 170.7 155.91 170.7 155.91 189.36"/>
            <polygon class="cls-32" points="154 187.44 93.89 187.44 95.51 172.62 154 172.62 154 187.44"/>
            <polygon class="cls-37" points="98.06 175.25 154 175.25 154 172.62 95.51 172.62 93.89 187.44 96.62 187.44 98.06 175.25"/>
            <rect class="cls-18" x="99.99" y="179.5" width="17.99" height="1.07" transform="translate(-79.85 272.93) rotate(-85.01)"/>
            <rect class="cls-18" x="115.27" y="179.5" width="17.99" height="1.06" transform="translate(-65.91 288.13) rotate(-85)"/>
            <rect class="cls-18" x="130.55" y="179.5" width="17.99" height="1.07" transform="translate(-51.95 303.38) rotate(-85.01)"/>
          </g>
          <g>
            <g>
              <polygon class="cls-42" points="115.23 187.44 116.82 187.44 122.62 175.25 121.03 175.25 115.23 187.44"/>
              <polygon class="cls-42" points="99.49 187.44 101.08 187.44 106.88 175.25 105.29 175.25 99.49 187.44"/>
              <polygon class="cls-42" points="109.97 187.44 113.68 187.44 119.49 175.25 115.77 175.25 109.97 187.44"/>
            </g>
            <polygon class="cls-42" points="125.36 187.44 129.08 187.44 134.88 175.25 131.17 175.25 125.36 187.44"/>
            <polygon class="cls-42" points="146.02 187.44 147.61 187.44 153.41 175.25 151.82 175.25 146.02 187.44"/>
            <polygon class="cls-42" points="141.48 187.44 143.07 187.44 148.87 175.25 147.28 175.25 141.48 187.44"/>
          </g>
        </g>
        <g>
          <rect class="cls-22" x="63.05" y="266.6" width="5.93" height="44.6"/>
          <rect class="cls-22" x="81.83" y="266.6" width="5.93" height="44.43"/>
        </g>
        <g>
          <rect class="cls-4" x="63.05" y="266.6" width="5.93" height="9.05"/>
          <rect class="cls-4" x="81.83" y="266.6" width="5.93" height="9.05"/>
        </g>
        <g>
          <rect class="cls-33" x="95.49" y="206.39" width="85.48" height="31.31"/>
          <g>
            <rect class="cls-32" x="97.68" y="208.65" width="80.95" height="26.93"/>
            <polygon class="cls-37" points="101.26 211.99 178.64 211.99 178.64 208.65 97.68 208.65 97.68 235.58 101.26 235.58 101.26 211.99"/>
          </g>
          <g>
            <g>
              <polygon class="cls-42" points="128.2 235.58 129.79 235.58 135.59 212.05 134 212.05 128.2 235.58"/>
              <polygon class="cls-42" points="103.97 235.58 105.56 235.58 111.36 212.05 109.77 212.05 103.97 235.58"/>
              <polygon class="cls-42" points="109.14 235.58 112.86 235.58 118.66 212.05 114.95 212.05 109.14 235.58"/>
            </g>
            <polygon class="cls-42" points="159.87 235.58 163.58 235.58 169.39 212.05 165.67 212.05 159.87 235.58"/>
            <polygon class="cls-42" points="134.03 235.58 143.05 235.58 148.85 212.05 139.83 212.05 134.03 235.58"/>
            <polygon class="cls-42" points="167.48 235.58 169.07 235.58 174.87 212.05 173.28 212.05 167.48 235.58"/>
          </g>
          <g>
            <rect class="cls-33" x="96.08" y="215.97" width="84.24" height="2.26"/>
            <rect class="cls-33" x="119.81" y="207.15" width="2.25" height="29.72" transform="translate(-.77 .42) rotate(-.2)"/>
            <rect class="cls-33" x="155.16" y="207.15" width="2.26" height="29.72" transform="translate(-.78 .55) rotate(-.2)"/>
          </g>
        </g>
        <g>
          <rect class="cls-33" x="203.96" y="203.75" width="25.41" height="36.73"/>
          <g>
            <rect class="cls-37" x="203.96" y="206.4" width="23.4" height="31.59"/>
            <polygon class="cls-32" points="203.96 206.4 203.96 207.41 208.59 207.54 208.33 237.99 227.36 237.99 227.36 206.4 203.96 206.4"/>
            <rect class="cls-37" x="203.96" y="206.4" width="23.4" height="3.92"/>
          </g>
          <g>
            <polygon class="cls-42" points="209.65 237.99 213.37 237.99 219.17 210.39 215.45 210.39 209.65 237.99"/>
            <polygon class="cls-42" points="217.26 237.99 218.85 237.99 224.66 210.39 223.06 210.39 217.26 237.99"/>
          </g>
          <g>
            <rect class="cls-33" x="203.96" y="214.98" width="25.09" height="2.64"/>
            <polygon class="cls-33" points="203.96 239.5 206.19 239.5 206.09 204.63 203.96 204.64 203.96 239.5"/>
          </g>
        </g>
        <g>
          <polygon class="cls-10" points="347.59 270.34 58.31 270.34 63.24 246.83 342.66 246.83 347.59 270.34"/>
          <polygon class="cls-29" points="347.59 266.6 58.31 266.6 63.24 244.15 342.66 244.15 347.59 266.6"/>
          <g>
            <rect class="cls-20" x="66.01" y="244.15" width="3.49" height="22.45"/>
            <rect class="cls-20" x="77.77" y="244.15" width="3.49" height="22.45"/>
            <rect class="cls-20" x="89.52" y="244.15" width="3.49" height="22.45"/>
            <rect class="cls-20" x="101.28" y="244.15" width="3.49" height="22.45"/>
            <rect class="cls-20" x="113.03" y="244.15" width="3.49" height="22.45"/>
            <rect class="cls-20" x="124.79" y="244.15" width="3.49" height="22.45"/>
            <rect class="cls-20" x="136.55" y="244.15" width="3.49" height="22.45"/>
            <rect class="cls-20" x="148.3" y="244.15" width="3.49" height="22.45"/>
            <rect class="cls-20" x="160.06" y="244.15" width="3.49" height="22.45"/>
            <rect class="cls-20" x="171.81" y="244.15" width="3.49" height="22.45"/>
            <rect class="cls-20" x="183.57" y="244.15" width="3.49" height="22.45"/>
            <rect class="cls-20" x="195.33" y="244.15" width="3.49" height="22.45"/>
            <rect class="cls-20" x="207.08" y="244.15" width="3.49" height="22.45"/>
            <rect class="cls-20" x="218.84" y="244.15" width="3.49" height="22.45"/>
            <rect class="cls-20" x="230.6" y="244.15" width="3.49" height="22.45"/>
            <rect class="cls-20" x="242.35" y="244.15" width="3.49" height="22.45"/>
            <rect class="cls-20" x="254.11" y="244.15" width="3.49" height="22.45"/>
            <rect class="cls-20" x="265.86" y="244.15" width="3.49" height="22.45"/>
            <rect class="cls-20" x="277.62" y="244.15" width="3.49" height="22.45"/>
            <rect class="cls-20" x="289.38" y="244.15" width="3.49" height="22.45"/>
            <rect class="cls-20" x="301.13" y="244.15" width="3.49" height="22.45"/>
            <rect class="cls-20" x="312.89" y="244.15" width="3.49" height="22.45"/>
            <rect class="cls-20" x="324.64" y="244.15" width="3.49" height="22.45"/>
            <rect class="cls-20" x="336.4" y="244.15" width="3.49" height="22.45"/>
          </g>
        </g>
        <g>
          <path class="cls-28" d="M181.29,232.28c-.11,0-.21.02-.31.03-.94-.63-2.07-.99-3.29-.94-1.44.05-2.73.66-3.68,1.61-.66-.54-1.52-.85-2.44-.81-.78.03-1.49.3-2.07.75-1.05-1.05-2.5-1.68-4.1-1.62-1.88.07-3.5,1.08-4.43,2.55-.66-1.12-1.9-1.85-3.29-1.79-.67.03-1.29.23-1.81.57-.46-2.05-2.33-3.55-4.51-3.47-.93.04-1.78.35-2.47.87-.55-.42-1.23-.65-1.98-.62-.73.03-1.4.31-1.91.76-.48-1.55-1.94-2.65-3.64-2.58-.69.03-1.33.25-1.87.6-.57-2.54-2.88-4.39-5.58-4.29-2.66.1-4.81,2.07-5.22,4.6-.79-.6-1.79-.94-2.86-.9-2.01.08-3.66,1.48-4.14,3.34-.51-.34-1.13-.52-1.79-.5-1.06.04-1.97.61-2.49,1.44-.96.1-1.81.57-2.4,1.26-.98-1.76-2.88-2.92-5.02-2.83-1.99.08-3.69,1.2-4.6,2.82-.84-.82-2-1.31-3.27-1.26-2.02.08-3.66,1.48-4.14,3.34-.51-.34-1.13-.52-1.79-.5-1.69.06-3.01,1.49-2.95,3.18.06,1.69,1.49,3.01,3.18,2.95,1.1-.04,2.04-.66,2.55-1.55.85.95,2.11,1.54,3.49,1.48,1.35-.05,2.54-.7,3.32-1.68.07.09.14.18.22.27.53,1.96,2.35,3.36,4.46,3.28,1.55-.06,2.88-.9,3.63-2.13.57.33,1.24.51,1.95.48,1.41-.05,2.61-.9,3.17-2.1h.02c.59.63,1.44,1.03,2.38.99.78-.03,1.48-.35,2.01-.85.84,1.19,2.24,1.95,3.81,1.89,1.59-.06,2.94-.94,3.68-2.22.38.09.78.13,1.19.12,1.12-.04,2.12-.49,2.87-1.2.84,1.18,2.24,1.92,3.79,1.86.79-.03,1.52-.27,2.15-.65.22.02.44.04.67.03.78-.03,1.5-.26,2.13-.63.65.49,1.46.76,2.34.73,1.2-.05,2.23-.66,2.87-1.58.36.23.76.41,1.18.54,0,0,0,.03,0,.04.09,2.46,2.16,4.38,4.62,4.28,1.13-.04,2.14-.51,2.9-1.23.47.19.98.29,1.52.27.81-.03,1.55-.33,2.14-.8,1.06,1.19,2.62,1.92,4.34,1.86,1.66-.06,3.11-.85,4.07-2.05.69.99,1.85,1.61,3.14,1.56.6-.02,1.17-.19,1.66-.47.96.69,2.14,1.08,3.42,1.03,1.22-.05,2.32-.49,3.21-1.19.1,0,.21,0,.31,0,2.46-.09,4.38-2.16,4.28-4.62-.09-2.46-2.16-4.38-4.62-4.28Z"/>
          <path class="cls-11" d="M185.88,236.76c-1.21,1.3-2.9,2.08-4.67,2.15-1.77.07-3.52-.58-4.82-1.78-.79-.73-1.38-1.64-1.74-2.63.21,1.66-.73,3.48-2.88,3.56-.82.03-1.47-.2-1.97-.59-.76,1.51-2.31,2.6-4.09,2.66-1.87.07-3.56-1-4.4-2.57-.51,1.22-1.61,2.17-3.34,2.23-2.73.1-4.08-2.13-3.96-4.24-.69.45-1.49.71-2.32.74-1.21.05-2.39-.39-3.28-1.21-.66-.61-1.13-1.42-1.34-2.29-.18.27-.37.53-.59.77-1.04,1.13-2.51,1.8-4.04,1.86h-.1c-1.53.06-3.04-.5-4.17-1.54-.21-.2-.4-.41-.58-.64-.94.77-2.12,1.25-3.41,1.3-1.01.04-1.99-.2-2.84-.64-.08.1-.16.2-.25.29-1.2,1.3-2.9,2.08-4.67,2.15-1.49.06-2.96-.4-4.17-1.26-.18.44-.43.85-.76,1.19-.71.77-1.71,1.23-2.76,1.27h-.1c-.84.04-1.66-.21-2.35-.67-.95,1.76-2.78,3.01-4.89,3.09-2.39.09-4.54-1.34-5.5-3.42-.17.35-.4.68-.67.97-.74.8-1.79,1.28-2.89,1.33-1.1.04-2.18-.36-2.98-1.1-.03-.03-.07-.06-.1-.09-.05-.04-.09-.09-.14-.14-.4.14-.83.22-1.28.24-1.59.06-3.04-.74-3.91-1.96-.47.56-.74,1.29-.71,2.08.06,1.69,1.49,3.01,3.18,2.95,1.1-.04,2.04-.66,2.55-1.55.85.95,2.11,1.54,3.49,1.48,1.35-.05,2.54-.7,3.32-1.68.07.09.14.18.22.27.53,1.96,2.35,3.36,4.46,3.28,1.55-.06,2.88-.9,3.63-2.13.57.33,1.24.51,1.95.48,1.41-.05,2.61-.9,3.17-2.1h.02c.59.63,1.44,1.03,2.38.99.78-.03,1.48-.35,2.01-.85.84,1.19,2.24,1.95,3.81,1.89,1.59-.06,2.94-.94,3.68-2.22.38.09.78.13,1.19.12,1.12-.04,2.12-.49,2.87-1.2.84,1.18,2.24,1.92,3.79,1.86.79-.03,1.52-.27,2.15-.65.22.02.44.04.67.03.78-.03,1.5-.26,2.13-.63.65.49,1.46.76,2.34.73,1.2-.05,2.23-.66,2.87-1.58.36.23.76.41,1.18.54,0,0,0,.03,0,.04.09,2.46,2.16,4.38,4.62,4.28,1.13-.04,2.14-.51,2.9-1.23.47.19.98.29,1.52.27.81-.03,1.55-.33,2.14-.8,1.06,1.19,2.62,1.92,4.34,1.86,1.66-.06,3.11-.85,4.07-2.05.69.99,1.85,1.61,3.14,1.56.6-.02,1.17-.19,1.66-.47.96.69,2.14,1.08,3.42,1.03,1.22-.05,2.32-.49,3.21-1.19.1,0,.21,0,.31,0,2.4-.09,4.28-2.07,4.28-4.45,0,0-.02.02-.03.03Z"/>
        </g>
        <rect class="cls-13" x="271.53" y="279.9" width="49.73" height="41.73"/>
        <rect class="cls-38" x="271.53" y="290.86" width="49.73" height="3.54"/>
        <rect class="cls-38" x="271.53" y="297.58" width="49.73" height="3.54"/>
        <rect class="cls-38" x="271.53" y="304.3" width="49.73" height="3.54"/>
        <rect class="cls-38" x="271.53" y="311.02" width="49.73" height="3.54"/>
        <rect class="cls-10" x="271.53" y="279.9" width="49.73" height="7.77"/>
        <rect class="cls-30" x="271.53" y="279.9" width="4.15" height="7.77"/>
        <rect class="cls-33" x="214.41" y="311.02" width="36.19" height="4.24"/>
        <rect class="cls-16" x="224" y="281.76" width="17.31" height="29.26"/>
        <path class="cls-41" d="M224,278.58v32.45h17.31v-32.45h-17.31ZM238.13,307.73h-10.72v-4.91h10.72v4.91Z"/>
        <g>
          <g>
            <rect class="cls-18" x="227.01" y="280.64" width="11.43" height="20.59"/>
            <rect class="cls-37" x="227.33" y="282.76" width="10.94" height="16.34"/>
            <rect class="cls-32" x="228.95" y="282.76" width="9.33" height="16.34"/>
            <rect class="cls-37" x="227.33" y="282.76" width="10.94" height="2.9"/>
            <polygon class="cls-18" points="227.07 281 227.01 294.1 227.01 300.85 227.72 300.86 227.81 281.01 227.07 281"/>
            <rect class="cls-18" x="237.68" y="281.01" width=".74" height="19.85" transform="translate(-.65 .53) rotate(-.13)"/>
          </g>
          <g>
            <polygon class="cls-42" points="232.35 299.1 233.46 299.1 237.51 285.66 236.4 285.66 232.35 299.1"/>
            <polygon class="cls-42" points="229.42 299.1 231.27 299.1 235.32 285.66 233.47 285.66 229.42 299.1"/>
          </g>
        </g>
        <rect class="cls-38" x="63.05" y="311.02" width="136.42" height="4.78"/>
        <rect class="cls-13" x="58.31" y="315.62" width="141.15" height="6.01"/>
        <g>
          <g>
            <g>
              <path class="cls-11" d="M108.6,301.7c0,2.05-.84,3.72-1.86,3.72s-1.87-1.66-1.87-3.72.84-3.72,1.87-3.72,1.86,1.67,1.86,3.72Z"/>
              <ellipse class="cls-11" cx="108.98" cy="303.18" rx="1.87" ry="3.72"/>
              <ellipse class="cls-11" cx="104.87" cy="303.18" rx="1.87" ry="3.72"/>
              <ellipse class="cls-11" cx="111.08" cy="304.22" rx=".97" ry="1.78"/>
              <ellipse class="cls-11" cx="102.63" cy="304.22" rx=".97" ry="1.78"/>
            </g>
            <g>
              <path class="cls-17" d="M108.6,300.66c0,1.48-.84,2.68-1.86,2.68s-1.87-1.2-1.87-2.68.84-2.69,1.87-2.69,1.86,1.2,1.86,2.69Z"/>
              <ellipse class="cls-17" cx="108.98" cy="301.74" rx="1.87" ry="2.68"/>
              <ellipse class="cls-17" cx="104.87" cy="301.74" rx="1.87" ry="2.68"/>
              <path class="cls-17" d="M112.06,302.48c0,.71-.44,1.28-.97,1.28s-.97-.58-.97-1.28.44-1.29.97-1.29.97.58.97,1.29Z"/>
              <path class="cls-17" d="M103.6,302.48c0,.71-.44,1.28-.97,1.28s-.97-.58-.97-1.28.44-1.29.97-1.29.97.58.97,1.29Z"/>
            </g>
            <path class="cls-11" d="M109.97,300.95c0,.3-.22.55-.5.55s-.5-.25-.5-.55.22-.55.5-.55.5.24.5.55Z"/>
            <path class="cls-11" d="M110.46,302c0,.17-.13.31-.28.31s-.28-.14-.28-.31.12-.31.28-.31.28.14.28.31Z"/>
          </g>
          <g>
            <rect class="cls-9" x="102.78" y="305.67" width="7.84" height="5.35"/>
            <polygon class="cls-4" points="110.83 309.96 102.54 309.96 100.68 305.1 112.92 305.1 110.83 309.96"/>
          </g>
        </g>
        <g>
          <g>
            <g>
              <path class="cls-11" d="M146.66,301.7c0,2.05-.84,3.72-1.86,3.72s-1.87-1.66-1.87-3.72.84-3.72,1.87-3.72,1.86,1.67,1.86,3.72Z"/>
              <ellipse class="cls-11" cx="147.03" cy="303.18" rx="1.87" ry="3.72"/>
              <path class="cls-11" d="M144.79,303.18c0,2.05-.84,3.72-1.87,3.72s-1.87-1.66-1.87-3.72.84-3.72,1.87-3.72,1.87,1.66,1.87,3.72Z"/>
              <ellipse class="cls-11" cx="149.14" cy="304.22" rx=".97" ry="1.78"/>
              <path class="cls-11" d="M141.66,304.22c0,.98-.44,1.78-.97,1.78s-.97-.8-.97-1.78.44-1.78.97-1.78.97.8.97,1.78Z"/>
            </g>
            <g>
              <path class="cls-17" d="M146.66,300.66c0,1.48-.84,2.68-1.86,2.68s-1.87-1.2-1.87-2.68.84-2.69,1.87-2.69,1.86,1.2,1.86,2.69Z"/>
              <ellipse class="cls-17" cx="147.03" cy="301.74" rx="1.87" ry="2.68"/>
              <path class="cls-17" d="M144.79,301.74c0,1.48-.84,2.68-1.87,2.68s-1.87-1.2-1.87-2.68.84-2.68,1.87-2.68,1.87,1.2,1.87,2.68Z"/>
              <path class="cls-17" d="M150.12,302.48c0,.71-.44,1.28-.97,1.28s-.97-.58-.97-1.28.44-1.29.97-1.29.97.58.97,1.29Z"/>
              <path class="cls-17" d="M141.66,302.48c0,.71-.44,1.28-.97,1.28s-.97-.58-.97-1.28.44-1.29.97-1.29.97.58.97,1.29Z"/>
            </g>
            <path class="cls-11" d="M148.03,300.95c0,.3-.22.55-.5.55s-.5-.25-.5-.55.22-.55.5-.55.5.24.5.55Z"/>
            <path class="cls-11" d="M148.52,302c0,.17-.13.31-.28.31s-.28-.14-.28-.31.13-.31.28-.31.28.14.28.31Z"/>
          </g>
          <g>
            <rect class="cls-9" x="140.84" y="305.67" width="7.84" height="5.35"/>
            <polygon class="cls-4" points="148.89 309.96 140.59 309.96 138.74 305.1 150.98 305.1 148.89 309.96"/>
          </g>
        </g>
        <g>
          <g>
            <g>
              <path class="cls-11" d="M184.2,301.7c0,2.05-.84,3.72-1.87,3.72s-1.87-1.66-1.87-3.72.84-3.72,1.87-3.72,1.87,1.67,1.87,3.72Z"/>
              <path class="cls-11" d="M186.45,303.18c0,2.05-.84,3.72-1.87,3.72s-1.87-1.66-1.87-3.72.84-3.72,1.87-3.72,1.87,1.66,1.87,3.72Z"/>
              <ellipse class="cls-11" cx="180.47" cy="303.18" rx="1.87" ry="3.72"/>
              <ellipse class="cls-11" cx="186.69" cy="304.22" rx=".97" ry="1.78"/>
              <path class="cls-11" d="M179.2,304.22c0,.98-.44,1.78-.97,1.78s-.97-.8-.97-1.78.44-1.78.97-1.78.97.8.97,1.78Z"/>
            </g>
            <g>
              <path class="cls-17" d="M184.2,300.66c0,1.48-.84,2.68-1.87,2.68s-1.87-1.2-1.87-2.68.84-2.69,1.87-2.69,1.87,1.2,1.87,2.69Z"/>
              <path class="cls-17" d="M186.45,301.74c0,1.48-.84,2.68-1.87,2.68s-1.87-1.2-1.87-2.68.84-2.68,1.87-2.68,1.87,1.2,1.87,2.68Z"/>
              <ellipse class="cls-17" cx="180.47" cy="301.74" rx="1.87" ry="2.68"/>
              <path class="cls-17" d="M187.66,302.48c0,.71-.44,1.28-.97,1.28s-.97-.58-.97-1.28.44-1.29.97-1.29.97.58.97,1.29Z"/>
              <path class="cls-17" d="M179.2,302.48c0,.71-.44,1.28-.97,1.28s-.97-.58-.97-1.28.44-1.29.97-1.29.97.58.97,1.29Z"/>
            </g>
            <path class="cls-11" d="M185.58,300.95c0,.3-.22.55-.5.55s-.5-.25-.5-.55.22-.55.5-.55.5.24.5.55Z"/>
            <path class="cls-11" d="M186.07,302c0,.17-.13.31-.28.31s-.28-.14-.28-.31.13-.31.28-.31.28.14.28.31Z"/>
          </g>
          <g>
            <rect class="cls-9" x="178.38" y="305.67" width="7.84" height="5.35"/>
            <polygon class="cls-4" points="186.43 309.96 178.14 309.96 176.29 305.1 188.53 305.1 186.43 309.96"/>
          </g>
        </g>
      </g>
      <ellipse class="cls-8" cx="191.47" cy="344.58" rx="101.78" ry="8.43"/>
      <g>
        <path class="cls-31" d="M111.09,212.4c.61,1.95,1.58,4.94,2.91,8.53,4.62,12.42,8.65,18.69,11.11,24.33,1.46,3.35,6.48,18.03,6.44,25.78-.04,7.96,8.69,23.68,12.48,16.9.04-.07,3.42,2.06,3.42,1.98.04-7.96,4.65-25.82,1.71-37.05l-14.24-74.83c-.18-.93-1.07-1.53-1.96-1.32h0c-2.69.88-10.83,3.92-16.64,12.39-6.98,10.17-5.59,20.87-5.22,23.29Z"/>
        <path class="cls-31" d="M147.66,335.36c4.34,1.15,6.01,1.08,10.35,2.23-2.94-7.64-3.94-15.06-6.44-24.2-4.47-16.31-3.58-33.22-4.87-46.35-1.71-6.59-3.4-8.06-4.64-8.16-1.35-.11-3.49,1.3-7.23,2.24-.01,0-.02,0-.03,0-2.6.68-3.55,3.52-2.8,6.17-.42,6.55-.85,14.01.2,22.35,2.51,20.02,9.65,35.6,15.46,45.69Z"/>
        <path class="cls-6" d="M186.82,201.65c-6.35-2.14-16.31-3.51-28.84-8.7-10.11-4.19-26.18-17.51-26.82-22.22-1.1-8.17,11.07-17.45,16.09-14.83,2.17,1.13.14,7.74.83,9.5,1.99,5.08,10.83,13.9,41.56,28.79.74.36.99,1.29.57,1.98-1.13,1.83-2.26,3.65-3.4,5.48Z"/>
        <path class="cls-6" d="M141.55,174.64l4.54-2.64c2.68-1.56,4.12-4.62,3.62-7.68l-5.02-30.53c-1.31-7.95-8.81-13.33-16.75-12.02h0c-3.51.58-6.05,3.66-5.96,7.22.19,7.12,1.05,15.65,3.35,25.06,1.56,6.39,3.52,12.08,5.56,17.02,1.73,4.18,6.76,5.85,10.66,3.58Z"/>
        <path class="cls-26" d="M113.79,127.32c6.77,1.47,13.54,2.93,20.31,4.4-1.44-3.7-3.13-9.55-2.79-16.76.15-3.18.66-5.98,1.27-8.3-4.97-.13-9.94-.27-14.91-.4.1,2.34.05,5.04-.32,8.01-.67,5.37-2.15,9.79-3.56,13.06Z"/>
        <path class="cls-23" d="M134.23,92.56c1.28-1.5,3.2-4.09,2.41-5.45-.91-1.57-5.21-1.15-10.81.87-1.67.83-3.34,1.65-5.01,2.48-4.05.93-6.6,5-5.67,9.05l1.59,6.92c2.17.48,5.43,1.46,8.9,3.62,3.54,2.2,9.22-11.2,8.59-17.49Z"/>
        <path class="cls-14" d="M121.35,103.09c1.58,6.52,6.01,11.08,10.07,10.15,4.06-.93,6.13-6.99,4.63-13.53-1.5-6.54-1.7-8.4-6.14-8.19-5.79.28-10.9,1.89-8.55,11.57Z"/>
        <ellipse class="cls-14" cx="121.04" cy="103.02" rx="2.24" ry="2.91" transform="translate(-17.79 180.41) rotate(-69.54)"/>
        <path class="cls-21" d="M103.67,204.54c.08,2.04.24,5.18.6,8.99,1.25,13.19,3.52,20.29,4.44,26.38.54,3.61,1.6,19.09-.44,26.57-2.09,7.68,2.27,25.12,7.68,19.55.06-.06,2.77,2.87,2.79,2.79,2.09-7.68,11.17-23.74,11.23-35.34l5.6-75.97c.07-.95-.64-1.76-1.56-1.78h0c-2.83.15-11.47.98-19.28,7.67-9.37,8.02-10.8,18.72-11.07,21.15Z"/>
        <path class="cls-21" d="M107.19,332.78c3.89,2.24,5.53,2.6,9.42,4.83-.86-8.14.09-15.57.03-25.04-.1-16.91,5.14-33.02,7.28-46.03.05-6.81-1.2-8.66-2.37-9.08-1.28-.46-3.7.36-7.56.3-.01,0-.02,0-.04,0-2.68-.02-4.34,2.48-4.3,5.24-2.1,6.22-4.44,13.32-5.59,21.65-2.75,19.99.11,36.88,3.11,48.14Z"/>
        <path class="cls-21" d="M103.67,204.54c.08,2.04.24,5.18.6,8.99,1.25,13.19,3.52,20.29,4.44,26.38.54,3.61,1.6,19.09-.44,26.57-2.09,7.68,2.27,25.12,7.68,19.55.06-.06,2.77,2.87,2.79,2.79,2.09-7.68,11.17-23.74,11.23-35.34l5.6-75.97c.07-.95-.64-1.76-1.56-1.78h0c-2.83.15-11.47.98-19.28,7.67-9.37,8.02-10.8,18.72-11.07,21.15Z"/>
        <path class="cls-21" d="M107.19,332.78c3.89,2.24,5.53,2.6,9.42,4.83-.86-8.14.09-15.57.03-25.04-.1-16.91,5.14-33.02,7.28-46.03.05-6.81-1.2-8.66-2.37-9.08-1.28-.46-3.7.36-7.56.3-.01,0-.02,0-.04,0-2.68-.02-4.34,2.48-4.3,5.24-2.1,6.22-4.44,13.32-5.59,21.65-2.75,19.99.11,36.88,3.11,48.14Z"/>
        <rect class="cls-23" x="146.58" y="341.06" width="7.21" height="3.06" transform="translate(-.69 .3) rotate(-.12)"/>
        <path class="cls-23" d="M152.49,342.58c2.92.01,2.66.25,6.59,1.14.9.21,9.86,1.06,12.13-1.53.14-.16.25-.35.22-.6-.15-1.44-5.69-2.1-10.29-5.52-6.56-4.88-7.12.95-12.15-2.58-2.97-2.08-4.1,6.46-2.42,7.93.92.81,2.86,1.15,5.93,1.16Z"/>
        <rect class="cls-23" x="104.42" y="339.83" width="7.21" height="3.06" transform="translate(40.55 -10.27) rotate(6.7)"/>
        <path class="cls-23" d="M110.31,341.63c2.9.36,2.61.56,6.4,1.92.87.31,9.67,2.22,12.22-.08.15-.14.29-.32.29-.57.02-1.45-5.4-2.76-9.56-6.71-5.93-5.63-7.18.1-11.76-4-2.7-2.42-4.83,5.93-3.34,7.59.82.91,2.7,1.48,5.75,1.86Z"/>
        <path class="cls-2" d="M124.16,210s18.83.52,20.32-1.31c-1.11-4.31-2.5-10.83-3.1-18.84-.72-9.77.1-16.86.47-21.14.79-9.01,1.03-22.21-1.7-39.73,0-.48-.09-1.55-.76-2.68-.47-.8-1.15-1.47-1.99-1.95l-8.61-4.86c-1.58-.42-3.94-.87-6.81-.73-1.06.05-4.03.22-7.03,1.53,0,0-4.72,2.06-8.21,7.46-5.5,8.51-3.48,24.79-2.92,42.27.62,19.23-.62,37.36-.66,39.98h20.97Z"/>
        <path class="cls-14" d="M99.18,235.47c-1.52-3.71-1.7-7.05-1.63-9.12,1.89-1.72,3.79-3.43,5.68-5.15.2-.29.64-.24.77.09.59,1.51,1.24,3.69,1.34,6.36.11,2.98-5.29,9.92-6.16,7.82Z"/>
        <path class="cls-26" d="M196,203.45c-4-.2-7.11-1.46-8.95-2.4-.75-2.44-.96-8.12-.62-8.1,1.62.1,2.64.55,5.1,1.6,2.74,1.16,6.73,9,4.46,8.89Z"/>
        <path class="cls-2" d="M97.43,227.26c-2.07-6.37-6.92-15.19-10.22-28.33-2.67-10.61-1.56-31.46,1.84-34.78,5.9-5.76,20.6-1.52,21.5,4.07.39,2.42-6.13,4.73-7.13,6.33-2.89,4.62-4.7,16.99,1.68,50.54.15.81-.44,1.57-1.25,1.63-2.14.18-4.28.36-6.42.54Z"/>
        <path class="cls-2" d="M95.24,172.92l5.24.31c3.1.18,5.99-1.57,7.26-4.4l12.69-28.22c3.3-7.34.02-15.98-7.32-19.28h0c-3.25-1.46-7.07-.29-8.96,2.73-3.78,6.04-7.77,13.63-11.05,22.74-2.23,6.19-3.74,12.02-4.76,17.26-.87,4.43,2.4,8.61,6.91,8.87Z"/>
        <path class="cls-26" d="M130.06,130.77l-14.11-10.93c.67-.6,3.13-1.79,8.21-1.53,4.27.22,7.04,2.2,7.85,2.92-.66,3.06-1.29,6.47-1.95,9.53Z"/>
      </g>
      <g>
        <path class="cls-14" d="M275.17,229.74c1.68-3.64,2-6.97,2.03-9.04-1.82-1.8-3.63-3.59-5.45-5.39-.19-.29-.63-.26-.77.06-.66,1.48-1.4,3.63-1.61,6.3-.24,2.97,4.85,10.14,5.81,8.08Z"/>
        <path class="cls-40" d="M259.54,218.03c4.16-5.12,11.76-11.5,19.43-22.43,6.2-8.82,12.45-28.42,10.44-32.71-3.49-7.43-17.41,2.56-17.03,4.4,1.08,5.3-1.55,17.35-19.23,45.96-.43.69-.14,1.6.59,1.96,1.93.94,3.87,1.88,5.8,2.81Z"/>
        <path class="cls-40" d="M282.79,171.46l-4.32,3.28c-3.09.3-5.09-2.92-6.46-5.7l-15.6-28.93c-3.57-7.22-2.75-14.44,6.1-17.89,0,0,5.79-1.26,9.95,3.89,4.48,5.55,7.87,10.15,11.5,19.15,2.46,6.1,4.18,11.87,5.41,17.07,1.03,4.4-2.08,8.69-6.57,9.12Z"/>
        <rect class="cls-23" x="262.56" y="337.57" width="7.21" height="3.06" transform="translate(531.65 678.73) rotate(-179.88)"/>
        <path class="cls-23" d="M263.86,339.09c-2.92.01-2.66.25-6.59,1.14-.9.21-9.86,1.06-12.13-1.53-.14-.16-.25-.35-.22-.6.15-1.44,5.69-2.1,10.29-5.52,6.56-4.88,7.12.95,12.15-2.58,2.97-2.08,4.1,6.46,2.42,7.93-.92.81-2.86,1.15-5.93,1.16Z"/>
        <path class="cls-6" d="M279.51,202.54c-.22,2.03-.59,5.15-1.2,8.94-2.12,13.08-4.85,20.02-6.16,26.03-.78,3.57-2.85,18.94-1.31,26.54,1.58,7.8-3.93,24.91-8.95,19-.05-.06-2.95,2.68-2.97,2.6-1.58-7.8-9.58-24.43-8.88-36.01l-.58-76.18c0-.95.75-1.71,1.67-1.68h0c2.81.34,11.38,1.74,18.73,8.92,8.82,8.62,9.55,19.39,9.65,21.83Z"/>
        <path class="cls-6" d="M267.54,330.27c-.29.31-2.06,2.12-4.86,2.1-2.33-.02-3.88-1.29-4.29-1.64.13-1.94.32-4.78.51-8.23,0,0,.13-7.34.54-13.01,1.21-16.86-2.95-33.29-4.23-46.41.4-6.79,1.77-8.56,2.96-8.9,1.3-.37,3.67.6,7.52.8.01,0,.02,0,.04,0,2.68.16,4.16,2.77,3.94,5.51,1.68,6.35,3.55,13.58,4.15,21.97,1.43,20.13-2.55,36.79-6.28,47.83Z"/>
        <path class="cls-2" d="M282.21,204.89c-.08,2.04-.24,5.18-.6,8.99-1.25,13.19-3.52,20.29-4.44,26.38-.54,3.61-1.6,19.09.44,26.57,2.09,7.68-2.27,25.12-7.68,19.55-.06-.06-2.77,2.87-2.79,2.79-2.09-7.68-11.17-23.74-11.23-35.34l-5.6-75.97c-.07-.95.64-1.76,1.56-1.78h0c2.83.15,11.47.98,19.28,7.67,9.37,8.02,10.8,18.72,11.07,21.15Z"/>
        <path class="cls-2" d="M278.69,333.13c-3.89,2.24-5.53,2.6-9.42,4.83.86-8.14-.09-15.57-.03-25.04.1-16.91-5.14-33.02-7.28-46.03-.05-6.81,1.2-8.66,2.37-9.08,1.28-.46,3.7.36,7.56.3.01,0,.02,0,.04,0,2.68-.02,4.34,2.48,4.3,5.24,2.1,6.22,4.44,13.32,5.59,21.65,2.75,19.99-.11,36.88-3.11,48.14Z"/>
        <path class="cls-26" d="M273.78,129.36l-18.05,6.68c-.89-4.81-1.6-10.5-1.78-16.9-.18-6.49.23-12.28.86-17.19,4.97-.13,9.94-.27,14.91-.4-.95,2.37-2.02,5.96-2.01,10.38.01,8.84,4.32,15.13,6.07,17.42Z"/>
        <path class="cls-23" d="M251.98,89.81c-1.28-1.5-3.2-4.09-2.41-5.45.91-1.57,7.28-4.59,12.89-2.57,1.67.83,3.57,3.76,5.24,4.59,4.05.93,4.29,6.34,3.36,10.38l-1.59,6.92c-2.17.48-5.43,1.46-8.9,3.62-3.54,2.2-9.22-11.2-8.59-17.49Z"/>
        <path class="cls-14" d="M264.86,100.34c-1.58,6.52-6.01,11.08-10.07,10.15-4.06-.93-6.13-6.99-4.63-13.53,1.5-6.54,1.7-8.4,6.14-8.19,5.79.28,10.9,1.89,8.55,11.57Z"/>
        <path class="cls-14" d="M268.18,100.18c-.36,1.57-1.92,2.55-3.49,2.19-1.57-.36-2.55-1.92-2.19-3.49s-.29-.41,1.28-.05,4.76-.22,4.4,1.35Z"/>
        <rect class="cls-23" x="273.54" y="340.17" width="7.21" height="3.06" transform="translate(562.24 676.79) rotate(178.66)"/>
        <path class="cls-23" d="M274.85,341.75c-2.92.09-2.65.31-6.55,1.31-.9.23-9.83,1.31-12.16-1.22-.14-.15-.26-.35-.24-.6.12-1.45,5.63-2.24,10.14-5.78,6.43-5.05,7.14.77,12.09-2.89,2.92-2.16,4.26,6.35,2.62,7.87-.9.83-2.83,1.22-5.9,1.31Z"/>
        <path class="cls-27" d="M263.45,209.92s-18.83.52-20.32-1.31c1.11-4.31,2.5-10.83,3.1-18.84.72-9.77-.1-16.86-.47-21.14-.79-9.01-1.03-22.21,1.7-39.73,0-.48.09-1.55.76-2.68.47-.8,1.15-1.47,1.99-1.95l8.61-4.86c1.58-.42,3.94-.87,6.81-.73,1.06.05,4.03.22,7.03,1.53,0,0,3.21,5.41,6.7,10.81,5.5,8.51,4.19,27.11,4.42,38.92.38,19.23.62,37.36.66,39.98h-20.97Z"/>
        <path class="cls-14" d="M190.36,204.36c3.91-.87,6.76-2.64,8.42-3.87.33-2.53.65-5.07.98-7.6.12-.33-.17-.66-.51-.58-1.58.37-3.73,1.09-5.99,2.54-2.51,1.61-5.12,10.01-2.9,9.52Z"/>
        <path class="cls-39" d="M197.4,201.11c6.41-1.94,16.42-2.99,29.09-7.79,10.24-3.87,26.72-16.68,27.5-21.37,1.36-8.13-16-7.6-16.74-5.86-2.15,5.01-11.26,13.56-42.45,27.48-.75.34-1.03,1.25-.63,1.96,1.07,1.86,2.15,3.72,3.22,5.58Z"/>
        <path class="cls-39" d="M243.26,171.88l-5.09-1.86c-1.92-2.44-.29-5.86,1.31-8.52l15.93-28.74c4.14-6.9,10.67-10.11,18.35-4.52,0,0,4.19,4.19,2.09,10.47-2.25,6.76-4.3,12.11-9.91,20.02-3.81,5.36-7.73,9.93-11.45,13.77-3.14,3.25-8.44,2.95-11.23-.61Z"/>
        <polygon class="cls-2" points="270.26 119.15 252.11 122.64 252.81 113.56 268.17 112.17 270.26 119.15"/>
      </g>
    </g>
  </g>
</svg>