<?xml version="1.0" encoding="UTF-8"?>
<svg xmlns="http://www.w3.org/2000/svg" version="1.1" xmlns:xlink="http://www.w3.org/1999/xlink" viewBox="0 0 4000 4000">
  <defs>
    <style>
      .cls-1 {
        fill: #4598e6;
      }

      .cls-2 {
        fill: url(#linear-gradient-15);
      }

      .cls-3 {
        fill: url(#linear-gradient-13);
      }

      .cls-4 {
        fill: #1d3b54;
      }

      .cls-5 {
        fill: #e0cec7;
      }

      .cls-6 {
        fill: #f5e2d9;
      }

      .cls-7 {
        fill: url(#linear-gradient-4);
      }

      .cls-7, .cls-8, .cls-9, .cls-10, .cls-11 {
        opacity: .95;
      }

      .cls-12 {
        fill: #434343;
      }

      .cls-8 {
        fill: url(#linear-gradient-2);
      }

      .cls-13 {
        fill: #96bfe6;
      }

      .cls-14 {
        fill: url(#linear-gradient-10);
      }

      .cls-15 {
        fill: #d44040;
      }

      .cls-16 {
        fill: #fff;
      }

      .cls-17 {
        fill: #393d63;
      }

      .cls-18 {
        fill: #292c47;
      }

      .cls-9 {
        fill: url(#linear-gradient);
      }

      .cls-19 {
        fill: #344052;
      }

      .cls-20 {
        fill: #decbc4;
      }

      .cls-21 {
        fill: url(#linear-gradient-3);
      }

      .cls-22 {
        fill: url(#linear-gradient-5);
      }

      .cls-23 {
        fill: url(#linear-gradient-22);
      }

      .cls-24 {
        fill: #eea987;
      }

      .cls-25 {
        fill: url(#linear-gradient-8);
      }

      .cls-26 {
        fill: #424773;
      }

      .cls-27 {
        fill: #183c59;
      }

      .cls-28 {
        fill: #ffdf69;
      }

      .cls-29 {
        fill: #51565c;
      }

      .cls-30 {
        fill: #e8734d;
      }

      .cls-31 {
        fill: url(#linear-gradient-14);
      }

      .cls-32 {
        fill: #616161;
      }

      .cls-33 {
        fill: url(#linear-gradient-20);
      }

      .cls-34 {
        fill: url(#linear-gradient-17);
      }

      .cls-35 {
        fill: url(#linear-gradient-7);
      }

      .cls-36 {
        fill: url(#linear-gradient-9);
      }

      .cls-37 {
        fill: url(#linear-gradient-11);
      }

      .cls-38 {
        fill: url(#linear-gradient-19);
      }

      .cls-39 {
        fill: #385369;
      }

      .cls-40 {
        fill: url(#linear-gradient-6);
      }

      .cls-41 {
        fill: #3a3f47;
      }

      .cls-42 {
        fill: #ffbf55;
      }

      .cls-43 {
        fill: url(#linear-gradient-21);
      }

      .cls-44 {
        fill: #323657;
      }

      .cls-45 {
        fill: #ab9546;
      }

      .cls-46 {
        fill: #163342;
      }

      .cls-47 {
        fill: #eb4747;
      }

      .cls-48 {
        fill: #a77860;
      }

      .cls-49 {
        fill: url(#linear-gradient-16);
      }

      .cls-50 {
        fill: #0e2d3d;
      }

      .cls-51 {
        fill: #2d3133;
      }

      .cls-52 {
        fill: url(#linear-gradient-23);
      }

      .cls-11 {
        fill: url(#linear-gradient-12);
      }

      .cls-53 {
        fill: #3c4145;
      }

      .cls-54 {
        fill: #eea886;
      }

      .cls-55 {
        fill: #e2d2ca;
      }

      .cls-56 {
        fill: url(#linear-gradient-18);
      }

      .cls-57 {
        fill: #285173;
      }
    </style>
    <linearGradient id="linear-gradient" x1="2025.18" y1="2717.15" x2="1951.25" y2="1377.16" gradientUnits="userSpaceOnUse">
      <stop offset="0" stop-color="#d1d7e0"/>
      <stop offset="1" stop-color="#ebebff"/>
    </linearGradient>
    <linearGradient id="linear-gradient-2" x1="3228.14" y1="3082.71" x2="3228.14" y2="1710.09" xlink:href="#linear-gradient"/>
    <linearGradient id="linear-gradient-3" x1="127.25" y1="3479.32" x2="3665.92" y2="3479.32" gradientUnits="userSpaceOnUse">
      <stop offset="0" stop-color="#1a2257"/>
      <stop offset="1" stop-color="#5e60f2"/>
    </linearGradient>
    <linearGradient id="linear-gradient-4" x1="1957.56" y1="2235.09" x2="1957.56" y2="1231.41" xlink:href="#linear-gradient"/>
    <linearGradient id="linear-gradient-5" x1="-2400.96" y1="2809.84" x2="-2173.46" y2="2809.84" gradientTransform="translate(-1471.54) rotate(-180) scale(1 -1)" gradientUnits="userSpaceOnUse">
      <stop offset="0" stop-color="#3076a1"/>
      <stop offset="1" stop-color="#48c9b6"/>
    </linearGradient>
    <linearGradient id="linear-gradient-6" x1="-2224.2" y1="2997.63" x2="-1810.61" y2="2997.63" xlink:href="#linear-gradient-5"/>
    <linearGradient id="linear-gradient-7" x1="-2188.85" y1="3057.78" x2="-1878.42" y2="3057.78" xlink:href="#linear-gradient-5"/>
    <linearGradient id="linear-gradient-8" x1="-2564.09" y1="2742.43" x2="-2097.93" y2="2742.43" xlink:href="#linear-gradient-5"/>
    <linearGradient id="linear-gradient-9" x1="814.99" y1="3251.29" x2="543.58" y2="2437.04" gradientTransform="matrix(1,0,0,1,0,0)" xlink:href="#linear-gradient-5"/>
    <linearGradient id="linear-gradient-10" x1="605" y1="3783.05" x2="740.71" y2="3198.04" gradientUnits="userSpaceOnUse">
      <stop offset="0" stop-color="#c9c4c1"/>
      <stop offset="1" stop-color="#fff6de"/>
    </linearGradient>
    <linearGradient id="linear-gradient-11" x1="559.23" y1="3326.53" x2="892.84" y2="3326.53" gradientTransform="translate(19.53)" xlink:href="#linear-gradient-10"/>
    <linearGradient id="linear-gradient-12" x1="2867.13" y1="1386.56" x2="2867.13" y2="821.18" xlink:href="#linear-gradient"/>
    <linearGradient id="linear-gradient-13" x1="3650.21" y1="1227.63" x2="3720.52" y2="1227.63" xlink:href="#linear-gradient"/>
    <linearGradient id="linear-gradient-14" x1="3625.02" y1="1227.63" x2="3654.32" y2="1227.63" xlink:href="#linear-gradient"/>
    <linearGradient id="linear-gradient-15" x1="3448.28" y1="1195.48" x2="3673.49" y2="1195.48" xlink:href="#linear-gradient"/>
    <linearGradient id="linear-gradient-16" x1="2197.57" y1="645.24" x2="2289.93" y2="645.24" xlink:href="#linear-gradient"/>
    <linearGradient id="linear-gradient-17" x1="2197.57" y1="711.99" x2="2289.93" y2="711.99" xlink:href="#linear-gradient"/>
    <linearGradient id="linear-gradient-18" x1="2197.57" y1="778.74" x2="2289.93" y2="778.74" xlink:href="#linear-gradient"/>
    <linearGradient id="linear-gradient-19" x1="2328.07" y1="645.24" x2="2354.35" y2="645.24" xlink:href="#linear-gradient"/>
    <linearGradient id="linear-gradient-20" x1="2328.07" y1="711.99" x2="2354.35" y2="711.99" xlink:href="#linear-gradient"/>
    <linearGradient id="linear-gradient-21" x1="2328.07" y1="778.74" x2="2354.35" y2="778.74" xlink:href="#linear-gradient"/>
    <linearGradient id="linear-gradient-22" x1="1962.13" y1="2131.77" x2="2088.33" y2="2131.77" xlink:href="#linear-gradient"/>
    <linearGradient id="linear-gradient-23" x1="1916.92" y1="2131.77" x2="1969.52" y2="2131.77" xlink:href="#linear-gradient"/>
  </defs>
  <!-- Generator: Adobe Illustrator 28.7.1, SVG Export Plug-In . SVG Version: 1.2.0 Build 142)  -->
  <g>
    <g id="_Шар_1" data-name="Шар_1">
      <g>
        <path class="cls-9" d="M1545.23,1020.57h824.65c32.38,0,58.67,26.29,58.67,58.67v824.65c0,32.38-26.29,58.67-58.67,58.67h-824.66c-32.38,0-58.67-26.29-58.67-58.67v-824.66c0-32.38,26.29-58.67,58.67-58.67Z"/>
        <rect class="cls-13" x="1739.5" y="1748.1" width="436.13" height="21.55"/>
        <rect class="cls-13" x="1801.27" y="1815.99" width="312.58" height="21.55"/>
        <rect class="cls-8" x="2583.52" y="1347.28" width="1289.22" height="1513.26" rx="69.12" ry="69.12"/>
        <rect class="cls-1" x="3168.07" y="2240.01" width="102.25" height="18.94"/>
        <g>
          <rect class="cls-13" x="2779.87" y="2413.54" width="594.99" height="36.66"/>
          <rect class="cls-13" x="2779.87" y="2589.57" width="481.14" height="36.67"/>
          <rect class="cls-13" x="2779.87" y="2501.55" width="282.07" height="36.66"/>
        </g>
        <path class="cls-1" d="M3530.52,1498.19v18.52h109.03v102.33h18.52v-120.85h-127.55ZM2790.11,1619.03h18.52v-102.33h109.03v-18.52h-127.55v120.85ZM3639.55,2147.04v102.36h-109.03v18.52h127.55v-120.88h-18.52ZM2808.63,2147.04h-18.52v120.88h127.55v-18.52h-109.03v-102.36Z"/>
        <g>
          <path class="cls-1" d="M3600.35,2628.92c-60.12,0-109.04-48.92-109.04-109.04s48.92-109.04,109.04-109.04,109.04,48.91,109.04,109.04-48.92,109.04-109.04,109.04ZM3600.35,2431.95c-48.49,0-87.94,39.45-87.94,87.94s39.45,87.93,87.94,87.93,87.94-39.45,87.94-87.93-39.45-87.94-87.94-87.94Z"/>
          <polygon class="cls-1" points="3593.39 2562.8 3543.85 2513.26 3558.77 2498.34 3593.39 2532.95 3641.91 2484.43 3656.84 2499.35 3593.39 2562.8"/>
        </g>
        <path class="cls-21" d="M3665.92,3479.32c0,45.74-792.16,82.81-1769.33,82.81s-1769.33-37.07-1769.33-82.81,792.16-82.81,1769.33-82.81,1769.33,37.07,1769.33,82.81Z"/>
        <rect class="cls-7" x="1640.1" y="1055.8" width="634.93" height="544.77"/>
        <g>
          <path class="cls-39" d="M2200.09,1387.43c-20.91-55.32-71.15-80.72-94.86-88.63-8.44-2.8-23.53-7.73-39.42-12.87-28.64-9.25-59.93-19.32-59.93-19.32h-98.82s-34.22,11.47-70.59,24.21c0,.03-.03.03-.03.03-33.5,11.75-68.78,24.56-80.68,30.54-24.84,12.4-66.63,101.06-75.07,111.22-4.36,5.24-23.75,39.77-42.82,78.35h106.46c11.25-19.32,19.91-34.31,19.91-34.31,0,0,6.73,14.77,14.9,34.31h341.06c5.39-22.69,8.76-51.27,8.76-51.27,0,0,18.26,24.84,38.21,51.27h98.29c-23.9-40.11-53.57-92.31-65.35-123.54Z"/>
          <path class="cls-54" d="M1968.24,995.06s77.27,12.17,65.5,133.07c-11.77,120.89-79.96,110.99-84.52,110.86-4.56-.12-68.46,2.2-73.44-145.4,0,0-2.17-109.15,92.46-98.53Z"/>
          <path class="cls-54" d="M2034.93,1093.98s8.46-9.04,11.56.11c3.1,9.15-11.54,49.96-12.07,51.86,0,0-1.55,3.55-3.58,1.6-2.03-1.95,4.08-53.57,4.08-53.57Z"/>
          <path class="cls-54" d="M1877.86,1092.45s-8.29-9.2-11.57-.11c-3.28,9.09,10.45,50.16,11.06,52.09,0,0,1.48,3.58,3.54,1.66,2.07-1.92-3.04-53.64-3.04-53.64Z"/>
          <path class="cls-12" d="M2034.9,1112.52l-11.06,14.79s.31-32.42-1.46-37.51c-1.78-5.08-4.49-20.61-5.98-24.28-1.48-3.66-66.35-21.84-123.65,5.31,0,0,2.52,23.31-2.97,25.39-5.49,2.07-2.8,37.97-2.8,37.97l-9.1-10.26s-13.92-93.01-10.48-102.7c3.44-9.7,14.39-67.98,131.95-33.38,0,0,36.65-7.76,44,17.54,7.36,25.3-8.45,107.13-8.45,107.13Z"/>
          <path class="cls-54" d="M2015.45,1264.43c-.03-.11-9.91-4.87-9.91-4.87-4.81-10.76-1.24-56.18-1.24-56.18,0,0-98.41-25.05-95.6-5.89,2.81,19.15-8.48,63.65-8.48,63.65l-50.49,25.07s53.79,144.43,115.61,125.8c61.82-18.63,85.17-131.01,85.17-131.01l-35.06-16.57Z"/>
          <path class="cls-48" d="M1910.12,1218.76s15.85,20.47,43.38,20.47c18.1,0,31.1-5.08,49.13-22.66,0,0-7.82,33.39-49.01,36.5,0,0-29.87,3.8-43.5-34.31Z"/>
        </g>
        <g>
          <path class="cls-50" d="M1626.01,1703.74s56.78,27.77,42.74,103.33c-14.04,75.56-20.25,85.74-4.55,115.26,15.7,29.52,34.23,155.46,20.1,179.33-14.13,23.87-174.94-104.9-197.24-212.94-22.3-108.04,14.13-156.09,27.01-173.99,12.88-17.9,61.8-36.43,111.93-10.99Z"/>
          <path class="cls-46" d="M1604.59,3457.24h12.87v-60.69s25.24,16.83,41.08,40.09c15.84,23.26,37.61,21.28,70.77,19.8,33.16-1.48,31.68-14.85,28.71-33.65-2.97-18.81-36.62-24.75-47.51-27.72-10.89-2.97-35.61-45.55-43.55-55.93-10.84-14.14-16.58-27.71-16.58-27.71,0,0-6.19-25.24-36.87,0-30.69,25.24-21.78,73.74-18.31,78.2,3.46,4.45,9.4,67.62,9.4,67.62Z"/>
          <path class="cls-54" d="M1669.42,3395.06c11.38,7.43,41.08,0,41.08,0-8.41-10.89-60.13-83.64-60.13-83.64-31.43-18.31-43.85,6.89-43.85,6.89,12.82,3.92,51.52,69.33,62.9,76.75Z"/>
          <path class="cls-54" d="M2000.35,2275.46s20.6,3.95,27.64-5.73c5.99-8.23,19.67-14.55,23.88-16.51,5.63-2.61,19.92-17.07,23.29-10,3.36,7.07-22.42,24.97-27.07,29.8-4.66,4.83,25.28,6.97,30.44,11.67,5.16,4.7-1.19,54.08-21.56,50.24-20.37-3.84-39.61-21.4-43.32-21.37-3.72.04-14.94-2.21-14.94-2.21l1.64-35.88Z"/>
          <path class="cls-54" d="M2073.98,2282.66s61.6,15.91,64.81,20.41c3.22,4.5,2.16,7.78-3.66,6.54-5.82-1.25-59.96-13.65-59.96-13.65,0,0,69.74,31.09,73.18,34.19,2.01,1.82.34,8.31-2.84,7.92-3.18-.38-74.06-27.24-74.06-27.24,0,0,65.06,29.14,67.16,32.6,1.84,3.03-1.19,8.59-6.16,6.76-4.97-1.83-66.89-25.46-66.89-25.46,0,0,46.02,24.19,46.08,28.16.03,2.43-1.15,8.1-12.83,1.49-11.68-6.61-40.87-19.32-40.87-19.32l16.04-52.4Z"/>
          <path class="cls-46" d="M1437.84,3461.39h7.92v-44.54s14.08,14.49,20.52,35.77c6.44,21.28,29.47,27.59,64.61,26.6,35.14-.99,35.63-14.86,32.66-35.65-2.97-20.79-32.66-31.68-32.66-31.68-13.36-11.88-46.52-61.12-46.52-61.12,0,0-21.28-5.69-37.98,7.79-16.7,13.48-11.51,43.93-11.01,51.85.49,7.92,2.47,50.98,2.47,50.98Z"/>
          <path class="cls-4" d="M1462.1,2400.25s-41.87,54.44-53.23,119.03c-11.36,64.59,6.71,281.37,6.21,313.29-.5,31.92-30.19,111.36-24.25,171.49,5.94,60.13,29.38,359.43,29.38,359.43l64.16-12.73s-3.71-305.13,0-330.37c3.71-25.24,11.16-117.25,12.65-127.64,1.48-10.39,94.26-283.31,94.26-329.88s-28.21-238.6-129.18-162.63Z"/>
          <path class="cls-4" d="M1672.44,2421.53s68.8,262.56,76.96,298.94c8.17,36.38,20,66.38,20,81.82,0,35.84-13.31,93.38-13.31,93.38l-87.36,417.81h-83.2s46.36-250.66,47.61-299.68c1.25-49.12,39.06-118.88,31.64-139.67-7.42-20.79-119.53-260.58-119.53-260.58,0,0-84.88-268.25,127.2-192.03Z"/>
          <path class="cls-54" d="M1530.89,3411.89l-46.52-61.12-37.98,7.79s10.22,27.36,28.68,47.94c21.87,24.38,55.82,5.39,55.82,5.39Z"/>
          <path class="cls-57" d="M1644.03,1975.34s28.36,2.68,49.79,25.64c21.43,22.96,41.54,59.58,47.16,71.83,5.61,12.25,84.3,125.74,88.38,128.29,4.08,2.55,43.63,15.77,69.84,24.59,40.44,13.61,121.51,43.07,121.51,43.07l-16.1,50.97s-152.43-49.88-190.61-59.28c-46.68-11.5-154.15-149.37-154.15-149.37,0,0-80.11-93.89-15.82-135.73Z"/>
          <path class="cls-42" d="M1594.53,1955.45s36.74,17.35,49.5,19.9c12.76,2.55,62.25,66.85,70.93,90.32,8.67,23.47,0,58.68-17.86,100.01-17.86,41.33-1.02,55.11-9.18,96.44-8.16,41.33-5.54,195.96-4.01,218.92,1.53,22.96-238.84,57.77-286.3,15.93,0,0,32.13-139.36,70.16-179.13,8.23-8.6,7.36-65.92,1.74-80.21-5.61-14.29-68.89-120.93-68.89-120.93,0,0-4.65-108.17,22.96-129.61,23.98-18.63,89.35-25.27,101.08-29.35,11.74-4.08,45.88-5.86,69.86-2.29Z"/>
          <path class="cls-54" d="M1612.07,1913.05s-1.1,10.12-2.36,23.79c-.49,5.41-1.02,11.38-1.51,17.5-1.46,18.33-2.63,38-1.93,48.06,0,0-38.19,38.26-81.6-44.65,0,0,18.25-34.19,4.51-80.74-13.75-46.57,82.89,36.05,82.89,36.05Z"/>
          <path class="cls-27" d="M1718.93,2180.92s9.19-61.12-.58-98.3c0,0,0,31.97-17.53,77.35l18.11,20.94Z"/>
          <path class="cls-54" d="M1495.34,1963.62s26.26,77.57,98.37,71.86c72.1-5.71,34.18-65.5,34.18-65.5,0,0-17.97-10.3-23.03-11.28-5.06-.97-79.72-1.92-79.72-1.92l-29.8,6.83Z"/>
          <path class="cls-57" d="M1627.89,1969.99s37.76,104.46,37.76,210.93,3.04,279.9,16.23,334.67c13.19,54.77,50.71,224.15,50.71,224.15l29.41-15.21s-70.73-270.32-76.07-289.81c-5.34-19.49,4.06-225.42,9.13-242.66,5.07-17.24,26.64-93.99,23.29-115.29-4.23-26.84-29.35-66.56-69.91-100.71l-20.55-6.06Z"/>
          <path class="cls-57" d="M1509.59,1960.36s23.47,75.16,35.37,171.42c11.89,96.26-36.51,543.06-68.97,644.48l-125.77-20.28s27.07-315.82,63.82-373.29c36.75-57.48,48.44-108.33,8.77-228.28-39.67-119.96,17.39-179.37,17.39-179.37,0,0,58.35-13.42,69.38-14.66Z"/>
          <polygon class="cls-32" points="1645.27 2279.08 1492.78 2543.2 1323.26 2445.33 1469.13 2177.38 1645.27 2279.08"/>
          <polygon class="cls-5" points="1626.89 2288.17 1491.46 2522.74 1340.9 2435.82 1470.45 2197.85 1626.89 2288.17"/>
          <polygon class="cls-32" points="1576.93 2267.09 1586.43 2250.63 1525.56 2215.48 1513.68 2230.58 1576.93 2267.09"/>
          <path class="cls-54" d="M1569.66,2454.49s-6.94.03-9.97-1.44c0,0-5.33-3.09-9.24-5.06-1.25-.62-2.34-1.13-3.09-1.39-3.11-1.08-10.26-2.51-17-7.19-6.74-4.67-30.62-32.32-30.62-32.32l11.28-17.15,8.27-17.56s50.14,3.24,56.92,6.87c.66.36,1.3.74,1.87,1.14,5.44,3.63,7.97,8.62,10.61,10.85.96.83,10,9.67,9.69,13.44-.43,5.23-2.85,8.68-6.01,10.4,0,0-1.3,10.2-6.32,14.96,0,0-.89,9.45-8.83,13.59,0,0-1.98,9.48-7.55,10.86Z"/>
          <path class="cls-57" d="M1466.32,1975.34s-46.31-13.27-72.84,37.76c-26.53,51.03-26.4,72.8-29.95,97.72-3.35,23.53-18.47,87.76-20,94.4-1.53,6.63-35.77,85.74-20.07,113.38,15.78,27.79,176.06,109.59,175.04,115.72-1.02,6.12,27.76-61.85,27.76-61.85,0,0-64.86-36.15-75.48-47.28-17.25-18.08-53.65-37.56-46.17-59.99,8.78-26.35,35.17-115.23,41.29-128.24,6.12-13.01,59.45-145.04,20.41-161.62Z"/>
          <path class="cls-24" d="M1617.78,1712.11s82.44,25.91,37.69,168.18c-44.76,142.27-157.35-16.49-145.57-103.17,11.78-86.68,107.88-65.01,107.88-65.01Z"/>
          <path class="cls-50" d="M1663.89,1795.13s-40.96,40.2-109.52,45.23c0,0-26.35,30.89-28.37,43.02,0,0-61.17-104.26,14.02-166.76,75.19-62.5,151.51,52.76,123.87,78.52Z"/>
          <path class="cls-24" d="M1555.19,1843.19c-.53-10.36-6.91-33.92-22.3-27.32s.94,54.58,11.15,51.63c0,0,12.41.19,11.15-24.31Z"/>
          <path class="cls-48" d="M1609.71,1936.83c-.49,5.41-1.02,11.38-1.51,17.5,0,0-36.39-2.17-60.71-56.3,1.58,2.36,28.25,41.53,62.22,38.8Z"/>
        </g>
        <g>
          <path class="cls-22" d="M706.95,3237.91c52.86-37.17,114.73-296.25,118.42-450.56,1.89-79.05,25.26-111.98,45.87-141.03,19.71-27.77,36.72-51.76,26.81-106.83-18.95-105.25,30.86-150.68,31.37-151.13l-5.77-6.57c-2.22,1.94-54.09,48.8-34.21,159.25,9.26,51.46-6.01,72.98-25.34,100.22-20.28,28.59-45.53,64.17-47.48,145.88-3.96,165.61-67.21,410.22-114.71,443.62l5.03,7.15Z"/>
          <path class="cls-40" d="M596.14,3162.34c-4.99-11.31-10.15-23.01-16-35.35-30.2-63.75-56.95-74.24-101.27-91.64-10.83-4.25-23.1-9.07-36.58-15.12-63.49-28.53-51.19-70.58-40.35-107.67,1.52-5.19,3.03-10.36,4.34-15.48,5.58-21.82-5.14-32.76-21.38-49.33-12.07-12.31-27.09-27.64-38.67-51.85-12.67-26.49-6.21-40.69,1.44-47.94,16.11-15.27,53.24-12.45,88.3,6.69,10.89,5.95,19.86,15.34,29.35,25.28,22.35,23.4,50.17,52.53,120.52,52.86,40.12.19,62.09,5.73,73.47,18.51,12.91,14.51,10.48,36.24,7.11,66.31-1.17,10.4-2.49,22.19-3.29,34.92-4.79,75.98,40.07,130.8,40.51,131.33,26.8,31.91,59.82,98.12,45.56,138.87-5.97,17.08-19.33,27.83-39.7,31.95-8.12,1.64-15.53,2.42-22.35,2.42-49.21,0-67.22-40.81-91.02-94.77ZM431.79,2762.32c-31.31-17.09-64.88-20.54-78.1-8.02-10.04,9.52-5.31,25.82.44,37.82,10.95,22.9,24.8,37.03,37.02,49.5,16.99,17.34,30.41,31.03,23.61,57.62-1.34,5.21-2.87,10.48-4.42,15.77-10.8,36.94-21,71.83,35.54,97.24,13.28,5.97,25.45,10.74,36.19,14.96,44.74,17.56,74.29,29.16,105.98,96.03,5.89,12.45,11.08,24.2,16.09,35.56,27.35,61.98,43.85,99.4,103.64,87.31,17.14-3.46,28.3-12.3,33.19-26.27,12.56-35.91-17.49-98.79-44.02-130.37-1.94-2.33-47.55-57.92-42.54-137.5.82-12.95,2.15-24.85,3.32-35.35,3.12-27.82,5.37-47.92-4.95-59.52-9.44-10.6-30.09-15.41-66.98-15.58-74.07-.35-103.31-30.97-126.8-55.57-9.4-9.84-17.52-18.35-27.22-23.64h0Z"/>
          <path class="cls-35" d="M708.58,3307.58l8.73-.46c-.43-8.2-11.44-201.54-89.07-258.13-85.17-62.08-112.02-128.79-124.81-173.58-15.07-52.77-91.77-66.87-95.03-67.44l-1.52,8.61c.74.13,74.58,13.74,88.14,61.24,13.14,46.02,40.72,114.57,128.06,178.24,74.3,54.16,85.39,249.56,85.49,251.53Z"/>
          <path class="cls-25" d="M693.8,3351.07c-18.27-9.1-17.6-45.67-16.6-101.04,1.27-69.96,3-165.77-33.62-253.89-38.9-93.61-4.21-120.98,29.35-147.44,37.58-29.63,73.08-57.63,4.95-183.97-31.29-58.03-41.22-97.28-31.26-123.52,9.84-25.94,37.47-36.05,66.71-46.75,50.47-18.47,107.69-39.41,100.3-146.24-2.27-32.75,1.58-52.89,12.12-63.38,11.44-11.4,28.31-10.16,47.83-8.73,29.5,2.16,62.91,4.6,92.02-33.37,3.03-9.49,30.85-94.19,64.14-108.7,6.99-3.05,13.84-3.01,20.37.11h0c22.98,10.99,36.32,24.03,40.77,39.85,7.75,27.53-12.41,58.57-35.76,94.52-36.69,56.49-78.28,120.53-35.14,196.73,57.03,100.75,26.91,136.01-14.78,184.81-23.88,27.96-50.95,59.64-69.05,111.33-14.55,41.57,10.27,81.2,34.28,119.53,30.12,48.08,61.26,97.8-4.31,140.94-108.41,71.33-215.48,304.16-216.55,306.5l-.44.97-.84.66c-19.97,15.65-34.51,23.13-45.46,23.13-3.31,0-6.3-.68-9-2.03ZM961.29,3014.54c58.43-38.44,32.14-80.4,1.71-128.99-23.94-38.22-51.07-81.53-35.13-127.06,18.64-53.23,46.27-85.58,70.66-114.12,40.85-47.81,67.83-79.4,13.82-174.82-45.74-80.82-.74-150.11,35.42-205.8,22.19-34.17,41.35-63.68,34.68-87.39-3.73-13.26-15.55-24.49-36.13-34.33h0c-4.19-2-8.47-2-13.1.02-30.89,13.45-59.24,103.12-59.53,104.03l-.23.73-.46.61c-32.08,42.39-69.78,39.63-100.08,37.41-18.1-1.33-32.4-2.37-41.02,6.21-8.49,8.45-11.61,26.96-9.57,56.58,7.84,113.39-55.29,136.49-106.01,155.05-28.5,10.43-53.11,19.44-61.54,41.64-8.99,23.7.79,60.65,30.78,116.27,71.61,132.81,31.53,164.42-7.23,194.99-32.42,25.57-63.05,49.72-26.69,137.22,37.32,89.81,35.57,186.68,34.29,257.41-.88,48.28-1.57,86.42,11.76,93.05,7.8,3.88,22.71-2.68,44.34-19.5,8.67-18.84,111.21-238.12,219.25-309.2Z"/>
          <path class="cls-36" d="M522.67,2336.25c55.18-18.92,43.71,87.43,67.03,166.11,23.31,78.69,259.37,34.33,160.29,231.36-99.09,197.04,125.31,65.89,58.29,237.84-67.03,171.94-5.83,355.84-78.69,309.06-72.86-46.78-40.93-263.3-116.7-289.02-75.77-25.73-88.14-55.74-13.12-125.68,75.02-69.94-196.58-139.38-129.55-280.61,67.03-141.23-11.29-227.2,52.46-249.06Z"/>
          <path class="cls-16" d="M704.19,3269.33c6.94-29.43,66.2-288.47,10.9-319.78-48.73-27.6-47.53-134.94-39.93-236.3,6.73-89.73-108.5-131.66-113.41-133.4l-2.92,8.24c1.14.4,113.85,41.46,107.62,124.51-7.81,104.09-8.64,214.55,44.34,244.56,41.98,23.77,3.33,231.96-15.11,310.17l8.51,2.01Z"/>
          <polygon class="cls-14" points="912.37 3177.09 833.59 3475.97 657.54 3475.97 578.76 3177.09 912.37 3177.09"/>
          <path class="cls-37" d="M912.37,3177.09s-173.43,32.56-173.43,298.88h-81.4l-78.78-298.88h333.61Z"/>
        </g>
        <path class="cls-11" d="M2569.32,671.74h595.62c26.62,0,48.23,21.61,48.23,48.23v526.84c0,26.62-21.61,48.23-48.23,48.23h-595.62c-26.62,0-48.23-21.61-48.23-48.23v-526.84c0-26.62,21.61-48.23,48.23-48.23Z"/>
        <rect class="cls-1" x="2837.06" y="1177.16" width="54.89" height="10.17"/>
        <g>
          <path class="cls-19" d="M2914.14,617.15s44.23,24.28,30.19,84c-14.04,59.71-19.38,67.6-7.97,91.73,11.41,24.13,21.44,125.25,9.27,143.75-12.17,18.5-135.53-90.23-149.24-177.21-13.71-86.98,17.15-123.93,28.09-137.71,10.94-13.79,50.65-26.72,89.66-4.54Z"/>
          <path class="cls-54" d="M2997.18,1110.69h-47.35c-2.29-23.36-4.41-39.61-3.97-42.02.7-3.97-47.12-129.39-51.58-139.76-4.49-10.35-22.02-38.16-24.31-64.36-2.32-26.2,31.85-36.77,31.85-36.77,46.1,8.26,61.72,72.04,61.72,72.04,0,0,19.36,129.33,29.15,165.73,2.52,9.33,3.88,25.82,4.49,45.15Z"/>
          <path class="cls-47" d="M2973.35,930.97l-70.51,29.73s-64.81-160.83-10.49-142.87c54.16,17.9,78.53,51.56,81,113.15Z"/>
          <path class="cls-47" d="M2957.66,1006.69c-2.06,15.97-10.49,72.53-8.61,87.8.32,2.52,1.36,8.32,2.93,16.2h-170.01c4.52-16.14,8.64-30.43,11.13-38.74,8.26-27.38.35-34.72-3.82-56.62-1.62-8.58-7.33-24.86-13.56-43.27-2.09-6.14-4.23-12.55-6.29-18.98-7.48-23.18-10.95-46.89-13.1-60.68-10.26-65.4,40.05-71.69,40.05-71.69,18.69-3.45,51.35-13.53,51.35-13.53l51.15,10.64s4.87,1.83,11.97,7.07c0,0,.03,0,.03.03,3.42,2.52,7.36,5.82,11.5,10.08,5.59,5.74,16.72,22.17,27.82,40.22,3.39,5.54,6.81,11.21,10.03,16.81,10.4,17.99,17.79,32.51,17.56,48.89-.2,16.11-18.05,49.81-20.11,65.78Z"/>
          <path class="cls-54" d="M2898.86,817.83s32.04,54.76,20.13,58.85c-11.92,4.09-74.72-9.74-99.25-61.48,0,0,41.23-18.74,79.13,2.62Z"/>
          <path class="cls-54" d="M2894.27,842.84s-28.46,12.04-54.23-27.6c0,0,6.92-45.02-7.72-71.07-14.64-26.04,64,31.22,64,31.22,0,0-1.27,5.37-2.59,13.29-.67,4.06-1.37,8.77-1.9,13.78-.44,4.17-.78,8.55-.93,12.92-.33,10.13.4,20.18,3.38,27.46Z"/>
          <path class="cls-17" d="M2823.6,904.18c-5.86,30.14-47.9,67.89-47.9,67.89-2.08-6.16-4.22-12.55-6.28-18.97,29-18.51,54.18-48.92,54.18-48.92Z"/>
          <path class="cls-54" d="M2813.05,928.16c-2.66,10.98-14.92,122.23-13.59,126.02.78,2.17,6.72,27.91,12.66,56.51h-54.88c-5.62-18.43-8.95-33.73-8.14-42.4,3.51-37.52-9.22-157.15-9.22-157.15,0,0-11.39-72.36,48.66-81.4,0,0,35.47,4.67,37.61,30.86,2.14,26.22-10.43,56.59-13.1,67.55Z"/>
          <path class="cls-47" d="M2735.45,943.53l74.51,17.41s59.11-114.77,5.87-135.72c-56.11-22.09-93.84,55.71-80.39,118.32Z"/>
          <path class="cls-24" d="M2907.26,623.52s64.76,23.77,23.71,135.52c-41.05,111.75-124.84-19.08-112.18-87.75,12.66-68.67,88.47-47.77,88.47-47.77Z"/>
          <path class="cls-19" d="M2940.9,691.44s-34.18,30.51-89.03,31.93c0,0-12.82,31.25-14.89,40.84,0,0-54.19-93.04,8.11-140.04,62.31-47,118.81,47.78,95.81,67.27Z"/>
          <path class="cls-24" d="M2859.28,730.08c-.03-8.28-4.23-27.3-16.75-22.63-12.52,4.68-1.31,43.56,6.94,41.59,0,0,9.89.62,9.81-18.96Z"/>
          <path class="cls-48" d="M2890.97,813.47c-30.43-8.42-42.2-37.42-42.56-38.39,24.75,31.98,43.42,27.38,43.42,27.38-.44,4.17-.48,6.78-.85,11.01Z"/>
        </g>
        <path class="cls-1" d="M3031.63,784.54v9.94h58.53v54.93h9.94v-64.87h-68.47ZM2634.16,849.41h9.94v-54.93h58.53v-9.94h-68.47v64.87ZM3090.16,1132.86v54.95h-58.53v9.94h68.47v-64.89h-9.94ZM2644.1,1132.86h-9.94v64.89h68.47v-9.94h-58.53v-54.95Z"/>
        <rect class="cls-1" x="1920.9" y="1642.85" width="73.32" height="13.58"/>
        <path class="cls-1" d="M2177.28,1118.43v13.28h78.18v73.37h13.28v-86.65h-91.46ZM1646.38,1205.08h13.28v-73.37h78.18v-13.28h-91.46v86.65ZM2255.46,1583.68v73.4h-78.18v13.28h91.46v-86.68h-13.28ZM1659.66,1583.68h-13.28v86.68h91.46v-13.28h-78.18v-73.4Z"/>
        <g>
          <path class="cls-20" d="M3595.31,2138.56h-62.01c-1.13-2.48-2.05-4.64-2.81-6.37-18.4-43.45-113.23-143.08-113.23-143.08v.22s-.05.05-.05.11v.11c-.05.16-.11.27-.16.43-.05.22-.11.49-.22.81-.05.16-.11.38-.11.54-.06.16-.11.27-.16.43-3.89,14.52-22.99,86.84-32.54,146.81h-419.65c-.97-5.56-2.1-10.85-3.4-15.76-3.83-14.9-6.42-29.63-8.1-43.39-.05-.7-.16-1.35-.21-2.05-.32-2.54-.59-5.07-.81-7.56-3.62-37.67-.92-66.55-.7-69.46-1.19,2.54-9.66,33.62-20.78,72-6.1,21.05-13.01,44.31-19.86,66.23h-99.1l124.35-358.76c2.75-2.16,35.03-17.76,58.56-28.98,24.02-11.44,53-28.23,79.18-42.59,13.39-7.34,26.02-13.98,36.97-19l1.67-.76v-.05c18.08-8.26,30.12-13.71,30.12-13.71h.05c.43-.05,3.29-.32,7.83-.76,25.26-2.43,103.63-9.77,129.86-11.28,2.16-.16,3.99-.22,5.4-.27,1.19-.05,2.11-.05,2.64,0,3.29.22,19.48,5.83,40.7,13.93.81.27,1.62.59,2.43.92,1.03.38,2,.76,3.02,1.13,1.84.7,3.73,1.41,5.61,2.16,3.78,1.51,7.72,3.02,11.66,4.59,1.35.54,2.75,1.08,4.16,1.62,42.48,16.84,91.16,37.73,102.71,46.04,7.66,5.45,31.47,50.3,59.05,105.79,29.69,95.1,66.01,232.3,77.94,299.98Z"/>
          <path class="cls-54" d="M3287.36,1650.21c-1.12,56.41-110.34,87.27-110.34,87.27,0,0-45.68-57.28-34.77-62.76,4.29-2.16,6.03-10.7,6.56-20.29.5-9.12-.09-19.19-.62-25.58-.32-3.99-.63-6.56-.63-6.56,0,0,15.6-16.47,35.46-36.08,34.69-34.3,82.38-78.25,82.46-60.76,0,.92-.12,2.03-.4,3.31-8.38,39.34,22.29,121.45,22.29,121.45Z"/>
          <path class="cls-48" d="M3245.3,1567.56h0c-.21.34-4.85,7.27-12.75,17.22-16.77,21.09-48.29,55.74-83.72,69.65.5-9.12-.09-19.19-.62-25.58-3.63-.09-7.25-.51-10.85-1.31,9.72-16.97,23.75-34.77,23.75-34.77l21.93-6.56,62.28-18.65Z"/>
          <path class="cls-54" d="M3266.27,1526.21c-9.45,20.55-18.42,35.45-20.97,41.35h0c-1.66,3.85-6.17,10.12-12.75,17.22-18,19.39-51.46,44.97-84.35,44.07-3.63-.09-7.25-.51-10.85-1.31-13.28-2.9-28.96-9.07-37.59-25.97-68.14-133.41-18.81-242.5-18.81-242.5,0,0,186.31-52.69,215.46,3.4,20.45,39.34-7.95,115.44-30.14,163.73Z"/>
          <path class="cls-30" d="M3080.95,1359.08s-17.3-.96-21.58-33.76c-4.23-32.41,4.32-41.39,4.32-41.39,0,0,76.92-32.2,104.54-36.39,27.62-4.19,95.54-8.21,111.46,10,0,0,38.68-8.99,49.22,55.22,16.72,101.87-56.97,200.79-56.97,200.79,0,0,.63-66.55-14.05-75.37-14.68-8.82-27.34,12.15-27.34,12.15l-30.02,5.38s45.6-98.46-9.1-102.11c-54.7-3.65-79.16,11.19-110.47,5.48Z"/>
          <path class="cls-54" d="M3231.37,1423.8c2.85-29.32,55.88-40.51,52.33-9.78-3.55,30.73-29.66,60.26-41.72,59.22-12.06-1.04-12.78-27.09-10.6-49.43Z"/>
          <path class="cls-53" d="M3541.72,1841.33c-17.27-55.32-32.22-99.09-38.86-103.84-11.6-8.31-103.58-33.62-147.24-50.73-1.4-.54-2.81-1.08-4.16-1.62-3.94-1.56-7.88-3.08-11.66-4.59-1.89-.76-3.78-1.46-5.61-2.16-1.03-.38-2-.75-3.02-1.13-.81-.32-1.62-.65-2.43-.92-.05.05-.11.16-.22.21-3.89,4.37-24.07,27.31-48.2,61.64-45.12,64.12-103.9,168.02-94.88,263.93,2.91,30.76,6.48,74.97,12.47,124.57.43,3.94.92,7.88,1.46,11.87h203.59c2.48-51.92,6.91-120.31,13.6-146.81.06-.16.11-.27.16-.43,0-.16.05-.38.11-.54.05-.27.16-.54.22-.81.05-.16.11-.27.16-.43v-.11c0-.06.05-.11.05-.11,0,0,49.28,77.02,51.81,149.24h128.13c-6.26-67.09-25.85-202.29-55.48-297.23Z"/>
          <path class="cls-53" d="M3111.33,1689.88s-15.38,51.17-35.24,178.92v.05c-.7,4.27-1.35,8.64-2.05,13.12-.05.49-.16,1.03-.22,1.57-.48,2.92-.92,5.94-1.35,8.96-.05.38-.11.7-.16,1.08-.32,2-.65,4.05-.92,6.15-.76,5.02-1.51,10.2-2.27,15.44-7.45,52.14-17.38,134.99-27.47,223.39h-80.48c-4.37-24.56-8.47-46.9-8.15-62.23-.16.32-.27.7-.38,1.03-6.42,17.81-13.49,37.19-20.67,56.02-.65,1.73-1.29,3.45-1.94,5.18h-138.71l138.17-361.46c2.75-2.16,38.32-21.32,61.85-32.49,24.56-11.71,55.59-26.13,83.12-38.81,13.17-6.1,25.53-11.77,36-16.57l.86.65Z"/>
          <path class="cls-29" d="M3298.46,1816.29l-53.17,30.01,22.72,23.16-49.87,269.11h-18.78c-6.91-54.41-10.85-103.25-13.92-136.44-13.87-148.32,134.12-315.58,143.3-325.78,7.12,2.7,14.79,5.67,22.72,8.8l-53,131.16Z"/>
          <path class="cls-29" d="M3112.14,1688.48s-19.86,64.82-42.96,226.69c-7.45,52.08-17.43,134.99-27.52,223.39h-7.83l-10.31-254.27,25.31-27.42-22.51-28.12,48.15-122.95c13.17-6.1,25.53-11.77,36-16.57l1.67-.76Z"/>
          <path class="cls-6" d="M3331.42,1676.97l-44.06-26.76s-1.23,24.16-110.34,87.27l30.98,87.27,123.41-147.78Z"/>
          <path class="cls-6" d="M3148,1662.38s1.72,26.08,29.02,75.1l-60.47,78.83-4.41-127.85,35.86-26.08Z"/>
          <path class="cls-15" d="M3177.19,1737.48s11.72,46.88,7.5,60c0,0-25.77,9.37-44.29-2.34,0,0,13.12-32.81,36.79-57.66Z"/>
          <path class="cls-15" d="M3162.99,1896.87c-12.36,84.2-12.36,169.37-7.77,241.69h-51.65c-.7-10.2-1.35-20.83-2-31.95-9.61-166.72,49.33-315.69,49.33-315.69l26.28-6.58s-8.47,73.67-14.19,112.53Z"/>
          <path class="cls-51" d="M2954.7,2000.76c-1.97,40-1.68,75.53-1.68,75.53v.03c-.01.2-.05,1.28-.14,3.06-.08-.68-.17-1.34-.25-2.01-6.4,17.81-13.5,37.16-20.65,56.01-1.66-21.84-2.09-42.19-1.61-61.04,2.87-112.17,38.15-170.98,38.15-170.98-8.09,19.55-11.97,61.49-13.83,99.4Z"/>
        </g>
        <g>
          <polygon class="cls-18" points="2471.9 2139.04 2306.87 2229.76 2141.14 1968.95 2341.59 1899.32 2471.9 2139.04"/>
          <polygon class="cls-16" points="2461.44 2131.21 2307.1 2216.04 2152.11 1972.14 2339.57 1907.03 2461.44 2131.21"/>
          <path class="cls-54" d="M2517.96,2085.6s-28.72-13.74-41.33-20.92c-12.61-7.18-45.04-17.04-47.66-19.38-2.62-2.34-96.14-8.11-101.82-13-5.67-4.89-11.19,11.47,13.05,16.78,24.24,5.31,57.97,18.29,59.81,27.76,1.85,9.47-24.9,11.72-27.6,19.52-2.71,7.8.76,6.05,4.59,7.73,3.83,1.67,31.81-13.82,44.11-9.42,12.3,4.39,31.1-1.69,40.53,1.53,9.43,3.23,55.27,18.65,55.27,18.65l1.04-29.26Z"/>
          <path class="cls-54" d="M2298.83,2197.04s-24.13-21.72-35.81-30.81c-11.67-9.08-33.59-35.81-36.82-37.37-3.23-1.56-45.08-87.44-51.9-90.88-6.82-3.44,6.45-15.01,20.9,5.77,14.44,20.77,39.81,47.51,49.46,45.56,9.65-1.95,1.35-28.02,7.65-33.62,6.3-5.59,6-1.64,9.07,1.32,3.07,2.96-.64,35.35,8.3,45.24,8.93,9.88,10.52,29.97,17.23,37.6,6.71,7.63,39.1,44.82,39.1,44.82l-27.17,12.37Z"/>
          <path class="cls-26" d="M2818.53,3357.91s5.22,36.23,5.87,41.67c.65,5.45,58.07-3.21,58.07-3.21l4.65-43.13s-61.41-.45-68.59,4.67Z"/>
          <path class="cls-18" d="M2823.79,3394.98s-18.19,21.83-35.79,31.35c-17.6,9.52-45.25,13.29-55.65,23.14-7.51,7.11-27.36,37.72,45.72,37.11,73.08-.62,108.31,4.32,116.14-7.41,7.83-11.74-11.33-86.63-11.33-86.63,0,0-17.31,6.23-59.09,2.45Z"/>
          <path class="cls-26" d="M2407.13,3357.91s5.22,36.23,5.87,41.67c.65,5.45,58.07-3.21,58.07-3.21l4.65-43.13s-61.41-.45-68.59,4.67Z"/>
          <path class="cls-18" d="M2412.39,3394.98s-18.19,21.83-35.79,31.35c-17.6,9.52-82.34,17.33-92.75,27.18-7.51,7.11-20,35.74,82.82,33.06,73.05-1.9,108.31,4.32,116.14-7.41,7.83-11.74-11.33-86.63-11.33-86.63,0,0-16.3,6.65-59.09,2.45Z"/>
          <path class="cls-18" d="M2770.98,2426.89s53.95,85.72,49.92,163.2c-4.03,77.48,19.56,162.07,27.67,243.01,9.03,90.23,46.01,303.85,47.35,352.12,1.34,48.27-5.74,202.39-5.74,202.39l-74.01,1.69s-62.16-373.45-78.26-411.56c-16.1-38.11-95.94-309.77-98.62-340.25-2.68-30.49,131.7-210.6,131.7-210.6Z"/>
          <path class="cls-18" d="M2486.98,2438.51s-40.66,212.36-46.02,259.78c-5.37,47.42-8.94,229.49-11.63,259.13-2.68,29.64-17.89,387.85-32.2,431.88h94.62s72.64-260.41,72.64-383.61,56.12-267.85,92.34-349.14c36.22-81.29,119.14-83.21,141.41-234.04,0,0-281.01-31.84-311.15,16Z"/>
          <path class="cls-54" d="M2680.95,1706.25s-72.41-27.05-105.8,28.07c-33.39,55.12-30.17,165.48,6.33,179.05,36.5,13.57,91.33,6.47,110.02-28.02,18.69-34.49,35.56-84.36,34.75-117.68-.81-33.32-26.28-51.8-45.29-61.42Z"/>
          <path class="cls-54" d="M2589.34,1915.89s3.01,19.55-1.97,29.18c-4.98,9.63,93.81,9.88,93.81,9.88,0,0,8.02-52.39,23.23-96.65,15.2-44.26-115.07,57.58-115.07,57.58Z"/>
          <path class="cls-41" d="M2704.41,1858.31s-6.82,11.25-34.65,6.88c-27.83-4.36-61.79-41.4-73.41-45.46-11.62-4.07-11.73-10.89-11.73-10.89l-7.27,10.63-12.34.78s11.26-33.12-5.73-46.64c-16.98-13.51,17.63-107.22,106.89-76.02,0,0,68.56,18.9,66.07,57.89-2.49,38.99-12.48,83.41-27.82,102.83Z"/>
          <path class="cls-55" d="M2581.51,1943.92s.31-18.4,8.65-20.17c8.34-1.76,92.07-9.81,102.3-5.79v21.43s-19.72,12.14-110.96,4.52Z"/>
          <path class="cls-54" d="M2586.46,1794.66c1.56-6.54,18.19-25.23,24.56-5.22,6.37,20.01-9.62,46.93-18.54,44.62-8.92-2.3-9.98-22.82-6.02-39.41Z"/>
          <path class="cls-44" d="M2249.22,2161.34s.08-.02.14-.01c-.57.25-.66.27-.14.01Z"/>
          <path class="cls-28" d="M2831.84,2631.09s-44.41,13.08-120.14,21.42c-75.73,8.35-264.94-3.02-266.14-11.96-1.2-8.95,40.7-333.14,38.32-349.84-2.38-16.69-3.66-76.18-3.66-76.18-.93,16.3-17.54,82.88-37.59,119.17-7.24,13.11-31.54,54.21-43.25,44.87-56.69-45.26-144.46-215.81-150.03-217.25,4.68-2.03,41.6-19.03,46.78-20.76,4.54-1.51,45.43,41.78,70.21,68.62,11.05,11.96,18.89,20.66,18.89,20.66,7.15-16.1,33.22-117.51,41.31-152.61,18.27-79.16,15.46-82.45,15.46-82.45,55.4-16.76,139.49-50.87,139.49-50.87l110.96-4.52s101.84,22.42,141.94,40.53c3.8,1.72,3.82,90.85,14.26,114.22l-33.25,70.15s-19.21,138.96-23.19,200.76c-1.83,28.37,39.61,266.03,39.61,266.03Z"/>
          <path class="cls-28" d="M2853.28,2209.87c-2.9,9.35-16.05,17.25-24.6,20.71-5.47,2.21-11.6,2.93-17.76,1.79l-4.35-.8h0s-76.04-14.11-76.04-14.11c0,0-16.64-191.62,103.88-237.53,3.19,1.04,45.48,144.15,18.87,229.94Z"/>
          <path class="cls-45" d="M2828.68,2230.57h0c-5.47,2.22-11.6,2.94-17.76,1.79l-4.35-.8h0s7.5-97.92,7.5-97.92l14.61,96.93Z"/>
          <path class="cls-45" d="M2385.25,2229.84l-9.29,39.36s-10.09-39.49-9.6-60.01c11.05,11.96,18.89,20.66,18.89,20.66Z"/>
          <path class="cls-41" d="M2701.58,1712.75s94.9-11.89,1.61,146.64l-1.61-146.64Z"/>
          <polygon class="cls-18" points="2217.43 1954.96 2207.78 1938.39 2283.77 1912.17 2293.41 1928.65 2217.43 1954.96"/>
        </g>
        <g class="cls-10">
          <polygon class="cls-3" points="3666.69 1244.72 3720.52 1244.72 3704.04 1210.55 3650.21 1210.55 3666.69 1244.72"/>
          <polygon class="cls-31" points="3641.5 1244.72 3654.32 1244.72 3637.85 1210.55 3625.02 1210.55 3641.5 1244.72"/>
          <polygon class="cls-2" points="3455.51 1204.02 3673.49 1204.02 3666.25 1186.94 3448.28 1186.94 3455.51 1204.02"/>
        </g>
        <g>
          <path class="cls-49" d="M2202.6,631.32h82.3c2.78,0,5.03,2.25,5.03,5.03v17.78c0,2.78-2.25,5.03-5.03,5.03h-82.31c-2.78,0-5.03-2.25-5.03-5.03v-17.77c0-2.78,2.25-5.03,5.03-5.03Z"/>
          <rect class="cls-34" x="2197.57" y="698.07" width="92.37" height="27.84" rx="5.03" ry="5.03"/>
          <path class="cls-56" d="M2202.6,764.82h82.3c2.78,0,5.03,2.25,5.03,5.03v17.78c0,2.78-2.25,5.03-5.03,5.03h-82.3c-2.78,0-5.03-2.25-5.03-5.03v-17.77c0-2.78,2.26-5.03,5.03-5.03Z"/>
          <path class="cls-38" d="M2333.1,631.32h16.22c2.78,0,5.03,2.25,5.03,5.03v17.78c0,2.78-2.25,5.03-5.03,5.03h-16.22c-2.78,0-5.03-2.25-5.03-5.03v-17.78c0-2.78,2.25-5.03,5.03-5.03Z"/>
          <path class="cls-33" d="M2333.1,698.07h16.22c2.78,0,5.03,2.25,5.03,5.03v17.77c0,2.78-2.25,5.03-5.03,5.03h-16.22c-2.78,0-5.03-2.25-5.03-5.03v-17.78c0-2.78,2.25-5.03,5.03-5.03Z"/>
          <path class="cls-43" d="M2333.1,764.82h16.22c2.78,0,5.03,2.25,5.03,5.03v17.78c0,2.78-2.25,5.03-5.03,5.03h-16.22c-2.78,0-5.03-2.25-5.03-5.03v-17.78c0-2.78,2.26-5.03,5.03-5.03Z"/>
        </g>
        <g>
          <polygon class="cls-23" points="1991.71 2162.44 2088.33 2162.44 2058.76 2101.1 1962.13 2101.1 1991.71 2162.44"/>
          <polygon class="cls-52" points="1946.49 2162.44 1969.52 2162.44 1939.94 2101.1 1916.92 2101.1 1946.49 2162.44"/>
        </g>
      </g>
    </g>
  </g>
</svg>