<svg width="532" height="540" viewBox="0 0 532 540" fill="none" xmlns="http://www.w3.org/2000/svg">
<g clip-path="url(#clip0_793_52)">
<path fill-rule="evenodd" clip-rule="evenodd" d="M224.547 30.3415C221.805 30.3415 219.407 29.7598 217.368 28.5983C215.322 27.4442 213.728 25.7232 212.595 23.4555C211.461 21.1861 210.893 18.3922 210.893 15.0627C210.893 11.7333 211.461 8.82491 212.595 6.6016C213.728 4.38199 215.324 2.72374 217.368 1.6287C219.405 0.550287 221.803 0 224.547 0C227.291 0 229.737 0.572447 231.798 1.70811C233.851 2.84561 235.45 4.53341 236.584 6.76595C237.718 9.00034 238.286 11.7647 238.286 15.0627C238.286 18.3608 237.718 21.2729 236.584 23.5405C235.45 25.81 233.849 27.5088 231.798 28.6426C229.738 29.7728 227.318 30.3415 224.547 30.3415ZM224.547 24.1406C226.558 24.1406 228.165 23.3392 229.37 21.7474C230.578 20.1557 231.179 17.9139 231.179 15.0203C231.179 12.2984 230.578 10.1434 229.37 8.56639C228.167 6.99493 226.558 6.20274 224.547 6.20274C222.536 6.20274 221.014 6.99308 219.81 8.56639C218.603 10.1415 218.001 12.3113 218.001 15.0627C218.001 17.8142 218.603 20.1557 219.81 21.7474C221.014 23.3392 222.596 24.1406 224.547 24.1406ZM255.623 30.3415C252.881 30.3415 250.483 29.7598 248.443 28.5983C246.396 27.4442 244.806 25.7232 243.671 23.4555C242.537 21.1861 241.969 18.3922 241.969 15.0627C241.969 11.7333 242.535 8.82491 243.671 6.6016C244.806 4.38199 246.398 2.72374 248.443 1.6287C250.483 0.550287 252.881 0 255.623 0C258.365 0 260.811 0.572447 262.874 1.70811C264.927 2.84561 266.526 4.53341 267.662 6.76595C268.795 9.00034 269.364 11.7647 269.364 15.0627C269.364 18.3608 268.797 21.2729 267.662 23.5405C266.526 25.81 264.927 27.5088 262.874 28.6426C260.813 29.7728 258.393 30.3415 255.623 30.3415ZM255.623 24.1406C257.633 24.1406 259.243 23.3392 260.446 21.7474C261.654 20.1557 262.255 17.9139 262.255 15.0203C262.255 12.2984 261.654 10.1434 260.446 8.56639C259.243 6.99493 257.631 6.20274 255.623 6.20274C253.615 6.20274 252.09 6.99308 250.884 8.56639C249.681 10.1415 249.077 12.3113 249.077 15.0627C249.077 17.8142 249.679 20.1557 250.884 21.7474C252.092 23.3392 253.669 24.1406 255.623 24.1406ZM274.658 29.649V0.650004H285.751C289.082 0.650004 291.725 1.45697 293.677 3.05613C295.63 4.67006 296.603 7.0374 296.603 10.1803C296.603 13.3232 295.628 15.6832 293.677 17.2971C291.725 18.9184 289.082 19.7328 285.751 19.7328H281.596V29.649H274.66H274.658ZM281.596 13.6796H285.751C287.001 13.6796 287.949 13.3288 288.587 12.6271C289.224 11.9309 289.54 11.1165 289.54 10.1803C289.54 9.24409 289.222 8.40019 288.587 7.69294C287.947 6.98939 287.001 6.63484 285.751 6.63484H281.596V13.6778V13.6796ZM311.938 30.3415C309.871 30.3415 307.954 29.9888 306.187 29.2908C304.421 28.6002 302.985 27.4977 301.881 26.0057C300.777 24.5229 300.166 22.5766 300.05 20.1871H306.857C306.857 21.0642 307.078 21.7917 307.523 22.3697C307.968 22.944 308.578 23.3706 309.347 23.6439C310.107 23.919 310.963 24.0575 311.896 24.0575C312.643 24.0575 313.344 23.9929 314.001 23.8636C314.654 23.7307 315.177 23.5017 315.58 23.1693C315.981 22.8388 316.181 22.3845 316.181 21.8084C316.181 21.1048 315.975 20.5785 315.55 20.2332C315.129 19.8861 314.36 19.4927 313.254 19.044L306.966 16.3C304.899 15.408 303.287 14.3555 302.14 13.1441C300.992 11.9364 300.418 10.2837 300.418 8.19707C300.418 5.74662 301.419 3.77261 303.405 2.26024C305.394 0.762647 308.116 0.00553981 311.575 0.00553981C315.035 0.00553981 317.79 0.84205 319.672 2.49845C321.553 4.16963 322.608 6.53882 322.839 9.62264H316.077C315.905 8.67349 315.488 7.87391 314.822 7.22391C314.155 6.5776 313.07 6.25259 311.577 6.25259C310.499 6.25259 309.63 6.45203 308.971 6.84351C308.311 7.24607 307.98 7.73542 307.98 8.32633C307.98 8.87477 308.195 9.30503 308.62 9.6208C309.036 9.93841 309.674 10.2837 310.521 10.6586L317.177 13.4894C319.387 14.4552 321.032 15.5853 322.124 16.8835C323.198 18.1798 323.745 19.7383 323.745 21.5498C323.745 23.4943 323.279 25.1156 322.361 26.4193C321.428 27.7249 320.085 28.7036 318.333 29.3591C316.573 30.0147 314.441 30.3452 311.943 30.3452L311.938 30.3415ZM327.12 25.6511C327.12 24.3567 327.55 23.282 328.404 22.4325C329.251 21.5831 330.364 21.1565 331.728 21.1565C333.091 21.1565 334.219 21.5831 335.11 22.4325C335.999 23.282 336.444 24.3474 336.444 25.629C336.444 26.9105 336.001 27.9705 335.11 28.7941C334.221 29.6232 333.091 30.0405 331.728 30.0405C330.364 30.0405 329.251 29.6232 328.404 28.7867C327.55 27.9502 327.12 26.9068 327.12 25.6511ZM338.038 25.6511C338.038 24.3567 338.467 23.282 339.322 22.4325C340.169 21.5831 341.282 21.1565 342.648 21.1565C344.013 21.1565 345.137 21.5831 346.026 22.4325C346.917 23.282 347.362 24.3474 347.362 25.629C347.362 26.9105 346.917 27.9705 346.026 28.7941C345.137 29.6232 344.009 30.0405 342.648 30.0405C341.286 30.0405 340.169 29.6232 339.322 28.7867C338.467 27.9502 338.038 26.9068 338.038 25.6511ZM348.958 25.6511C348.958 24.3567 349.388 23.282 350.242 22.4325C351.089 21.5831 352.202 21.1565 353.566 21.1565C354.929 21.1565 356.057 21.5831 356.948 22.4325C357.837 23.282 358.282 24.3474 358.282 25.629C358.282 26.9105 357.839 27.9705 356.948 28.7941C356.059 29.6232 354.929 30.0405 353.566 30.0405C352.202 30.0405 351.089 29.6232 350.242 28.7867C349.388 27.9502 348.958 26.9068 348.958 25.6511Z" fill="black"/>
<path fill-rule="evenodd" clip-rule="evenodd" d="M360.487 141.129C361.526 156.112 360.737 171.706 359.487 186.657C358.236 201.607 356.425 217.114 352.912 231.714C350.17 243.103 345.939 254.128 339.6 264.005C325.747 285.594 301.303 290.009 277.326 287.993C253.414 285.978 230.564 277.437 220.553 253.982C215.927 243.139 213.548 231.49 212.648 219.762C211.496 204.818 212.223 189.275 213.47 174.36C215.546 149.54 220.443 115.605 235.077 94.7475C248.924 75.0091 272.796 71.4286 295.28 73.3232C319.068 75.3249 342.754 83.5072 352.73 107.072C357.308 117.884 359.673 129.438 360.488 141.129H360.487ZM300.013 133.208C298.276 129.362 294.753 128.023 290.733 127.683C286.861 127.357 283.18 127.996 281.077 131.456C278.331 136.309 276.522 141.52 275.843 147.062C274.656 156.714 273.576 166.392 272.768 176.085L272.36 180.951C271.585 190.2 270.849 199.518 270.475 208.794C270.365 211.538 270.282 214.304 270.33 217.052C270.354 218.274 270.37 219.949 270.635 221.14C271.338 224.294 272.201 227.514 273.396 230.519L273.42 230.576L273.44 230.635C275.032 235.108 279.581 236.376 283.889 236.74C290.061 237.257 293.002 233.677 294.7 228.048C296.299 222.739 297.219 216.714 297.99 211.229C299.295 201.996 300.193 192.654 300.97 183.362L301.376 178.496C302.072 170.172 302.731 161.777 303.029 153.429C303.117 150.947 303.18 148.441 303.11 145.959C303.08 144.855 303.046 143.332 302.788 142.257C302.048 139.206 301.167 136.132 300.011 133.21L300.013 133.208ZM181.726 247.825L189.468 286.458L129.804 298.494L112.366 289.468L122.064 259.861L50.275 274.346L32.8369 265.32L35.9248 233.678L77.6742 95.9182L130.993 72.6196L148.431 81.6458L171.778 198.176L179.012 184.173L196.452 193.199L203.833 243.369L181.725 247.827L181.726 247.825ZM497.387 292.476L489.652 331.109L429.988 319.082L420.392 303.674L437.723 280.451L365.934 265.975L368.355 222.9L459.901 112.024L521.065 110.883L530.662 126.287L507.328 242.823L522.405 232.389L532 247.798L519.494 296.934L497.385 292.478L497.387 292.476Z" fill="#DE0400"/>
<path fill-rule="evenodd" clip-rule="evenodd" d="M343.049 132.102C344.089 147.084 343.299 162.678 342.048 177.629C340.798 192.579 338.986 208.086 335.473 222.686C332.731 234.076 328.5 245.1 322.16 254.979C308.309 276.568 283.863 280.983 259.887 278.965C235.979 276.95 213.125 268.409 203.114 244.954C198.488 234.111 196.108 222.462 195.208 210.736C194.058 195.792 194.783 180.249 196.031 165.334C198.107 140.514 203.004 106.577 217.637 85.7213C231.487 65.983 255.356 62.4024 277.84 64.2971C301.627 66.2988 325.315 74.4811 335.29 98.0456C339.869 108.857 342.234 120.412 343.049 132.102ZM282.573 124.182C280.836 120.336 277.316 118.997 273.293 118.657C269.421 118.33 265.743 118.971 263.637 122.432C260.894 127.285 259.083 132.496 258.404 138.037C257.219 147.69 256.138 157.368 255.329 167.06L254.92 171.926C254.145 181.176 253.409 190.494 253.036 199.767C252.925 202.512 252.843 205.278 252.89 208.025C252.914 209.248 252.931 210.923 253.196 212.114C253.901 215.268 254.764 218.488 255.958 221.493L255.982 221.55L256.004 221.609C257.596 226.082 262.143 227.35 266.453 227.714C272.625 228.231 275.566 224.65 277.264 219.022C278.865 213.713 279.784 207.688 280.556 202.203C281.857 192.97 282.756 183.626 283.532 174.334L283.939 169.468C284.636 161.144 285.293 152.749 285.593 144.401C285.681 141.919 285.744 139.413 285.674 136.931C285.645 135.827 285.61 134.304 285.352 133.231C284.612 130.18 283.731 127.104 282.575 124.182H282.573ZM164.287 238.801L172.029 277.432L112.365 289.47L104.625 250.837L32.8355 265.32L18.4854 224.652L60.2347 86.8921L130.993 72.6197L154.34 189.15L179.012 184.173L186.394 234.343L164.285 238.803L164.287 238.801ZM96.2701 200.864L89.038 164.767L76.99 204.753L96.2701 200.864ZM487.792 277.068L480.056 315.701L420.392 303.672L428.128 265.039L356.335 250.564L358.757 207.492L450.307 96.6126L521.066 110.881L497.733 227.413L522.405 232.388L509.897 281.524L487.79 277.068H487.792ZM439.663 215.705L446.889 179.61L420.383 211.818L439.663 215.705Z" fill="#070707"/>
<path fill-rule="evenodd" clip-rule="evenodd" d="M339.725 132.337C340.563 144.39 340.232 159.393 338.728 177.348C337.228 195.306 335.064 210.156 332.236 221.901C329.407 233.643 325.118 244.067 319.361 253.169C308.14 270.526 288.409 278.014 260.167 275.635C232.353 273.294 214.356 262.628 206.176 243.639C202.015 233.704 199.463 222.649 198.528 210.478C197.593 198.309 197.864 183.353 199.349 165.615C202.389 129.268 209.393 103.279 220.361 87.6436C231.332 72.0103 250.397 65.3367 277.562 67.6246C306.02 70.0197 324.244 80.597 332.228 99.3511C336.389 109.29 338.89 120.282 339.729 132.337H339.725ZM286.85 174.617L287.259 169.747C289.031 148.548 289.474 136.111 288.587 132.442C287.7 128.773 286.716 125.584 285.641 122.879C283.63 118.353 279.609 115.836 273.571 115.328C267.535 114.818 263.26 116.637 260.739 120.783C257.682 126.188 255.802 131.805 255.097 137.626C253.761 148.408 252.73 158.125 252.009 166.778L251.602 171.644C249.63 195.225 249.077 208.958 249.946 212.845C250.818 216.73 251.79 220.027 252.866 222.732C254.624 227.671 259.061 230.441 266.175 231.04C273.289 231.638 278.05 227.954 280.45 219.988C282.853 212.02 284.988 196.894 286.85 174.613V174.617Z" fill="#FEFEFE"/>
<path fill-rule="evenodd" clip-rule="evenodd" d="M182.638 231.688L160.367 236.183L168.107 274.815L114.974 285.533L107.236 246.904L35.0123 261.474L21.9927 224.573L62.844 89.7748L128.384 76.5513L151.733 193.083L176.232 188.138L182.638 231.686V231.688ZM100.191 203.481L90.4033 154.637L88.495 155.019L72.1942 209.13L100.193 203.481H100.191Z" fill="#FEFEFE"/>
<path fill-rule="evenodd" clip-rule="evenodd" d="M507.455 277.624L485.183 273.135L477.448 311.768L424.315 301.056L432.05 262.421L359.828 247.862L362.025 208.777L451.606 100.286L517.15 113.498L493.815 230.033L518.316 234.973L507.459 277.624H507.455ZM442.271 219.639L452.05 170.791L450.141 170.409L414.273 213.996L442.272 219.639H442.271Z" fill="#FEFEFE"/>
<path fill-rule="evenodd" clip-rule="evenodd" d="M222.252 539.616L222.239 520.779L234.011 520.792L234.028 523.203L225.038 523.187V528.939H233.481L233.494 531.363L225.038 531.35V537.162L234.011 537.178L234.028 539.616H222.252ZM387.016 523.307V537.13H389.966C391.3 537.13 392.45 536.831 393.407 536.229C394.367 535.627 395.1 534.805 395.622 533.758C396.143 532.715 396.405 531.528 396.405 530.196C396.405 528.865 396.143 527.679 395.622 526.638C395.102 525.598 394.367 524.784 393.407 524.195C392.45 523.604 391.3 523.307 389.966 523.307H387.016ZM172.597 530.078H176.061C177.259 530.078 178.17 529.768 178.786 529.147C179.404 528.527 179.714 527.703 179.714 526.678C179.714 525.654 179.404 524.806 178.786 524.163C178.17 523.525 177.259 523.203 176.061 523.203H172.597V530.076V530.078ZM188.333 532.961H194.183L191.265 524.163L188.335 532.961H188.333ZM273.764 537.428C275.437 537.428 276.756 536.811 277.724 535.577C278.687 534.347 279.173 532.547 279.173 530.182C279.173 527.816 278.687 526.089 277.724 524.832C276.756 523.584 275.435 522.952 273.764 522.952C272.093 522.952 270.818 523.584 269.844 524.843C268.875 526.104 268.387 527.894 268.387 530.211C268.387 532.529 268.873 534.346 269.844 535.577C270.818 536.809 272.124 537.428 273.764 537.428ZM331.304 537.428C332.974 537.428 334.297 536.811 335.265 535.577C336.227 534.347 336.713 532.547 336.713 530.182C336.713 527.816 336.227 526.089 335.265 524.832C334.297 523.584 332.974 522.952 331.304 522.952C329.635 522.952 328.358 523.584 327.385 524.843C326.411 526.104 325.925 527.894 325.925 530.211C325.925 532.529 326.411 534.346 327.385 535.577C328.358 536.809 329.665 537.428 331.304 537.428ZM246.286 520.779H249.482L258.337 535.005L258.354 520.779L261.14 520.792L261.153 539.616H258.177L249.081 525.055L249.087 539.616H246.302L246.289 520.779H246.286ZM273.764 540C272.165 540 270.741 539.636 269.493 538.907C268.245 538.175 267.266 537.088 266.554 535.636C265.842 534.189 265.485 532.381 265.485 530.213C265.485 528.045 265.842 526.174 266.554 524.732C267.266 523.294 268.245 522.215 269.493 521.503C270.741 520.793 272.165 520.439 273.764 520.439C275.363 520.439 276.81 520.797 278.063 521.517C279.311 522.237 280.291 523.327 281.009 524.777C281.716 526.23 282.076 528.043 282.076 530.213C282.076 532.383 281.716 534.218 281.009 535.673C280.291 537.127 279.309 538.211 278.063 538.927C276.81 539.642 275.374 540 273.764 540ZM283.696 523.203V520.779H298.491V523.203H292.494V539.616H289.693V523.203H283.696ZM308.73 539.616L308.716 520.779L320.311 520.792V523.203L311.515 523.187V528.911H319.634L319.65 531.321L311.515 531.306V539.614H308.73V539.616ZM331.304 540C329.705 540 328.281 539.636 327.033 538.907C325.786 538.175 324.807 537.088 324.094 535.636C323.38 534.189 323.023 532.381 323.023 530.213C323.023 528.045 323.38 526.174 324.094 524.732C324.807 523.294 325.786 522.215 327.033 521.503C328.281 520.793 329.705 520.439 331.304 520.439C332.904 520.439 334.35 520.797 335.603 521.517C336.851 522.237 337.832 523.327 338.549 524.777C339.256 526.23 339.617 528.043 339.617 530.213C339.617 532.383 339.256 534.218 338.549 535.673C337.832 537.127 336.851 538.211 335.603 538.927C334.35 539.642 332.915 540 331.304 540ZM343.579 520.779H346.378V532.68C346.378 534.357 346.799 535.564 347.64 536.303C348.474 537.042 349.571 537.411 350.918 537.411C352.265 537.411 353.352 537.042 354.186 536.303C355.021 535.564 355.439 534.357 355.439 532.68V520.779H358.24V532.68C358.24 534.259 357.944 535.594 357.357 536.678C356.768 537.767 355.921 538.596 354.832 539.156C353.735 539.717 352.429 539.998 350.918 539.998C349.407 539.998 348.111 539.717 347.011 539.156C345.912 538.595 345.062 537.767 344.469 536.678C343.875 535.594 343.577 534.259 343.577 532.68V520.779H343.579ZM363.602 520.779H366.799L375.654 535.009L375.671 520.779L378.457 520.792L378.47 539.616H375.494L366.401 525.063V539.616H363.617L363.602 520.779ZM384.217 520.779H389.966C391.868 520.779 393.53 521.166 394.938 521.936C396.344 522.716 397.444 523.805 398.228 525.214C399.016 526.625 399.408 528.287 399.408 530.196C399.408 532.106 399.016 533.753 398.228 535.166C397.442 536.576 396.344 537.669 394.938 538.449C393.53 539.226 391.868 539.616 389.966 539.616H384.217V520.779ZM169.769 539.616V520.779H176.059C178.149 520.779 179.763 521.301 180.893 522.346C182.021 523.39 182.586 524.834 182.586 526.678C182.586 528.523 182.021 529.938 180.893 530.97C179.763 532.011 178.151 532.532 176.059 532.532H172.596V539.616H169.767H169.769ZM183.162 539.616L189.586 520.779H193.05L199.281 539.616H196.335L194.875 535.123H187.628L186.108 539.616H183.162ZM209.595 540C208.083 540 206.712 539.601 205.484 538.807C204.257 538.019 203.278 536.894 202.553 535.45C201.826 534.008 201.461 532.311 201.461 530.361C201.461 528.771 201.691 527.364 202.15 526.13C202.606 524.897 203.241 523.859 204.051 523.011C204.858 522.162 205.801 521.521 206.872 521.087C207.941 520.651 209.087 520.437 210.306 520.437C211.897 520.437 213.263 520.771 214.402 521.443C215.541 522.112 216.48 523.177 217.217 524.638L214.446 525.434C213.857 524.618 213.209 524.006 212.503 523.591C211.796 523.187 211.018 522.982 210.175 522.982C209.143 522.982 208.191 523.281 207.324 523.872C206.456 524.468 205.758 525.318 205.239 526.416C204.719 527.515 204.457 528.83 204.457 530.361C204.457 531.749 204.674 532.972 205.116 534.032C205.554 535.095 206.172 535.924 206.975 536.517C207.77 537.119 208.717 537.413 209.809 537.413C210.672 537.413 211.448 537.215 212.137 536.822C212.823 536.429 213.368 535.841 213.765 535.066C214.157 534.305 214.354 533.367 214.36 532.248V532.106L209.851 531.989V530.139H217.072V539.618H214.803L214.481 536.478C214.102 537.573 213.524 538.428 212.755 539.042C211.949 539.682 210.898 540.002 209.601 540.002L209.595 540Z" fill="black"/>
<path fill-rule="evenodd" clip-rule="evenodd" d="M162.594 470.863C157.239 472.028 151.008 473.046 144.166 473.792C119.851 476.446 87.8731 475.648 60.161 465.89C34.3334 456.798 12.2027 439.949 3.32914 410.913C-1.45914 395.241 -1.9008 395.828 7.51015 386.357C8.93449 384.922 10.3919 383.547 11.7574 382.171C12.1126 381.744 12.2267 381.586 12.6241 381.189C21.4039 371.76 29.7751 362.233 38.7352 352.93C41.7385 349.811 44.7656 346.714 47.8701 343.599C58.7974 333.037 69.2628 322.928 81.1397 313.328L100.935 297.72C101.355 297.432 101.61 297.24 102.004 296.941L108.364 292.09C116.005 286.347 119.895 282.584 129.387 279.605C134.46 278.017 141.492 278.253 146.413 279.219C148.573 279.646 150.4 280.041 152.458 280.56C154.512 281.075 156.512 281.481 158.56 281.967C161.554 282.676 164.44 283.418 167.34 284.39L172.907 286.332C173.845 286.65 174.675 286.971 175.608 287.328C177.884 288.197 179.979 289.126 182.098 290.197C184.362 291.34 189.71 293.817 191.653 293.817C195.015 277.027 209.124 272.871 216.627 269.126C229.961 262.474 237.32 262.389 250.826 253.572C265.84 243.508 281.736 246.3 297.08 253.729C309.303 259.649 321.078 268.496 329.816 276.243C341.133 286.281 356.385 300.588 361.492 315.619C364.32 323.94 364.672 333.072 358.685 339.705C358.288 340.148 357.712 340.458 357.366 340.975L358.304 344.233C361.946 358.754 354.256 377.717 339.298 382.716C338.553 382.967 336.75 383.543 335.839 383.565C336.071 384.051 336.223 385.259 336.33 385.909C337.155 390.893 336.304 393.387 334.413 397.937C333.986 398.97 333.531 399.961 332.867 400.831C332.635 401.136 332.372 401.322 332.271 401.71C334.529 401.71 336.726 401.359 338.932 400.988C342.988 400.308 346.812 399.121 350.678 397.838C354.335 396.626 357.83 395.057 361.447 393.707C366.429 391.845 373.297 388.562 378.646 388.497C389.386 388.365 390.512 391.557 393.254 392.49C394.619 392.953 400.77 393.275 404.658 395.98C405.076 396.272 405.324 396.499 405.696 396.792C406.057 397.08 406.452 397.23 406.912 397.424C409.012 398.316 411.275 399.247 413.173 400.523C413.592 400.803 413.846 401.01 414.24 401.305C415.142 401.974 419.192 405.977 419.742 407.019C423.132 407.019 428.283 406.505 431.553 406.526C432.721 406.531 433.415 406.397 434.505 406.402C437.532 406.419 440.471 406.022 443.487 406.033C446.439 406.044 449.442 405.645 452.344 405.662C454.534 405.675 454.25 405.346 455.791 406.524C457.57 407.89 456.957 407.813 457.419 405.447C457.75 403.756 458.054 401.765 458.336 400.072C462.975 372.161 467.39 343.038 472.875 315.411C473.575 311.897 474.083 308.462 474.679 304.874C475.474 300.104 476.495 293.647 477.408 288.969C478.363 284.074 477.861 284.628 484.099 287.132C485.626 287.743 487.03 288.31 488.58 288.931C494.535 291.322 500.328 293.619 506.261 296.005C509.989 297.499 511.618 297.157 511.266 301.716C503.823 344.449 496.129 387.247 489.036 430.018C488.289 434.53 488.849 436.681 483.589 436.773C483.199 438.446 481.927 438.125 480.761 438.13C447.018 438.134 413.254 437.516 379.509 437.516C375.452 437.516 368.05 437.713 364.121 437.394C363.477 437.34 362.861 437.519 362.04 437.516C358.923 437.499 356.954 438.088 353.801 438.136C346.667 438.252 341.406 436.282 334.164 438.622C330.791 439.711 327.677 441.384 324.225 442.531C319.722 444.023 315.23 445.247 310.721 446.758C308.498 447.506 306.248 448.191 303.988 448.887C302.869 449.234 301.734 449.555 300.554 449.888C290.985 452.586 284.809 453.603 275.176 455.529C270.297 456.506 264.648 456.949 259.419 457.496C256.663 457.782 253.855 457.867 251.278 458.22C248.595 458.583 246.098 458.969 243.66 459.46C241.139 459.968 238.744 460.411 236.187 460.849C235.55 460.956 234.911 461.026 234.227 461.106C232.534 461.3 229.845 461.713 228.189 461.713C228.189 466.121 227.92 470.355 227.944 474.798C227.71 485.592 227.445 481.406 227.455 492.169C227.455 493.416 227.328 494.171 227.33 495.379C227.33 496.191 227.422 498.117 227.284 498.791C227.057 499.894 225.979 500.152 225.511 499.301C224.981 498.337 225.605 488.585 225.605 486.366C225.832 474.329 226.095 477.415 226.095 465.418L224.915 467.32C224.036 468.586 223.128 469.779 222.006 470.821C217.976 474.562 210.882 476.534 205.427 476.529C202.286 476.523 195.457 476.054 192.258 475.796L187.731 475.524C178.468 474.553 171.254 473.312 162.59 470.869L162.594 470.863Z" fill="black"/>
<path fill-rule="evenodd" clip-rule="evenodd" d="M507.42 298.546L496.329 294.119C495.645 293.844 495.21 293.628 494.493 293.372C493.206 292.914 492.065 292.406 490.794 291.896C489.505 291.381 488.394 290.932 487.102 290.415C486.333 290.107 480.317 287.579 479.649 287.523C479.084 289.965 477.465 300.077 477.031 302.673C471.144 338.107 464.835 373.603 458.737 408.998L483.447 429.014C485.422 430.585 484.447 434.144 484.447 435.045C486.791 435.045 486.37 433.843 486.732 431.907C487.008 430.452 487.262 428.968 487.487 427.605L490.424 410.551C490.968 407.65 491.375 404.733 491.922 401.93L494.15 389.105C494.393 387.635 494.654 386.213 494.886 384.784C499.33 357.663 504.505 330.603 508.964 303.484C509.494 300.263 509.676 299.375 507.418 298.544L507.42 298.546Z" fill="#DB1919"/>
<path fill-rule="evenodd" clip-rule="evenodd" d="M328.577 398.752C329.058 397.838 329.418 396.619 329.654 395.511C330.361 392.191 329.93 389.061 329.017 385.84C328.844 385.237 328.57 384.686 328.452 384.184C326.067 384.184 324.422 383.77 321.919 384.066C318.839 384.428 315.659 385.624 313.811 389C315.94 390.13 317.159 390.433 318.614 391.055C320.823 392.002 325.293 395.022 327.129 397.116L328.575 398.75L328.577 398.752ZM318.861 341.718C316.953 341.718 315.427 340.804 314.673 339.252C313.837 337.526 314.038 335.742 315.232 334.252C315.639 333.744 316.222 333.31 316.853 333.037C321.152 331.172 325.392 336.217 321.991 340.294C321.399 341.001 320.094 341.718 318.863 341.718H318.861ZM275.426 289.592C274.405 289.592 273.01 290.879 272.625 289.52C272.29 288.332 274.951 287.823 275.317 287.823C276.322 287.823 277.43 288.513 277.989 289.012C278.516 289.481 279.559 290.528 279.727 291.25L280.056 289.038C280.056 288.033 279.682 286.763 279.182 286.264C277.542 284.623 275.891 284.709 273.812 285.756C273.293 286.015 273.083 286.126 272.64 286.46C270.985 287.712 271.433 287.49 270.332 288.678C268.869 290.255 267.875 292.039 267.336 294.188C267.044 295.364 266.93 296.777 266.059 296.777C264.602 296.777 265.376 294.784 265.715 293.556C266.398 291.082 267.717 288.816 269.445 287.014C270.998 285.394 273.645 283.282 275.98 283.282C277.445 283.282 277.986 283.293 279.322 284.13C279.539 284.264 280.093 284.693 280.245 284.863C283.013 287.898 281.478 294.576 279.371 293.931C278.832 293.767 278.832 293.503 278.705 292.932C278.367 291.435 276.646 289.584 275.426 289.584V289.592ZM336.08 338.508C336.08 335.002 335.261 331.39 334.043 328.332C332.913 325.499 331.564 323.047 329.345 320.825C328.299 319.778 325.88 317.769 324.269 317.769C323.244 317.769 322.547 318.471 322.547 319.497C322.547 320.679 323.509 321.015 324.378 321.364C324.816 321.542 325.143 321.75 325.554 322.038C326.192 322.487 326.943 323.132 327.42 323.747C327.725 324.144 327.906 324.313 328.191 324.699C330.315 327.562 331.761 331.332 332.322 334.874C332.753 337.583 332.826 340.804 332.147 343.45C331.833 344.681 331.161 345.891 331.161 346.534C331.161 348.162 333.719 349.045 334.608 346.785C335.763 343.847 336.08 341.96 336.08 338.51V338.508ZM317.013 382.086C316.292 383.165 312.919 386.961 311.723 387.765C311.241 387.107 307.665 384.803 305.694 384.803C306.009 384.328 306.476 383.913 306.925 383.567C311.603 379.95 311.805 380.869 317.011 382.086H317.013ZM284.276 286.421C285.039 295.841 283.889 296.254 296.176 299.914C297.928 300.437 299.706 300.803 301.618 301.12C305.422 301.757 308.994 302.45 312.759 303.401C316.474 304.337 321.791 306.113 325.449 307.576C342.236 314.29 350.736 325.776 348.069 343.995C346.33 355.888 343.888 358.191 337.103 366.939C336.833 367.3 336.242 368.179 335.962 368.384C335.962 366.732 334.889 364.303 334.19 363.249C332.698 360.993 330.548 361.511 330.548 363.448C330.548 364.239 331.014 364.625 331.389 365.197C331.687 365.65 331.908 366.122 332.101 366.702C332.497 367.869 332.762 369.097 332.762 370.608C332.762 374.622 327.389 378.775 323.782 379.621C324.645 377.987 325.383 376.894 325.62 374.921C325.76 373.758 325.824 374.004 326.776 373.61C328.257 373.001 329.089 371.256 328.375 369.577C327.825 368.288 326.63 367.76 325.258 367.644C325.258 365.367 325.938 363.803 327.225 362.089C327.493 361.733 328.088 361.057 328.088 360.485C328.088 360.001 327.631 359.622 327.105 359.622C326.323 359.622 324.906 362.045 324.514 362.701C321.908 367.044 324.659 371.845 323.417 376.216C322.424 379.723 319.799 381.087 316.231 379.916C315.431 379.654 315.228 379.49 314.661 379.023C314.194 378.64 313.786 378.295 313.357 377.861C311.769 376.257 310.149 374.257 308.789 372.445C308.015 371.415 307.485 370.538 306.98 369.201C306.577 368.135 305.942 366.645 305.942 365.302C305.942 362.156 307.661 361.687 308.066 360.263C308.392 359.109 306.964 358.494 305.919 360.091C303.515 363.755 303.394 365.391 305.118 369.714C305.919 371.723 306.898 373.16 308.197 374.77L310.711 377.684C311.106 378.096 311.826 378.574 311.973 379.132C307.51 379.132 305.113 382.493 303.975 383.698C303.451 383.558 302.895 383.118 302.623 382.712C302.867 381.65 303.239 381.026 303.239 379.627C303.239 375.736 299.949 371.749 298.142 369.43C296.957 367.908 293.626 365.173 292.111 363.999C291.675 363.665 291.561 363.443 291.21 363.051C290.451 362.206 290.047 359.452 288.652 360.289C286.775 361.414 289.117 367.77 289.426 369.533C290.032 373.029 290.17 376.572 289.809 380.097C289.529 382.845 289.031 383.211 289.828 385.179C287.121 385.813 284.999 387.377 282.91 389.102C282.502 389.438 282.185 389.746 281.78 390.065C279.243 392.067 275.047 394.222 273.002 396.32C272.588 396.743 272.29 396.911 271.893 397.304C271.188 398.006 270.437 398.687 269.898 399.498C265.456 398.796 260.873 398.226 256.51 397.129L248.214 394.963C246.781 394.555 246.744 392.809 246.521 391.474C245.051 382.64 245.951 372.238 247.806 363.873C248.796 359.41 249.911 354.971 250.839 350.498C250.945 349.978 251.713 347.651 250.459 347.651C249.135 347.651 249.019 349.712 248.708 351.2C248.446 352.437 248.089 353.962 247.776 355.203C247.112 357.861 246.604 360.45 245.982 363.155C245.662 364.549 245.428 365.888 245.158 367.265C244.195 372.135 243.816 376.851 243.816 381.968C243.816 388.396 245.15 393.232 245.167 394.067C243.912 393.886 238.411 391.181 234.218 390.488C239.459 369.428 237.274 345.319 236.925 320.367C244.116 323.828 259.955 313.496 265.053 308.503C266.17 307.41 267.193 306.259 267.899 305.079C268.645 303.838 268.608 302.584 266.821 302.861C265.555 303.059 263.676 303.68 261.374 301.388C260.191 300.212 260.176 298.304 260.176 296.664C260.176 293.359 265.362 285.869 268.144 283.424C270.639 281.232 272.844 279.502 276.784 279.502C281.241 279.502 283.919 282.019 284.276 286.425V286.421ZM381.11 390.481C383.199 390.481 385.588 390.928 387.154 391.452C391.668 392.966 390.543 393.668 395.499 394.68C397.069 395.001 398.62 395.463 400.137 395.958C400.602 396.111 401.011 396.233 401.408 396.408C401.782 396.573 402.282 396.702 402.518 397.023C401.614 397.023 400.711 397.027 399.811 397.023C398.771 397.023 398.151 397.153 397.231 397.151C395.772 397.145 392.938 396.772 393.077 398.244C393.197 399.511 396.478 399.141 397.477 399.129C399.181 399.106 400.889 398.999 402.639 398.999C405.917 398.999 405.304 398.641 407.849 399.825C411.163 401.365 412.803 402.401 415.269 404.844L417.737 407.553C419.269 409.396 420.975 411.159 422.6 412.921L424.632 415.203C425.554 416.132 426.419 417.39 427.147 418.479C428.036 419.818 428.719 420.507 428.719 422.704C428.371 422.536 428.077 422.453 427.692 422.254C426.22 421.498 424.904 420.46 423.607 419.443C423.335 419.231 423.106 419.057 422.851 418.841C419.531 416.021 416.163 413.292 412.059 411.647C409.248 410.518 406.471 409.769 403.449 409.176C402.602 409.012 402.076 408.875 401.197 408.72C400.475 408.596 399.743 408.384 398.826 408.384C398.087 408.384 397.503 409.054 397.864 409.708C398.311 410.52 400.098 410.476 401.092 410.679C407.12 411.898 410.611 412.635 415.874 415.842C417.6 416.898 419.124 418.254 420.709 419.511L423.414 421.733C425.657 423.419 428.097 424.314 429.131 425.995C430.131 427.623 430.556 428.907 429.157 430.427C427.668 432.042 424.358 431.337 422.646 430.776C421.165 430.29 419.915 429.898 418.463 429.418C417.072 428.959 415.858 428.44 414.496 427.965C413.072 427.47 411.883 426.962 410.466 426.455L404.439 424.231C403.732 423.989 403.035 423.775 402.369 423.592C396.607 422.017 392.376 423.258 386.997 425.278C386.425 425.494 385.947 425.636 385.363 425.86L377.772 428.984C377.242 429.197 376.769 429.407 376.23 429.658C373.308 431.023 371.784 431.686 368.704 432.844C364.872 434.284 363.19 435.097 358.684 435.752C356.21 436.114 353.264 436.249 350.609 436.029C344.205 435.499 339.891 434.753 333.483 436.86C330.903 437.71 328.443 438.854 325.346 440.073C320.438 442.008 313.751 443.689 308.633 445.401C299.492 448.479 291.824 450.263 282.29 452.176C272.06 454.229 265.855 455.016 255.634 455.795C251.604 456.1 247.499 456.709 243.56 457.505C237.709 458.685 234.998 459.014 229.35 459.789C228.437 459.915 227.63 459.908 226.956 460.225C226.128 460.613 226.157 460.927 225.802 461.784C225.217 463.2 224.663 464.208 223.925 465.455C223.555 466.081 223.235 466.489 222.816 467.054C222.56 467.399 222.46 467.488 222.203 467.798C221.135 469.072 219.941 470.151 218.511 471.009C214.823 473.222 210.438 474.551 205.677 474.551C196.653 474.551 193.168 473.541 187.069 468.284C184.48 465.654 184.27 465.181 184.27 461.341C184.27 458.454 185.098 454.844 186.077 451.877C188.387 444.873 192.912 436.321 196.944 430.229C200.626 424.344 203.212 419.582 205.631 412.779C206.423 410.555 208.668 403.531 210.631 399.524C214.465 391.694 225.039 390.732 232.624 392.134C240.174 393.531 244.328 396.25 255.108 398.776C261.495 400.386 267.592 400.953 274.005 402.033C279.76 403.001 288.157 404.186 294.007 404.183C297.098 404.196 306.655 404.059 312.354 404.253C320.252 404.522 326.087 404.135 334.118 403.57C338.069 403.304 342.186 402.417 345.778 401.444C351.278 399.947 358.73 396.866 364.096 394.765L370.038 392.457C373.759 390.976 376.755 390.483 381.11 390.483V390.481ZM298.19 395.666C298.19 394.787 297.625 394.076 296.894 394.473C296.202 394.848 296.344 395.788 296.346 396.778C296.349 398.746 296.222 400.327 296.222 402.209C288.532 402.209 281.42 401.296 274.219 400.094C272.001 399.725 271.988 399.911 272.553 399.341L273.617 398.414C276.582 395.792 275.185 396.933 278.727 394.532C279.912 393.729 281.27 392.924 282.395 392.038C284.231 390.584 286.037 388.871 288.142 387.807C291.994 385.857 297.124 387.427 301.377 386.638C303.068 386.326 304.437 386.315 306.143 386.701C308.011 387.124 309.294 388.367 310.814 389.423C313.681 391.412 314.59 391.389 317.545 392.667C319.772 393.631 327.821 398.907 328.088 402.085L323.025 402.438C320.048 402.772 317.034 402.576 314.052 402.467C313.416 402.443 313.335 402.515 313.311 401.852C313.254 400.399 313.473 397.642 312.216 397.642C310.572 397.642 311.601 400.364 311.601 402.332C309.698 402.332 308.228 402.209 306.312 402.209H297.947L298.103 399.897C298.232 398.953 298.191 396.789 298.191 395.666H298.19Z" fill="#FEFEFE"/>
<path fill-rule="evenodd" clip-rule="evenodd" d="M430.688 422.207C430.688 424.7 429.772 423.718 430.403 424.713L431.22 425.993C432.653 428.556 431.483 430.003 431.424 430.727L480.88 429.492L454.061 407.641C451.201 407.641 448.717 407.877 445.938 407.883L425.889 408.753C424.47 408.744 423.248 408.873 421.706 408.873C421.844 409.386 423.196 410.708 423.625 411.144C423.644 411.163 423.671 411.188 423.69 411.203C423.706 411.222 423.734 411.246 423.752 411.264C423.901 411.412 423.807 411.305 423.934 411.449L426.82 414.85C428.321 416.771 430.688 419.552 430.688 422.203V422.207ZM386.013 427.621L376.099 431.87C376.077 431.881 376.039 431.905 376.022 431.917C376.005 431.924 375.969 431.942 375.943 431.959C389.529 431.778 403.394 430.973 416.91 430.973C415.743 430.159 409.577 428.177 407.806 427.518C406.31 426.921 404.777 426.404 403.178 425.863C396.839 423.732 391.94 425.23 386.014 427.621H386.013Z" fill="#FEFEFE"/>
<path fill-rule="evenodd" clip-rule="evenodd" d="M5.3645 410.656C14.0964 438.765 35.6639 455.123 60.8236 463.979C88.2136 473.622 119.866 474.407 143.951 471.779C149.23 471.203 154.151 470.461 158.58 469.611C157.057 469.055 155.592 468.394 154.202 467.567C145.471 462.369 141.63 457.259 136.538 448.628C132.14 440.152 130.21 430.295 127.175 421.234C123.898 411.463 120.331 397.714 119.44 387.389C118.942 382.298 117.505 372.454 118.093 367.93C118.263 366.646 119.843 366.506 119.886 367.941C120.131 375.859 120.961 383.305 121.652 389.494C122.609 398.087 124.553 405.429 126.697 413.196L128.956 420.556C130.024 423.839 131.027 426.984 132 430.341C133.312 434.851 134.742 440.45 136.785 444.676C141.532 454.495 148.113 463.357 158.556 467.517C163.669 469.55 168.731 470.654 174.119 471.528C180.452 472.553 189.666 473.891 190.6 473.753L187.555 471.256C183.149 467.537 181.898 466.025 182.428 459.615C182.687 456.493 183.622 453.357 184.592 450.432C187.135 442.776 190.801 436.396 195.074 429.59C199.848 421.978 202.071 416.66 205.203 408.274C206.517 404.757 207.588 401.582 209.284 398.175C209.617 397.503 210.243 396.999 209.888 396.266C209.168 394.763 204.334 392.975 202.463 392.349C199.448 391.343 196.752 390.685 193.164 390.196C185.946 389.217 178.935 390.733 173.687 392.826C168.639 394.838 164.033 397.134 159.418 399.863C158.974 400.125 158.884 400.109 158.188 400.109C157.46 399.267 157.855 398.739 158.538 398.238C161.865 395.802 168.069 392.994 172.124 391.378C173.216 390.942 174.359 390.477 175.439 390.137C183.681 387.537 190.473 387.151 198.983 389.293C202.279 390.124 209.507 392.432 211.332 395.171C212.4 394.152 214.663 392.6 216.623 391.712C216.623 385.807 217.289 380.878 216.123 375.058C214.776 368.342 212.343 361.877 208.257 356.407C207.83 355.835 207.42 355.33 206.975 354.732C204.413 351.77 202.641 349.946 199.862 347.18C195.709 343.322 190.908 340.295 186.044 337.341C185.385 336.942 184.811 336.652 184.167 336.262C183.558 335.893 182.914 335.494 182.299 335.175C181.655 334.839 181.059 334.516 180.372 334.146C180.015 333.952 179.89 333.853 179.513 333.649C178.816 333.28 178.096 332.488 178.898 331.877C179.233 331.62 179.721 331.714 180.076 331.847C181.972 332.556 185.928 335.031 187.676 336.076C191.348 338.271 194.864 340.613 198.228 343.265L199.824 344.624C205.348 348.937 211.257 356.488 214.209 362.658C216.48 367.405 218.679 375.102 218.714 380.356C218.717 381.035 218.841 381.089 218.841 381.709C219.512 381.259 221.448 377.687 221.894 376.749C222.821 374.794 223.487 373.141 224.207 370.925C225.447 367.119 226.323 361.581 225.694 356.438C224.97 350.537 222.401 343.285 219.739 337.971C219.413 337.317 218.524 335.821 218.519 335.166C218.511 334.076 219.799 333.908 220.602 335.376C223.281 340.286 227.381 350.753 227.694 356.654C228.042 363.258 227.352 368.572 225.114 374.181C223.988 377.002 221.491 382.4 218.839 384.18C218.839 386.484 218.592 388.652 218.592 390.844C221.881 389.642 226.993 388.75 232.249 389.982C237.92 378.127 235.603 321.761 234.026 317.833C228.802 304.841 217.51 299.53 204.235 297.757C198.423 296.983 192.365 296.586 186.605 294.309C183.996 293.275 181.618 291.887 179.033 290.797C169.692 286.858 162.907 284.844 153.341 282.755C150.233 282.076 147.32 281.2 144.166 280.85C140.804 280.475 136.816 280.259 133.577 280.718C122.729 282.255 115.444 289.137 107.151 295.436C100.059 300.773 92.8638 305.974 86.0035 311.616L81.8298 314.96C71.1546 324.016 60.8751 333.044 51.109 343.017C49.7951 344.323 43.8069 350.16 39.6535 354.437C30.4892 363.867 21.6266 374.112 12.5892 383.92C11.3931 385.218 10.1951 386.507 8.99159 387.784C-0.491122 397.302 1.18533 397.189 5.3645 410.647V410.656ZM330.342 399.534C329.751 400.772 329.591 400.576 329.932 401.22C331.428 400.214 332.534 397.392 333.172 395.954C334.293 393.43 334.729 391.382 334.729 388.133C334.729 387.315 334.337 384.405 334.115 383.936C333.007 383.936 331.985 384.185 330.423 384.185C331.176 387.003 333.894 392.118 330.342 399.534Z" fill="#DE0400"/>
<path fill-rule="evenodd" clip-rule="evenodd" d="M482.604 431.466L433.271 432.576C431.965 432.576 431.129 432.687 429.819 432.692C428.559 432.702 427.65 433.784 424.113 433.124C421.135 432.569 423.097 432.883 420.727 432.951C420.086 432.969 419.402 432.945 418.754 432.945L373.604 434.057C372.446 434.057 371.789 434.048 371.23 434.116C370.624 434.19 367.829 435.104 367.329 435.538C404.926 435.723 442.568 436.142 480.166 436.155C482.75 436.155 483.125 433.715 482.604 431.464V431.466Z" fill="#DB1919"/>
</g>
<defs>
<clipPath id="clip0_793_52">
<rect width="532" height="540" fill="white"/>
</clipPath>
</defs>
</svg>
