<svg width="507" height="373" viewBox="0 0 507 373" fill="none" xmlns="http://www.w3.org/2000/svg">
<g clip-path="url(#clip0_305_1147)">
<path opacity="0.2" d="M491.555 372.766H12.1534C12.1534 372.766 -36.9716 279.021 65.5144 287.476C137.507 293.417 90.2472 110.538 282.347 113.326C440.736 115.623 294.116 229.975 411.092 235.291C517.814 240.14 518.662 332.918 491.558 372.766H491.555Z" fill="#ABC7F2"/>
<path d="M108.518 271.351L117.594 278.037L179.519 323.64L189.681 331.124L246.227 372.766H286.622L203.915 311.86L167.615 285.125L167.613 285.123L149.633 271.884L131.83 258.773L122.753 252.087L110.244 269.016H110.242L108.518 271.351Z" fill="#ABC7F2"/>
<path d="M104.358 295.945L144.644 241.433L87.5171 241.453L104.358 295.945Z" fill="#ABC7F2"/>
<path d="M107.039 138.235L117.706 146.09L190.479 199.683L202.42 208.478L268.875 257.419H316.348L219.152 185.838L176.491 154.42L176.488 154.418L155.36 138.859L134.437 123.452L123.768 115.594L109.068 135.489H109.065L107.039 138.235Z" fill="#BFDCFF"/>
<path d="M102.153 167.135L149.494 103.074L82.3603 103.096L102.153 167.135Z" fill="#BFDCFF"/>
<path d="M125.349 339.664L133.615 345.75L170.298 372.766H207.071L146.572 328.213L138.31 322.127L125.349 339.664Z" fill="#4B83DB"/>
<path d="M121.563 362.054L158.24 312.428L106.232 312.446L121.563 362.054Z" fill="#4B83DB"/>
<path d="M222.843 43.4223C222.843 43.4223 216.314 47.7025 208.674 45.2615C201.033 42.8205 192.106 46.7762 182.524 45.0176C182.524 45.0176 176.979 36.8578 179.66 28.067C182.341 19.274 181.612 13.9378 181.612 13.9378L188.347 13.3784C188.347 13.3784 187.453 23.6414 188.959 28.9799C190.465 34.3183 189.979 36.1172 189.979 36.1172C189.979 36.1172 204.305 34.73 207.88 33.8104C211.455 32.8909 215.691 34.0789 221.037 34.3496C225.002 34.551 222.843 43.4201 222.843 43.4201V43.4223Z" fill="#F4A691"/>
<path d="M219.759 33.2913C219.759 33.2913 216.422 33.0631 214.425 32.9982C212.798 32.9445 210.288 33.0967 208.779 33.2846C206.081 33.6225 203.169 34.6987 203.169 34.6987C203.169 34.6987 207.338 37.7169 207.405 41.1603L215.165 36.5042L219.759 33.2936V33.2913Z" fill="#FF6576"/>
<path d="M182.679 9.00189C182.679 9.00189 193.146 9.06454 192.644 9.56124C191.373 10.8187 189.762 12.9867 188.758 14.4545C188.733 14.4903 188.724 14.5328 188.726 14.5842L188.778 14.5932L188.805 14.5887C188.805 14.5887 188.796 14.5932 188.791 14.5954L188.816 14.5999C188.8 14.6021 188.785 14.6044 188.767 14.6066C188.753 14.6133 188.742 14.6178 188.729 14.6245C188.749 14.8326 188.885 15.1503 188.818 15.5597C188.811 15.6 188.803 15.638 188.796 15.6761C188.796 15.7678 188.785 15.8573 188.755 15.9423L188.751 15.9021C188.144 18.719 186.476 17.7569 184.752 18.135C182.964 18.5288 182.094 17.5824 181.843 16.8261C181.22 14.9579 181.476 10.9104 182.679 8.99742V9.00189ZM190.217 6.80252L190.206 6.81594C190.206 6.81594 190.23 6.79581 190.271 6.76001L190.217 6.80252Z" fill="#F4A691"/>
<path d="M247.137 186.084C247.137 186.084 246.525 191.599 244.685 193.787C242.847 195.976 234.267 197.354 234.267 200.397C234.267 200.397 235.614 200.965 240.924 200.585C246.234 200.204 247.572 200.061 250.199 200.397C253.926 200.873 253.836 200.207 253.722 198.162C253.661 197.099 252.716 195.239 252.904 191.933C253.056 189.27 254.282 186.227 254.282 186.227L247.132 186.084H247.137Z" fill="#383463"/>
<path d="M202.029 186.084C202.029 186.084 201.417 191.599 199.577 193.787C197.739 195.976 189.159 197.354 189.159 200.397C189.159 200.397 190.506 200.965 195.816 200.585C201.125 200.204 202.463 200.061 205.09 200.397C208.817 200.873 208.728 200.207 208.614 198.162C208.553 197.099 207.607 195.239 207.795 191.933C207.948 189.27 209.174 186.227 209.174 186.227L202.024 186.084H202.029Z" fill="#383463"/>
<path d="M207.273 27.2122C207.273 27.2122 207.638 28.1116 208.427 29.0804C208.866 27.8118 209.725 25.7288 210.996 24.3707C210.919 24.4937 209.064 27.512 209.729 30.3401C210.718 31.074 212.027 31.5998 213.69 31.4297C218.208 30.9643 221.299 31.8481 221.299 31.8481L227.12 4.8851C227.12 4.8851 221.994 3.45092 217.957 6.37521C213.921 9.29727 212.374 14.2442 212.639 17.6808C212.901 21.1175 208.835 21.5359 207.273 27.2144V27.2122Z" fill="#6D2F3B"/>
<path d="M229.545 111.366C227.247 122.803 217.334 135.702 219.058 141.624C222.937 154.961 209.577 186.368 209.577 186.368C206.39 189.048 199.807 187.229 199.807 187.229C205.841 159.982 204.736 145.969 204.366 143.633C203.996 141.295 202.53 123.604 204.736 104.993C206.027 94.0972 206.415 78.2407 206.415 78.2407L226.508 85.8949C228.173 95.2741 229.933 109.435 229.545 111.37V111.366Z" fill="#51497A"/>
<path d="M216.146 80.5208C216.926 81.4896 216.76 105.486 236.154 142.054C245.978 160.575 245.913 187.963 245.913 187.963C245.913 187.963 251.308 189.212 254.668 186.464C254.668 186.464 255.995 163.571 255.692 156.823C255.389 150.075 250.685 142.244 249.228 139.47C248.045 137.217 252.388 106.2 244.631 90.2804C242.024 84.9307 230.397 76.0527 225.667 74.5044L216.146 80.5163V80.5208Z" fill="#51497A"/>
<path d="M222.931 71.7748C225.531 59.0104 226.217 40.384 223.426 37.764C220.636 35.144 222.364 35.2782 215.916 36.3029C211.005 37.0838 211.404 37.8065 211.404 37.8065C211.404 37.8065 201.002 50.4456 200.096 53.71C198.705 58.7329 201.242 60.5296 201.242 60.5296L208.613 77.4712L226.696 80.3732C226.696 80.3732 222.22 75.2652 222.931 71.7748Z" fill="#FABBA5"/>
<path d="M197.929 54.2311C197.911 57.3523 200.482 59.8984 200.558 59.9253C200.563 59.9253 203.01 68.056 205.05 72.5689C206.334 75.4193 206.296 78.0035 206.085 79.5541C205.96 80.4535 205.778 81.0039 205.758 81.0621V81.0666C205.758 81.0666 209.905 83.9618 223.447 81.6528C225.937 81.2276 231.748 79.2856 232.064 78.7486C232.873 77.3614 229.256 74.6497 227.08 72.4995C227.08 72.4995 227.08 72.495 227.075 72.495C226.369 71.797 225.818 71.1615 225.614 70.6492C225.508 70.3852 225.466 70.1435 225.504 69.931C225.573 69.5282 225.76 68.6691 226.011 67.5616L226.02 67.5325C226.956 63.4045 228.774 55.898 228.774 55.898C232.421 38.6296 229.272 35.2511 227.779 35.3116C227.447 35.325 223.872 35.7434 223.872 35.7434C223.872 35.7434 220.84 38.7482 218.738 40.6702C213.907 45.0935 210.848 43.7354 213.199 41.046C216.283 37.5199 217.198 33.6223 217.198 33.6223L211.787 36.9851C211.787 36.9851 204.958 40.8424 201.235 46.0153C200.708 46.747 199.886 47.4629 199.193 48.6734C198.617 49.6757 198.133 51.0204 197.981 52.9916C197.952 53.3786 197.931 53.7903 197.929 54.2311Z" fill="#FF6576"/>
<path d="M233.494 85.0962C235.715 86.989 236.883 89.6963 237.676 92.4393C238.636 95.7485 239.335 99.156 240.05 102.526C241.581 109.757 242.692 117.212 241.847 124.607C241.668 126.175 241.253 127.743 241.224 129.323C241.211 130.028 241.28 130.768 241.628 131.397C242.031 132.126 242.721 132.359 243.327 132.858C244.028 133.435 244.05 134.207 243.658 134.979C243.226 135.829 241.681 137.25 242.959 138.042C243.51 138.385 244.237 138.517 244.824 138.814C245.431 139.121 246.003 139.499 246.536 139.922C247.632 140.794 248.551 141.875 249.295 143.058C250.967 145.716 251.655 148.818 251.922 151.912C252.278 156.044 252.119 160.235 252.177 164.381C252.24 168.742 252.339 173.1 252.471 177.459C252.478 177.689 252.119 177.689 252.112 177.459C251.884 169.93 251.906 162.401 251.716 154.872C251.561 148.719 250.129 141.027 243.515 138.646C242.692 138.351 241.863 137.897 242.141 136.888C242.403 135.937 243.32 135.281 243.539 134.315C243.737 133.447 242.977 133.057 242.358 132.65C241.901 132.35 241.527 131.988 241.276 131.498C240.736 130.444 240.825 129.169 240.98 128.034C241.224 126.247 241.542 124.486 241.668 122.682C241.796 120.848 241.811 119.009 241.74 117.172C241.592 113.435 241.076 109.723 240.393 106.052C239.655 102.096 238.763 98.1581 237.793 94.2539C236.981 90.9895 235.892 87.6043 233.245 85.349C233.068 85.1991 233.324 84.9463 233.498 85.0962H233.494Z" fill="#383463"/>
<path d="M222.211 118.776C220.669 123.114 219.273 127.544 217.525 131.804C216.837 133.485 216.014 135.125 214.846 136.53C214.192 137.317 213.412 137.933 212.643 138.602C211.832 139.304 210.852 140.503 211.471 141.64C211.688 142.038 212.105 142.28 212.318 142.685C212.497 143.025 212.529 143.407 212.538 143.783C212.569 144.936 212.518 146.095 212.493 147.247C212.441 149.634 212.352 152.022 212.222 154.407C211.96 159.224 211.54 164.032 210.96 168.82C210.323 174.091 209.492 179.336 208.479 184.547C208.434 184.773 208.089 184.676 208.131 184.45C209.972 174.995 211.198 165.424 211.78 155.807C211.926 153.422 212.031 151.037 212.096 148.65C212.13 147.433 212.155 146.215 212.168 144.998C212.175 144.457 212.231 143.88 212.139 143.345C212.031 142.718 211.605 142.47 211.267 141.991C210.193 140.468 211.749 138.868 212.852 137.962C214.434 136.659 215.595 135.082 216.491 133.245C217.549 131.077 218.282 128.752 219.089 126.484C220.015 123.884 220.938 121.282 221.864 118.682C221.94 118.465 222.288 118.559 222.211 118.778V118.776Z" fill="#383463"/>
<path d="M223.865 33.9872C223.865 33.9872 219.454 38.5896 216.11 36.5558C216.11 36.5558 217.209 34.0499 217.785 31.4768C218.036 30.3537 218.188 29.2193 218.107 28.2729C218.094 28.1274 218.076 27.9865 218.053 27.8522C217.516 24.825 227.57 24.3059 227.644 24.3037C227.61 24.3373 226.539 25.3956 225.815 27.3242C225.665 27.7225 225.53 28.1565 225.423 28.6286C225.306 29.141 225.221 29.6936 225.183 30.2865C224.937 34.1215 223.867 33.985 223.867 33.985L223.865 33.9872Z" fill="#FABBA5"/>
<path d="M225.813 27.3241C225.663 27.7224 225.529 28.1564 225.421 28.6285C222.951 30.8234 217.868 31.4655 217.785 31.4767C218.036 30.3536 218.188 29.2192 218.108 28.2728C220.461 27.7336 224.648 26.8789 225.815 27.3241H225.813Z" fill="#ED938B"/>
<path d="M225.829 28.2281C220.533 30.7452 216.144 29.5616 215.138 29.0045C214.131 28.4451 214.313 27.4718 213.3 24.6102C212.601 22.639 212.693 20.9453 213.107 19.7483C213.293 19.2091 213.546 18.7683 213.822 18.4506C213.907 18.3499 213.981 18.2582 214.044 18.1709C214.62 17.3565 214.241 16.9784 214.506 15.4055C214.566 15.0386 214.793 14.5978 215.109 14.1302C215.25 13.9221 215.407 13.7095 215.579 13.497C216.841 11.9151 218.753 10.2841 218.753 10.2841C227.324 6.71316 231.629 13.9579 231.54 16.918C231.45 19.8781 231.127 25.7132 225.833 28.2303L225.829 28.2281Z" fill="#FABBA5"/>
<path d="M225.757 16.7255C225.757 16.7255 225.347 14.5977 221.514 14.8237C219.235 14.9579 219.362 16.0364 220.631 16.1259C221.9 16.2154 222.507 15.1078 225.757 16.7255Z" fill="#752D4B"/>
<path d="M216.225 15.2957C215.761 15.0989 215.436 14.4299 215.104 14.1278C215.245 13.9197 215.402 13.7072 215.575 13.4946C215.727 13.5304 215.895 13.6087 216.081 13.7385C217.352 14.6379 217 15.6291 216.225 15.2957Z" fill="#752D4B"/>
<path d="M216.687 18.0969C216.595 18.6652 216.12 16.8261 215.591 16.5912C215.109 16.3764 214.412 16.5643 214.011 16.2332C213.907 16.1482 213.995 15.9826 214.125 16.0161C214.349 16.0743 214.669 16.1213 215.037 16.0631C215.761 15.9513 216.94 16.5375 216.687 18.0947V18.0969Z" fill="#2D2B4E"/>
<path d="M216.402 18.0097C216.189 18.1059 215.936 18.1081 215.736 17.9873C215.537 17.8665 215.398 17.6629 215.311 17.4459C215.205 17.1863 215.232 16.8664 215.454 16.6963C215.593 16.5912 215.727 16.4905 215.727 16.4905L216.14 16.9849L216.362 17.1662L216.472 17.4884L216.541 17.6741C216.541 17.6741 216.53 17.9537 216.404 18.0097H216.402Z" fill="#2D2B4E"/>
<path d="M219.885 18.1799C219.885 18.1799 220.526 16.8061 221.308 16.4884C222.09 16.1707 224.258 16.645 224.567 17.1685C224.876 17.6921 224.845 18.4752 224.845 18.4752C224.845 18.4752 222.534 16.2288 219.885 18.1799Z" fill="#EF9F8A"/>
<path d="M224.8 18.681C224.639 19.0546 223.984 18.6899 223.615 18.5177C223.525 18.4752 223.437 18.4304 223.35 18.3834C223.079 18.2357 222.814 18.0747 222.525 17.9605C222.276 17.8621 222.016 17.8017 221.75 17.7816C220.956 17.7211 220.136 18.0008 219.571 18.5646C219.603 18.5244 220.645 16.9112 222.568 17.1282C223.966 17.2849 224.914 18.4125 224.798 18.681H224.8Z" fill="#752D4B"/>
<g opacity="0.2">
<path d="M225.882 21.0749C225.378 20.5313 224.565 20.2225 223.769 20.2717L222.458 20.3523C221.599 20.406 220.685 20.4753 220.098 20.9474C219.93 21.0839 219.806 21.2562 219.77 21.4508C219.683 21.9386 220.142 22.2362 220.593 22.4532C221.803 23.0349 223.226 23.2945 224.547 23.1714C224.757 23.1513 224.968 23.1199 225.174 23.0752C226.234 22.8447 226.593 21.8334 225.885 21.0727L225.882 21.0749Z" fill="#FF6576"/>
</g>
<g opacity="0.2">
<path d="M215.234 19.8602C215.154 20.1824 214.932 20.2629 214.728 20.2942C214.183 20.3815 213.639 20.2226 213.217 19.8512C213.179 19.8177 213.143 19.7841 213.107 19.7461C213.293 19.2069 213.547 18.7661 213.822 18.4484C213.907 18.3477 213.981 18.256 214.044 18.1687C214.076 18.1866 214.107 18.2067 214.136 18.2313C214.28 18.3455 214.423 18.4618 214.564 18.5759C214.844 18.8019 215.142 19.048 215.237 19.4753C215.263 19.5984 215.266 19.7326 215.234 19.8602Z" fill="#FF6576"/>
</g>
<path d="M216.969 15.8328C217.534 16.2781 217.682 17.0276 217.527 17.7055C217.357 18.4573 216.805 19.0592 216.241 19.5536C215.855 19.8915 214.988 20.3502 215.127 20.9811C215.187 21.2585 215.452 21.4487 215.667 21.6076C215.969 21.8313 216.297 22.0148 216.642 22.1669C216.743 22.2117 216.826 22.0595 216.722 22.0148C216.335 21.8447 215.969 21.6367 215.64 21.3704C215.362 21.1467 215.178 20.8871 215.405 20.5381C215.523 20.3569 215.696 20.2249 215.864 20.0906C216.393 19.661 216.92 19.218 217.298 18.6453C217.881 17.7615 217.998 16.4257 217.088 15.7075C217 15.6382 216.882 15.7657 216.969 15.8351V15.8328Z" fill="#EF9F8A"/>
<path d="M219.318 24.1425C219.289 24.147 219.257 24.1537 219.226 24.1559C218.65 24.2141 217.908 23.7935 217.529 23.3751C217.11 22.9142 216.4 23.2498 216.4 23.2498C216.4 23.2498 216.4 23.2498 216.4 23.2453C216.27 23.0328 216.095 22.9433 215.909 22.9254C215.436 22.8784 214.898 23.2901 214.862 23.3191C214.862 23.3191 214.862 23.3281 214.858 23.3393C214.853 23.3572 214.849 23.3863 214.844 23.4243C214.84 23.4444 214.838 23.4691 214.833 23.4959C214.759 24.0441 214.685 25.7042 216.516 25.8362C218.282 25.9638 219.078 24.7757 219.32 24.3081C219.336 24.2768 219.349 24.2499 219.363 24.2253C219.363 24.2208 219.363 24.2186 219.367 24.2163C219.356 24.194 219.343 24.1738 219.329 24.1515L219.325 24.1447L219.318 24.1425Z" fill="#FF6576"/>
<path d="M214.793 23.3773C214.793 23.3773 214.798 23.3952 214.809 23.4019C214.82 23.4086 214.829 23.4176 214.84 23.4243C216.125 24.3416 217.774 24.628 219.283 24.2454C219.307 24.2387 219.332 24.232 219.359 24.2253C219.361 24.2253 219.365 24.2253 219.368 24.223C219.368 24.223 219.368 24.2186 219.363 24.2163C219.352 24.1939 219.339 24.1738 219.325 24.1514C219.296 24.1604 219.269 24.1671 219.24 24.1738C217.754 24.5452 216.125 24.2566 214.867 23.346C214.863 23.3437 214.86 23.3415 214.856 23.3415C214.845 23.337 214.834 23.337 214.822 23.3415C214.807 23.346 214.793 23.3616 214.795 23.3773H214.793Z" fill="#F13A56"/>
<path d="M214.791 23.0887C214.818 23.2207 214.746 23.3482 214.628 23.4064C214.581 23.4288 214.625 23.4981 214.672 23.4757C214.827 23.3997 214.903 23.2296 214.869 23.0641C214.858 23.0126 214.782 23.0372 214.791 23.0887Z" fill="#F13A56"/>
<path d="M219.171 24.0755C219.191 24.1001 219.209 24.1269 219.227 24.156C219.231 24.1605 219.236 24.165 219.238 24.1717C219.256 24.194 219.269 24.2209 219.282 24.2455C219.296 24.2656 219.307 24.2858 219.316 24.3082C219.354 24.3775 219.383 24.4469 219.405 24.5229C219.421 24.5744 219.497 24.5476 219.484 24.4983C219.455 24.4021 219.414 24.3104 219.365 24.2231C219.365 24.2231 219.365 24.2187 219.361 24.2164C219.35 24.194 219.336 24.1739 219.323 24.1515C219.323 24.1515 219.323 24.1471 219.318 24.1448C219.294 24.1068 219.269 24.071 219.242 24.0352C219.211 23.9927 219.142 24.0352 219.173 24.0777L219.171 24.0755Z" fill="#F13A56"/>
<path d="M217.231 24.7131L217.173 24.6638C216.808 24.5878 216.436 24.5072 216.104 24.3305C215.978 24.2633 215.857 24.1828 215.718 24.1604C215.579 24.1403 215.411 24.2029 215.376 24.3394C215.34 24.4714 215.436 24.6012 215.537 24.6929C215.864 24.9905 216.306 25.1382 216.745 25.2031C216.909 25.2277 217.097 25.2321 217.216 25.118C217.323 25.0151 217.332 24.8249 217.234 24.7131H217.231Z" fill="#FF8091"/>
<g opacity="0.2">
<path d="M215.16 26.7603C215.772 26.682 216.348 26.7961 216.881 27.1071C217.074 27.219 217.236 26.9125 217.045 26.8006C216.465 26.4627 215.81 26.3285 215.144 26.4135C214.925 26.4426 214.94 26.7872 215.162 26.7603H215.16Z" fill="#FF6576"/>
</g>
<g opacity="0.2">
<path d="M215.705 21.149C216.166 21.3279 216.586 21.5741 216.964 21.894C217.135 22.0372 217.37 21.7844 217.2 21.6412C216.799 21.3011 216.357 21.0348 215.866 20.8447C215.66 20.7641 215.496 21.0706 215.703 21.1512L215.705 21.149Z" fill="#FF6576"/>
</g>
<path d="M222.375 10.6129C222.375 10.6129 219.147 9.63292 216.814 12.1097C216.814 12.1097 218.672 7.87879 220.622 8.06897C222.572 8.25915 222.375 10.6129 222.375 10.6129Z" fill="#6D2F3B"/>
<path d="M215.983 15.1527L215.062 19.2293L207.464 17.7862L205.805 17.4707L201.645 16.6831L202.739 11.7563L206.845 12.8102L208.481 13.2286L215.983 15.1527Z" fill="#403C69"/>
<path d="M216.422 17.3855C216.171 18.5154 215.552 19.3388 215.041 19.2269C214.53 19.1128 214.322 18.106 214.575 16.9761C214.828 15.8462 215.445 15.0228 215.956 15.1347C216.467 15.2488 216.675 16.2556 216.422 17.3855Z" fill="#403C69"/>
<path d="M208.461 15.6158C208.257 16.5354 207.883 17.3118 207.463 17.7861L205.803 17.4706C205.608 16.862 205.592 15.9738 205.803 15.0251C206.013 14.0765 206.406 13.2755 206.843 12.8079L208.477 13.2263C208.656 13.8326 208.663 14.694 208.459 15.6136L208.461 15.6158Z" fill="#2F2D54"/>
<path d="M206.025 18.1575L186.745 14.4993L188.316 7.42017L207.352 12.3L206.025 18.1575Z" fill="#403C69"/>
<path d="M207.984 15.5106C207.62 17.135 206.733 18.3186 206 18.1552C205.267 17.9919 204.967 16.5443 205.328 14.9199C205.691 13.2956 206.578 12.112 207.311 12.2753C208.044 12.4386 208.344 13.8863 207.984 15.5106Z" fill="#403C69"/>
<path d="M193.321 16.1864L168.218 13.5865L171.157 0.408203L195.013 8.70899L193.321 16.1864Z" fill="#51497A"/>
<path d="M195.818 12.8056C195.356 14.8774 194.222 16.3899 193.287 16.1819C192.352 15.9738 191.967 14.1257 192.431 12.0538C192.893 9.98199 194.027 8.46951 194.961 8.67759C195.896 8.88566 196.281 10.7338 195.818 12.8056Z" fill="#51497A"/>
<path d="M172.66 7.65955C171.907 11.0358 170.139 13.5641 168.575 13.62C168.454 13.6245 168.335 13.6133 168.216 13.5864C166.573 13.2217 165.898 9.97526 166.71 6.33724C167.521 2.69921 169.511 0.0434079 171.154 0.410343C171.273 0.437192 171.385 0.477465 171.493 0.5334C172.885 1.2449 173.411 4.28553 172.658 7.66178L172.66 7.65955Z" fill="#635D94"/>
<path d="M172.661 7.65963C171.908 11.0359 170.139 13.5642 168.575 13.6201C167.181 12.9086 166.654 9.87019 167.407 6.49171C168.16 3.11546 169.928 0.584948 171.495 0.53125C172.887 1.24275 173.414 4.28338 172.661 7.65963Z" fill="#75ACF2"/>
<path opacity="0.5" d="M170.426 1.4396C170.426 1.4396 168.83 2.69255 168.055 4.85612C167.279 7.02193 167.604 8.84542 168.131 9.10943C168.658 9.37345 170.204 3.09304 170.821 2.30547C171.435 1.51791 170.939 1.11517 170.428 1.4396H170.426Z" fill="white"/>
<path d="M217.399 99.693C221.492 107.041 224.829 114.791 227.351 122.812C227.42 123.034 227.073 123.128 227.003 122.908C224.489 114.916 221.167 107.195 217.088 99.8742C216.976 99.6729 217.285 99.4916 217.397 99.693H217.399Z" fill="#383463"/>
<path d="M236.029 31.9713C236.506 32.9535 236.383 34.296 236.15 35.3319C235.874 36.5468 235.285 37.6543 234.456 38.5829C234.379 38.6679 234.247 38.5471 234.323 38.4598C235.081 37.6118 235.635 36.6162 235.921 35.5154C236.186 34.4951 236.356 33.0542 235.879 32.0675C235.83 31.9646 235.98 31.8684 236.031 31.9713H236.029Z" fill="#6D2F3B"/>
<path d="M213.421 99.8139C214.848 100.577 216.099 101.581 217.153 102.81C217.271 102.949 217.157 103.143 216.978 103.11C215.357 102.808 213.723 102.635 212.076 102.591C211.845 102.584 211.845 102.226 212.076 102.233C213.757 102.28 215.422 102.456 217.074 102.765C217.016 102.866 216.958 102.964 216.899 103.065C215.866 101.859 214.642 100.874 213.239 100.125C213.035 100.015 213.217 99.7065 213.421 99.8162V99.8139Z" fill="#383463"/>
<path d="M235.083 80.5678C234.514 84.2595 231.535 87.0764 228.177 88.4278C223.852 90.1685 218.842 89.9381 214.277 89.6495C211.603 89.4794 208.94 89.0923 206.412 88.1817C206.197 88.1034 206.289 87.7566 206.508 87.8349C210.715 89.3496 215.339 89.4794 219.768 89.4347C223.968 89.3922 228.426 88.7612 231.674 85.8615C233.265 84.4408 234.41 82.5949 234.738 80.4716C234.774 80.2434 235.119 80.3418 235.085 80.5678H235.083Z" fill="#383463"/>
<path d="M199.131 12.7809C199.131 12.7809 194.695 4.49127 194.052 4.76871C192.906 5.26542 194.289 7.561 194.289 7.561C194.289 7.561 192.061 4.43534 191.712 4.52484C190.501 4.82689 192.472 8.65509 192.472 8.65509C192.472 8.65509 190.815 6.18723 190.432 6.39083C189.231 7.03521 191.239 10.7941 191.239 10.7941C191.239 10.7941 190.459 9.82973 189.899 9.35316C189.67 9.15851 189.031 10.0311 189.383 10.6441C190.268 12.1969 191.234 14.7162 191.806 16.401C191.875 16.6091 191.51 16.8999 191.452 17.4503C191.102 20.717 193.054 20.1643 194.67 21.0235C196.286 21.8826 197.378 21.2047 197.826 20.5424C198.929 18.9114 199.774 14.9444 199.131 12.7786V12.7809Z" fill="#FABBA5"/>
<path d="M191.138 10.5591C191.669 11.3041 192.061 12.3199 192.844 12.8412C192.902 12.8815 192.85 12.9777 192.792 12.9397C191.985 12.4005 191.591 11.3847 191.044 10.6173C191.001 10.5591 191.095 10.5009 191.138 10.5568V10.5591Z" fill="#E38472"/>
<path d="M192.059 7.98834C192.584 8.65956 193.046 9.3733 193.51 10.087C193.826 10.5725 194.193 11.3646 194.718 11.6599C194.78 11.6957 194.729 11.7919 194.666 11.7584C194.211 11.5011 193.904 10.8858 193.628 10.4719C193.088 9.65521 192.57 8.82289 191.965 8.04875C191.92 7.99282 192.015 7.93464 192.059 7.98834Z" fill="#E38472"/>
<path d="M194.036 7.03735C194.973 8.29477 195.538 9.95493 196.672 11.0468C196.723 11.096 196.647 11.1766 196.596 11.1273C195.453 10.0243 194.886 8.3619 193.942 7.09552C193.899 7.03735 193.993 6.97918 194.036 7.03511V7.03735Z" fill="#E38472"/>
<path d="M191.764 16.4771C192.149 16.8373 192.763 17.3004 193.326 17.24C193.397 17.2333 193.402 17.3429 193.33 17.3497C192.732 17.4123 192.1 16.9402 191.687 16.5554C191.636 16.5062 191.71 16.4256 191.764 16.4748V16.4771Z" fill="#E38472"/>
<path d="M191.739 16.477C192.102 16.6448 192.487 16.6851 192.875 16.5934C192.944 16.5777 192.978 16.6829 192.909 16.6985C192.489 16.797 192.077 16.7545 191.685 16.5732C191.62 16.5442 191.671 16.4457 191.736 16.4748L191.739 16.477Z" fill="#E38472"/>
<path d="M191.936 16.6651C191.752 17.0231 191.467 17.4214 191.465 17.8353C191.465 17.9069 191.353 17.9114 191.355 17.8398C191.358 17.3968 191.645 16.994 191.84 16.6137C191.873 16.551 191.97 16.6025 191.938 16.6651H191.936Z" fill="#E38472"/>
<path opacity="0.5" d="M197.98 52.9916C210.96 55.4192 221.185 49.2596 221.185 49.2596L203.207 48.0828C202.759 48.707 201.053 48.745 199.195 48.6757C198.619 49.678 198.135 51.0227 197.983 52.9939L197.98 52.9916Z" fill="#E84261"/>
<path d="M218.892 50.7521C216.61 52.4279 202.335 53.6271 192.971 50.6268C192.81 50.5753 192.689 50.4388 192.599 50.2956C191.748 48.9353 188.029 45.0064 190.208 34.6718C192.104 25.6797 191.712 19.2359 191.712 19.2359L198.85 18.1016C198.85 18.1016 196.58 23.4646 198.588 34.5756C199.588 40.0998 200.193 41.6167 200.193 41.6167C200.193 41.6167 208.138 42.0284 214.416 38.8558C217.709 37.1911 226.367 45.2592 218.89 50.7543L218.892 50.7521Z" fill="#FABBA5"/>
<path d="M222.886 35.6204C222.886 35.6204 213.533 39.1801 211.175 39.7372C208.817 40.2943 206.083 40.9074 206.083 40.9074C206.083 40.9074 209.422 41.9925 207.212 48.161C206.067 51.3605 207.578 52.6291 207.578 52.6291C207.578 52.6291 220.51 52.2689 220.779 52.1078C221.046 51.9467 224.41 55.634 224.473 55.3543C224.535 55.0746 226.14 43.3103 226.14 43.3103L222.888 35.6226L222.886 35.6204Z" fill="#FF6576"/>
<path d="M213.13 57.885C211.843 58.4152 210.489 58.5786 209.113 58.3817C208.999 58.366 209.044 58.1915 209.156 58.2071C210.505 58.4018 211.821 58.2318 213.078 57.7127C213.186 57.6679 213.235 57.8402 213.13 57.885Z" fill="#E84261"/>
<path d="M212.531 39.3053C210.521 39.9676 208.488 40.5493 206.432 41.0505C206.32 41.0774 206.264 40.9073 206.379 40.8805C208.434 40.3793 210.467 39.7976 212.477 39.1353C212.587 39.0995 212.641 39.2695 212.531 39.3053Z" fill="#E84261"/>
<path d="M206.343 40.9969C207.569 41.6949 208.033 43.1179 207.99 44.4671C207.925 46.568 206.896 48.4832 207.067 50.62C207.105 51.0876 207.094 51.8684 207.372 52.2644C207.674 52.6963 208.62 52.4099 209.064 52.383C210.117 52.3226 211.175 52.3271 212.229 52.3942C214.347 52.5307 216.435 52.9312 218.462 53.5644C218.571 53.5979 218.533 53.7747 218.423 53.7389C216.288 53.0699 214.08 52.6605 211.843 52.5508C210.745 52.4971 209.642 52.5128 208.546 52.5978C208.017 52.6381 207.439 52.8887 207.201 52.3181C206.484 50.6065 206.957 48.5325 207.39 46.8298C207.867 44.9459 208.297 42.3169 206.258 41.1557C206.157 41.0998 206.242 40.9409 206.343 40.9969Z" fill="#E84261"/>
<path d="M218.033 55.7727C217.177 54.4549 215.996 53.4525 214.557 52.8193C214.452 52.7723 214.537 52.6135 214.642 52.6604C216.108 53.3048 217.314 54.334 218.186 55.6765C218.249 55.7727 218.096 55.8689 218.033 55.7727Z" fill="#E84261"/>
<path opacity="0.5" d="M222.294 73.9673C223.556 73.7189 225.275 71.3025 225.073 72.5778C224.874 73.8532 224.768 77.6321 225.495 76.1622C226.21 74.7146 227.129 72.6382 227.077 72.4973C227.077 72.4973 227.075 72.495 227.073 72.4928C226.367 71.797 225.815 71.1616 225.611 70.6469C225.506 70.3829 225.463 70.1413 225.499 69.9287C225.569 69.526 225.757 68.6668 226.006 67.5593C225.712 68.6959 224.833 71.4233 222.928 72.5957C220.492 74.097 221.028 74.2156 222.29 73.965L222.294 73.9673Z" fill="#E84261"/>
<path d="M221.263 8.67767C221.485 9.02 221.241 15.9425 226.439 19.0346C231.636 22.1245 224.654 27.4741 223.162 31.0876C221.669 34.701 221.774 39.5472 227.243 38.3658C232.71 37.1823 232.051 31.6223 234.261 32.9222L235.07 23.8988L231.627 10.9822L227.555 8.67991L222.575 8.25928L221.266 8.67991L221.263 8.67767Z" fill="#6D2F3B"/>
<path d="M231.728 13.2554L231.645 23.5206C231.645 23.5206 218.645 30.3268 222.025 36.9563C224.318 41.4534 229.273 36.7482 233.646 38.3211C235.415 36.3745 235.906 32.3539 235.906 32.3539C237.286 34.8374 235.838 37.4485 234.886 38.829C238.931 40.4824 242.533 41.5161 245.523 38.5068C248.75 35.2581 246.431 31.8035 246.431 31.8035C248.221 33.6717 248.329 37.8087 248.329 37.8087C250.653 33.3294 249.501 27.9328 243.956 25.0823C238.411 22.2341 242.652 17.7392 238.602 10.8166C234.554 3.89183 227.12 4.88524 227.12 4.88524C220.716 3.90302 218.423 9.56366 218.423 9.56366L231.728 13.2554Z" fill="#6D2F3B"/>
<path d="M229.666 21.1734C229.666 21.1734 225.86 27.6731 223.009 27.2591C223.009 27.2591 225.033 29.3981 227.263 27.9841C229.491 26.57 229.666 21.1711 229.666 21.1711V21.1734Z" fill="#6D2F3B"/>
<path d="M226.169 5.97034C231.3 6.20079 236.784 7.89898 239.586 12.5282C240.211 13.5619 240.644 14.6985 240.861 15.8865C241.11 17.2335 241.058 18.5938 241.193 19.9497C241.482 22.8874 244.239 24.2701 246.281 25.9862C247.226 26.7805 248.105 27.6889 248.638 28.8165C249.268 30.15 249.351 31.6446 249.23 33.0944C249.221 33.2085 249.042 33.2175 249.051 33.1034C249.163 31.7542 249.105 30.3648 248.571 29.1029C248.092 27.9685 247.244 27.0512 246.323 26.2569C244.692 24.8496 242.334 23.6638 241.412 21.6188C240.937 20.5627 240.982 19.3702 240.926 18.238C240.859 16.8844 240.709 15.5285 240.229 14.251C239.353 11.9263 237.582 9.9932 235.489 8.68431C232.71 6.94808 229.415 6.29029 226.178 6.14709C226.064 6.14262 226.055 5.96363 226.169 5.9681V5.97034Z" fill="#6D2F3B"/>
<path d="M228.868 21.8759C228.068 24.4668 225.569 26.0375 222.884 25.637C222.77 25.6191 222.81 25.4446 222.922 25.4625C225.506 25.8473 227.922 24.3304 228.691 21.8357C228.725 21.726 228.899 21.7641 228.866 21.8737L228.868 21.8759Z" fill="#6D2F3B"/>
<path d="M225.439 28.1631C222.104 29.7852 220.302 33.1525 219.636 36.6742C219.614 36.7883 219.439 36.748 219.461 36.6362C220.136 33.0742 221.969 29.6555 225.342 28.0132C225.445 27.964 225.542 28.1139 225.439 28.1653V28.1631Z" fill="#6D2F3B"/>
<path d="M227.297 20.1867C227.297 20.1867 229.585 17.9538 230.919 19.4909C232.252 21.0303 230.127 22.8537 229.323 23.5563C228.462 24.3081 228.079 24.2297 226.983 23.6816C225.887 23.1334 227.297 20.1845 227.297 20.1845V20.1867Z" fill="#FABBA5"/>
<path d="M226.954 23.449C227.185 24.194 228.093 24.3507 228.734 24.062C229.135 23.8808 229.462 23.572 229.767 23.261C230.134 22.8874 230.493 22.4981 230.787 22.064C231.277 21.3369 231.665 20.2831 231.031 19.5201C230.406 18.7706 229.337 18.8176 228.583 19.3344C228.485 19.4015 228.583 19.5581 228.684 19.491C229.386 19.01 230.415 18.9585 230.952 19.7192C231.493 20.4844 230.986 21.498 230.498 22.1513C230.078 22.7129 229.556 23.317 228.971 23.713C228.409 24.0956 227.384 24.2119 227.131 23.3908C227.095 23.2767 226.918 23.3326 226.954 23.4468V23.449Z" fill="#EF9F8A"/>
<path d="M229.727 19.7708C229.431 19.82 229.135 19.914 228.924 20.1355C228.678 20.395 228.691 20.6434 228.714 20.9701C228.754 21.5898 228.135 21.5742 227.759 21.8807C227.546 22.053 227.441 22.3013 227.526 22.5653C227.562 22.6794 227.739 22.6235 227.703 22.5094C227.503 21.8896 228.658 21.8136 228.868 21.3303C228.956 21.1289 228.873 20.9611 228.866 20.7553C228.848 20.263 229.321 20.0259 229.738 19.9565C229.854 19.9364 229.848 19.7507 229.729 19.7708H229.727Z" fill="#EF9F8A"/>
<path d="M225.313 7.53863C224.197 10.19 225.932 12.8167 227.967 14.4254C229.957 15.9983 232.364 17.0006 234.202 18.7749C235.59 20.1129 236.647 22.0169 236.358 23.997C236.065 26.0084 234.556 27.5366 233.391 29.1005C232.501 30.2953 231.802 31.5572 231.687 33.0697C231.573 34.5911 231.916 36.1036 232.091 37.6072C232.104 37.7213 231.925 37.7302 231.912 37.6161C231.629 35.1997 231.04 32.7855 232.25 30.5213C233.326 28.5054 235.287 26.9795 235.993 24.7644C236.809 22.2093 235.251 19.7996 233.319 18.2402C231.291 16.6046 228.812 15.5933 226.934 13.7631C225.271 12.141 224.195 9.72234 225.152 7.45361C225.197 7.34845 225.356 7.43124 225.311 7.53863H225.313Z" fill="#964D5F"/>
<path d="M226.528 7.29934C226.882 10.0491 229.264 12.074 231.261 13.761C233.267 15.4547 235.767 16.8374 237.084 19.1912C237.631 20.1667 237.882 21.216 237.817 22.3302C237.737 23.7532 237.571 24.9905 238.008 26.38C238.756 28.7561 240.186 30.8167 240.534 33.3293C240.877 35.8039 240.142 38.4664 237.99 39.9185C237.894 39.9834 237.797 39.8312 237.893 39.7664C240.265 38.1666 240.785 35.164 240.209 32.5284C239.698 30.188 238.252 28.2034 237.685 25.89C237.389 24.6818 237.569 23.5563 237.638 22.3347C237.714 20.9699 237.297 19.7281 236.511 18.6184C234.951 16.4168 232.414 15.0363 230.421 13.2665C228.619 11.6668 226.671 9.81418 226.349 7.30381C226.333 7.1897 226.512 7.18075 226.528 7.29486V7.29934Z" fill="#964D5F"/>
<path d="M242.119 40.2833C244.234 36.7951 243.522 32.5396 241.153 29.3804C241.083 29.2886 241.235 29.1924 241.305 29.2842C243.71 32.4904 244.423 36.8309 242.278 40.3683C242.217 40.4667 242.058 40.3839 242.119 40.2833Z" fill="#964D5F"/>
<path d="M228.099 28.1342C225.694 31.1077 224.65 34.9784 225.224 38.7552C225.241 38.8693 225.062 38.8782 225.044 38.7641C224.464 34.9381 225.535 31.0204 227.969 28.0134C228.041 27.9239 228.173 28.0447 228.101 28.1364L228.099 28.1342Z" fill="#964D5F"/>
<path d="M228.151 28.1453C227.127 29.7383 226.905 31.6178 227.106 33.4703C227.272 34.9985 227.521 37.0524 228.718 38.1555C228.803 38.2338 228.68 38.3658 228.595 38.2875C227.398 37.1844 227.151 35.2714 226.956 33.7388C226.705 31.7744 226.9 29.7585 227.992 28.0625C228.054 27.9663 228.214 28.0491 228.151 28.1475V28.1453Z" fill="#964D5F"/>
<path d="M228.559 7.55002C228.386 7.37774 228.541 7.05779 228.769 6.97725C229 6.8967 229.251 6.97054 229.486 7.02871C229.722 7.08688 229.993 7.12492 230.192 6.9862C230.318 6.89894 230.392 6.75798 230.508 6.6573C230.795 6.41118 231.23 6.49397 231.591 6.60808C234.574 7.56345 237.078 9.91273 238.216 12.8281C237.911 12.7005 237.609 12.573 237.304 12.4455C237.255 12.6245 237.203 12.8035 237.154 12.9825C236.54 12.658 235.926 12.3314 235.312 12.0069C235.231 11.9644 235.141 11.9219 235.054 11.9465C234.823 12.0137 234.944 12.3582 234.913 12.5976C234.877 12.8706 234.565 13.0384 234.29 13.016C234.014 12.9936 233.772 12.8325 233.543 12.6759C231.524 11.2708 229.666 9.6062 228.198 7.63281L228.559 7.55226V7.55002Z" fill="#8C4959"/>
<path d="M201.553 273.752L223.856 290.175L336.004 372.767H435.256L341.565 303.769L312.249 282.178H312.246L272.371 252.81L258.834 242.842L236.533 226.42L207.647 265.507H207.645L201.553 273.752Z" fill="#FF6576"/>
<path d="M191.337 334.18L290.319 200.238L149.953 200.285L191.337 334.18Z" fill="#FF6576"/>
<path d="M309.27 290.765L323.818 301.478L420.618 372.766H485.367L469.436 361.033L346.639 270.602L332.089 259.887L309.27 290.765Z" fill="#FFCA87"/>
<path d="M302.604 330.186L367.179 242.807L275.608 242.838L302.604 330.186Z" fill="#FFCA87"/>
<path d="M287.827 121.74L295.419 127.332L409.087 211.042H442.865L371.399 158.405L307.327 111.22L299.733 105.629L287.827 121.74Z" fill="#ABC7F2"/>
<path d="M284.349 142.311L318.042 96.7173L270.262 96.7329L284.349 142.311Z" fill="#ABC7F2"/>
</g>
<defs>
<clipPath id="clip0_305_1147">
<rect width="506.071" height="372.392" fill="white" transform="matrix(-1 0 0 1 506.458 0.374512)"/>
</clipPath>
</defs>
</svg>
