<svg width="371" height="483" viewBox="0 0 371 483" fill="none" xmlns="http://www.w3.org/2000/svg">
<g clip-path="url(#clip0_230_104)">
<path d="M91.9868 444.874C92.9889 445.196 93.8929 445.247 94.9333 445.052C94.9078 446.277 94.4088 449.774 93.5475 450.677L93.0784 450.575C92.4857 448.914 91.9442 447.303 91.5988 445.574L91.9868 444.874Z" fill="#213078"/>
<path d="M85.5734 472.302C86.051 471.751 86.503 471.459 87.1341 471.107L87.2662 471.255C88.5242 472.616 90.3364 473.663 91.8588 474.722L90.1744 476.99C88.6862 475.634 86.5627 474.019 85.5734 472.302Z" fill="#213078"/>
<path d="M74.8747 224.913C73.5315 223.866 72.2352 223.111 70.6915 222.387L72.184 219.047L76.7125 220.127C75.8085 221.653 75.4376 223.251 74.8704 224.913H74.8747Z" fill="#FCB416"/>
<path d="M77.4499 240.871C75.8977 241.007 74.4181 241.159 72.9128 241.583L72.5589 241.685C71.9363 240.621 71.5312 239.451 71.0835 238.307C72.6015 237.51 73.6377 236.899 74.5503 235.399L74.7251 235.106C75.4415 237.234 76.3583 238.925 77.4499 240.867V240.871Z" fill="#FCB416"/>
<path d="M102.869 274.263C103.59 274.212 104.455 274.174 105.155 274.352C106.012 274.572 106.826 275.373 107.287 276.098C107.901 277.06 108.135 278.039 107.833 279.15C107.398 280.748 106.4 281.388 105.027 282.117H104.012C102.669 282.024 101.709 281.646 100.856 280.57C100.298 279.87 99.833 278.62 99.9822 277.717C100.255 276.06 101.551 275.085 102.873 274.258L102.869 274.263Z" fill="#3A7DDF"/>
<path d="M280.19 60.7605C280.996 60.7309 281.794 60.697 282.561 60.9894C283.572 61.3709 284.536 62.244 284.962 63.2359C285.359 64.1599 285.384 65.7155 284.996 66.6479C284.433 68.0001 283.303 68.5511 282.041 69.0809C281.32 69.1318 280.455 69.1572 279.764 68.9622C278.873 68.7121 277.918 67.5508 277.478 66.7921C276.911 65.8172 276.792 64.8042 277.112 63.7191C277.577 62.1508 278.822 61.4302 280.195 60.7648L280.19 60.7605Z" fill="#3A7DDF"/>
<path d="M258.874 170.718L260.699 170.697C261.871 170.862 262.997 171.71 263.654 172.663C264.285 173.575 264.519 174.728 264.298 175.817C263.961 177.47 262.843 178.292 261.509 179.132C260.75 179.17 259.897 179.263 259.142 179.132C257.991 178.928 256.98 178.089 256.396 177.114C255.786 176.092 255.654 174.829 255.974 173.685C256.383 172.235 257.641 171.422 258.874 170.722V170.718Z" fill="#F77E50"/>
<path d="M256.738 364.129C257.467 364.049 258.366 363.955 259.1 364.082C260.264 364.286 261.377 365.125 261.991 366.121C262.661 367.206 262.899 368.546 262.588 369.779C262.179 371.407 260.955 372.267 259.582 373.051C258.793 373.166 257.88 373.238 257.1 373.068C255.987 372.827 254.755 371.941 254.153 370.979C253.595 370.08 253.399 368.881 253.655 367.859C254.145 365.888 255.036 365.079 256.738 364.125V364.129Z" fill="#1C44BB"/>
<path d="M109.978 168.836C111.001 168.827 111.99 169.014 112.894 169.514C114.122 170.192 115.09 171.468 115.41 172.82C115.662 173.876 115.525 175.626 114.898 176.525C113.871 177.991 112.707 178.547 110.954 178.864C110.25 178.818 109.427 178.75 108.784 178.449C107.329 177.771 106.404 176.843 105.807 175.376C105.236 173.969 105.568 173.041 106.199 171.672C106.976 169.993 108.344 169.425 109.978 168.84V168.836Z" fill="#F8DCA0"/>
<path d="M356.95 310.884C357.879 310.803 359.095 310.689 359.994 310.935C361.171 311.257 362.485 312.3 363.069 313.355C363.615 314.334 363.836 316.284 363.44 317.352C362.766 319.196 361.611 319.972 359.926 320.781C359.073 320.976 357.948 321.014 357.095 320.781C355.841 320.442 354.728 319.56 354.084 318.45C353.283 317.068 353.274 315.067 353.828 313.592C354.353 312.194 355.688 311.494 356.95 310.884Z" fill="#E25146"/>
<path d="M25.8664 323.596C26.8387 323.545 27.6488 323.536 28.5699 323.888C30.0666 324.456 31.073 325.482 31.7083 326.936C32.1987 328.055 32.203 329.724 31.687 330.839C30.8811 332.573 29.6871 333.302 27.9729 333.933C27.1371 333.955 26.0754 334.044 25.2737 333.781C23.8708 333.315 22.7493 332.31 22.0884 331C21.4445 329.729 21.3763 328.322 21.9093 326.995C22.6342 325.198 24.148 324.282 25.8622 323.596H25.8664Z" fill="#FCB416"/>
<path d="M213.333 181.488C214.045 181.056 215.128 181.056 215.955 180.916C217.614 180.632 219.2 180.246 220.812 179.768C220.739 188.045 220.304 196.264 216.249 203.707C215.473 201.236 215.738 197.612 215.52 194.98C215.145 190.449 214.48 185.892 213.337 181.484L213.333 181.488Z" fill="#213078"/>
<path d="M253.727 98.45L254.179 99.5012C256.302 104.38 258.989 107.093 263.978 109.055L262.92 109.492C257.944 111.602 255.918 115.036 253.983 119.817L253.253 117.986C251.155 113.103 248.49 110.916 243.616 109L246.571 107.724C250.486 105.825 252.328 102.383 253.722 98.4585L253.727 98.45Z" fill="#FCB416"/>
<path d="M127.614 117.744C128.079 119.122 128.595 120.423 129.328 121.686C131.622 125.624 134.931 127.671 139.259 128.798L137.281 129.642C131.742 132.007 129.78 135.818 127.674 141.095L126.126 137.212C123.9 132.778 120.732 130.481 116.088 128.896L117.815 128.281C123.439 126.098 125.299 123.072 127.614 117.744Z" fill="#FCB416"/>
<path d="M93.8632 384.703L94.0892 386.335C96.2042 387.513 104.562 385.911 105.466 388.056L98.2169 414.462L96.0336 413.916L94.3536 413.356C93.5988 412.309 93.9314 388.548 93.8632 384.703Z" fill="#79ABF7"/>
<path d="M82.9725 211.917C82.7294 210.87 82.222 209.501 82.3328 208.437C83.2198 208.026 84.6227 207.166 85.5693 207.094L88.8399 211.252C92.3664 210.612 95.5006 210.781 99.0271 211.319L101.56 207.267L105.082 208.738L104.306 213.43C105.696 214.278 107.069 215.16 108.148 216.393C108.933 217.287 109.568 218.347 110.212 219.339C110.293 219.462 110.694 220.157 110.766 220.199C111.188 220.458 115.205 220.03 115.939 219.924L117.325 222.416C115.883 223.654 114.271 224.862 113.176 226.422L113.252 226.756C113.602 228.299 113.743 229.914 113.692 231.495C113.662 232.428 113.086 234.911 113.389 235.645C113.743 236.497 116.433 237.611 116.608 238.493C116.672 238.819 115.772 240.756 115.606 241.202C114.075 241.049 112.417 240.99 110.941 240.561C108.754 243.16 106.681 245.576 103.684 247.297L104.046 252.332C103.159 252.658 101.483 253.489 100.566 253.447L98.5367 249.708C96.4216 249.963 94.6051 250.192 92.4688 249.886C91.9357 249.81 89.8164 249.183 89.4455 249.289C89.2408 249.344 88.1747 250.747 87.9999 250.971L86.307 253.375L83.0236 252.391L83.966 247.038C83.0066 246.288 81.9618 245.567 81.109 244.698C82.1324 244.317 86.0128 246.19 87.501 246.449C89.2834 246.758 90.972 246.763 92.7587 246.504C94.635 246.233 96.2681 245.644 97.8971 244.669C101.684 242.401 104.784 238.764 105.799 234.424C106.008 233.53 106.238 232.644 106.306 231.72C106.668 227.036 105.185 222.514 102.119 218.949C98.5836 214.837 94.1574 212.583 88.7632 212.163C88.2174 211.387 87.8123 211.133 86.9083 210.866C85.484 210.446 84.1792 211.273 82.9725 211.926V211.917Z" fill="#FCB416"/>
<path d="M76.7892 433.095L76.4609 430.573C76.1667 426.267 77.3521 421.782 80.2603 418.506C83.2367 415.153 86.8143 413.297 91.3173 413.038L91.7479 413.983C93.2106 413.844 94.5708 413.814 96.0377 413.916L98.2209 414.462C102.617 416.26 106.314 419.197 108.208 423.63C109.785 427.335 109.713 431.811 108.144 435.507C106.553 439.245 103.381 442.373 99.5898 443.887C98.2167 444.438 96.43 445.222 94.9375 445.052C93.8971 445.247 92.9931 445.196 91.991 444.874L91.603 445.574L91.2917 445.735C90.0508 446.29 87.4326 445.319 86.2727 444.756C81.1771 442.272 78.5503 438.254 76.7935 433.095H76.7892Z" fill="#FCB416"/>
<path d="M76.7892 433.095L76.4609 430.573C76.1667 426.267 77.3521 421.782 80.2603 418.506C83.2367 415.153 86.8143 413.297 91.3173 413.038L91.7479 413.983C87.3857 414.882 83.2963 416.844 80.7975 420.697C78.6612 423.995 77.6932 428.454 78.5503 432.303C78.9554 434.121 79.659 435.77 80.6867 437.321L81.0278 437.435C81.1984 437.715 81.3178 437.961 81.5694 438.173C82.354 440.424 85.6161 442.594 87.697 443.603C88.8142 444.145 90.7544 445.01 91.991 444.874L91.603 445.574L91.2917 445.735C90.0508 446.29 87.4326 445.319 86.2727 444.756C81.1771 442.272 78.5503 438.254 76.7935 433.095H76.7892Z" fill="#5C4D77"/>
<path d="M81.0238 437.436L81.0707 437.245C81.109 436.902 81.0152 436.728 80.9044 436.41C79.2925 431.658 79.3522 427.149 81.5866 422.643C83.1729 419.447 86.5331 416.989 89.9529 416.027C91.7695 415.518 95.5689 415.153 97.2788 415.95C97.718 416.154 97.88 416.4 97.9909 416.862C98.2126 417.786 98.0421 419.01 98.008 419.964C96.3918 419.994 94.844 419.964 93.2875 420.43L92.9592 420.524C89.5265 421.549 86.209 425.072 84.5971 428.149C82.8872 431.417 82.3585 434.401 82.2007 438.059L81.5653 438.173C81.3137 437.961 81.1943 437.715 81.0238 437.436Z" fill="#FDC719"/>
<path d="M82.9724 211.917C84.1792 211.264 85.484 210.442 86.9082 210.858C87.8123 211.125 88.2174 211.379 88.7632 212.155C94.1573 212.574 98.5835 214.829 102.119 218.941C105.184 222.505 106.668 227.028 106.306 231.711C106.233 232.631 106.007 233.517 105.799 234.416C104.779 238.756 101.684 242.393 97.897 244.66C96.2681 245.635 94.6349 246.224 92.7587 246.496C90.972 246.754 89.2834 246.746 87.501 246.44C86.0085 246.182 82.1324 244.308 81.109 244.69C79.7402 243.711 78.4567 242.223 77.4546 240.875C76.363 238.93 75.4462 237.243 74.7298 235.115C74.5038 233.309 74.0901 231.635 74.1072 229.796C74.1243 228.164 74.5379 226.506 74.8748 224.913C75.4419 223.251 75.8086 221.653 76.7169 220.127C76.9045 219.962 76.832 220.047 76.9898 219.826C78.8319 217.3 81.0962 215.283 83.1558 212.951L82.9724 211.917Z" fill="#FDC719"/>
<path d="M26.5742 258.508C24.5658 255.142 23.3675 250.866 21.7727 247.237C21.4316 246.457 20.8986 244.855 20.2718 244.325C18.9072 243.177 16.7453 242.35 15.2272 241.282C9.30857 237.12 3.52635 230.859 0.703473 224.162C0.102224 222.738 -0.3114 221.051 0.289848 219.572C1.36868 218.72 1.89318 219.246 3.03597 218.779C2.1405 217.402 0.899625 215.91 0.336754 214.371C0.0723753 213.651 0.0510544 212.519 0.451887 211.832C0.87404 211.112 1.82921 210.527 2.6522 210.412C5.67976 209.989 8.02079 211.909 10.3234 213.545C9.3768 211.875 8.26385 210.48 8.63057 208.446C9.138 207.823 9.17638 207.679 9.98231 207.454C11.4065 207.963 12.5579 209.107 13.722 210.039L18.5917 213.752L30.5314 222.272L31.64 220.403C33.0515 218.127 36.1729 213.324 38.9019 212.782C40.582 212.447 41.7674 213.036 43.1149 213.939C43.2471 214.723 42.4924 216.342 42.228 217.165C41.0809 220.699 40.0703 224.828 40.2707 228.549C40.4328 231.546 41.695 234.619 42.8292 237.37L47.9505 248.589L26.5699 258.503L26.5742 258.508Z" fill="#F8A777"/>
<path d="M11.4324 230.173C12.8012 230.961 14.0464 233.827 15.1551 235.204L15.0058 236.179C13.4238 235.331 11.9953 233.602 11.2747 231.949C10.925 231.143 11.1297 230.965 11.4367 230.177L11.4324 230.173Z" fill="#F77E50"/>
<path d="M321.804 249.229L328.622 233.076C329.096 231.974 329.045 230.686 329.028 229.507C328.981 225.777 328.222 222.17 327.015 218.648C326.712 217.754 325.535 215.647 325.608 214.778C325.646 214.333 326.409 213.897 326.772 213.731C327.966 213.197 329.194 213.418 330.362 213.909C334.95 215.842 336.793 220.246 340.417 223.217C345.986 220.933 351.227 216.465 355.61 212.396C357.12 210.993 358.629 209.255 360.263 208.026C360.872 207.564 361.171 207.534 361.904 207.649C362.39 208.221 362.817 208.709 362.723 209.501C362.587 210.646 362.254 211.57 361.55 212.477C364.096 211.93 366.599 208.67 369.593 210.747C370.526 211.396 370.676 211.921 370.996 212.943C370.851 214.02 370.424 214.888 369.793 215.757C369.298 216.44 367.64 218.135 367.725 218.843L369.324 218.695C370.109 219.352 370.386 219.657 370.475 220.759C370.569 221.946 370.045 223.353 369.588 224.434C367.75 228.808 364.237 233.004 360.889 236.327C358.843 238.358 356.676 240.345 354.212 241.876C352.915 242.681 351.005 243.427 349.888 244.393C349.338 244.872 344.191 257.346 343.632 258.779L321.796 249.221L321.804 249.229Z" fill="#F8A777"/>
<path d="M92.0718 54.2034C97.0736 53.6355 102.225 54.7587 106.489 57.4375C111.111 60.3409 114.382 65.1475 115.559 70.433C116.902 76.473 115.96 82.6741 112.565 87.9087C109.146 93.1815 103.905 95.9451 97.8966 97.1912C92.9246 97.8864 87.5261 96.5724 83.3899 93.7919C78.2516 90.3417 74.8402 84.8612 73.7486 78.8254C72.7806 73.4636 74.32 67.5762 77.4414 63.1553C80.9892 58.1326 86.0806 55.2801 92.0718 54.195V54.2034Z" fill="#0AB871"/>
<path d="M104.485 68.3178C104.882 68.4407 104.792 68.3771 105.082 68.5679C105.658 68.9493 105.675 68.9493 105.828 69.636L105.283 70.4964C104.327 71.874 94.2724 82.7714 93.394 83.1232C93.151 83.2207 92.8823 83.2249 92.6222 83.2758C90.2641 81.9279 87.9018 78.7574 86.0085 76.7653C85.2196 75.9261 84.7889 75.7311 84.7804 74.5358C85.2452 73.9042 85.194 73.8873 85.9573 73.7389C87.1257 74.2857 87.906 75.2987 88.7717 76.2228L92.7629 80.4613L104.485 68.3178Z" fill="#FEFEFE"/>
<path d="M256.213 446.362C257.091 445.849 259.952 446.146 261.052 446.142H273.001C275.124 446.146 277.44 446.332 279.538 446.006C281.209 447.027 283.081 446.099 284.829 446.502C286.672 446.921 288.347 446.79 290.258 446.79C291.162 446.79 292.313 446.913 293.179 446.688L293.494 446.599L294.019 446.582C294.582 446.565 294.884 446.438 295.379 446.188C295.098 447.112 294.957 447.405 295.426 448.312L296.249 449.583L296.202 449.838L296.53 449.99C298.048 450.647 317.275 450.185 320.627 450.134V462.884L321.032 463.46L321.523 463.507L322.913 464.126C323.595 467.661 322.734 471.645 323.113 475.256C324.299 475.256 325.531 475.35 326.682 475.049C326.473 475.167 326.102 475.443 325.885 475.494C324.409 475.82 322.141 475.549 320.597 475.545L306.278 475.447L254.298 475.358L254.157 475.125L254.11 466.262C254.11 465.397 253.935 463.719 254.387 462.998C254.673 462.541 255.786 462.401 256.311 462.282L256.221 446.362H256.213Z" fill="#FDC719"/>
<path d="M284.987 461.74L285.367 461.939C286.011 462.253 286.791 462.155 287.49 462.155C289.239 462.155 292.65 461.676 294.189 462.269C292.07 462.515 289.87 462.401 287.733 462.401L277.013 462.388C273.683 462.388 269.487 462.901 266.268 462.32C266.025 462.452 265.943 462.515 265.632 462.575C264.464 462.791 257.33 462.88 256.66 462.367C257.462 461.774 260.575 462.121 261.628 462.121L278.42 462.134C280.241 462.134 283.388 462.57 284.992 461.74H284.987Z" fill="#F2852B"/>
<path d="M256.213 446.362C257.091 445.849 259.952 446.146 261.052 446.142H273.001C275.124 446.146 277.44 446.332 279.538 446.006C281.209 447.027 283.081 446.099 284.83 446.502C286.672 446.921 288.347 446.79 290.258 446.79C291.162 446.79 292.313 446.913 293.179 446.688L293.494 446.599L294.019 446.582C294.582 446.565 294.884 446.438 295.379 446.188C295.098 447.112 294.957 447.405 295.426 448.312L296.249 449.583L296.202 449.838L294.859 449.732C294.334 450.562 294.569 452.228 294.565 453.233L294.556 462.231C295.008 462.744 295.307 463.13 295.985 463.337L296.142 463.558C296.002 463.71 295.528 464.134 295.477 464.3C295.315 464.804 295.443 465.919 295.435 466.474L295.597 475.244L285.503 475.316L285.614 462.625L273.291 462.659C271.116 462.659 268.331 462.977 266.268 462.32C269.487 462.901 273.687 462.392 277.013 462.388L287.733 462.401C289.87 462.401 292.07 462.515 294.189 462.269C292.65 461.676 289.239 462.151 287.49 462.155C286.791 462.155 286.006 462.252 285.367 461.939L284.987 461.74C285.363 461.133 285.149 459.086 285.145 458.289L285.111 446.76H263.973H259.112C258.332 446.76 257.304 446.888 256.588 446.548L256.213 446.358V446.362Z" fill="#FCB416"/>
<path d="M197.171 482.636C198.25 483.141 199.402 482.984 200.57 482.988L207.546 482.997L231.754 482.988L232.091 476.821L232.291 478.618C234.543 479 237.122 478.818 239.425 478.86L253.996 479.106C266.191 479.335 327.058 480.348 333.834 483.993L333.992 484.446C329.753 487.647 293.141 488.405 285.742 488.655L260.106 489.609L123.627 489.592L79.8853 488.248C70.7429 487.871 61.3703 487.655 52.2961 486.417C49.9295 486.095 47.2175 485.815 45.047 484.785L44.8722 484.362C49.1193 480.852 103.36 479.97 112.425 479.792L125.695 479.432C126.727 479.39 128.616 479.559 129.512 479.263C129.746 479.186 130.113 478.851 130.335 478.699L130.028 482.959L176.123 482.933L178.818 477.385L179.232 478.224C181.334 478.262 186.268 478.902 187.88 477.741L188.042 482.98L194.148 483.001C195.197 482.997 196.238 483.132 197.188 482.636H197.171Z" fill="#E2E7F7"/>
<path d="M285.917 405.697C284.877 402.505 283.747 399.242 285.414 396.008C286.015 394.838 286.808 393.888 287.823 393.045C289.776 391.43 292.006 390.086 294.057 388.594L313.788 374.654L324.896 366.693C327.088 365.129 329.685 362.925 332.286 362.162C334.695 361.459 337.168 361.874 339.3 363.12C341.317 364.299 342.592 366.38 343.91 368.228L348.268 374.187L352.698 380.075C354.122 381.923 355.977 383.889 356.502 386.216C356.975 388.327 356.545 391.146 355.252 392.922C354.216 394.342 352.344 395.359 350.929 396.376L342.277 402.573L327.514 413.25L317.344 420.464C316.504 421.011 315.037 422.151 314.048 422.287C313.707 422.333 313.702 422.316 313.412 422.261C313.118 422.431 312.896 422.567 312.555 422.613C310.555 422.897 305.37 422.825 303.933 421.575L303.093 421.291C302.581 420.456 302.842 418.472 302.837 417.429L302.829 405.672L286.83 405.714L285.921 405.688L285.917 405.697Z" fill="#0AB871"/>
<path d="M312.709 408.821C313.135 408.812 313.575 408.804 313.993 408.88C314.76 409.016 315.494 409.448 315.924 410.101C316.325 410.703 316.504 411.453 316.342 412.165C316.061 413.381 315.306 413.975 314.291 414.611L313.596 414.602C312.637 414.538 311.856 414.365 311.246 413.585C310.718 412.911 310.44 412.076 310.62 411.228C310.88 409.999 311.728 409.469 312.713 408.821H312.709Z" fill="#FEFEFE"/>
<path d="M295.524 395.342C296.087 395.304 296.659 395.35 297.217 395.372C297.955 395.745 298.484 396.109 298.961 396.796C299.426 397.461 299.545 398.097 299.358 398.89C299.102 399.979 298.189 400.517 297.307 401.081L297.128 401.102C296.006 401.153 295.059 401.208 294.228 400.305C293.699 399.729 293.443 398.885 293.516 398.114C293.64 396.758 294.497 396.105 295.516 395.342H295.524Z" fill="#FEFEFE"/>
<path d="M333.705 369.622C334.132 369.571 334.562 369.542 334.989 369.563C335.859 369.609 336.554 369.957 337.129 370.61C337.731 371.292 337.94 372.021 337.833 372.924C337.697 374.068 336.908 374.645 336.068 375.327L335.159 375.412C334.277 375.45 333.492 375.272 332.848 374.641C332.251 374.056 331.867 372.988 331.949 372.157C332.064 370.97 332.853 370.33 333.701 369.618L333.705 369.622Z" fill="#FEFEFE"/>
<path d="M344.153 384.983L345.871 385.335C346.545 385.572 347.103 386.199 347.398 386.831C347.718 387.518 347.752 388.556 347.47 389.264C347.052 390.319 346.174 390.764 345.185 391.197L344.903 391.137C343.662 390.866 342.801 390.531 342.136 389.4C341.773 388.785 341.611 388.018 341.816 387.323C342.191 386.055 343.074 385.576 344.153 384.983Z" fill="#FEFEFE"/>
<path d="M320.316 377.93C323.48 377.781 326.542 378.718 329.049 380.638C332.277 383.118 334.852 387.255 335.287 391.324C335.658 394.825 334.776 398.36 332.507 401.094C330.03 404.078 326.409 405.879 322.563 406.273C319.211 406.239 315.74 405.273 312.935 403.408C309.792 401.323 307.613 397.889 306.952 394.206C306.3 390.582 307.468 386.577 309.579 383.601C312.24 379.846 315.966 378.667 320.316 377.93Z" fill="#FEFEFE"/>
<path d="M316.811 386.56L317.229 386.072C317.075 385.555 316.93 385.14 316.678 384.665C316.389 384.118 316.333 383.627 316.282 383.02C317.096 383.571 317.723 384.042 318.359 384.805C318.589 385.085 318.806 385.25 319.105 385.453C320.299 385.352 322.004 384.991 323.075 385.534L323.326 386.072C322.525 386.861 320.593 386.632 319.39 386.763C318.231 386.89 317.774 387.217 316.947 387.975C316.853 388.806 316.823 389.493 316.99 390.315L317.194 390.48C319.804 392.498 326.166 389.709 326.725 394.147C326.814 394.838 326.593 395.478 326.145 396.007L325.471 396.703L324.955 397.203C325.083 397.677 325.254 398.084 325.458 398.525L324.964 399.144C324.401 399.021 324.111 398.614 323.736 398.216C322.627 398.254 321.015 398.521 320.005 398.063L319.608 397.466C320.422 396.775 322.132 396.804 323.22 396.664C322.554 395.444 321.928 393.998 320.943 393.011C319.284 392.884 317.796 392.951 316.538 391.743L316.495 391.705C315.868 390.976 315.357 389.959 315.369 388.984C315.382 387.886 316.077 387.267 316.811 386.555V386.56Z" fill="#0AB871"/>
<path d="M32.3055 413.009C32.4889 412.839 32.5998 412.682 32.6637 412.428C33.0603 410.881 32.6936 408.016 32.6978 406.324V386.475C32.7021 383.512 32.0284 378.481 33.4313 375.887C34.2969 374.285 35.8832 373.204 37.6485 372.78C39.4182 372.352 41.6825 372.611 43.5161 372.611H55.2852L75.6636 372.67C78.7083 372.691 82.1239 372.445 85.1258 372.848C86.4605 373.026 87.9786 373.899 89.1256 374.577C91.117 375.531 92.7715 377.04 93.5049 379.163C94.0635 380.778 93.9825 383.012 93.8674 384.703C93.9356 388.548 93.603 412.309 94.3578 413.356L96.0379 413.916C94.5752 413.814 93.2107 413.844 91.7481 413.983L91.3174 413.038C86.8187 413.297 83.2368 415.153 80.2604 418.506C77.348 421.782 76.1625 426.267 76.461 430.573L76.7894 433.095C75.5784 433.235 73.8173 431.459 72.7512 430.696C60.7092 422.109 46.6246 416.518 32.3055 413.009Z" fill="#79ABF7"/>
<path d="M42.6585 398.351L70.7637 398.542C71.3564 399.233 71.318 399.373 71.4118 400.242C70.9385 400.873 70.9129 400.924 70.1667 401.166L41.8441 401.102C41.1703 400.437 41.1703 400.39 41.068 399.449C41.6522 398.771 41.8185 398.665 42.6628 398.351H42.6585Z" fill="#1C44BB"/>
<path d="M89.1255 374.577C91.1168 375.531 92.7713 377.04 93.5048 379.163C94.0634 380.778 93.9824 383.012 93.8672 384.703C93.9355 388.548 93.6029 412.309 94.3576 413.356L96.0377 413.916C94.5751 413.814 93.2106 413.843 91.7479 413.983L91.3173 413.038C91.7181 406.244 91.4111 399.225 91.4111 392.405L91.3983 384.313C91.394 382.614 91.5092 380.816 91.1851 379.142C90.8482 377.409 89.9527 376.294 89.2022 374.751L89.1212 374.581L89.1255 374.577Z" fill="#213078"/>
<path d="M42.2837 389.345L71.3441 389.404H79.4886C80.2477 389.404 81.9448 389.264 82.6271 389.539C82.8573 389.633 83.0279 389.836 83.2283 389.98C83.4927 390.646 83.4202 390.803 83.2923 391.485L82.448 392.053C78.4397 392.091 43.4265 392.532 42.1046 391.964C41.8573 391.858 41.6612 391.663 41.4394 391.51C41.3669 391.265 41.303 391.104 41.2945 390.837C41.2689 390.12 41.8104 389.768 42.2795 389.345H42.2837Z" fill="#1C44BB"/>
<path d="M271.347 211.866C278.562 210.98 286.787 213.816 292.429 218.216C298.748 223.141 302.825 230.567 303.707 238.489C304.594 246.445 302.339 254.511 297.204 260.746C291.883 267.209 284.591 271.126 276.229 271.906C268.345 272.389 260.865 270.744 254.533 265.802C247.941 260.657 243.847 253.256 242.9 245.003C242.022 237.349 244.529 229.206 249.403 223.247C254.998 216.401 262.596 212.722 271.351 211.866H271.347Z" fill="#0AB871"/>
<path d="M285.827 231.868L287.222 231.932C287.802 232.237 288.399 232.568 288.556 233.258C288.731 234.03 288.573 234.424 288.143 235.06C287.486 236.039 286.241 236.95 285.363 237.756L280.045 242.749C276.813 245.843 273.772 249.314 270.357 252.196C269.862 252.616 269.483 252.815 268.839 252.955C267.41 252.247 266.336 250.789 265.244 249.649L259.812 244.105L257.313 241.562C256.857 240.892 257.074 240.4 257.27 239.705C257.906 239.019 258.306 238.777 259.227 238.586C260.605 238.976 261.662 240.485 262.66 241.486L269.15 248.004L279.043 238.328C281.124 236.242 283.111 233.763 285.533 232.067L285.823 231.868H285.827Z" fill="#FEFEFE"/>
<path d="M285.917 405.697L286.825 405.722L302.824 405.68L302.833 417.438C302.833 418.48 302.573 420.464 303.089 421.299L303.929 421.583C305.366 422.833 310.551 422.905 312.551 422.621C312.896 422.575 313.114 422.439 313.408 422.27C314.636 423.13 315.719 422.935 317.199 422.982L326.631 423.024L338.515 423.13L338.549 432.362C338.549 433.82 338.758 435.515 338.404 436.918L337.001 437.232C336.635 440.157 336.814 443.289 336.775 446.243C336.763 447.332 336.976 448.863 336.417 449.787L334.81 449.914C334.341 450.575 334.375 462.201 334.562 463.693C334.605 464.041 334.626 464.071 334.712 464.355L336.537 464.588C336.869 465.681 336.703 467.097 336.703 468.237L336.686 475.434L329.548 475.468C328.546 475.468 327.527 475.634 326.669 475.053C325.518 475.354 324.286 475.261 323.1 475.261C322.721 471.649 323.582 467.665 322.9 464.13L321.51 463.511L321.019 463.465L320.61 462.888V450.138C317.263 450.189 298.035 450.651 296.517 449.994L296.189 449.842L296.236 449.587L295.413 448.316C294.944 447.409 295.085 447.116 295.366 446.192C294.867 446.442 294.564 446.57 294.006 446.586L293.481 446.603L293.166 446.692C292.3 446.917 291.149 446.794 290.245 446.794C288.334 446.794 286.659 446.926 284.817 446.506C283.068 446.103 281.201 447.032 279.525 446.01C277.431 446.336 275.111 446.15 272.988 446.15H261.04C259.939 446.15 257.078 445.853 256.2 446.366L255.91 446.485C255.01 446.807 254.49 446.773 253.624 446.383C253.121 445.561 253.296 444.446 253.296 443.505C253.296 441.165 252.963 438.147 253.373 435.88C253.518 435.066 254.426 434.837 255.095 434.49C254.43 432.947 254.656 423.139 254.767 420.909C255.726 420.121 256.622 420.608 257.53 419.985C257.168 419.638 256.954 419.565 256.498 419.392L256.306 419.32C255.765 415.051 256.149 410.046 256.34 405.726L285.904 405.701L285.917 405.697Z" fill="#FCB416"/>
<path d="M284.983 434.451C287.533 434.621 290.105 434.557 292.659 434.557C293.243 434.557 294.629 434.401 295.034 434.727C292.974 434.875 290.911 434.841 288.847 434.837C287.747 434.837 286.57 434.947 285.504 434.659L285 434.706L284.983 434.451Z" fill="#F2852B"/>
<path d="M295.375 446.188L296.364 446.387C296.739 445.624 296.607 444.501 296.62 443.658L296.692 437.452L322.132 437.44L322.201 449.63L304.338 449.659C301.771 449.664 298.765 449.96 296.24 449.583L295.417 448.312C294.948 447.405 295.089 447.112 295.371 446.188H295.375Z" fill="#FDC719"/>
<path d="M303.925 421.579C305.362 422.829 310.547 422.901 312.547 422.617C312.892 422.571 313.11 422.435 313.404 422.265C314.632 423.126 315.715 422.931 317.195 422.978L326.627 423.02C325.855 423.168 325.058 423.194 324.273 423.257C323.723 424.054 324.184 435.147 324.201 436.969L296.279 436.897C295.934 436.482 295.55 435.994 295.413 435.46C295.149 434.434 295.328 432.993 295.332 431.925L295.392 422.901C296.663 422.91 298.739 423.181 299.908 422.808C300.351 422.664 300.739 422.664 301.204 422.622C302.36 422.516 303.157 422.465 303.92 421.579H303.925Z" fill="#FDC719"/>
<path d="M285.917 405.697L286.825 405.722C287.217 407.367 287.077 409.151 287.081 410.834L287.094 419.684L266.745 419.735C264.012 419.735 260.664 419.379 258.029 419.883L284.825 420.095L284.979 434.456L284.996 434.71L285.499 434.663C285.9 436.003 285.767 437.491 285.776 438.877L285.793 446.036C284.258 446.502 281.145 446.281 279.533 446.01C277.44 446.337 275.12 446.15 272.996 446.15H261.048C259.948 446.15 257.087 445.853 256.208 446.366L255.918 446.485C255.019 446.807 254.498 446.773 253.633 446.383C253.129 445.561 253.304 444.446 253.304 443.505C253.304 441.165 252.972 438.148 253.381 435.88C253.526 435.066 254.434 434.837 255.104 434.49C254.439 432.947 254.665 423.139 254.775 420.909C255.735 420.121 256.63 420.608 257.539 419.985C257.176 419.638 256.963 419.566 256.507 419.392L256.315 419.32C255.773 415.051 256.157 410.046 256.349 405.727L285.912 405.701L285.917 405.697Z" fill="#FDC719"/>
<path d="M85.5733 472.302C83.3346 473.921 80.8571 475.35 78.2389 476.261C69.4035 479.347 59.4808 477.384 51.2766 473.396C47.1233 471.374 43.4262 468.615 39.9637 465.597C23.4784 451.224 14.5876 429.289 7.73083 409.113L32.301 413.008C46.6243 416.518 60.7046 422.109 72.7467 430.696C73.8084 431.459 75.5738 433.235 76.7848 433.095C78.5417 438.253 81.1684 442.272 86.2641 444.755C87.4239 445.319 90.0421 446.29 91.283 445.735L91.5943 445.574C91.9397 447.303 92.4812 448.914 93.074 450.575L93.543 450.677C93.5388 452.368 93.8159 454.013 93.8245 455.678C93.8372 458.917 93.0484 461.896 91.5517 464.762C90.3961 466.974 88.8524 468.848 87.2235 470.725C86.9975 470.984 86.9933 470.852 87.134 471.107C86.4986 471.459 86.0466 471.751 85.5733 472.302Z" fill="#0AB871"/>
<path d="M318.858 110.14C326.533 109.182 336.085 111.793 342.302 116.311C349.952 121.872 355.82 130.176 357.21 139.615C358.681 149.606 356.685 159.664 350.511 167.848C344.178 176.237 335.825 180.607 325.463 182.065C316.261 182.501 307.003 180.78 299.669 174.872C292.326 168.959 287.064 159.973 286.105 150.563C285.098 140.734 287.874 130.68 294.236 123C300.462 115.485 309.148 111.085 318.858 110.136V110.14Z" fill="#FCB416"/>
<path d="M320.824 119.677C327.071 119.338 333.049 121.351 337.953 125.162C343.347 129.349 347.24 135.576 348.055 142.391C348.916 149.589 347.193 156.921 342.562 162.648C337.424 169.001 331.194 171.905 323.143 172.765C316.513 172.943 310.496 171.129 305.353 166.861C299.729 162.194 296.057 155.069 295.507 147.813C294.974 140.798 297.831 133.817 302.364 128.552C307.208 122.919 313.502 120.245 320.828 119.681L320.824 119.677Z" fill="#FEFEFE"/>
<path d="M319.194 125.73C324.277 125.255 328.912 126.145 333.194 128.985C337.888 132.104 341.078 136.775 342.11 142.302C343.129 147.753 341.824 153.679 338.648 158.24C335.411 162.889 330.567 165.683 325.023 166.687C319.732 167.221 315.045 166.348 310.559 163.372C306.099 160.418 302.833 155.658 301.839 150.411C300.756 144.697 301.912 138.916 305.297 134.135C308.606 129.464 313.608 126.7 319.194 125.725V125.73Z" fill="#FCB416"/>
<path d="M320.542 131.464L322.414 131.511C323.263 132.261 322.939 133.321 323.216 134.398C324.832 134.643 326.943 135.139 328.239 136.22C328.917 136.784 329.071 136.962 329.135 137.818C328.653 138.598 328.248 139.077 327.48 139.586C326.052 138.785 325.148 137.937 323.48 137.581L323.071 137.975C323.067 139.429 323.054 144.269 323.054 144.273C323.199 144.405 324.606 144.566 324.862 144.625C326.563 144.998 328.448 146.016 329.42 147.516C330.392 149.016 330.695 151.11 330.247 152.831C329.629 155.218 327.838 157.019 325.399 157.583C324.597 157.769 323.855 157.663 323.118 158.112L322.947 161.058C322.312 161.219 321.728 161.211 321.079 161.202C319.834 160.249 320.973 159.007 320.346 158.193C320.308 158.142 319.272 157.901 319.156 157.871C317.438 157.4 315.058 156.951 313.924 155.485L313.813 155.336C313.903 154.26 314.777 153.459 315.421 152.594C317.084 153.696 318.819 154.408 320.713 155.031C320.726 152.713 320.977 150.055 320.645 147.779C319.681 147.711 318.73 147.63 317.822 147.279C316.176 146.647 314.956 145.227 314.329 143.612C313.698 141.98 313.92 139.827 314.709 138.297C315.954 135.873 317.933 135.258 320.346 134.44L320.542 131.473V131.464Z" fill="#FEFEFE"/>
<path d="M320.614 137.551C321.002 138.183 320.794 139.094 320.785 139.836L320.747 144.981L318.568 143.701C318.047 143.188 317.634 142.752 317.331 142.078C317.015 141.374 317.071 140.743 317.386 140.039C318.013 138.64 319.297 138.115 320.619 137.551H320.614Z" fill="#FCB416"/>
<path d="M323.101 147.546C323.813 147.787 324.627 148.016 325.258 148.427C326.056 148.944 326.674 150.017 326.759 150.958C326.862 152.06 326.312 152.823 325.672 153.662C324.977 154.145 324.252 154.446 323.476 154.772L323.071 154.404L323.097 147.541L323.101 147.546Z" fill="#FCB416"/>
<path d="M43.3197 109.873L43.5969 109.835C52.7265 109.03 62.2015 112.047 69.2971 117.74C76.8574 123.809 81.9105 133.096 82.8913 142.705C83.8805 152.356 80.9041 162.737 74.6742 170.281C68.2737 178.03 59.6046 182.319 49.6392 183.311C40.6845 183.997 31.4611 181.531 24.3826 175.987C16.3403 169.688 11.0144 160.74 9.87584 150.563C8.76289 140.607 11.7137 130.829 18.0673 123.076C24.455 115.277 33.2989 110.882 43.324 109.873H43.3197Z" fill="#3A7DDF"/>
<path d="M44.1812 119.406C50.957 119.058 57.4342 120.821 62.9393 124.814C68.6362 128.943 72.5891 135.669 73.604 142.574C74.6658 149.775 72.8066 157.282 68.3761 163.101C63.4766 169.536 56.5089 173.049 48.5648 174.109C41.6781 174.325 35.4268 172.566 29.8664 168.459C23.3848 163.669 20.0417 157.04 18.9671 149.182C18.0759 142.654 20.4553 135.08 24.4679 129.939C29.4826 123.517 36.22 120.389 44.1812 119.41V119.406Z" fill="#F77E50"/>
<path d="M44.6797 132.435C45.4686 132.435 46.5858 132.312 47.3065 132.63C47.6519 132.783 47.6135 134.334 47.767 134.86C48.6028 135.012 49.4257 135.169 50.2018 135.538C51.7582 136.284 53.1612 137.691 53.643 139.37C53.8818 140.2 54.0993 141.637 53.707 142.421C52.901 142.481 51.771 142.718 51.0419 142.349L50.9225 141.29C50.867 140.836 50.8244 140.391 50.6154 139.976C50.0526 138.869 48.978 138.437 47.8437 138.123L47.4941 138.505C47.4855 140.751 47.2041 143.472 47.5836 145.66C49.042 145.753 50.7007 146.071 51.9544 146.855C53.3104 147.703 54.0183 149.093 54.3637 150.602C54.8242 152.619 54.6025 154.798 53.4085 156.544C52.368 158.07 50.6837 159.075 48.8842 159.427C48.3597 159.528 47.9802 159.596 47.5111 159.872L47.3662 161.686L46.6029 162.241L45.0379 161.902C44.4111 161.355 44.62 160.592 44.3727 159.795C42.6031 159.499 40.5989 158.948 39.277 157.672C37.9722 156.417 37.2515 154.726 37.2558 152.933C37.2558 152.195 37.1577 151.886 37.7078 151.339L39.7077 151.263C39.7461 151.271 40.2748 151.39 40.3516 151.492C40.3985 151.551 40.4028 152.484 40.4113 152.611C40.4838 153.738 40.5904 154.658 41.3835 155.531C42.117 156.341 43.1958 156.591 44.2405 156.68L44.5816 156.26C44.5816 155.396 44.7991 148.783 44.5987 148.555C44.5603 148.512 43.3024 148.283 43.1489 148.245C41.7033 147.902 40.2492 147.44 39.26 146.261C38.1811 144.977 37.7249 143.188 37.9125 141.535C38.211 138.865 39.5883 136.428 42.2406 135.483C43.038 135.199 43.9633 135.169 44.6413 134.643L44.6797 132.439V132.435Z" fill="#FEFEFE"/>
<path d="M43.6569 137.979C44.2538 138.034 44.3732 137.907 44.7826 138.378C44.8082 140.607 45.0129 143.006 44.7016 145.21C43.9852 145.384 43.2219 145.062 42.5311 144.863C42.1004 144.553 41.7422 144.218 41.431 143.786C40.8297 142.947 40.7743 141.963 41.0045 140.984C41.3713 139.429 42.4075 138.801 43.6569 137.979Z" fill="#F2852B"/>
<path d="M47.422 148.504C48.1042 148.618 48.7481 148.788 49.375 149.093C50.2662 149.529 51.0892 150.445 51.3322 151.415C51.7373 153.026 51.2512 154.154 50.3515 155.455C49.456 156.112 48.4454 156.409 47.4049 156.769L47.4177 148.499L47.422 148.504Z" fill="#F2852B"/>
<path d="M136.121 205.415C135.469 202.054 134.317 198.807 133.571 195.467C132.138 189.024 133.013 181.552 135.025 175.33C137.498 167.687 142.466 159.388 149.937 155.658C153.387 153.933 156.504 154.213 160.069 155.421C159.016 150.797 159.041 145.808 160.551 141.298C162.35 135.919 166.226 131.104 171.382 128.569C175.829 126.382 181.368 126.052 186.046 127.671C191.884 129.693 195.295 133.393 197.883 138.784L198.907 136.83C200.796 133.609 204.049 130.757 207.742 129.85C210.612 129.146 213.49 129.828 215.951 131.354C221.055 134.52 224.074 141.451 225.417 147.05C230.513 145.999 232.803 143.854 236.27 140.183C238.572 145.935 239.826 152.246 238.674 158.426C237.301 165.78 233.272 172.532 226.863 176.618C225.809 177.292 224.701 177.945 223.549 178.441C222.752 178.784 221.814 179.03 221.11 179.547L220.808 179.78C219.196 180.259 217.609 180.645 215.951 180.929C215.123 181.069 214.04 181.073 213.328 181.501C205.154 182.158 197.994 180.844 190.212 178.36C181.556 175.597 171.514 167.344 163.723 176.673C156.602 185.197 157.698 198.646 155.924 208.98C155.084 205.258 154.619 201.736 151.067 199.507C148.995 198.21 146.539 198.146 144.236 198.79C141.989 199.418 140.066 200.952 138.565 202.685C138.01 203.325 136.919 205.36 136.245 205.572L136.117 205.428L136.121 205.415Z" fill="#213078"/>
<path d="M47.9546 248.589L51.1442 247.195L67.7063 280.743L75.7101 297.092C76.8572 299.385 77.9147 302.038 79.3944 304.128C80.4263 305.586 82.1448 306.849 83.8249 307.472C86.7885 308.57 89.4365 307.811 92.1613 306.539L150.858 280.748L150.708 280.938C149.301 282.727 147.519 284.185 146.069 285.936C141.766 291.136 139.451 297.024 137.413 303.36C136.266 308.862 134.986 314.351 134.458 319.955L134.053 328.224C134.031 329.589 134.291 331.543 133.916 332.785L125.337 336.46L95.1633 348.612C90.4898 350.477 85.2875 353.206 80.3112 353.969C76.6866 354.524 72.8276 353.969 69.4461 352.579C65.2885 350.862 62.0861 348.116 59.5916 344.398C57.8518 341.809 56.6237 338.664 55.4169 335.794L50.2957 323.74L34.7997 287.343L23.1755 260.165L26.5613 258.512L47.9418 248.598L47.9546 248.589Z" fill="#3A7DDF"/>
<path d="M137.417 303.356C136.27 308.858 134.991 314.347 134.462 319.95L134.057 328.22C134.036 329.584 134.296 331.538 133.92 332.78L125.341 336.455C125.708 334.192 126.791 331.797 127.614 329.652L131.098 320.277L134.564 310.689C135.43 308.192 136.159 305.692 137.417 303.356Z" fill="#213078"/>
<path d="M136.121 205.415L136.249 205.559C136.927 205.347 138.014 203.313 138.569 202.673C140.069 200.939 141.993 199.405 144.24 198.777C146.543 198.133 149.003 198.192 151.071 199.494C154.623 201.723 155.088 205.245 155.928 208.967C157.698 198.633 156.606 185.184 163.727 176.66C171.522 167.331 181.56 175.584 190.216 178.347C197.994 180.831 205.154 182.149 213.332 181.488C214.475 185.896 215.14 190.449 215.515 194.984C215.733 197.612 215.469 201.24 216.245 203.711L216.837 218.559C217.106 223.348 217.464 228.007 216.445 232.745C215.315 237.984 212.475 242.914 208.701 246.712C205.448 249.988 201.589 252.23 197.107 253.383C197.623 258.618 197.188 264.183 197.269 269.456C197.278 270.032 197.12 272.139 197.333 272.558C197.427 272.745 197.657 272.826 197.815 272.957C197.295 273.949 197.602 275.932 197.504 277.094C197.371 278.692 196.774 280.311 195.969 281.697C194.297 284.579 191.299 286.97 188.029 287.775L187.658 287.86C184.749 288.576 181.841 288.428 178.993 287.525C174.081 285.965 170.025 281.998 168.921 276.924C168.703 275.924 168.81 274.322 168.307 273.461L168.158 273.224C167.599 271.181 167.842 268.379 167.804 266.23L167.735 248.059C164.806 245.961 162.03 243.495 159.604 240.841C152.129 236.768 146.248 230.139 142.398 222.645C142.035 222.242 141.217 221.835 140.76 221.5C138.458 219.822 136.91 218.093 135.78 215.469C134.313 212.07 134.79 208.755 136.121 205.415Z" fill="#F8A777"/>
<path d="M147.783 213.129L147.928 213.875L147.007 214.905C145.89 215.011 145.161 214.914 144.227 214.261C143.233 213.57 142.692 212.54 142.474 211.375C142.18 209.806 142.513 208.441 143.447 207.149C144.009 206.373 144.922 205.771 145.89 205.669C146.811 205.576 147.604 205.869 148.303 206.454C149.067 207.085 149.553 207.95 149.6 208.942C149.668 210.408 149.058 211.612 148.03 212.638L147.847 212.811L147.63 212.608C147.25 212.243 146.837 211.879 146.611 211.4C146.112 210.345 147.037 208.624 145.664 208.064C145.135 208.31 144.811 208.547 144.598 209.124C144.338 209.832 144.316 211.108 144.73 211.765L145.131 212.273L146.269 212.154L147.775 213.129H147.783Z" fill="#F2852B"/>
<path d="M203.013 189.728C204.966 189.69 207.009 190.143 208.829 190.838C210.591 191.512 213.192 192.759 213.993 194.539C213.917 195.454 213.315 195.963 212.727 196.611C210.97 195.734 209.239 194.869 207.333 194.365C206.07 194.034 203.606 193.984 202.599 193.276C202.083 192.915 201.853 192.381 201.823 191.758C201.781 190.834 202.446 190.351 203.013 189.728Z" fill="#091552"/>
<path d="M174.597 190.088C175.045 190.126 175.488 190.258 175.927 190.36C176.609 191.038 176.703 191.228 176.968 192.152C176.78 192.869 176.691 193.407 175.991 193.827C175.074 194.378 173.522 194.475 172.469 194.823C170.772 195.382 169.284 196.26 167.761 197.175L166.729 197.23C166.239 196.989 165.804 196.696 165.663 196.133C165.535 195.624 165.442 194.933 165.697 194.467C166.926 192.225 172.269 190.618 174.597 190.084V190.088Z" fill="#091552"/>
<path d="M173.88 204.046C174.87 204.008 175.62 204.093 176.383 204.746C177.467 205.678 177.82 207.34 177.889 208.709C177.995 210.904 177.309 212.392 175.876 213.973C174.895 213.981 174.111 213.973 173.394 213.231C172.384 212.189 172.043 210.535 171.97 209.137C171.855 207.009 172.499 205.593 173.88 204.046Z" fill="#091552"/>
<path d="M203.623 203.978C204.471 203.974 205.286 204.008 205.908 204.601C207.03 205.665 207.644 207.458 207.61 208.992C207.563 211.141 206.893 212.684 205.316 214.104L205.119 214.13C204.313 214.18 203.772 214.053 203.171 213.523C202.028 212.519 201.546 210.756 201.508 209.281C201.448 207.098 202.126 205.555 203.623 203.978Z" fill="#091552"/>
<path d="M142.398 222.645C145.417 222.98 146.879 223.616 149.894 222.331C151.536 226.494 153.267 230.639 155.548 234.505C156.798 236.624 158.555 238.642 159.604 240.841C152.129 236.768 146.248 230.139 142.398 222.645Z" fill="#213078"/>
<path d="M169.339 249.302L169.548 249.386C171.258 250.081 172.772 251.141 174.469 251.853C181.901 254.973 189.146 255.367 196.958 253.515L196.971 263.887C186.895 261.589 176.699 256.617 169.335 249.306L169.339 249.302Z" fill="#F2852B"/>
<path d="M180.425 223.213L203.831 223.4C203.623 227.494 203.307 230.525 200.301 233.61C198.77 234.954 197.098 236.115 195.111 236.662C192.199 237.463 189.137 237.086 186.515 235.607C183.696 234.021 181.841 231.788 180.937 228.71C180.408 226.901 180.451 225.082 180.43 223.213H180.425Z" fill="#FEFEFE"/>
<path d="M212.641 279.485C214.066 279.824 215.353 280.616 216.684 281.21L224.099 284.338L260.149 299.664L273.977 305.861C275.883 306.688 277.973 307.803 279.973 308.324C281.448 308.71 283.376 308.515 284.813 308.057C286.744 307.438 288.991 305.819 290.143 304.162C291.166 302.691 291.883 300.72 292.654 299.092L296.859 290.535L318.146 247.805C319.374 248.072 320.636 248.742 321.796 249.238L343.633 258.796L346.285 259.966L340.426 274.089L323.945 314.165L315.843 334.094C314.235 337.969 312.781 342.182 310.5 345.712C308.423 348.93 305.127 351.566 301.63 353.13C295.507 355.868 289.567 355.588 283.401 353.223L240.248 335.4L234.794 332.831C234.542 331.818 234.683 330.483 234.67 329.436L234.572 322.769C234.325 314.372 232.043 306.039 228.824 298.321C225.737 292.76 222.509 287.737 217.656 283.528C216.1 282.176 214.36 281.065 212.838 279.688L212.633 279.497L212.641 279.485Z" fill="#3A7DDF"/>
<path d="M228.832 298.308C233.945 303.903 240.947 327.118 240.691 334.506L240.627 335.12L240.256 335.391L234.802 332.823C234.551 331.81 234.691 330.475 234.679 329.428L234.58 322.76C234.333 314.364 232.052 306.031 228.832 298.312V298.308Z" fill="#213078"/>
<path d="M182.46 13.8012L190.464 13.8859C191.108 13.8944 192.297 13.7376 192.86 13.9241C193.09 14.0004 193.449 14.331 193.662 14.4793C194.144 16.0858 192.391 18.3195 191.679 19.7437C191.018 21.0619 190.523 22.4564 190.02 23.8381C190.225 24.2323 191.79 24.245 192.34 24.3086C201.337 25.3979 208.203 29.2296 215.379 34.4685C215.84 32.2178 216.053 27.7249 217.784 26.2584C218.965 26.4237 219.43 26.8942 220.317 27.6783L224.394 31.5185C224.82 31.9381 225.707 32.718 225.967 33.2648C226.04 33.4173 226.006 33.9429 226.018 34.1379C225.259 35.1297 224.138 35.4985 223.055 36.0495L218.982 38.2663C222.479 42.6744 225.494 47.3369 227.182 52.7496C228.082 55.6318 228.5 58.6836 228.961 61.6633L236.709 59.7432C237.429 59.9721 237.382 59.9679 237.758 60.6291V66.8937C237.749 67.6991 237.886 68.9706 237.681 69.7251C237.638 69.8735 237.229 70.2719 237.109 70.416C235.638 70.8568 231.05 68.9579 229.357 68.4832C229.212 71.1026 229.016 73.8026 228.428 76.3627C226.965 82.7249 223.835 88.341 220.125 93.6477C222.304 95.2584 224.632 96.797 226.483 98.7806L225.724 99.658C224.172 101.273 221.012 104.973 218.846 105.037C217.887 104.393 217.281 103.189 216.637 102.239C215.891 101.142 215.064 100.116 214.215 99.0901C207.508 105.071 200.126 107.466 191.453 109.106C192.446 110.937 193.965 113.116 194.459 115.129C194.677 116.019 194.596 116.222 194.148 117.002C192.643 117.901 189.189 117.452 187.393 117.447L184.067 117.469C183.3 117.35 183.078 116.896 182.711 116.311C182.865 113.972 184.622 111.208 185.679 109.106C179.228 108.508 172.763 106.851 167.271 103.312C165.706 102.303 163.591 100.188 161.889 99.7386C160.103 101.158 159.182 102.845 157.638 104.388C157.054 104.973 156.9 104.999 156.077 104.999C154.329 103.439 151.95 101.582 150.598 99.7174C150.201 99.1706 150.291 99.0095 150.368 98.3737C151.553 96.886 155.033 95.4067 156.747 94.3259C155.937 92.5118 153.954 90.5874 152.858 88.7903C148.777 82.1018 147.11 74.7606 146.79 67.0336C145.558 67.3388 144.266 67.6058 143.084 68.0721C141.494 68.6951 139.694 69.8565 137.946 69.6742C137.4 69.2292 137.089 69.0681 137.038 68.3052C136.923 66.5758 137.17 64.6642 137.213 62.9222C137.238 61.854 137.115 60.379 137.426 59.3745C137.545 58.993 137.835 58.7005 138.1 58.4123C139.822 57.7341 142.445 60.396 143.95 61.2734C144.828 61.7862 145.814 62.1423 146.769 62.4898C147.182 60.6461 147.306 58.7514 147.715 56.9034C149.451 49.062 152.713 43.3568 157.642 37.1049C155.566 36.3801 151.536 35.8291 149.933 34.4812C149.357 33.9938 149.404 33.8158 149.336 33.074C149.937 31.8406 151.101 30.942 152.061 29.9799L155.229 26.7161C155.723 26.2499 156.274 25.8727 156.973 25.8811C158.956 27.0044 160.081 32.1246 160.892 34.2735C168.145 27.8139 176.443 24.9995 185.995 23.872C185.573 22.4394 185.133 21.0576 184.404 19.7437C183.645 18.3661 182.532 16.9377 182.021 15.4627C181.799 14.8311 182.195 14.3818 182.468 13.7969L182.46 13.8012Z" fill="#FDC719"/>
<path d="M203.9 52.8725C204.889 52.4571 205.699 52.6648 206.718 52.8259C208.505 54.7799 212.859 58.2174 212.688 60.9682C212.654 61.532 212.556 62.1042 212.236 62.5831C211.413 63.8208 210.096 64.9737 209.064 66.0418L202.676 72.565L193.337 82.034C191.87 83.4879 190.421 85.1028 188.826 86.421C188.173 86.9593 187.585 87.3195 186.728 87.4297C185.739 87.1373 184.941 86.6626 184.063 86.1497L209.149 60.9216C209.669 60.2222 209.592 59.5992 209.477 58.7726C208.189 56.6194 205.908 54.3645 203.9 52.8725Z" fill="#F2852B"/>
<path d="M185.099 70.2593L189.615 65.4909L198.489 56.4669C199.346 55.5895 201.18 53.2668 202.318 52.9023C202.659 52.7921 203.512 52.8811 203.896 52.8726C205.904 54.3646 208.181 56.6238 209.473 58.7727C209.588 59.595 209.665 60.2223 209.145 60.9217L184.059 86.1498L183.624 85.9209C181.986 85.0053 165.911 68.5215 165.68 67.661C167.13 65.6731 169.795 62.3374 171.957 61.176C172.563 60.8496 172.661 60.9174 173.296 61.087C174.14 60.7903 174.648 60.7098 175.531 60.892C177.014 61.8499 178.187 63.1639 179.419 64.4143L185.099 70.2593Z" fill="#FEFEFE"/>
<path d="M173.3 61.0869C174.144 60.7902 174.652 60.7097 175.535 60.892C177.019 61.8499 178.191 63.1639 179.424 64.4142L185.103 70.2592C184.622 70.7085 184.187 71.2172 183.53 71.3909L173.304 61.0869H173.3Z" fill="#F2852B"/>
<path d="M137.75 408.533C162.26 419.1 192.096 420.863 217.809 413.687C221.66 412.614 225.51 411.148 229.233 409.694L231.881 408.533L231.915 413.933L231.608 432.298L231.937 432.574C232.286 433.553 232.367 434.261 232.291 435.295L232.146 435.507C231.988 435.727 231.549 436.211 231.485 436.448C231.267 437.27 231.438 438.724 231.421 439.606L231.216 448.261L229.996 484.013L229.66 490.181L205.452 490.189L198.476 490.181C197.307 490.176 196.156 490.333 195.077 489.829C194.126 490.325 193.086 490.189 192.037 490.193L185.93 490.172L185.768 484.933C184.161 486.095 179.223 485.455 177.121 485.416L176.707 484.577L174.012 490.126L127.916 490.151L128.223 485.891C128.884 484.611 128.867 481.509 129.055 480.012L131.703 457.59L137.127 413.238L137.741 408.533H137.75Z" fill="#213078"/>
<path d="M176.716 484.577C177.603 483.411 178.251 481.792 178.933 480.491L183.27 472.065C183.709 471.192 184.69 468.615 185.479 468.288L185.777 484.933C184.17 486.095 179.232 485.455 177.129 485.416L176.716 484.577Z" fill="#FEFEFE"/>
<path d="M137.75 408.533C162.26 419.1 192.097 420.863 217.81 413.687C221.66 412.614 225.511 411.148 229.234 409.694L231.882 408.533L231.916 413.933L231.609 432.298L231.937 432.574C232.287 433.553 232.368 434.261 232.291 435.295L232.146 435.507C230.534 435.867 229.144 435.147 227.775 434.261C223.933 431.769 220.752 426.81 219.115 422.626C218.693 421.549 218.351 419.439 217.247 419.155C216.556 419.379 215.691 419.481 215.388 420.244L195.585 489.782L195.082 489.829C194.131 490.325 193.09 490.189 192.041 490.193L185.935 490.172L185.773 484.933L185.475 468.288C185.679 465.682 188.221 462.244 189.479 459.892L197.811 444.391L209.985 420.88C193.854 424.088 177.304 423.987 161.143 421.028C159.365 425.25 157.143 429.107 153.753 432.273C150.376 435.427 146.398 437.754 142.048 439.322C140.731 439.797 139.225 440.369 137.81 440.318L137.409 439.886C137.332 439.432 137.098 438.758 137.503 438.389C138.049 437.893 140.223 437.397 140.999 437.118C142.726 436.499 144.428 435.761 146.031 434.871C152.18 431.468 155.702 426.742 158.853 420.638C152.27 418.994 145.843 417.298 139.673 414.399C138.871 414.022 138.074 413.801 137.307 413.344L137.132 413.238L137.746 408.533H137.75Z" fill="#091552"/>
<path d="M231.937 432.574L230.977 432.955L229.643 432.4C228.641 431.858 227.745 430.857 226.948 430.048C223.498 426.555 221.788 422.787 220.274 418.218C224.215 417.048 228.27 415.844 231.92 413.933L231.613 432.298L231.941 432.574H231.937Z" fill="#213078"/>
<path d="M195.081 489.829L195.585 489.782L215.387 420.244C215.69 419.481 216.556 419.379 217.247 419.155C218.351 419.439 218.692 421.549 219.114 422.626C220.752 426.81 223.933 431.769 227.775 434.261C229.139 435.147 230.529 435.867 232.146 435.507C231.988 435.727 231.549 436.211 231.485 436.448C231.267 437.27 231.438 438.724 231.421 439.606L231.216 448.261L229.996 484.014L229.66 490.181L205.452 490.189L198.476 490.181C197.307 490.176 196.156 490.333 195.077 489.829H195.081Z" fill="#213078"/>
<path d="M197.815 272.953L212.646 279.48L212.85 279.671C214.368 281.048 216.112 282.163 217.669 283.511C222.522 287.72 225.75 292.743 228.837 298.304C232.056 306.022 234.338 314.36 234.585 322.752L234.683 329.419C234.696 330.47 234.555 331.806 234.807 332.814L234.747 381.495L234.76 396.792C234.764 399.22 234.981 401.827 234.73 404.235C234.627 405.231 234.103 406.532 233.387 407.235L232.444 408.049L231.886 408.524L229.238 409.685C225.515 411.139 221.664 412.606 217.814 413.678C192.101 420.854 162.264 419.091 137.754 408.524C137.046 408.121 136.287 407.672 135.682 407.121C134.773 406.295 134.181 405.065 134.036 403.857C133.741 401.407 133.98 398.737 133.989 396.262L134.031 381.134L133.925 332.78C134.3 331.534 134.04 329.585 134.061 328.22L134.466 319.95C134.995 314.347 136.27 308.858 137.421 303.356C139.46 297.019 141.775 291.136 146.078 285.931C147.528 284.177 149.31 282.718 150.717 280.934L150.866 280.743C154.116 279.073 157.57 277.802 160.926 276.352C163.352 275.305 165.625 274 168.162 273.224L168.311 273.461C168.814 274.322 168.708 275.92 168.925 276.924C170.03 281.998 174.085 285.965 178.997 287.525C181.846 288.428 184.754 288.576 187.662 287.86L188.033 287.775C191.304 286.97 194.301 284.575 195.973 281.697C196.779 280.311 197.376 278.692 197.508 277.094C197.606 275.932 197.299 273.949 197.819 272.957L197.815 272.953Z" fill="#E25146"/>
</g>
<defs>
<clipPath id="clip0_230_104">
<rect width="371" height="483" fill="white"/>
</clipPath>
</defs>
</svg>
