<?xml version="1.0" encoding="UTF-8"?>
<svg xmlns="http://www.w3.org/2000/svg" version="1.1" viewBox="0 0 1728 1218.46">
  <defs>
    <style>
      .cls-1 {
        fill: #0b2540;
      }

      .cls-2 {
        fill: #fc7038;
      }

      .cls-3 {
        fill: #e25f52;
      }

      .cls-4 {
        fill: #fff;
      }

      .cls-5 {
        fill: #1e4066;
      }

      .cls-6 {
        fill: #fd9837;
      }

      .cls-7 {
        fill: #d9eafc;
      }

      .cls-8 {
        fill: #204b78;
      }

      .cls-9 {
        fill: #ffa192;
      }

      .cls-10 {
        fill: #e9f5ff;
      }

      .cls-11 {
        fill: #e54e1a;
      }

      .cls-12 {
        fill: #bde0fe;
      }

      .cls-13 {
        fill: #ef9778;
      }

      .cls-14 {
        fill: #be7229;
      }

      .cls-15 {
        fill: #fcc047;
      }

      .cls-16 {
        fill: #f5b397;
      }
    </style>
  </defs>
  <!-- Generator: Adobe Illustrator 28.7.1, SVG Export Plug-In . SVG Version: 1.2.0 Build 142)  -->
  <g>
    <g id="Object">
      <g id="Object-2" data-name="Object">
        <circle class="cls-10" cx="1572.75" cy="713.8" r="71.43"/>
        <circle class="cls-10" cx="150.11" cy="630.93" r="115.49"/>
        <path class="cls-10" d="M1604.39,1157.2H77.42c-27.48-15.13-30.54-64.5-16.09-92.34,14.44-27.85,43.1-45.37,71.97-57.64,28.87-12.27,59.59-20.86,86.06-37.69,58.3-37.07,86.44-108.7,91.5-177.61,5.06-68.91-9.13-137.55-16.83-206.21-7.69-68.66-8.28-141.11,21.76-203.32,36.3-75.18,118.09-126.02,201.57-125.32s164.4,52.92,199.43,128.7c25.83,55.87,27.58,120.41,52.57,176.67,13.25,29.84,33.65,57.43,61.87,73.87,28.21,16.43,64.91,20.16,93.6,4.58,28.18-15.3,44.28-45.43,64.98-69.91,51.5-60.94,139.72-88.08,216.57-66.62,76.85,21.46,138.25,90.37,150.73,169.18,7.35,46.4-1.02,94.01,4.09,140.71,5.11,46.7,29.69,97.01,75.07,109.18,29.15,7.82,59.93-1.88,90.1-1.11,51.19,1.3,99.96,35.96,118.02,83.88,18.06,47.92-2.39,116.25-39.99,151.01Z"/>
        <g>
          <path class="cls-11" d="M195.37,1063.71l-53.44-36.07s-6.89-31.26-1.94-75.49l21.24,7.36-18.61-25.53c3.92-22.12,10.97-46.54,23.05-71.4l13.06,7.82-6.45-20.55c12.18-21.95,28.49-44.01,50.26-64.89,0,0,5.36,11.45,10.32,31.95l-10.67,25.97,14.46-7.53c8.5,49.59,9.41,131.79-41.27,228.36Z"/>
          <path class="cls-2" d="M187.93,1093.79l-63.09-11.32s-18.38-36.01-30.83-96.73l22.39-4.56-26.96-20.79c-4.9-31.33-7.81-67.72-6.24-108.03l15.04,1.48-13.84-22.39c2.77-36.59,9.31-76.07,21.32-117.65,0,0,9.34,11.3,21.79,34.63l.16,40.81,10.42-19.39c26.91,58.74,59.37,164.86,49.85,323.94Z"/>
          <path class="cls-6" d="M173.19,1084.73l52.67-2.9s17.98-19.34,33.1-52.98l-18-3.82,23.8-10.25c6.54-17.44,11.87-37.86,13.84-60.73h-12.45s13.16-11.89,13.16-11.89c.68-20.84-1.5-43.53-8-67.71,0,0-8.58,5.87-20.67,18.37l-3.42,23.07-6.99-11.54c-26.82,31.72-62,89.91-67.03,180.39Z"/>
          <path class="cls-6" d="M128.4,1084.73l-46.49-2.96s-15.87-19.78-29.22-54.21l15.89-3.91-21.01-10.49c-5.78-17.84-10.47-38.73-12.21-62.14h10.99l-11.62-12.17c-.6-21.33,1.33-44.54,7.06-69.27,0,0,7.57,6.01,18.25,18.79l3.02,23.6,6.17-11.81c23.67,32.45,54.73,91.99,59.17,184.56Z"/>
          <path class="cls-2" d="M104.28,1083.62c-.21,0-.39-.15-.42-.37-10.32-74.46-42.68-148.94-43.01-149.68-.09-.22,0-.47.22-.56.22-.09.47,0,.56.22.33.74,32.74,75.33,43.07,149.9.03.23-.13.45-.36.48-.02,0-.04,0-.06,0Z"/>
          <path class="cls-11" d="M153.92,1082.19c-.23,0-.42-.19-.43-.42-.03-1.45-2.99-146.21-25.51-226.66-.06-.23.07-.46.3-.53.22-.06.46.07.53.3,22.55,80.56,25.51,225.42,25.54,226.88,0,.24-.18.43-.42.43h0Z"/>
          <path class="cls-2" d="M192.67,1082.19s-.04,0-.06,0c-.23-.03-.4-.24-.37-.48.03-.2,2.72-20.57,10.15-48.09,6.85-25.4,19.25-62.26,39.4-93.62.13-.2.39-.26.59-.13.2.13.26.39.13.59-20.09,31.27-32.45,68.03-39.29,93.37-7.41,27.46-10.1,47.79-10.13,47.99-.03.21-.21.37-.42.37Z"/>
          <path class="cls-8" d="M241.03,1094.4l-10.16,54.45H76.97l-8.4-45.04,172.45-9.41h0Z"/>
          <path class="cls-1" d="M242.15,1088.38l-1.12,6.02h0l-172.45,9.41-2.88-15.43h176.45Z"/>
          <rect class="cls-8" x="59.11" y="1075.16" width="189.62" height="13.22"/>
        </g>
        <g>
          <path class="cls-2" d="M1477.63,690.31l90.84,225.76c.12-1.67,3.41-55.5-11.85-112.13l-17.63-10.86,14.99,1.69c-7.19-23.6-17.8-47.21-33.38-67.29l-8.04,10.3,3.08-16.38c-10.48-12.21-23.04-22.87-38.01-31.09Z"/>
          <path class="cls-1" d="M1569.24,1035.8c-1.52-25.65,10.17-64.32,10.29-64.71l1.91.58c-.12.38-11.71,38.72-10.21,64.01l-2,.12Z"/>
          <path class="cls-1" d="M1552.92,1039.73c-2.42-89.55-28.45-100.56-28.71-100.66l.7-1.87c1.12.41,27.55,11.2,30.02,102.48l-2,.05Z"/>
          <path class="cls-1" d="M1552.43,1037.31c-5.9-67.38,14.75-110.1,14.96-110.52l1.79.89c-.21.42-20.61,42.68-14.76,109.46l-1.99.17Z"/>
          <rect class="cls-8" x="1491.98" y="1007.08" width="142.77" height="34.86"/>
          <rect class="cls-8" x="1501.94" y="1041.94" width="122.85" height="110.81"/>
          <polygon class="cls-1" points="1624.78 1072.66 1501.94 1050.8 1501.94 1041.94 1624.78 1041.94 1624.78 1072.66"/>
          <path class="cls-6" d="M1627.25,746.14c.35,141.06-63.96,196.09-63.96,196.09-11.8-50.93-15.43-94.94-14.01-132.51l13.58,6.03-12.61-22.73c3.24-40.27,12.29-72.41,22.62-97.09l4.28,7.35v-17.06c17.72-37.95,37.24-55.3,37.24-55.3,6.7,32.17,10.47,61.45,12.02,88.06h0s-13.26,33.6-13.26,33.6l14.09-6.45Z"/>
          <path class="cls-6" d="M1531.99,945.8s-42.58-33.13-66.24-64.35c-11.72-15.46-21.11-55.98-27.61-92.94l15.03-8.17h-16.43c-5.74-34.29-8.84-63.53-8.84-63.53,83.26,42.58,104.09,228.98,104.09,228.98Z"/>
          <path class="cls-2" d="M1692.8,827.84l-116.38,154.21c.25-1.31,8.88-43.24,32.3-83.49l15.76-4.67-11.84-1.81c10.4-16.6,23.42-32.5,39.52-44.66l4.03,9.56,1.03-13.19c10.56-7.19,22.39-12.76,35.57-15.96Z"/>
        </g>
        <g>
          <rect class="cls-7" x="1128.57" y="37.62" width="404.95" height="242.11" rx="53.45" ry="53.45"/>
          <path class="cls-7" d="M1197.53,268.7s-.48,48.82-33.23,55.61c0,0,72.3,3.71,80.33-51.91l-47.1-3.71Z"/>
        </g>
        <g>
          <path class="cls-15" d="M363.99,1152.6c-28.86,3.14-56.28,4.7-82.22,4.7s-42.74-1.56-50.34-4.7c-7.61-3.13-11.41-8.06-11.41-14.77v-516.26c0-11.63,5.81-19.91,17.45-24.83,11.63-4.92,33.56-7.38,65.78-7.38h249.02c9.4,0,14.1,16.9,14.1,50.68s-2.13,59.52-6.38,77.19c-4.26,17.68-9.73,26.51-16.44,26.51l-136.26-6.71v45.64c59.51-2.69,99.34-4.03,119.48-4.03,6.71,0,11.3,3.59,13.76,10.74,2.45,7.16,3.69,20.92,3.69,41.28s-2.25,39.83-6.71,58.4c-4.48,18.57-10.74,27.86-18.79,27.86l-111.42-4.03v224.95c0,6.71-14.43,11.64-43.29,14.77Z"/>
          <path class="cls-15" d="M755.92,1149.91c-12.75,4.93-35.69,7.38-68.8,7.38s-60.75-3.02-82.9-9.06c-22.15-6.04-33.23-13.76-33.23-23.16,0-10.74,42.12-170.02,81.95-296.44,39.82-126.41,62.64-199.24,68.46-218.48,2.23-5.81,20.24-10.62,54.03-14.43,33.78-3.8,70.03-5.71,108.74-5.71s60.07,6.71,64.1,20.14c84.57,281.02,130.36,514.38,130.36,518.85s-2.69,8.96-8.06,13.42c-12.53,9.85-37.37,14.77-74.5,14.77-79.2,0-119.71-9.4-121.49-28.19l-8.2-134.24h-64.44l-25.57,128.3c-.9,12.98-7.72,21.93-20.47,26.85ZM852.3,867.23l-10.07-120.82h-14.77l-11.41,120.82h36.25Z"/>
          <path class="cls-15" d="M1068.43,816.22c0-41.16,6.15-76.96,18.46-107.4,12.3-30.43,29.42-54.59,51.35-72.49,43.4-35.34,99.11-53.03,167.13-53.03,28.19,0,53.13,1.79,74.84,5.37,21.7,3.59,43.18,10.4,64.44,20.47,21.25,10.07,38.59,23.39,52.02,39.94,30.43,37.15,45.64,89.94,45.64,158.41s-10.07,122.5-30.2,162.1c-20.14,39.6-48.33,66.57-84.57,80.88,20.14,33.11,30.2,52.36,30.2,57.72,0,9.84-4.93,18.23-14.77,25.17-9.85,6.93-22.38,11.97-37.59,15.1-28.19,5.81-51.91,8.73-71.15,8.73s-32.55-1.91-39.94-5.7c-7.38-3.81-13.54-11.53-18.46-23.16l-28.86-61.75c-54.6,0-98-20.24-130.22-60.75-32.22-40.49-48.33-103.7-48.33-189.62ZM1274.49,935.36c6.71,21.26,17,31.88,30.88,31.88s24.16-10.62,30.88-31.88c6.71-21.25,10.07-54.81,10.07-100.68s-1.79-78.75-5.37-98.67c-3.59-19.91-8.05-32.66-13.42-38.26-5.37-5.59-12.75-8.39-22.15-8.39s-16.78,2.69-22.15,8.05c-12.53,13.42-18.79,51.13-18.79,113.1s3.36,103.6,10.07,124.85Z"/>
        </g>
        <rect class="cls-8" x="34.63" y="1150.58" width="1609.56" height="27.45" rx="13.72" ry="13.72"/>
        <g>
          <path class="cls-1" d="M541.7,1117.22l45.27-20.31,9.81-4.4,7.28-3.26,3.65-1.64,2.51-4.17,3.14-5.21,4.01-6.64,8.9-14.76h79.55l5.41,49.27,1.28,25.27.98,19.39h-26.46s-151.39,0-151.39,0v-19.39s0-4.81,0-4.81c0-4.04,2.37-7.71,6.06-9.35Z"/>
          <rect class="cls-1" x="902.93" y="1060.78" width="86.6" height="40.84"/>
          <polygon class="cls-1" points="1012.19 1130.22 989.54 1096.16 902.93 1096.16 880.28 1130.22 880.28 1150.77 1012.19 1150.77 1012.19 1130.22"/>
          <path class="cls-8" d="M777.06,520.35s-113.81,317.68-169.57,542.38c0,0,90.65,3.33,112.63,3.33,70.55-139.07,134.94-410.14,134.94-410.14l44.7,410.14h95.05s9.35-402.76-28.88-528.61l-188.87-17.09Z"/>
          <polygon class="cls-1" points="855.06 655.91 850.42 628.62 827.08 622.25 841.07 630.85 846.28 691.19 855.06 655.91"/>
          <path class="cls-9" d="M747.2,449.54l25.55-51.24-27.25-20.78-18,5.11s4.45,36.59,5.03,38.33,14.67,28.58,14.67,28.58Z"/>
          <path class="cls-8" d="M811.4,256.06c-9.44,12.09-18.88,24.19-28.32,36.28,64.92,18.43,135.33,17.04,199.47-3.93-19.22-37-26.01-80.32-19.02-121.42,2.24-13.2,5.87-26.7,2.98-39.78-3.87-17.52-20.22-31.34-38.15-32.08-6.06-12.85-19.69-21.14-33.77-23.07-14.08-1.93-28.47,1.85-41.2,8.17-10.84,5.38-20.66,12.53-30.28,19.92-16.96,13.03-19.37,39.16-15.77,60.24,2.82,16.49,10.51,31.78,14.06,48.12,3.55,16.35.28,34.36-10.01,47.55Z"/>
          <path class="cls-6" d="M1016.82,383.97s2.58-137.17-78.98-133.28c0,0-129.3-4.27-148.67,2.03-33.3,10.84-67.37,107.63-67.37,107.63l49,41.72,23.67-45.59s-33.53,124.54-39.61,196.94c126.07,41.3,225.16-2.17,225.16-2.17l-23.6-172.52,60.4,5.24Z"/>
          <path class="cls-9" d="M748.02,448.26s-17.62,29.62-48.2,36.01c-32.94,6.88-57.49-40.07-57.49-40.07l105.7,4.06Z"/>
          <g>
            <path class="cls-5" d="M765.23,438.25c-44.39-3.63-88.91-5.4-133.43-5.3-22.38-55.41-47.09-110.35-74.11-164.67,49.14-2.17,98.34-2.27,147.47-.32,22.36,56.39,42.39,113.2,60.07,170.29Z"/>
            <path class="cls-10" d="M768.22,447.39c-44.45-2.8-89-3.73-133.51-2.8-23.42-54.98-49.15-109.44-77.18-163.25,49.09-3.09,98.28-4.12,147.44-3.09,23.42,55.96,44.5,112.39,63.25,169.13Z"/>
            <path class="cls-12" d="M761.35,450.37c-44.45-2.8-89-3.73-133.51-2.8-23.42-54.98-49.15-109.44-77.18-163.25,49.09-3.09,98.28-4.12,147.44-3.09,23.42,55.96,44.5,112.39,63.25,169.13Z"/>
            <path class="cls-9" d="M619.74,430.14s-27.62.58-34.55-43.99c0,0-4.61-4.4-4.61-8.01,0-3.61,5.07-7.95,5.07-7.95,0,0-13.56-27.41-9.44-31.35,4.12-3.95,10.62,9.27,10.62,9.27l9.78,24.37,19.54,7.37s3.22,4.85-3.43,7.21l8.88,2.45,14.11,3.43s3.52,3.22,0,5.45c0,0-5.71,1.07-9.82.9l9.27,5.19s3.22,3.09-1.89,4.98c-5.1,1.89-17.39,1.54-21.4,1.07l7.87,19.63Z"/>
            <path class="cls-9" d="M581.13,377.4c.87-3.28,5.56-6.84,6.59-7.59l27.04,9.85c.89.32,1.55,1.06,1.77,1.98.23.92-.01,1.86-.65,2.56-1.06,1.16-2.39,2.03-3.96,2.6-.01,0-.02,0-.04.01,0,0,0,0,0,0-1.6.58-3.47.86-5.58.85-9.98-.11-19.65-2.17-20.78-2.42-.68-.57-5.26-4.55-4.38-7.84Z"/>
          </g>
          <path class="cls-16" d="M903.35,180.99l6.3,71.57s-7.54,14.88-33.39,14.75c-24.28-.12-30.95-14.75-30.95-14.75l8.33-63.12,49.71-8.45Z"/>
          <path class="cls-16" d="M930.15,191.83c-3.95,11.01-13.71,5.68-13.71,5.68,0,0-24.3,39.43-69.99,28.43-19.23-4.64-22.46-25.41-19.75-47.92.61-5.09,1.53-10.27,2.63-15.37,2.74-12.64,6.62-24.8,9.88-33.95,3.81-10.67,13.67-17.99,24.98-18.56,18.49-.93,44.69,2.75,49.91,29.74,0,0-15.93,41.78,8.16,36.79,0,0,12.65,1.87,7.89,15.16Z"/>
          <circle class="cls-1" cx="887.79" cy="165.37" r="4.92"/>
          <circle class="cls-1" cx="847.9" cy="156.08" r="4.92"/>
          <ellipse class="cls-8" cx="895.88" cy="150.88" rx="5.56" ry="15.36" transform="translate(265.86 805.43) rotate(-55.65)"/>
          <ellipse class="cls-8" cx="840.61" cy="136.29" rx="15.36" ry="5.56" transform="translate(-2.03 259.44) rotate(-17.52)"/>
          <path class="cls-13" d="M848.77,226.46s28.72,4.59,44.59-7.19c0,0-6.87,20.94-45.91,17.2l1.32-10.01Z"/>
          <g>
            <path class="cls-1" d="M847.77,198.55c.91,4.54,4.29,13.92,16.73,12.11.73-12.81,14.57-17.22,14.57-17.22-.16-.68-.36-1.31-.55-1.88-6.45,2.87-22.7,9.46-30.74,6.99Z"/>
            <path class="cls-4" d="M847.45,196.2s.04.94.32,2.35c8.04,2.47,24.3-4.12,30.74-6.99-.62-1.78-1.28-2.93-1.28-2.93l-29.79,7.57Z"/>
            <path class="cls-3" d="M864.49,210.66c.94-.14,1.94-.34,2.99-.61,12.5-3.25,12.85-11.35,11.58-16.61,0,0-13.83,4.41-14.57,17.22Z"/>
          </g>
          <path class="cls-13" d="M926.71,184.37c-.27-.83-1.24-1.57-2.15-1.22-3.1,1.17-5.92,2.79-8.5,4.87-.72.58-.65,1.88,0,2.48.76.7,1.71.62,2.48,0,.12-.1.25-.2.38-.3.08-.06.2-.15.23-.17.29-.21.58-.42.88-.63.6-.41,1.21-.79,1.84-1.15.63-.36,1.27-.69,1.92-1,.31-.15.63-.29.95-.43.09-.04.21-.08.25-.1.17-.07.34-.13.51-.19.85-.32,1.53-1.2,1.22-2.15Z"/>
          <g>
            <path class="cls-16" d="M1022.26,274.47l1.25-27.92c.08-1.85.83-3.6,2.11-4.94,4.09-4.26,13.22-14.97,14.58-26.84.4-3.45,4.66-4.85,7.11-2.39,3.86,3.89,6.73,12.3.57,30.47l27.03-.5,1.84-9.15s-12.43-12.89-3.91-19.68l12.43,14.04,2.42,10.82,6.82-9.41s-.95-20.57,10.1-17.84v16.89s8.8-9.15,13.64-2.93c0,0-26.93,30.3-32.28,34.61-5.35,4.32-34.96,23.39-34.96,23.39,0,0-3.37,158.47-41.17,166.23-37.8,7.77-59.55-75.09-59.55-75.09l47.64-27.96,24.34-71.81Z"/>
            <path class="cls-13" d="M1039.37,273.2c6.8-15.78,23.87-17.29,24.04-17.3l-.12-1.53c-.18.01-18.15,1.58-25.33,18.23l1.41.61Z"/>
            <path class="cls-13" d="M1051.74,259.44c4.39-14.23-4.43-17.76-4.52-17.8l-.55,1.44.27-.72-.28.72c.31.12,7.55,3.12,3.6,15.91l1.47.45Z"/>
            <path class="cls-13" d="M1087.08,258.55c6.24-7.67,2.04-19.9,1.86-20.42l-1.45.51c.04.12,4.1,11.94-1.6,18.94l1.19.97Z"/>
            <polygon class="cls-13" points="997.92 346.28 988.09 375.1 982.78 355.16 997.92 346.28"/>
          </g>
          <polygon class="cls-13" points="859.85 150.88 842.26 183.06 856.52 183.06 859.85 150.88"/>
          <circle class="cls-13" cx="893.35" cy="182.28" r="8.03"/>
          <path class="cls-13" d="M837.94,170.66c0,4.44-3.6,8.03-8.03,8.03-1.14,0-2.23-.24-3.21-.67.61-5.09,1.53-10.27,2.63-15.37.19-.01.38-.02.58-.02,4.43,0,8.03,3.59,8.03,8.03Z"/>
          <polygon class="cls-14" points="794.47 356.48 801.66 324.36 761.35 394.03 770.8 402.07 794.47 356.48"/>
          <polygon class="cls-14" points="950.28 374.24 939.16 326.56 963.36 366.56 950.28 374.24"/>
        </g>
        <g>
          <rect class="cls-4" x="1392.55" y="99.13" width="84.12" height="16.09"/>
          <rect class="cls-4" x="1182.25" y="99.13" width="184.99" height="16.09"/>
          <rect class="cls-4" x="1182.25" y="148.04" width="62.38" height="16.09"/>
          <rect class="cls-4" x="1267.08" y="148.04" width="209.58" height="16.09"/>
          <rect class="cls-4" x="1182.25" y="196.94" width="210.3" height="16.09"/>
        </g>
      </g>
    </g>
  </g>
</svg>