<?xml version="1.0" encoding="UTF-8"?>
<svg xmlns="http://www.w3.org/2000/svg" version="1.1" viewBox="0 0 610.42 608.44">
  <defs>
    <style>
      .cls-1 {
        fill: #6a6b8a;
      }

      .cls-2 {
        fill: #b4bc5c;
      }

      .cls-3 {
        fill: #c4c6d1;
      }

      .cls-4 {
        fill: #d19e4c;
      }

      .cls-5 {
        fill: #ffc05c;
      }

      .cls-6 {
        fill: #fff;
      }

      .cls-7 {
        fill: #515269;
      }

      .cls-8 {
        fill: #918783;
      }

      .cls-9 {
        fill: #bfb2ac;
      }

      .cls-10 {
        fill: #5e5854;
      }

      .cls-11 {
        fill: #e3e3e3;
      }

      .cls-12 {
        fill: #47665c;
      }

      .cls-13 {
        fill: #34395c;
      }

      .cls-14 {
        fill: #9cb839;
      }

      .cls-15 {
        fill: #eddcc5;
      }

      .cls-16 {
        fill: #323657;
      }

      .cls-17 {
        fill: #b59074;
      }

      .cls-18 {
        fill: #494f80;
      }

      .cls-19 {
        fill: #a77860;
      }

      .cls-20 {
        fill: #403429;
      }

      .cls-21 {
        fill: #706865;
      }

      .cls-22 {
        fill: #eea886;
      }

      .cls-23 {
        fill: #e2d2ca;
      }
    </style>
  </defs>
  <!-- Generator: Adobe Illustrator 28.7.1, SVG Export Plug-In . SVG Version: 1.2.0 Build 142)  -->
  <g>
    <g id="_Слой_1" data-name="Слой_1">
      <g>
        <g>
          <rect class="cls-16" x="262.48" y="317.9" width="97.3" height="8.91" transform="translate(-2.43 2.37) rotate(-.43)"/>
          <rect class="cls-16" x="322.14" y="276.56" width="92.39" height="8.46" transform="translate(-7.9 550.9) rotate(-73)"/>
          <rect class="cls-21" x="536.81" y="338.07" width="7.59" height="220.75"/>
          <rect class="cls-17" x="253.39" y="324.77" width="333.7" height="13.3" transform="translate(840.49 662.83) rotate(180)"/>
          <rect class="cls-21" x="291.98" y="338.07" width="7.59" height="220.75" transform="translate(591.55 896.88) rotate(180)"/>
          <path class="cls-22" d="M259.62,308.52s5.03,1.01,7.44,1.09c2.41.08,13.54-4.97,17.1-4.49,3.56.48,26.79,10.35,27.85,11.07,1.05.72-.5,2.31-.5,2.31l-53.34.63,1.44-10.61Z"/>
          <path class="cls-7" d="M168.36,533.1l-3.42,7.4s-14.41-5.37-14.48-5.55c-.07-.18,3.97-10.28,3.97-10.28l13.94,8.43Z"/>
          <path class="cls-1" d="M291.79,532.94l3.99,11.65s-15.81,3.48-18.11,3.3c-.2-.02-2.99-13.2-2.99-13.2l17.12-1.75Z"/>
          <path class="cls-3" d="M275.89,544.49s11.05-3,11.38-3.48,4.38-3.22,6.47-2.87c2.09.35,2.28,2.85,4.37,3.36,2.09.51,18.24,5.68,20.48,6.99,2.24,1.32,12.92-2.57,14.98.2,2.06,2.77,4.05,10.04-12.73,12.56-16.79,2.51-34.76,10.01-38.78,8.99-4.02-1.02-6.78-21.28-6.16-25.75Z"/>
          <path class="cls-3" d="M149.32,532.97s10.24,4.37,10.78,4.21c.54-.17,5.28.19,6.67,1.72,1.38,1.53.02,3.55,1.31,5.2,1.28,1.65,8.59,11.31,10.72,13.54,1.75,1.82,11.33,3.53,14.41,6.74,2.32,2.42-.41,12.11-16.72,7.48-15.88-4.5-35.55-12.32-38-15.52-2.45-3.2,7.66-20.32,10.82-23.36Z"/>
          <path class="cls-13" d="M159.83,387.73s45.05,20.03,54.6,26.88c9.55,6.85,30.45,19.46,31.15,22.55.7,3.09,4.83.08-2.58,15.5-7.41,15.42-42.46,52.54-45.75,56.57-3.43,4.21-27.74,29.41-27.74,29.41l-18.28-13.77s35.16-51.7,40.25-59.3c5.09-7.6,7.38-8.73,4.37-12.08-3.01-3.36-15.03-3.31-76.9-28.94-6.18-2.56-23.43-8.49-25.71-16.8-4.11-15-.59-34.02,16.04-42.38,16.63-8.36,50.56,22.34,50.56,22.34Z"/>
          <path class="cls-22" d="M181.25,242.7c-.4.35-.83,1.11-1.27,2.16-.65,1.51-1.33,3.61-1.99,5.92-2.04,7.15-3.9,16.31-3.9,16.31,0,0-25.79-21.48-22.14-22.83,3.65-1.35,6.34-7.63,6.34-7.63,0,0,25.68,3.65,22.97,6.06Z"/>
          <path class="cls-15" d="M179.64,316.91s-20.93,40.01-21.83,55.02c-.91,15-43.69-4.72-43.69-4.72l65.52-50.29Z"/>
          <path class="cls-16" d="M157.89,370.97l.48,3.73.75,4.92s0,0,0,0c0,0,0,0,0,0-.64-.04-41.78-2.63-44.76-1.87-3,.76,5.66-9.7,5.66-9.7l37.88,2.92Z"/>
          <path class="cls-18" d="M159.12,379.62s46.54,10.95,58.05,14.63c11.51,3.68,31.31,10.15,36.63,13.19,2.83,1.61,7.14,4.03,12.31,20.85,5.86,19.07,19.23,72.69,22.27,81.04,1.91,5.24,7.39,25.88,7.39,25.88l-23.78,4.12s-28.33-57.02-30.62-72.23c-3.87-25.59-13.79-25.72-17.79-28.05-4.01-2.33-23.3,2.04-91.95-3.43-6.86-.55-25.62-.89-30.47-8.29-8.77-13.37-17.62-28.57-4-42.01,13.62-13.45,61.96-5.69,61.96-5.69Z"/>
          <path class="cls-22" d="M190.34,188.84s8.06,13.91,6.22,17.7c-1.84,3.79,8.41,12.96,6.73,14.9-1.68,1.94-5.15,4.3-5.09,4.86.06.57-2.98,18.7-6.93,19.1-3.95.41-30.98-1-33.22-9.45-2.24-8.45-8.83-26.97-10.39-30.41-1.55-3.44,14.03-30,42.68-16.71Z"/>
          <path class="cls-20" d="M157.03,186.15c-2.25,1.67-4.07,3.44-5.52,5.24-1.77.83-12.22,6.02-10.05,11.64,2.92,7.55,14.74,27.77,15.74,29.89.13.28.13-.25.04-1.38.73-7.14,9.52-15.14,9.52-15.14l4.69-2.12c-2.45-4.55-1.48-8.8-1.48-8.8,5.31-5.69,22.95-11.82,22.95-11.82-2.51-25.17-24.05-16.27-35.88-7.5Z"/>
          <path class="cls-22" d="M165.01,210.47c-1.25-1.9-7.83-1.59-6.87,4.02.96,5.61,9.03,10.12,10.79,7.61,1.76-2.5-2.59-9.61-3.92-11.64Z"/>
          <path class="cls-5" d="M182.12,312.69c-1.54,2.47-3.34,6.51-5.26,11.42-1.06,2.7-2.12,5.65-3.21,8.73-7.15,20.28-14.53,46.78-14.53,46.78-23.93-5.84-68.15,15.43-68.15,15.43.26-6.93,13.57-65.29,20.95-98.53,7.35-33.21,40.04-52.26,40.04-52.26,15.05,7.51,26.31,25.57,26.31,25.57,0,0,11.77,30.06,3.85,42.86Z"/>
          <path class="cls-19" d="M179.98,244.87c-.65,1.51-1.33,3.61-1.99,5.92-3.86-1.61-11.22-8.4-11.45-8.61,3.07,1.19,13.44,2.69,13.44,2.69Z"/>
          <path class="cls-4" d="M176.86,324.11c-1.06,2.7-2.12,5.65-3.21,8.73-2.28-2.79-6.16-7.8-9.82-13.38-5.45-8.37-14.34-32.31-14.89-33.82,4.75,6.58,22.27,30.7,27.91,38.47Z"/>
          <polygon class="cls-8" points="42.65 566.06 44.64 571.64 128.46 545.67 124.44 534.37 42.65 566.06"/>
          <rect class="cls-8" x="121.81" y="450.56" width="9.53" height="91.13"/>
          <rect class="cls-10" x="98.47" y="445.72" width="56.19" height="5.37"/>
          <polygon class="cls-8" points="211.22 566.06 209.24 571.64 125.42 545.67 129.1 533.66 211.22 566.06"/>
          <polygon class="cls-8" points="152.16 571.04 152.16 577.53 125.42 545.67 129.1 533.66 152.16 571.04"/>
          <path class="cls-9" d="M219.05,573.82c0,4.33-3.51,7.83-7.83,7.83s-7.83-3.51-7.83-7.83,3.51-7.83,7.83-7.83,7.83,3.51,7.83,7.83Z"/>
          <path class="cls-9" d="M152.83,573.82c0,4.33-3.51,7.83-7.83,7.83s-7.83-3.51-7.83-7.83,3.51-7.83,7.83-7.83,7.83,3.51,7.83,7.83Z"/>
          <path class="cls-9" d="M50.49,573.82c0,4.33-3.51,7.83-7.83,7.83s-7.83-3.51-7.83-7.83,3.51-7.83,7.83-7.83,7.83,3.51,7.83,7.83Z"/>
          <rect class="cls-23" x="60.38" y="425.38" width="133.12" height="20.34" rx="10.04" ry="10.04"/>
          <rect class="cls-23" x="29.28" y="283.99" width="74.68" height="127.15" rx="17.39" ry="17.39"/>
          <path class="cls-23" d="M104.81,440.66c-13.53,0-24.51-4.55-32.63-13.51-18.35-20.26-15.05-55.88-14.9-57.38.28-2.81,2.78-4.86,5.59-4.58,2.81.28,4.86,2.78,4.58,5.58-.04.41-2.96,32.69,12.33,49.54,6.19,6.82,14.38,10.13,25.04,10.13,2.82,0,5.11,2.29,5.11,5.11s-2.29,5.11-5.11,5.11Z"/>
          <path class="cls-5" d="M164.66,261.58s3.45,3.95,8.26,12.3c5.45,9.46,9.87,18.81,11.05,20.91,2.41,4.27,10.89,8.67,14.68,10.3,3.48,1.49,63.57,2.77,64.3,2.7.74-.07-.87,18.25-.87,18.25,0,0-82.94,2.37-86.56-.94-3.62-3.31-14.09-15.8-18.49-22.01-4.19-5.91-10.61-15.6-14.02-19.78-3.81-4.67-11.8-20.65-1.64-28.62,12.98-10.18,20.16,2.2,23.28,6.88Z"/>
        </g>
        <g>
          <path class="cls-14" d="M468.45,485.76l-.86-.05c.02-.31,1.66-31.94,1.2-69.12-.42-34.3-2.77-80.46-11.55-105.65l.81-.28c8.82,25.3,11.17,71.57,11.59,105.93.46,37.21-1.19,68.86-1.2,69.17Z"/>
          <path class="cls-14" d="M480.91,485.76c-.1-2.03-10.52-203.74-23.68-264.46l.84-.18c13.18,60.79,23.6,262.56,23.7,264.6l-.86.04Z"/>
          <path class="cls-14" d="M476.08,492.49c-.09-1.79-8.98-179.65-2.02-215.56l.85.16c-6.94,35.82,1.94,213.57,2.03,215.36l-.86.04Z"/>
          <path class="cls-14" d="M475.49,488.57h-.86c0-1,.09-100.52,8.15-145.94l.85.15c-8.04,45.34-8.14,144.79-8.14,145.79Z"/>
          <path class="cls-14" d="M545.38,303.67s-8.89-60.54-31.1-31.84c-15.34,19.82-25.35,47.78-30.08,63.2-2.07,6.76-3.32,13.74-3.74,20.79l-.99,16.97c48.2-125.79,65.91-69.13,65.91-69.13Z"/>
          <path class="cls-14" d="M556.6,231.1s8.89-57.9-41.57-32.08c-48.36,24.73-42.94,99.11-42.94,99.11,2.9-12.41,8.13-45.55,25.41-67.02,45.77-56.89,59.11,0,59.11,0Z"/>
          <path class="cls-14" d="M506.34,416.5c-28.78-5.68-30.34,18.99-30.34,18.99v9.04c2.43-15.58,30.34-28.03,30.34-28.03Z"/>
          <path class="cls-14" d="M435.37,167.53c-28.14-21.1-43.31,0-43.31,0,0,0,54.08,2.63,74.61,121.82,0,0-3.16-100.71-31.3-121.82Z"/>
          <path class="cls-14" d="M412.07,252.68s45.11,58.48,54.19,106.23l-1-11.17s-1.79-84.82-53.19-95.07Z"/>
          <path class="cls-14" d="M466.26,358.91l1.55,17.42c.16-5.54-.41-11.4-1.55-17.42Z"/>
          <path class="cls-14" d="M431.32,380.03s35.58,37.02,37.97,44.79c0,0-14.27-42.57-37.97-44.79Z"/>
          <polygon class="cls-2" points="504.13 558.81 516.99 481.07 432.27 481.07 445.14 558.81 504.13 558.81"/>
          <rect class="cls-2" x="424.31" y="460.22" width="100.65" height="20.84"/>
          <path class="cls-12" d="M516.99,481.07h-84.72l12.86,77.74h14.48s-14.17-60.34,54.6-60.97l2.78-16.78Z"/>
        </g>
        <path class="cls-11" d="M230.85,161.8h118.11c1.68,0,3.05,1.37,3.05,3.05v1.21c0,1.68-1.37,3.05-3.05,3.05h-118.11c-1.68,0-3.05-1.37-3.05-3.05v-1.21c0-1.68,1.37-3.05,3.05-3.05Z"/>
        <path class="cls-11" d="M230.85,223.99h80.26c1.68,0,3.05,1.37,3.05,3.05v1.21c0,1.68-1.37,3.05-3.05,3.05h-80.26c-1.68,0-3.05-1.37-3.05-3.05v-1.21c0-1.68,1.37-3.05,3.05-3.05Z"/>
        <path class="cls-11" d="M230.85,177.35h65.84c1.68,0,3.05,1.37,3.05,3.05v1.21c0,1.68-1.37,3.05-3.05,3.05h-65.84c-1.68,0-3.05-1.37-3.05-3.05v-1.21c0-1.68,1.37-3.05,3.05-3.05Z"/>
        <path class="cls-11" d="M230.85,192.9h91.88c1.68,0,3.05,1.37,3.05,3.05v1.21c0,1.68-1.37,3.05-3.05,3.05h-91.88c-1.68,0-3.05-1.37-3.05-3.05v-1.21c0-1.68,1.37-3.05,3.05-3.05Z"/>
        <path class="cls-11" d="M230.85,208.45h35.68c1.68,0,3.05,1.37,3.05,3.05v1.21c0,1.68-1.37,3.05-3.05,3.05h-35.68c-1.68,0-3.05-1.37-3.05-3.05v-1.21c0-1.68,1.37-3.05,3.05-3.05Z"/>
        <path class="cls-14" d="M230.85,146.44h35.68c1.68,0,3.05,1.37,3.05,3.05v1.21c0,1.68-1.37,3.05-3.05,3.05h-35.68c-1.68,0-3.05-1.37-3.05-3.05v-1.21c0-1.68,1.37-3.05,3.05-3.05Z"/>
        <g>
          <path class="cls-6" d="M306.97,73.76c-.07-.5-.1-1.12-.04-1.83,4.92-2.8,17.62-13.3,17.62-47.06h-39.08c0,33.77,12.71,44.26,17.63,47.06.04.52.04,1.15-.05,1.83-4.96,2.84-17.57,13.38-17.57,47.03h39.08c0-33.67-12.63-44.2-17.58-47.04Z"/>
          <path class="cls-14" d="M286.23,107.37s3.79-8.17,17.18-4.83c13.39,3.35,18.81-4.14,18.81-4.14l2.51,22.73h-38.5v-13.77Z"/>
          <path class="cls-14" d="M291.4,57.91s2.46-6.31,11.39-3.71c8.92,2.6,13.73,3.45,17.59-.63,0,0-3.96,14.08-14.9,18.91,0,0-8.05-.7-14.08-14.57Z"/>
          <path class="cls-11" d="M325.64,121.88h-41.25v-1.08c0-14.68,2.37-26.65,7.05-35.57,1.72-3.28,3.73-6.1,6-8.4,1.77-1.8,3.4-2.98,4.59-3.71.01-.18.02-.36.02-.54-2.54-1.56-6.86-5.03-10.56-12.04-4.71-8.93-7.09-20.93-7.09-35.65v-1.08h41.25v1.08c0,14.72-2.39,26.71-7.09,35.64-3.7,7.02-8.02,10.49-10.56,12.05,0,.18,0,.36.01.54,1.18.73,2.82,1.91,4.58,3.7,2.26,2.3,4.28,5.13,6,8.4,4.68,8.92,7.06,20.9,7.06,35.58v1.08ZM286.56,119.71h36.9c-.11-13.84-2.4-25.1-6.81-33.49-3.7-7.04-7.99-10.24-10.23-11.52l-.47-.27-.07-.53c-.09-.68-.1-1.37-.05-2.06l.05-.57.5-.28c2.23-1.27,6.53-4.45,10.23-11.48,4.42-8.4,6.72-19.68,6.84-33.55h-36.9c.11,13.87,2.41,25.16,6.84,33.56,3.71,7.03,8,10.21,10.23,11.48l.5.28.05.57c.05.69.03,1.38-.06,2.06l-.07.53-.46.27c-2.23,1.28-6.53,4.48-10.22,11.53-4.4,8.39-6.69,19.65-6.8,33.48Z"/>
          <rect class="cls-14" x="283.31" y="22.82" width="43.4" height="2.76"/>
          <rect class="cls-14" x="283.31" y="119.71" width="43.4" height="2.76"/>
        </g>
      </g>
    </g>
  </g>
</svg>