<?xml version="1.0" encoding="UTF-8"?>
<svg xmlns="http://www.w3.org/2000/svg" version="1.1" viewBox="0 0 459 338">
  <defs>
    <style>
      .cls-1 {
        fill: #d9dcdd;
      }

      .cls-2, .cls-3, .cls-4, .cls-5 {
        fill: #ffdc31;
      }

      .cls-6 {
        fill: #ffb024;
      }

      .cls-6, .cls-7, .cls-8, .cls-9, .cls-10, .cls-11, .cls-12, .cls-13, .cls-14, .cls-4, .cls-15, .cls-16, .cls-17, .cls-18, .cls-19 {
        stroke-linecap: round;
        stroke-linejoin: round;
      }

      .cls-6, .cls-7, .cls-9, .cls-10, .cls-11, .cls-12, .cls-13, .cls-14, .cls-4, .cls-15, .cls-16, .cls-17, .cls-18, .cls-19 {
        stroke-width: 1.7px;
      }

      .cls-6, .cls-7, .cls-10, .cls-11, .cls-12, .cls-13, .cls-14, .cls-4, .cls-15, .cls-16, .cls-17, .cls-18, .cls-19 {
        stroke: #282f39;
      }

      .cls-20, .cls-16 {
        fill: #fff;
      }

      .cls-7 {
        fill: #97dafc;
      }

      .cls-21 {
        fill: #dd6f0b;
      }

      .cls-8 {
        stroke-width: 2px;
      }

      .cls-8, .cls-9 {
        stroke: #fff;
      }

      .cls-8, .cls-9, .cls-18 {
        fill: none;
      }

      .cls-3, .cls-22, .cls-23 {
        mix-blend-mode: multiply;
      }

      .cls-22 {
        fill: #282f39;
        opacity: .25;
      }

      .cls-24 {
        isolation: isolate;
      }

      .cls-10 {
        fill: #969da3;
      }

      .cls-11 {
        fill: #768084;
      }

      .cls-12 {
        fill: #d34c4c;
      }

      .cls-13 {
        fill: #6cceff;
      }

      .cls-14 {
        fill: #c3d1dd;
      }

      .cls-15 {
        fill: #b6d9ef;
      }

      .cls-25 {
        fill: #9cb7d3;
      }

      .cls-17 {
        fill: #464a4f;
      }

      .cls-19 {
        fill: #c0c4c9;
      }

      .cls-5 {
        opacity: .55;
      }
    </style>
  </defs>
  <!-- Generator: Adobe Illustrator 28.7.1, SVG Export Plug-In . SVG Version: 1.2.0 Build 142)  -->
  <g class="cls-24">
    <g id="OBJECTS">
      <g>
        <g>
          <polygon class="cls-4" points="357.16 33.91 168.63 222.43 116.09 169.89 69.32 216.66 69.32 231.38 116.09 184.61 168.63 237.15 363.79 41.99 357.16 33.91"/>
          <polygon class="cls-6" points="365.95 56.97 341.14 32.16 371.06 27.05 365.95 56.97"/>
        </g>
        <g>
          <rect class="cls-12" x="104.04" y="81.39" width="45.18" height="35.44" rx="7.8" ry="7.8"/>
          <polygon class="cls-16" points="136.2 99.11 120.89 90.27 120.89 107.96 136.2 99.11"/>
        </g>
        <path class="cls-20" d="M100.2,237.13c1.35,0,2.61.4,3.67,1.09,0-.15-.01-.31-.01-.46,0-5.15,4.18-9.33,9.33-9.33s9.33,4.18,9.33,9.33c0,1.19-.23,2.33-.64,3.38.73-.41,1.58-.65,2.48-.65,2.8,0,5.08,2.27,5.08,5.08s-2.27,5.08-5.08,5.08h-24.16c-3.73,0-6.76-3.03-6.76-6.76s3.03-6.76,6.76-6.76Z"/>
        <path class="cls-20" d="M354.13,104.11c-2.2,0-4.24.65-5.95,1.76.01-.25.02-.5.02-.75,0-8.35-6.77-15.12-15.12-15.12s-15.12,6.77-15.12,15.12c0,1.94.37,3.78,1.03,5.49-1.19-.67-2.56-1.05-4.02-1.05-4.55,0-8.23,3.69-8.23,8.23s3.69,8.23,8.23,8.23h39.17c6.05,0,10.96-4.91,10.96-10.96s-4.91-10.96-10.96-10.96Z"/>
        <g>
          <rect class="cls-17" x="207.82" y="245.17" width="40.34" height="25.48"/>
          <rect class="cls-10" x="135.9" y="118.58" width="184.17" height="128.54" rx="13.55" ry="13.55"/>
          <rect class="cls-16" x="145.73" y="129.31" width="164.52" height="100.53"/>
          <path class="cls-19" d="M306.89,278.92h-157.81c0-6.91,5.6-12.51,12.51-12.51h132.78c6.91,0,12.51,5.6,12.51,12.51h0Z"/>
          <path class="cls-22" d="M150.19,273.79c-.71,1.57-1.11,3.3-1.11,5.14h157.81c0-1.83-.4-3.57-1.11-5.14h-155.59Z"/>
          <path class="cls-19" d="M135.9,229.84v6.19c0,6.13,4.97,11.09,11.09,11.09h161.99c6.13,0,11.09-4.97,11.09-11.09v-6.19h-184.17Z"/>
          <g>
            <rect class="cls-1" x="154.57" y="140.74" width="146.84" height="8.6"/>
            <rect class="cls-1" x="154.57" y="160.14" width="32.74" height="36.68"/>
            <rect class="cls-1" x="193.95" y="160.14" width="107.46" height="4.3"/>
            <rect class="cls-1" x="193.95" y="170.93" width="107.46" height="4.3"/>
            <rect class="cls-1" x="193.95" y="181.73" width="107.46" height="4.3"/>
            <rect class="cls-1" x="193.95" y="192.52" width="107.46" height="4.3"/>
            <rect class="cls-1" x="154.88" y="203.31" width="146.53" height="4.3"/>
            <rect class="cls-1" x="154.88" y="214.1" width="146.53" height="4.3"/>
          </g>
        </g>
        <g>
          <path class="cls-14" d="M159.58,34.87c0,2.6-2.1,4.7-4.7,4.7s-4.7-2.1-4.7-4.7,2.1-4.7,4.7-4.7,4.7,2.1,4.7,4.7Z"/>
          <path class="cls-14" d="M174.8,39.73c.38-1.56.58-3.18.58-4.86s-.21-3.3-.58-4.86l-5.17,1.01c-.36-1.38-.9-2.67-1.61-3.87l4.38-2.94c-1.71-2.8-4.07-5.16-6.87-6.87l-2.94,4.38c-1.2-.7-2.49-1.25-3.87-1.61l1.01-5.17c-1.56-.38-3.18-.58-4.86-.58s-3.3.21-4.86.58l1.01,5.17c-1.38.36-2.67.9-3.87,1.61l-2.94-4.38c-2.8,1.71-5.16,4.07-6.87,6.87l4.38,2.94c-.7,1.2-1.25,2.49-1.61,3.87l-5.17-1.01c-.38,1.56-.58,3.18-.58,4.86s.21,3.3.58,4.86l5.17-1.01c.36,1.38.9,2.67,1.61,3.87l-4.38,2.94c1.71,2.8,4.07,5.16,6.87,6.87l2.94-4.38c1.2.7,2.49,1.25,3.87,1.61l-1.01,5.17c1.56.38,3.18.58,4.86.58s3.3-.21,4.86-.58l-1.01-5.17c1.38-.36,2.67-.9,3.87-1.61l2.94,4.38c2.8-1.71,5.16-4.07,6.87-6.87l-4.38-2.94c.7-1.2,1.25-2.49,1.61-3.87l5.17,1.01ZM154.88,44.91c-5.54,0-10.04-4.49-10.04-10.04s4.49-10.04,10.04-10.04,10.04,4.49,10.04,10.04-4.49,10.04-10.04,10.04Z"/>
        </g>
        <g>
          <circle class="cls-6" cx="207.9" cy="210.72" r="13.91" transform="translate(-88.11 208.72) rotate(-45)"/>
          <circle class="cls-4" cx="207.9" cy="210.72" r="9.56" transform="translate(-88.11 208.72) rotate(-45)"/>
          <path class="cls-3" d="M207.9,203.97c4.8,0,8.77,3.54,9.45,8.16.07-.46.11-.93.11-1.4,0-5.28-4.28-9.56-9.56-9.56s-9.56,4.28-9.56,9.56c0,.48.05.94.11,1.4.68-4.61,4.64-8.16,9.45-8.16Z"/>
          <path class="cls-21" d="M209.14,205.61c.43.11.82.26,1.17.45.35.2.65.42.9.66.25.24.45.5.59.77.14.27.22.53.23.78,0,.09-.03.16-.09.22-.06.06-.13.09-.21.09h-1.88c-.13,0-.24-.02-.32-.06-.08-.04-.16-.1-.25-.17-.03-.03-.07-.08-.14-.14-.06-.07-.15-.14-.27-.21-.11-.07-.26-.13-.43-.19-.17-.05-.38-.08-.63-.08-.18,0-.36.01-.52.04-.17.02-.32.06-.45.11-.13.05-.23.13-.32.22s-.12.21-.12.36.05.26.14.36c.09.1.24.18.46.27.22.08.5.16.85.24.35.08.79.17,1.32.27.53.11.99.24,1.38.4.39.16.72.37.98.61.26.24.46.53.59.86.13.33.19.72.19,1.17,0,.4-.08.77-.23,1.11-.15.34-.37.63-.65.89-.28.26-.61.47-1.01.65-.39.17-.82.3-1.29.37v1.02c0,.1-.04.2-.11.27s-.17.11-.27.11h-1.88c-.11,0-.2-.04-.27-.11-.08-.08-.11-.17-.11-.27v-1.06c-.46-.1-.87-.26-1.24-.45-.37-.2-.68-.42-.95-.67-.26-.25-.47-.52-.61-.81-.14-.29-.22-.59-.23-.88,0-.09.03-.16.09-.22.06-.06.13-.09.21-.09h1.88c.13,0,.24.02.32.05.08.03.15.08.23.15.04.04.1.1.17.19.08.09.18.17.31.27.13.09.29.17.49.24.2.07.44.1.73.1.51,0,.93-.05,1.27-.16.34-.11.51-.31.51-.6,0-.14-.06-.26-.19-.36-.12-.1-.31-.18-.56-.27-.25-.08-.57-.16-.95-.24-.39-.08-.85-.17-1.37-.29-.99-.21-1.71-.56-2.16-1.06-.45-.49-.68-1.15-.68-1.97,0-.34.06-.66.19-.97.12-.31.3-.6.54-.85.23-.26.52-.48.86-.68.34-.19.73-.34,1.16-.44v-1.06c0-.1.04-.2.11-.27.08-.08.17-.11.27-.11h1.88c.11,0,.2.04.27.11s.11.17.11.27v1.08Z"/>
          <circle class="cls-18" cx="207.9" cy="210.72" r="9.56" transform="translate(-88.11 208.72) rotate(-45)"/>
        </g>
        <g>
          <rect class="cls-15" x="35.54" y="192.97" width="68.95" height="85.95"/>
          <rect class="cls-16" x="41.22" y="198.19" width="57.58" height="75.52"/>
          <g>
            <rect class="cls-25" x="49.83" y="230.97" width="6.38" height="22.24"/>
            <rect class="cls-25" x="65.6" y="224.77" width="6.38" height="28.43"/>
            <rect class="cls-25" x="81.37" y="216.65" width="6.38" height="36.56"/>
          </g>
          <line class="cls-18" x1="48.83" y1="225.5" x2="88.86" y2="208.79"/>
          <polyline class="cls-18" points="84.9 206.63 89.65 208.68 87.44 213.1"/>
          <g>
            <rect class="cls-1" x="47.2" y="257.93" width="45.62" height="2.25"/>
            <rect class="cls-1" x="47.2" y="262.73" width="45.62" height="2.25"/>
            <rect class="cls-1" x="47.2" y="267.53" width="45.62" height="2.25"/>
          </g>
        </g>
        <g>
          <rect class="cls-16" x="68.99" y="112.96" width="55.69" height="44.33"/>
          <rect class="cls-7" x="75.11" y="117.83" width="43.44" height="34.58"/>
          <polygon class="cls-16" points="105.99 135.2 93.44 152.41 118.55 152.41 105.99 135.2"/>
          <polygon class="cls-16" points="91.68 129.69 75.11 152.41 108.25 152.41 91.68 129.69"/>
          <circle class="cls-6" cx="102.45" cy="127.67" r="4.36"/>
        </g>
        <g>
          <polygon class="cls-12" points="393.23 148.27 393.23 156.56 416.36 170.95 416.36 133.88 393.23 148.27"/>
          <path class="cls-19" d="M384.26,157.57h8.29v11.86c0,1.21-.98,2.19-2.19,2.19h-3.91c-1.21,0-2.19-.98-2.19-2.19v-11.86h0Z"/>
          <path class="cls-7" d="M384.51,144.75h11.51v15.33h-11.51c-1.63,0-2.95-1.32-2.95-2.95v-9.44c0-1.63,1.32-2.95,2.95-2.95Z"/>
          <path class="cls-7" d="M417.82,174.43h0c-1.77,0-3.2-1.43-3.2-3.2v-37.63c0-1.77,1.43-3.2,3.2-3.2h0c1.77,0,3.2,1.43,3.2,3.2v37.63c0,1.77-1.43,3.2-3.2,3.2Z"/>
        </g>
        <g>
          <path class="cls-20" d="M57.66,177.2c0,1.07-.87,1.94-1.94,1.94s-1.94-.87-1.94-1.94.87-1.94,1.94-1.94,1.94.87,1.94,1.94Z"/>
          <path class="cls-20" d="M66.64,179.05h-1.96c0-5.97-4.85-10.82-10.82-10.82v-1.96c7.05,0,12.78,5.74,12.78,12.78Z"/>
          <path class="cls-20" d="M62.31,179.05h-1.96c0-3.58-2.91-6.49-6.49-6.49v-1.96c4.66,0,8.45,3.79,8.45,8.45Z"/>
        </g>
        <g>
          <g>
            <line class="cls-8" x1="264.84" y1="25.6" x2="264.84" y2="34.75"/>
            <line class="cls-8" x1="269.41" y1="30.17" x2="260.27" y2="30.17"/>
          </g>
          <g>
            <line class="cls-9" x1="404.79" y1="107.69" x2="404.79" y2="116.83"/>
            <line class="cls-9" x1="409.37" y1="112.26" x2="400.22" y2="112.26"/>
          </g>
          <g>
            <line class="cls-9" x1="333.03" y1="300.09" x2="333.03" y2="309.23"/>
            <line class="cls-9" x1="337.6" y1="304.66" x2="328.46" y2="304.66"/>
          </g>
          <g>
            <line class="cls-9" x1="60.25" y1="77.82" x2="60.25" y2="86.97"/>
            <line class="cls-9" x1="64.83" y1="82.39" x2="55.68" y2="82.39"/>
          </g>
          <g>
            <line class="cls-9" x1="127.67" y1="261.84" x2="127.67" y2="270.98"/>
            <line class="cls-9" x1="132.24" y1="266.41" x2="123.09" y2="266.41"/>
          </g>
          <circle class="cls-9" cx="101.02" cy="48.03" r="3.03"/>
          <circle class="cls-9" cx="22.11" cy="142.32" r="3.03"/>
          <path class="cls-9" d="M445.73,214.1c0,1.67-1.35,3.03-3.03,3.03s-3.03-1.35-3.03-3.03,1.35-3.03,3.03-3.03,3.03,1.35,3.03,3.03Z"/>
          <path class="cls-9" d="M127.37,304.66c0,1.67-1.35,3.03-3.03,3.03s-3.03-1.35-3.03-3.03,1.35-3.03,3.03-3.03,3.03,1.35,3.03,3.03Z"/>
          <path class="cls-9" d="M372.27,74.76c0,1.67-1.35,3.03-3.03,3.03s-3.03-1.35-3.03-3.03,1.35-3.03,3.03-3.03,3.03,1.35,3.03,3.03Z"/>
          <circle class="cls-9" cx="338.18" cy="239.54" r="3.03"/>
        </g>
        <line class="cls-18" x1="13.27" y1="278.92" x2="442.71" y2="278.92"/>
        <g>
          <circle class="cls-6" cx="265.72" cy="299.83" r="29.8" transform="translate(-99.7 135.59) rotate(-24.25)"/>
          <circle class="cls-4" cx="265.72" cy="299.83" r="20.49" transform="translate(-134.91 300.54) rotate(-48.55)"/>
          <path class="cls-3" d="M265.72,285.36c10.29,0,18.78,7.59,20.24,17.48.15-.98.25-1.98.25-3.01,0-11.31-9.17-20.49-20.49-20.49s-20.49,9.17-20.49,20.49c0,1.03.1,2.02.25,3.01,1.46-9.88,9.95-17.48,20.24-17.48Z"/>
          <path class="cls-21" d="M268.38,288.88c.92.23,1.76.55,2.51.97.75.42,1.39.89,1.92,1.42.53.52.95,1.07,1.26,1.65.31.58.47,1.13.49,1.66,0,.18-.07.34-.2.48-.13.13-.28.2-.45.2h-4.03c-.29,0-.52-.04-.69-.12-.17-.08-.35-.21-.54-.37-.06-.06-.16-.16-.29-.31-.13-.14-.32-.29-.57-.44-.25-.15-.55-.29-.92-.4-.37-.11-.82-.17-1.35-.17-.39,0-.76.03-1.12.08-.36.05-.68.13-.95.25-.28.11-.5.27-.68.48s-.26.46-.26.77.1.56.29.77c.2.21.52.39.99.57s1.07.34,1.83.51c.76.16,1.7.36,2.83.58,1.13.23,2.11.51,2.95.86.84.35,1.54.79,2.11,1.31.56.52.98,1.14,1.26,1.85.28.71.41,1.54.41,2.51,0,.86-.16,1.65-.49,2.37-.33.72-.79,1.35-1.38,1.91-.6.55-1.31,1.02-2.15,1.39-.84.37-1.76.64-2.77.8v2.19c0,.22-.08.42-.25.58-.16.16-.36.25-.58.25h-4.03c-.23,0-.42-.08-.58-.25-.16-.16-.25-.36-.25-.58v-2.28c-.98-.22-1.87-.55-2.66-.97-.79-.42-1.47-.9-2.03-1.43-.56-.53-1-1.11-1.31-1.74-.31-.63-.47-1.26-.49-1.89,0-.18.07-.34.2-.48.13-.13.28-.2.45-.2h4.03c.29,0,.51.04.68.11.16.07.33.18.49.32.08.08.2.21.37.4.16.18.38.37.66.57.28.19.63.36,1.05.51.42.14.94.21,1.55.21,1.09,0,1.99-.12,2.72-.35.73-.24,1.09-.66,1.09-1.28,0-.31-.13-.56-.4-.77-.27-.2-.67-.39-1.2-.57-.53-.17-1.22-.34-2.05-.51-.83-.16-1.81-.37-2.94-.62-2.11-.45-3.66-1.2-4.63-2.26-.97-1.06-1.46-2.47-1.46-4.23,0-.72.13-1.41.4-2.08.27-.67.65-1.28,1.15-1.83s1.12-1.04,1.85-1.45c.73-.41,1.55-.73,2.48-.95v-2.28c0-.22.08-.42.25-.58.16-.16.36-.25.58-.25h4.03c.23,0,.42.08.58.25.16.16.25.36.25.58v2.31Z"/>
          <circle class="cls-18" cx="265.72" cy="299.83" r="20.49" transform="translate(-134.91 300.54) rotate(-48.55)"/>
        </g>
        <g>
          <polygon class="cls-13" points="386.74 199.99 349.92 233.89 386.74 274.38 423.56 233.89 386.74 199.99"/>
          <rect class="cls-16" x="355.88" y="182.6" width="61.72" height="88.73"/>
          <g>
            <rect class="cls-1" x="393.42" y="188.78" width="18.2" height="1.95"/>
            <rect class="cls-1" x="393.42" y="194.67" width="18.2" height="1.95"/>
            <rect class="cls-1" x="393.42" y="200.56" width="18.2" height="1.95"/>
            <rect class="cls-1" x="393.42" y="206.45" width="18.2" height="1.95"/>
            <rect class="cls-1" x="393.42" y="212.34" width="18.2" height="1.95"/>
            <rect class="cls-1" x="393.42" y="218.23" width="18.2" height="1.95"/>
            <rect class="cls-1" x="393.42" y="224.12" width="18.2" height="1.95"/>
            <rect class="cls-1" x="393.42" y="230.01" width="18.2" height="1.95"/>
            <rect class="cls-1" x="361.87" y="235.9" width="49.75" height="1.95"/>
            <rect class="cls-1" x="361.87" y="241.79" width="49.75" height="1.95"/>
            <rect class="cls-1" x="361.87" y="247.68" width="49.75" height="1.95"/>
            <rect class="cls-1" x="361.87" y="253.57" width="49.75" height="1.95"/>
            <rect class="cls-1" x="361.87" y="188.78" width="25.7" height="43.18"/>
          </g>
          <polygon class="cls-15" points="378.53 256.54 349.92 234.15 349.92 278.92 378.53 256.54"/>
          <polygon class="cls-15" points="394.96 256.54 423.56 234.15 423.56 278.92 394.96 256.54"/>
          <polygon class="cls-15" points="386.74 245.53 349.92 278.92 423.56 278.92 386.74 245.53"/>
          <g>
            <rect class="cls-19" x="404.62" y="235.11" width="6.68" height="19.65" transform="translate(-53.71 360.21) rotate(-45)"/>
            <circle class="cls-19" cx="392.05" cy="229.03" r="14.92"/>
            <circle class="cls-7" cx="392.05" cy="229.03" r="10.52" transform="translate(-47.12 344.3) rotate(-45)"/>
            <path class="cls-7" d="M394.78,223.02c2.28,1.04,3.87,3.34,3.87,6.01"/>
            <path class="cls-7" d="M392.05,222.43c.13,0,.26,0,.39.01"/>
          </g>
        </g>
        <g>
          <g>
            <circle class="cls-16" cx="227.99" cy="105.53" r="9.73" transform="translate(-23.23 103.04) rotate(-24.27)"/>
            <path class="cls-16" d="M269.23,115.59c.78-3.22,1.21-6.59,1.21-10.05s-.42-6.83-1.21-10.05l-10.71,2.1c-.74-2.85-1.87-5.54-3.33-8.01l9.07-6.09c-3.53-5.8-8.42-10.68-14.22-14.22l-6.09,9.07c-2.48-1.46-5.16-2.59-8.01-3.33l2.1-10.71c-3.22-.78-6.59-1.21-10.05-1.21s-6.83.42-10.05,1.21l2.1,10.71c-2.85.74-5.54,1.87-8.01,3.33l-6.09-9.07c-5.8,3.53-10.68,8.42-14.22,14.22l9.07,6.09c-1.46,2.48-2.59,5.16-3.33,8.01l-10.71-2.1c-.78,3.22-1.21,6.59-1.21,10.05s.42,6.83,1.21,10.05l10.71-2.1c.74,2.85,1.87,5.54,3.33,8.01l-9.07,6.09c3.53,5.8,8.42,10.68,14.22,14.22l6.09-9.07c2.48,1.46,5.16,2.59,8.01,3.33l-2.1,10.71c3.22.78,6.59,1.21,10.05,1.21s6.83-.42,10.05-1.21l-2.1-10.71c2.85-.74,5.54-1.87,8.01-3.33l6.09,9.07c5.8-3.53,10.68-8.42,14.22-14.22l-9.07-6.09c1.46-2.48,2.59-5.16,3.33-8.01l10.71,2.1ZM227.99,122.59c-9.42,0-17.06-7.64-17.06-17.06s7.64-17.06,17.06-17.06,17.06,7.64,17.06,17.06-7.64,17.06-17.06,17.06Z"/>
          </g>
          <g>
            <polygon class="cls-6" points="167.57 108.68 213.45 168.18 213.45 189.75 242.52 189.75 242.52 168.18 288.4 108.68 167.57 108.68"/>
            <g class="cls-23">
              <polygon class="cls-2" points="234.57 168.18 234.57 189.75 242.52 189.75 242.52 168.18 288.4 108.68 270.7 108.68 234.57 168.18"/>
              <polygon class="cls-2" points="221.41 189.75 221.41 168.18 185.27 108.68 167.57 108.68 213.45 168.18 213.45 189.75 221.41 189.75"/>
            </g>
            <polyline class="cls-5" points="252.82 108.68 231.83 168.18 231.83 189.75 225.44 189.75 225.44 168.18 204.45 108.68"/>
            <polygon class="cls-18" points="167.57 108.68 213.45 168.18 213.45 189.75 242.52 189.75 242.52 168.18 288.4 108.68 167.57 108.68"/>
          </g>
        </g>
        <g>
          <rect class="cls-16" x="294.7" y="151.01" width="79.83" height="55.92"/>
          <rect class="cls-19" x="294.7" y="151.01" width="79.83" height="8.79"/>
          <circle class="cls-18" cx="355.14" cy="155.4" r="1.81"/>
          <circle class="cls-18" cx="362.19" cy="155.4" r="1.81"/>
          <path class="cls-18" d="M371.06,155.4c0,1-.81,1.81-1.81,1.81s-1.81-.81-1.81-1.81.81-1.81,1.81-1.81,1.81.81,1.81,1.81Z"/>
          <g>
            <rect class="cls-1" x="336.05" y="166.16" width="30.7" height="18.14" transform="translate(702.81 350.46) rotate(180)"/>
            <g>
              <rect class="cls-1" x="302.49" y="166.16" width="29.89" height="2.15" transform="translate(634.87 334.47) rotate(180)"/>
              <rect class="cls-1" x="302.49" y="171.49" width="29.89" height="2.15" transform="translate(634.87 345.13) rotate(180)"/>
              <rect class="cls-1" x="302.49" y="176.81" width="29.89" height="2.15" transform="translate(634.87 355.78) rotate(180)"/>
              <rect class="cls-1" x="302.49" y="182.14" width="29.89" height="2.15" transform="translate(634.87 366.44) rotate(180)"/>
              <rect class="cls-1" x="302.49" y="187.47" width="64.27" height="2.15" transform="translate(669.24 377.09) rotate(180)"/>
              <rect class="cls-1" x="302.49" y="192.8" width="64.27" height="2.15" transform="translate(669.24 387.75) rotate(180)"/>
              <rect class="cls-1" x="302.49" y="198.12" width="64.27" height="2.15" transform="translate(669.24 398.4) rotate(180)"/>
            </g>
          </g>
        </g>
        <g>
          <rect class="cls-16" x="280.45" y="138.19" width="80.03" height="56.05"/>
          <rect class="cls-11" x="280.45" y="138.19" width="80.03" height="8.81"/>
          <path class="cls-18" d="M342.85,142.6c0,1-.81,1.82-1.82,1.82s-1.82-.81-1.82-1.82.81-1.82,1.82-1.82,1.82.81,1.82,1.82Z"/>
          <path class="cls-18" d="M349.92,142.6c0,1-.81,1.82-1.82,1.82s-1.82-.81-1.82-1.82.81-1.82,1.82-1.82,1.82.81,1.82,1.82Z"/>
          <circle class="cls-18" cx="355.17" cy="142.6" r="1.82"/>
          <g>
            <rect class="cls-25" x="288.25" y="153.38" width="30.77" height="18.18"/>
            <g>
              <rect class="cls-1" x="322.7" y="153.38" width="29.97" height="2.16"/>
              <rect class="cls-1" x="322.7" y="158.72" width="29.97" height="2.16"/>
              <rect class="cls-1" x="322.7" y="164.06" width="29.97" height="2.16"/>
              <rect class="cls-1" x="322.7" y="169.4" width="29.97" height="2.16"/>
              <rect class="cls-1" x="288.25" y="174.74" width="64.42" height="2.16"/>
              <rect class="cls-1" x="288.25" y="180.09" width="64.42" height="2.16"/>
              <rect class="cls-1" x="288.25" y="185.43" width="64.42" height="2.16"/>
            </g>
          </g>
        </g>
        <g>
          <circle class="cls-6" cx="163.5" cy="280.9" r="24.42"/>
          <circle class="cls-4" cx="163.5" cy="280.9" r="16.79" transform="translate(-150.74 197.89) rotate(-45)"/>
          <path class="cls-3" d="M163.5,269.05c8.43,0,15.39,6.22,16.59,14.32.12-.81.2-1.63.2-2.47,0-9.27-7.52-16.79-16.79-16.79s-16.79,7.52-16.79,16.79c0,.84.08,1.66.2,2.47,1.2-8.1,8.15-14.32,16.59-14.32Z"/>
          <path class="cls-21" d="M165.68,271.94c.76.19,1.44.45,2.06.79.61.34,1.14.73,1.58,1.16.44.43.78.88,1.03,1.35.25.47.39.93.4,1.36,0,.15-.05.28-.16.39-.11.11-.23.16-.37.16h-3.3c-.24,0-.42-.03-.57-.1-.14-.07-.29-.17-.44-.3-.05-.05-.13-.13-.24-.25-.11-.12-.26-.24-.47-.36-.2-.13-.45-.24-.76-.33s-.67-.14-1.11-.14c-.32,0-.63.02-.92.06-.29.04-.55.11-.78.2-.23.09-.41.22-.56.39-.14.17-.21.38-.21.63s.08.46.24.63c.16.17.43.32.81.47.38.14.88.28,1.5.42.62.13,1.39.29,2.32.48.92.19,1.73.42,2.42.71.69.29,1.26.64,1.73,1.07.46.43.81.93,1.03,1.51.23.58.34,1.26.34,2.05,0,.71-.13,1.35-.4,1.94-.27.59-.65,1.11-1.13,1.56-.49.45-1.08.83-1.77,1.13-.69.3-1.45.52-2.27.66v1.79c0,.18-.07.34-.2.48-.13.13-.29.2-.48.2h-3.3c-.19,0-.34-.07-.48-.2-.13-.13-.2-.29-.2-.48v-1.87c-.81-.18-1.53-.45-2.18-.79-.65-.34-1.2-.74-1.66-1.17-.46-.44-.82-.91-1.07-1.42-.25-.51-.39-1.03-.4-1.55,0-.15.05-.28.16-.39.11-.11.23-.16.37-.16h3.3c.24,0,.42.03.56.09.13.06.27.15.4.26.07.07.17.18.3.33.13.15.31.31.54.47.23.16.51.3.86.42.34.12.77.18,1.27.18.89,0,1.63-.1,2.23-.29.6-.19.9-.54.9-1.05,0-.25-.11-.46-.33-.63-.22-.17-.55-.32-.98-.47-.44-.14-1-.28-1.68-.42-.68-.13-1.48-.3-2.41-.5-1.73-.37-3-.99-3.79-1.85-.8-.87-1.2-2.02-1.2-3.47,0-.59.11-1.15.33-1.7.22-.55.53-1.05.95-1.5.41-.45.92-.85,1.51-1.19.6-.34,1.27-.6,2.03-.78v-1.87c0-.18.07-.34.2-.48.13-.13.29-.2.48-.2h3.3c.18,0,.34.07.48.2.13.13.2.29.2.48v1.89Z"/>
          <circle class="cls-18" cx="163.5" cy="280.9" r="16.79" transform="translate(-150.74 197.89) rotate(-45)"/>
        </g>
      </g>
    </g>
  </g>
</svg>