<svg width="141" height="121" viewBox="0 0 141 121" fill="none" xmlns="http://www.w3.org/2000/svg">
<path d="M98.6317 109.042L98.0849 109.879L98.0849 109.879L98.6317 109.042ZM88.4149 58.979L88.3278 57.9828C88.2929 57.9858 88.2583 57.9907 88.224 57.9974L88.4149 58.979ZM47.5471 82.478L46.577 82.2355L46.577 82.2355L47.5471 82.478ZM9.23346 112.618V113.618C9.24247 113.618 9.25147 113.618 9.26048 113.618L9.23346 112.618ZM8.97681 111.618C8.42452 111.618 7.97681 112.066 7.97681 112.618C7.97681 113.17 8.42452 113.618 8.97681 113.618V111.618ZM9.02493 113.618C9.57721 113.618 10.0249 113.17 10.0249 112.618C10.0249 112.066 9.57721 111.618 9.02493 111.618V113.618ZM9.18534 111.618C8.63305 111.618 8.18534 112.066 8.18534 112.618C8.18534 113.17 8.63305 113.618 9.18534 113.618V111.618ZM10.801 113.569C11.3529 113.549 11.7839 113.085 11.7637 112.533C11.7435 111.981 11.2797 111.55 10.7278 111.57L10.801 113.569ZM15.6669 111.301C15.1161 111.342 14.7026 111.822 14.7434 112.373C14.7841 112.923 15.2636 113.337 15.8144 113.296L15.6669 111.301ZM18.8357 113.031C19.3851 112.974 19.7848 112.483 19.7284 111.934C19.6721 111.384 19.181 110.985 18.6316 111.041L18.8357 113.031ZM23.5448 110.391C23 110.482 22.6317 110.997 22.7222 111.541C22.8127 112.086 23.3277 112.455 23.8725 112.364L23.5448 110.391ZM26.8676 111.792C27.4072 111.675 27.7493 111.142 27.6316 110.602C27.514 110.063 26.9812 109.72 26.4416 109.838L26.8676 111.792ZM31.1638 108.534C30.6419 108.715 30.3651 109.284 30.5456 109.806C30.7262 110.328 31.2956 110.605 31.8176 110.425L31.1638 108.534ZM34.6904 109.273C35.1915 109.041 35.4094 108.446 35.1771 107.945C34.9448 107.444 34.3503 107.226 33.8492 107.458L34.6904 109.273ZM37.9152 104.986C37.484 105.332 37.4143 105.961 37.7595 106.392C38.1047 106.823 38.734 106.893 39.1651 106.548L37.9152 104.986ZM41.4595 104.344C41.8207 103.927 41.7748 103.295 41.357 102.934C40.9393 102.573 40.3077 102.619 39.9465 103.036L41.4595 104.344ZM42.4493 99.059C42.2222 99.5624 42.4462 100.155 42.9496 100.382C43.453 100.609 44.0452 100.385 44.2724 99.8814L42.4493 99.059ZM45.3715 96.9564C45.5362 96.4292 45.2424 95.8684 44.7153 95.7036C44.1882 95.5389 43.6273 95.8327 43.4626 96.3599L45.3715 96.9564ZM44.6408 91.5998C44.5301 92.1409 44.879 92.6692 45.4201 92.7799C45.9612 92.8906 46.4895 92.5417 46.6002 92.0006L44.6408 91.5998ZM47.1787 89.0379C47.2824 88.4955 46.9267 87.9717 46.3843 87.868C45.8418 87.7643 45.318 88.12 45.2143 88.6624L47.1787 89.0379ZM46.2234 83.7183C46.1008 84.2568 46.438 84.7927 46.9765 84.9153C47.515 85.0379 48.0509 84.7008 48.1735 84.1622L46.2234 83.7183ZM48.9428 81.3785C49.1411 80.863 48.884 80.2844 48.3685 80.0861C47.8531 79.8878 47.2745 80.1449 47.0762 80.6604L48.9428 81.3785ZM49.8424 76.0192C49.4929 76.4468 49.5562 77.0768 49.9839 77.4263C50.4115 77.7758 51.0415 77.7125 51.391 77.2848L49.8424 76.0192ZM53.3954 75.1467C53.7972 74.7677 53.8156 74.1348 53.4366 73.7331C53.0576 73.3314 52.4247 73.3129 52.023 73.6919L53.3954 75.1467ZM56.1193 70.4067C55.6654 70.7213 55.5525 71.3444 55.8671 71.7983C56.1817 72.2522 56.8048 72.3651 57.2587 72.0505L56.1193 70.4067ZM59.7799 70.426C60.2533 70.1416 60.4065 69.5272 60.122 69.0538C59.8376 68.5804 59.2232 68.4272 58.7498 68.7117L59.7799 70.426ZM63.3112 66.236C62.8157 66.48 62.6118 67.0795 62.8558 67.5749C63.0999 68.0704 63.6993 68.2742 64.1948 68.0302L63.3112 66.236ZM66.9352 66.7498C67.4401 66.5258 67.6677 65.935 67.4438 65.4301C67.2198 64.9253 66.629 64.6977 66.1241 64.9216L66.9352 66.7498ZM70.9021 62.9653C70.3855 63.1606 70.125 63.7377 70.3203 64.2543C70.5156 64.7709 71.0928 65.0313 71.6094 64.836L70.9021 62.9653ZM74.4624 63.8057C74.9845 63.6257 75.2619 63.0565 75.0818 62.5344C74.9018 62.0122 74.3326 61.7349 73.8105 61.915L74.4624 63.8057ZM78.719 60.3474C78.1893 60.5036 77.8864 61.0596 78.0426 61.5894C78.1987 62.1191 78.7548 62.422 79.2845 62.2658L78.719 60.3474ZM82.2088 61.4459C82.7425 61.304 83.0601 60.7562 82.9181 60.2225C82.7762 59.6888 82.2285 59.3712 81.6947 59.5131L82.2088 61.4459ZM86.7119 58.3062C86.1717 58.4215 85.8274 58.9528 85.9427 59.493C86.0581 60.0331 86.5894 60.3774 87.1295 60.2621L86.7119 58.3062ZM90.0533 59.8461C90.6039 59.8026 91.0149 59.321 90.9714 58.7704C90.928 58.2199 90.4464 57.8088 89.8958 57.8523L90.0533 59.8461ZM94.9197 57.5282C94.3681 57.5554 93.943 58.0246 93.9702 58.5763C93.9974 59.1279 94.4666 59.553 95.0182 59.5258L94.9197 57.5282ZM97.9707 59.4091C98.5227 59.3929 98.9571 58.9322 98.9408 58.3802C98.9246 57.8282 98.4639 57.3938 97.9119 57.41L97.9707 59.4091ZM102.95 57.3557C102.398 57.3508 101.946 57.7944 101.941 58.3467C101.936 58.899 102.38 59.3507 102.932 59.3556L102.95 57.3557ZM105.914 59.4214C106.466 59.441 106.93 59.0096 106.949 58.4576C106.969 57.9057 106.538 57.4423 105.986 57.4226L105.914 59.4214ZM110.949 57.7231C110.399 57.6751 109.914 58.0822 109.866 58.6324C109.818 59.1826 110.225 59.6675 110.775 59.7156L110.949 57.7231ZM113.806 60.0376C114.354 60.1067 114.854 59.7186 114.923 59.1707C114.992 58.6227 114.604 58.1225 114.056 58.0533L113.806 60.0376ZM119.049 58.8692C118.508 58.7586 117.979 59.1075 117.869 59.6486C117.758 60.1897 118.107 60.718 118.648 60.8287L119.049 58.8692ZM121.446 61.4794C121.98 61.6198 122.527 61.3006 122.667 60.7665C122.807 60.2324 122.488 59.6855 121.954 59.5451L121.446 61.4794ZM126.823 61.1283C126.31 60.9245 125.728 61.1754 125.525 61.6887C125.321 62.202 125.572 62.7834 126.085 62.9872L126.823 61.1283ZM128.754 64.1911C129.246 64.4427 129.848 64.2481 130.1 63.7564C130.351 63.2647 130.157 62.6622 129.665 62.4107L128.754 64.1911ZM134.022 65.207C133.592 64.86 132.963 64.927 132.616 65.3566C132.269 65.7863 132.336 66.4159 132.765 66.7629L134.022 65.207ZM134.82 68.7019C135.189 69.1126 135.821 69.1462 136.232 68.7769C136.643 68.4077 136.676 67.7754 136.307 67.3647L134.82 68.7019ZM139.201 71.7991C138.977 71.2942 138.386 71.0666 137.882 71.2905C137.377 71.5145 137.149 72.1053 137.373 72.6101L139.201 71.7991ZM138.251 75.2626C138.373 75.8012 138.908 76.1389 139.447 76.0168C139.985 75.8947 140.323 75.3591 140.201 74.8205L138.251 75.2626ZM140.593 80.0631C140.628 79.512 140.21 79.0366 139.658 79.0014C139.107 78.9662 138.632 79.3845 138.597 79.9356L140.593 80.0631ZM138.21 82.7632C138.098 83.3041 138.446 83.8332 138.987 83.945C139.527 84.0569 140.057 83.7091 140.168 83.1683L138.21 82.7632ZM138.629 88.1142C138.84 87.6037 138.597 87.0191 138.086 86.8084C137.576 86.5978 136.991 86.8409 136.78 87.3514L138.629 88.1142ZM135.547 89.9843C135.29 90.4734 135.479 91.0778 135.968 91.3343C136.457 91.5909 137.061 91.4023 137.318 90.9132L135.547 89.9843ZM134.64 95.2791C134.958 94.8276 134.85 94.2037 134.398 93.8856C133.947 93.5675 133.323 93.6756 133.005 94.1271L134.64 95.2791ZM131.234 96.4597C130.885 96.8878 130.949 97.5177 131.377 97.8667C131.805 98.2157 132.435 98.1515 132.784 97.7235L131.234 96.4597ZM129.342 101.497C129.736 101.11 129.742 100.477 129.355 100.083C128.968 99.6888 128.334 99.6831 127.94 100.07L129.342 101.497ZM125.783 102.055C125.364 102.415 125.317 103.047 125.678 103.465C126.038 103.884 126.669 103.931 127.088 103.571L125.783 102.055ZM123.031 106.684C123.488 106.373 123.607 105.752 123.296 105.295C122.986 104.838 122.364 104.719 121.907 105.029L123.031 106.684ZM119.43 106.58C118.951 106.855 118.786 107.466 119.061 107.945C119.336 108.424 119.947 108.589 120.426 108.314L119.43 106.58ZM115.804 110.552C116.318 110.349 116.57 109.769 116.368 109.255C116.166 108.741 115.585 108.489 115.071 108.691L115.804 110.552ZM112.33 109.61C111.797 109.757 111.484 110.307 111.631 110.84C111.778 111.372 112.328 111.685 112.861 111.538L112.33 109.61ZM107.711 112.375C108.263 112.351 108.692 111.885 108.668 111.333C108.645 110.782 108.179 110.353 107.627 110.376L107.711 112.375ZM104.811 110.259C104.264 110.187 103.762 110.573 103.69 111.12C103.618 111.668 104.003 112.17 104.551 112.242L104.811 110.259ZM99.4843 110.69C99.9764 110.94 100.579 110.745 100.829 110.253C101.08 109.761 100.884 109.158 100.392 108.908L99.4843 110.69ZM98.0495 107.373C97.6239 107.021 96.9935 107.081 96.6416 107.506C96.2896 107.932 96.3493 108.562 96.7749 108.914L98.0495 107.373ZM93.2914 104.853C93.5816 105.323 94.1978 105.468 94.6677 105.178C95.1376 104.888 95.2832 104.272 94.993 103.802L93.2914 104.853ZM93.6707 101.243C93.452 100.736 92.8636 100.503 92.3565 100.721C91.8493 100.94 91.6155 101.528 91.8342 102.036L93.6707 101.243ZM90.2202 97.0665C90.3476 97.6039 90.8865 97.9362 91.4239 97.8089C91.9613 97.6815 92.2937 97.1426 92.1663 96.6052L90.2202 97.0665ZM91.5983 93.7098C91.5116 93.1644 90.9992 92.7925 90.4537 92.8792C89.9083 92.9659 89.5364 93.4783 89.6231 94.0238L91.5983 93.7098ZM89.0707 88.9264C89.1057 89.4775 89.5809 89.896 90.1321 89.8609C90.6833 89.8259 91.1017 89.3507 91.0666 88.7995L89.0707 88.9264ZM90.9446 85.8176C90.9337 85.2654 90.4772 84.8266 89.9251 84.8375C89.3729 84.8484 88.9341 85.3048 88.9449 85.857L90.9446 85.8176ZM89.001 80.7344C88.9795 81.2863 89.4094 81.7511 89.9612 81.7727C90.5131 81.7943 90.978 81.3644 90.9995 80.8125L89.001 80.7344ZM91.1604 77.8227C91.1978 77.2717 90.7814 76.7947 90.2304 76.7573C89.6794 76.7199 89.2024 77.1362 89.165 77.6873L91.1604 77.8227ZM89.6153 72.6193C89.5557 73.1684 89.9525 73.6618 90.5016 73.7214C91.0506 73.781 91.5441 73.3842 91.6037 72.8351L89.6153 72.6193ZM91.9606 69.8413C92.0316 69.2936 91.6451 68.792 91.0974 68.7211C90.5497 68.6501 90.0482 69.0366 89.9772 69.5843L91.9606 69.8413ZM90.7063 64.5646C90.619 65.11 90.9903 65.6228 91.5356 65.7102C92.0809 65.7975 92.5938 65.4263 92.6812 64.8809L90.7063 64.5646ZM93.1827 61.9035C93.2787 61.3596 92.9156 60.8409 92.3718 60.7449C91.8279 60.6489 91.3092 61.012 91.2132 61.5559L93.1827 61.9035ZM92.1543 56.5756C92.0455 57.117 92.3962 57.6442 92.9377 57.753C93.4791 57.8618 94.0063 57.511 94.1151 56.9696L92.1543 56.5756ZM94.7289 54.0141C94.8446 53.4741 94.5006 52.9425 93.9606 52.8268C93.4206 52.7111 92.889 53.0551 92.7733 53.5951L94.7289 54.0141ZM93.8841 48.6503C93.7579 49.188 94.0915 49.7262 94.6292 49.8524C95.1669 49.9786 95.705 49.645 95.8312 49.1073L93.8841 48.6503ZM96.5368 46.1727C96.6688 45.6364 96.341 45.0947 95.8047 44.9627C95.2685 44.8307 94.7267 45.1585 94.5948 45.6948L96.5368 46.1727ZM95.8467 40.7862C95.7058 41.3202 96.0245 41.8673 96.5585 42.0082C97.0925 42.1491 97.6396 41.8304 97.7805 41.2964L95.8467 40.7862ZM98.565 38.3788C98.7109 37.8461 98.3973 37.2961 97.8646 37.1502C97.332 37.0043 96.7819 37.3178 96.636 37.8505L98.565 38.3788ZM98.0095 32.9788C97.8557 33.5092 98.1611 34.0639 98.6915 34.2177C99.222 34.3714 99.7766 34.066 99.9304 33.5356L98.0095 32.9788ZM100.785 30.6333C100.943 30.1042 100.643 29.547 100.114 29.3887C99.5845 29.2304 99.0272 29.5311 98.869 30.0602L100.785 30.6333ZM100.352 25.2239C100.186 25.7508 100.479 26.3121 101.006 26.4776C101.533 26.6431 102.094 26.3501 102.26 25.8232L100.352 25.2239ZM103.179 22.9382C103.349 22.4126 103.06 21.849 102.535 21.6792C102.009 21.5095 101.445 21.7979 101.276 22.3235L103.179 22.9382ZM102.861 17.5247C102.684 18.048 102.965 18.6154 103.488 18.7921C104.012 18.9688 104.579 18.6879 104.756 18.1646L102.861 17.5247ZM105.737 15.2978C105.918 14.776 105.641 14.2063 105.119 14.0254C104.598 13.8445 104.028 14.1208 103.847 14.6426L105.737 15.2978ZM105.537 9.87419C105.349 10.3934 105.617 10.9669 106.137 11.155C106.656 11.3431 107.229 11.0746 107.417 10.5554L105.537 9.87419ZM108.456 7.72755C108.648 7.20995 108.385 6.63419 107.867 6.44156C107.35 6.24893 106.774 6.51237 106.581 7.02997L108.456 7.72755ZM108.393 2.27645C108.192 2.79089 108.446 3.37081 108.961 3.57174C109.475 3.77266 110.055 3.51852 110.256 3.00408L108.393 2.27645ZM8.97681 113.618H9.02493V111.618H8.97681V113.618ZM9.18534 113.618H9.23346V111.618H9.18534V113.618ZM9.26048 113.618C9.78162 113.604 10.2951 113.587 10.801 113.569L10.7278 111.57C10.2285 111.588 9.72138 111.604 9.20644 111.618L9.26048 113.618ZM15.8144 113.296C16.8584 113.219 17.865 113.13 18.8357 113.031L18.6316 111.041C17.6808 111.139 16.6931 111.226 15.6669 111.301L15.8144 113.296ZM23.8725 112.364C24.9207 112.19 25.9182 111.999 26.8676 111.792L26.4416 109.838C25.5271 110.038 24.5625 110.222 23.5448 110.391L23.8725 112.364ZM31.8176 110.425C32.8471 110.068 33.8027 109.684 34.6904 109.273L33.8492 107.458C33.0275 107.839 32.1349 108.199 31.1638 108.534L31.8176 110.425ZM39.1651 106.548C40.0282 105.857 40.7878 105.121 41.4595 104.344L39.9465 103.036C39.3551 103.72 38.6837 104.371 37.9152 104.986L39.1651 106.548ZM44.2724 99.8814C44.6989 98.9359 45.0583 97.9588 45.3715 96.9564L43.4626 96.3599C43.1687 97.3003 42.8367 98.2001 42.4493 99.059L44.2724 99.8814ZM46.6002 92.0006C46.7985 91.0315 46.9871 90.0404 47.1787 89.0379L45.2143 88.6624C45.0219 89.6688 44.8359 90.646 44.6408 91.5998L46.6002 92.0006ZM48.1735 84.1622C48.2823 83.6843 48.3965 83.2037 48.5172 82.7205L46.577 82.2355C46.4524 82.7337 46.335 83.2281 46.2234 83.7183L48.1735 84.1622ZM48.5172 82.7205C48.6303 82.2682 48.7726 81.8209 48.9428 81.3785L47.0762 80.6604C46.8778 81.176 46.7106 81.701 46.577 82.2355L48.5172 82.7205ZM51.391 77.2848C51.9877 76.5547 52.6587 75.8418 53.3954 75.1467L52.023 73.6919C51.231 74.4391 50.4999 75.2147 49.8424 76.0192L51.391 77.2848ZM57.2587 72.0505C58.0637 71.4924 58.9064 70.9508 59.7799 70.426L58.7498 68.7117C57.8426 69.2567 56.9632 69.8217 56.1193 70.4067L57.2587 72.0505ZM64.1948 68.0302C65.0938 67.5875 66.0092 67.1606 66.9352 66.7498L66.1241 64.9216C65.1755 65.3425 64.2357 65.7807 63.3112 66.236L64.1948 68.0302ZM71.6094 64.836C72.5624 64.4757 73.5155 64.1322 74.4624 63.8057L73.8105 61.915C72.8459 62.2475 71.8743 62.5977 70.9021 62.9653L71.6094 64.836ZM79.2845 62.2658C80.283 61.9715 81.2605 61.6981 82.2088 61.4459L81.6947 59.5131C80.7296 59.7698 79.7349 60.0479 78.719 60.3474L79.2845 62.2658ZM87.1295 60.2621C87.6404 60.153 88.1331 60.0525 88.6057 59.9606L88.224 57.9974C87.739 58.0917 87.2342 58.1946 86.7119 58.3062L87.1295 60.2621ZM88.502 59.9752C89.0239 59.9296 89.541 59.8865 90.0533 59.8461L89.8958 57.8523C89.3778 57.8932 88.8552 57.9367 88.3278 57.9828L88.502 59.9752ZM95.0182 59.5258C96.0227 59.4763 97.0067 59.4375 97.9707 59.4091L97.9119 57.41C96.9344 57.4387 95.9371 57.4781 94.9197 57.5282L95.0182 59.5258ZM102.932 59.3556C103.952 59.3647 104.946 59.3868 105.914 59.4214L105.986 57.4226C104.999 57.3874 103.987 57.365 102.95 57.3557L102.932 59.3556ZM110.775 59.7156C111.819 59.8067 112.829 59.9143 113.806 60.0376L114.056 58.0533C113.053 57.9267 112.018 57.8164 110.949 57.7231L110.775 59.7156ZM118.648 60.8287C119.622 61.0277 120.554 61.245 121.446 61.4794L121.954 59.5451C121.025 59.3008 120.057 59.0752 119.049 58.8692L118.648 60.8287ZM126.085 62.9872C127.037 63.365 127.925 63.7671 128.754 64.1911L129.665 62.4107C128.777 61.9561 127.83 61.5281 126.823 61.1283L126.085 62.9872ZM132.765 66.7629C133.534 67.3835 134.217 68.0313 134.82 68.7019L136.307 67.3647C135.63 66.6118 134.869 65.8913 134.022 65.207L132.765 66.7629ZM137.373 72.6101C137.755 73.4702 138.045 74.356 138.251 75.2626L140.201 74.8205C139.968 73.7908 139.637 72.7812 139.201 71.7991L137.373 72.6101ZM138.597 79.9356C138.537 80.8673 138.407 81.8115 138.21 82.7632L140.168 83.1683C140.383 82.1315 140.527 81.0944 140.593 80.0631L138.597 79.9356ZM136.78 87.3514C136.417 88.233 136.004 89.112 135.547 89.9843L137.318 90.9132C137.802 89.9898 138.241 89.0553 138.629 88.1142L136.78 87.3514ZM133.005 94.1271C132.447 94.9192 131.855 95.698 131.234 96.4597L132.784 97.7235C133.434 96.9264 134.054 96.1104 134.64 95.2791L133.005 94.1271ZM127.94 100.07C127.242 100.756 126.522 101.419 125.783 102.055L127.088 103.571C127.86 102.906 128.612 102.213 129.342 101.497L127.94 100.07ZM121.907 105.029C121.092 105.582 120.265 106.101 119.43 106.58L120.426 108.314C121.306 107.809 122.176 107.264 123.031 106.684L121.907 105.029ZM115.071 108.691C114.155 109.052 113.239 109.36 112.33 109.61L112.861 111.538C113.843 111.268 114.826 110.937 115.804 110.552L115.071 108.691ZM107.627 110.376C106.667 110.417 105.727 110.379 104.811 110.259L104.551 112.242C105.588 112.378 106.645 112.42 107.711 112.375L107.627 110.376ZM100.392 108.908C99.9795 108.697 99.5747 108.463 99.1785 108.205L98.0849 109.879C98.5411 110.177 99.0079 110.447 99.4843 110.69L100.392 108.908ZM99.1785 108.205C98.7864 107.949 98.4102 107.671 98.0495 107.373L96.7749 108.914C97.1926 109.26 97.6292 109.582 98.0849 109.879L99.1785 108.205ZM94.993 103.802C94.5065 103.014 94.0662 102.16 93.6707 101.243L91.8342 102.036C92.2646 103.033 92.749 103.975 93.2914 104.853L94.993 103.802ZM92.1663 96.6052C91.9466 95.6783 91.7576 94.7123 91.5983 93.7098L89.6231 94.0238C89.7896 95.0714 89.988 96.0867 90.2202 97.0665L92.1663 96.6052ZM91.0666 88.7995C91.005 87.8288 90.9646 86.8342 90.9446 85.8176L88.9449 85.857C88.9655 86.9008 89.007 87.9246 89.0707 88.9264L91.0666 88.7995ZM90.9995 80.8125C91.0379 79.8307 91.0918 78.8336 91.1604 77.8227L89.165 77.6873C89.0951 78.7162 89.0402 79.7324 89.001 80.7344L90.9995 80.8125ZM91.6037 72.8351C91.711 71.8467 91.8302 70.8483 91.9606 69.8413L89.9772 69.5843C89.8451 70.6044 89.7242 71.6165 89.6153 72.6193L91.6037 72.8351ZM92.6812 64.8809C92.8392 63.8941 93.0066 62.9013 93.1827 61.9035L91.2132 61.5559C91.0353 62.5637 90.8661 63.567 90.7063 64.5646L92.6812 64.8809ZM94.1151 56.9696C94.3125 55.9871 94.5173 55.0016 94.7289 54.0141L92.7733 53.5951C92.5599 54.5906 92.3534 55.5844 92.1543 56.5756L94.1151 56.9696ZM95.8312 49.1073C96.0608 48.1291 96.2962 47.1506 96.5368 46.1727L94.5948 45.6948C94.3525 46.6794 94.1154 47.6649 93.8841 48.6503L95.8312 49.1073ZM97.7805 41.2964C98.0378 40.3213 98.2994 39.3484 98.565 38.3788L96.636 37.8505C96.3688 38.826 96.1056 39.8049 95.8467 40.7862L97.7805 41.2964ZM99.9304 33.5356C100.212 32.5628 100.497 31.5951 100.785 30.6333L98.869 30.0602C98.5797 31.0273 98.293 32.0005 98.0095 32.9788L99.9304 33.5356ZM102.26 25.8232C102.565 24.8529 102.871 23.8908 103.179 22.9382L101.276 22.3235C100.966 23.2812 100.658 24.2484 100.352 25.2239L102.26 25.8232ZM104.756 18.1646C105.083 17.196 105.41 16.2399 105.737 15.2978L103.847 14.6426C103.519 15.5898 103.19 16.5509 102.861 17.5247L104.756 18.1646ZM107.417 10.5554C107.766 9.59329 108.112 8.65012 108.456 7.72755L106.581 7.02997C106.236 7.95804 105.888 8.90666 105.537 9.87419L107.417 10.5554ZM110.256 3.00408C110.439 2.53599 110.62 2.07516 110.8 1.62188L108.941 0.884471C108.76 1.34106 108.577 1.80515 108.393 2.27645L110.256 3.00408Z" fill="#E11B19"/>
<path d="M7.7865 106.227L1.2561 112.388L7.7865 119.084" stroke="#E11B19" stroke-width="2" stroke-linecap="round" stroke-linejoin="round"/>
</svg>
