<svg width="393" height="391" viewBox="0 0 393 391" fill="none" xmlns="http://www.w3.org/2000/svg">
<path d="M55.0195 41.0381C-2.14587 82.8361 -0.727947 178.046 1.07467 244.679C1.75044 269.671 4.28754 295.41 16.0718 317.459C36.5925 355.857 81.2144 375.435 124.322 381.533C167.43 387.631 211.392 383.075 254.722 387.309C271.262 388.925 287.842 391.823 304.397 390.363C320.95 388.904 337.983 382.332 347.607 368.785C354.739 358.747 357.012 346.188 360.813 334.477C370.985 303.134 393.279 274.529 392.146 241.596C391.267 216.047 376.082 192.383 376.527 166.821C376.983 140.596 393.743 113.728 383.359 89.6415C373.3 66.3079 344.208 59.8702 321.406 48.6596C291.464 33.94 267.05 6.54671 234.128 1.13205C210.792 -2.70552 187.392 5.32454 164.285 10.3639C138.114 16.0713 111.098 18.022 85.5031 25.921C73.8389 29.5211 63.7466 34.6566 55.0195 41.0381Z" fill="#E1F2F9"/>
<path d="M226.836 58.5923L37.5703 88.543L78.3365 346.155L267.602 316.204L226.836 58.5923Z" fill="#CBD3F9"/>
<path d="M346.563 120.941L159.961 77.3853L100.677 331.372L287.279 374.928L346.563 120.941Z" fill="#FCD936"/>
<path d="M282.578 356.693L79.6071 346.422C76.4197 346.261 73.9677 343.546 74.1286 340.359L87.7486 71.213C87.9095 68.0257 90.6245 65.5737 93.811 65.7345L296.782 76.0055C299.969 76.1664 302.422 78.8814 302.261 82.0679L288.641 351.214C288.48 354.401 285.766 356.853 282.578 356.693Z" fill="#315359"/>
<path d="M294.036 90.2419L102.662 80.5649L89.4907 341.046L280.864 350.723L294.036 90.2419Z" fill="#1E3D44"/>
<path d="M290.473 85.798L99.0996 76.1211L85.9282 336.602L277.302 346.279L290.473 85.798Z" fill="white"/>
<path d="M170.188 102.638L114.902 99.8423L111.975 157.727L167.261 160.523L170.188 102.638Z" fill="#CBD3F9"/>
<path d="M164.885 160.414L114.133 157.845L114.143 157.636C114.659 147.443 123.34 139.599 133.533 140.114L147.374 140.815C157.567 141.331 165.411 150.012 164.895 160.204L164.885 160.414Z" fill="#44457B"/>
<path d="M153.039 121.442C152.652 129.075 146.872 137.474 140.282 137.14C133.692 136.806 128.789 127.867 129.176 120.234C129.562 112.601 135.092 109.164 141.681 109.497C148.271 109.831 153.425 113.808 153.039 121.442Z" fill="#E8A68B"/>
<path d="M139.875 145.203C137.184 145.067 135.112 142.775 135.249 140.083L135.589 133.35L145.335 133.842L144.994 140.576C144.859 143.267 142.566 145.339 139.875 145.203Z" fill="#E8A68B"/>
<path d="M131.061 123.881C131.894 125.509 131.721 127.263 130.674 127.799C129.628 128.335 127.44 127.297 126.607 125.669C125.774 124.041 126.61 122.438 127.656 121.903C128.703 121.366 130.228 122.252 131.061 123.881Z" fill="#E8A68B"/>
<path d="M150.795 124.88C149.802 126.416 149.797 128.179 150.784 128.817C151.771 129.455 154.052 128.644 155.045 127.108C156.039 125.572 155.369 123.893 154.382 123.255C153.394 122.617 151.788 123.343 150.795 124.88Z" fill="#E8A68B"/>
<path d="M128.037 113.17C128.341 112.767 128.712 112.4 128.893 111.93C129.054 111.513 129.05 111.053 129.123 110.612C129.533 108.12 132.31 106.672 134.834 106.581C137.358 106.489 139.818 107.34 142.334 107.567C145.319 107.837 148.31 107.224 151.308 107.175C154.304 107.124 157.551 107.77 159.549 110.005C161.554 112.248 161.791 115.806 160.312 118.425C160.225 117.174 159.23 116.042 158 115.795C158.448 116.807 158.906 117.906 158.672 118.988C158.438 120.07 157.163 120.974 156.209 120.413C155.746 120.613 156.228 121.277 156.304 121.775C156.408 122.452 155.633 122.894 154.99 123.129C153.771 123.575 152.551 124.02 151.331 124.466C152.133 122.224 152.069 119.685 151.155 117.486C150.744 116.499 149.983 115.468 148.914 115.457C148.468 115.453 148.041 115.634 147.598 115.686C145.859 115.891 144.57 114.22 143.203 113.127C140.575 111.028 136.516 110.972 133.831 112.998C132.933 113.675 132.142 114.683 132.226 115.804C132.261 116.268 132.446 116.726 132.379 117.186C132.219 118.295 130.778 118.756 130.354 119.793C130.075 120.476 130.298 121.247 130.464 121.967C130.664 122.83 130.721 124.211 129.6 124.472C128.851 124.647 128.545 123.726 128.36 123.174C127.67 121.127 126.892 118.912 126.915 116.732C126.928 115.457 127.261 114.197 128.037 113.17Z" fill="#44457B"/>
<path d="M183.701 116.796C185.172 115.152 186.644 113.506 188.115 111.862C188.944 110.935 187.648 109.614 186.743 110.489C185.329 111.856 185.951 114.13 187.485 115.141C189.594 116.531 192.095 114.963 193.546 113.367C193.006 113.052 192.465 112.737 191.924 112.422C191.357 114.282 192.636 116.239 194.468 116.755C195.354 117.004 196.257 116.854 197.028 116.361C197.703 115.93 198.8 114.334 199.652 114.607C199.415 114.295 199.177 113.983 198.94 113.671C198.943 114.481 198.946 115.291 198.949 116.101C198.951 116.564 199.256 116.881 199.661 117.038C201.954 117.919 204.513 116.968 205.814 114.928C205.222 114.85 204.631 114.773 204.04 114.696C204.643 116.385 206.442 117.081 208.13 116.609C210.244 116.016 211.132 113.744 211.772 111.871C212.116 110.865 210.83 110.372 210.15 110.926C208.635 112.16 208.964 114.555 210.355 115.752C212.121 117.272 214.619 116.425 216.236 115.154C215.683 114.925 215.131 114.696 214.579 114.468C214.752 116.228 215.956 117.788 217.787 118.028C219.615 118.267 221.188 117.074 221.805 115.416C221.214 115.493 220.622 115.57 220.031 115.647C220.553 116.646 221.075 117.646 221.597 118.645C222.175 119.754 223.851 118.773 223.272 117.666C222.751 116.667 222.229 115.667 221.707 114.667C221.289 113.867 220.204 114.171 219.934 114.899C219.277 116.663 216.707 116.364 216.521 114.467C216.434 113.584 215.543 113.247 214.864 113.781C214.069 114.407 212.708 115.002 211.75 114.374C211.031 113.902 210.835 112.859 211.524 112.298C210.983 111.983 210.442 111.668 209.902 111.353C209.537 112.42 209.124 113.809 208.135 114.483C207.524 114.9 206.224 115.048 205.914 114.178C205.633 113.391 204.606 113.215 204.14 113.947C203.273 115.307 201.649 115.73 200.18 115.164C200.417 115.477 200.655 115.788 200.892 116.101C200.889 115.29 200.886 114.48 200.883 113.67C200.881 113.228 200.58 112.866 200.17 112.734C198.649 112.245 197.626 113.325 196.578 114.246C195.997 114.756 195.48 115.147 194.716 114.775C194.008 114.432 193.563 113.704 193.797 112.937C194.075 112.026 192.829 111.273 192.175 111.992C191.424 112.819 190.229 113.97 188.989 113.689C188.278 113.527 187.452 112.503 188.116 111.86C187.658 111.403 187.201 110.946 186.743 110.488C185.272 112.132 183.8 113.777 182.329 115.421C181.497 116.352 182.865 117.729 183.701 116.796Z" fill="#315359"/>
<path d="M231.074 117.583C231.429 117.085 231.876 116.897 232.46 116.798C232.051 116.486 231.641 116.174 231.231 115.862C231.142 116.89 231.491 117.754 232.182 118.504C232.452 118.799 233.019 118.892 233.358 118.656C235.002 117.51 236.646 116.364 238.29 115.218C237.815 115.025 237.339 114.832 236.864 114.638C237.1 115.217 237.335 115.794 237.571 116.373C237.788 116.905 238.19 117.138 238.765 117.052C240.426 116.8 241.964 116.187 243.347 115.235C242.872 115.042 242.396 114.849 241.922 114.655C242.493 116.715 244.359 118.319 246.551 118.315C248.741 118.312 250.604 116.697 251.165 114.636C251.45 113.594 249.918 112.899 249.392 113.888C248.46 115.634 249.05 117.988 250.942 118.818C252.85 119.656 254.949 118.458 255.611 116.602C254.988 116.602 254.364 116.602 253.74 116.602C254.128 118.392 256.01 119.28 257.726 119.025C259.859 118.709 261.144 116.747 262.156 115.037C261.554 114.874 260.95 114.71 260.348 114.547C260.719 117.753 265.156 119.462 267.367 116.857C268.17 115.91 266.804 114.531 265.994 115.485C265.007 116.646 262.485 116.24 262.288 114.547C262.184 113.643 261.011 113.159 260.48 114.057C259.872 115.084 259.216 116.292 258.122 116.875C257.245 117.342 255.854 117.205 255.611 116.086C255.394 115.08 254.038 115.25 253.74 116.086C253.008 118.136 250.042 116.791 251.068 114.868C250.477 114.618 249.885 114.369 249.295 114.12C248.51 117 244.597 117.023 243.795 114.137C243.637 113.57 242.893 113.197 242.369 113.557C241.105 114.426 239.766 114.948 238.25 115.177C238.648 115.404 239.046 115.629 239.444 115.856C239.208 115.277 238.973 114.699 238.738 114.12C238.522 113.591 237.88 113.144 237.312 113.54C235.668 114.686 234.024 115.832 232.38 116.978C232.772 117.028 233.164 117.079 233.556 117.129C233.2 116.741 233.13 116.366 233.174 115.859C233.234 115.173 232.509 114.828 231.945 114.923C230.845 115.109 230.038 115.705 229.399 116.6C228.672 117.622 230.354 118.592 231.074 117.583Z" fill="#315359"/>
<path d="M183.417 134.297C184.381 133.095 185.477 132.079 186.772 131.24C186.379 131.19 185.988 131.139 185.595 131.089C186.241 131.783 186.873 132.866 187.912 132.907C188.635 132.935 189.309 132.646 189.917 132.279C190.348 132.019 191.302 131.061 191.836 131.124C192.232 131.171 192.476 131.911 192.693 132.197C192.942 132.524 193.236 132.799 193.598 133.001C195.132 133.854 197.057 133.065 198.243 131.968C199.787 130.541 200.123 128.128 201.887 126.923C201.495 126.415 201.103 125.907 200.711 125.399C198.988 127.165 198.723 130.509 200.992 131.993C202.996 133.304 205.936 132.308 206.602 129.995C205.978 129.995 205.354 129.995 204.73 129.995C204.994 131.597 206.468 132.683 208.04 132.814C209.937 132.972 211.554 131.778 212.828 130.51C212.275 130.281 211.723 130.052 211.171 129.824C210.818 133.821 215.96 135.314 218.076 132.082C217.568 132.147 217.06 132.213 216.552 132.278C218.745 135.084 223.648 134.519 225.218 131.358C224.615 131.194 224.012 131.031 223.409 130.867C223.026 133.763 226.443 135.347 228.835 134.488C232.091 133.318 233.023 129.689 235.685 127.821C235.198 127.542 234.711 127.263 234.224 126.983C234.142 128.465 234.059 129.946 233.977 131.428C233.954 131.832 234.292 132.278 234.689 132.364C236.711 132.804 238.595 132.334 240.212 131.061C239.659 130.832 239.107 130.603 238.555 130.375C238.584 131.259 238.614 132.142 238.644 133.025C238.661 133.539 239.075 134.01 239.614 133.995C241.157 133.953 242.7 133.912 244.243 133.87C245.49 133.836 245.495 131.895 244.243 131.929C242.7 131.97 241.157 132.012 239.614 132.054C239.938 132.377 240.261 132.701 240.584 133.024C240.555 132.141 240.525 131.257 240.495 130.375C240.464 129.468 239.484 129.18 238.838 129.689C237.799 130.506 236.485 130.771 235.204 130.492C235.441 130.804 235.679 131.116 235.916 131.428C235.999 129.946 236.081 128.465 236.164 126.983C236.203 126.281 235.297 125.728 234.703 126.145C232.801 127.479 231.805 129.488 230.258 131.154C229.493 131.978 228.44 132.879 227.24 132.829C226.162 132.784 225.202 131.981 225.349 130.867C225.476 129.906 223.949 129.554 223.54 130.377C222.481 132.512 219.371 132.758 217.924 130.905C217.516 130.382 216.704 130.636 216.4 131.101C215.252 132.855 212.941 131.758 213.111 129.824C213.188 128.958 212.013 128.58 211.454 129.138C210.721 129.868 209.847 130.684 208.781 130.854C207.769 131.015 206.776 130.536 206.602 129.478C206.439 128.489 204.976 128.622 204.73 129.478C204.412 130.585 202.854 131.009 201.954 130.299C200.843 129.421 201.228 127.648 202.084 126.771C202.827 126.008 201.845 124.606 200.907 125.247C199.345 126.315 198.669 127.916 197.726 129.485C197.297 130.198 196.772 130.823 195.998 131.176C194.878 131.687 194.447 131.27 193.836 130.361C193.053 129.197 191.841 128.91 190.605 129.526C189.97 129.843 189.44 130.325 188.824 130.673C188.582 130.81 188.324 130.969 188.082 130.911C187.773 130.836 187.195 129.957 186.969 129.715C186.688 129.414 186.143 129.336 185.793 129.563C184.365 130.489 183.112 131.596 182.045 132.924C181.269 133.89 182.634 135.272 183.417 134.297Z" fill="#315359"/>
<path d="M255.746 134.355C254.831 134.128 254.495 134.194 254.737 134.555C254.828 134.66 254.84 134.719 254.772 134.734C254.658 135.293 254.933 135.72 255.45 135.928C256.804 136.473 257.972 135.457 258.934 134.639C259.24 134.379 259.729 133.859 260.167 133.879C260.51 133.896 260.814 134.282 261.072 134.475C261.464 134.769 261.875 134.972 262.365 135.029C264.244 135.25 265.033 133.331 266.577 132.765C267.963 132.256 269.564 132.951 270.203 134.246C270.755 135.366 272.43 134.384 271.879 133.267C271.114 131.718 269.48 130.778 267.781 130.679C266.923 130.628 266.043 130.811 265.287 131.228C264.501 131.662 263.942 132.394 263.197 132.878C262.327 133.442 261.855 132.476 261.077 132.142C260.377 131.84 259.637 131.919 258.961 132.252C258.34 132.559 257.823 133.047 257.298 133.49C256.911 133.817 256.487 134.265 255.965 134.056C256.191 134.454 256.417 134.851 256.643 135.25C256.801 134.48 256.615 133.62 256.024 133.063C255.404 132.48 254.459 132.611 254.069 133.376C253.502 134.485 255.177 135.469 255.746 134.355Z" fill="#315359"/>
<path d="M183.404 147.816C184.403 146.722 185.573 145.985 187 145.581C186.602 145.183 186.205 144.785 185.806 144.387C185.542 146.292 186.944 147.807 188.839 148C191.047 148.225 192.679 146.423 193.911 144.846C193.403 144.781 192.895 144.715 192.387 144.65C192.926 145.898 193.467 147.145 194.007 148.393C194.232 148.914 194.903 148.926 195.334 148.741C198.57 147.357 201.279 145.144 203.375 142.327C203.86 141.676 203.043 140.588 202.279 140.902C199.716 141.951 200.14 145.357 202.094 146.851C203.397 147.847 205.129 147.926 206.695 148.125C207.483 148.225 208.302 148.594 209.067 148.338C210.118 147.985 211.142 147.394 212.154 146.935C211.679 146.742 211.203 146.549 210.728 146.355C210.993 147.475 211.26 148.595 211.525 149.715C211.645 150.219 212.229 150.537 212.72 150.393C215.4 149.601 218.222 149.385 220.984 149.871C222.372 150.116 223.679 150.556 224.991 151.06C226.014 151.454 227.005 151.646 228.059 151.25C228.929 150.923 229.878 149.899 230.851 150.091C231.332 150.185 231.79 150.548 232.247 150.727C232.736 150.921 233.233 151.028 233.757 151.075C235.838 151.263 237.751 150.287 238.988 148.651C238.546 148.767 238.103 148.883 237.661 148.999C240.267 150.176 242.982 151.053 245.807 151.516C247.748 151.836 250.305 152.139 251.414 150.092C250.972 150.207 250.529 150.324 250.087 150.44C253.18 152.045 257.147 150.93 258.873 147.873C258.507 148.022 258.141 148.17 257.776 148.319C261.376 149.654 264.977 150.989 268.578 152.324C269.75 152.759 270.257 150.883 269.093 150.453C265.493 149.117 261.893 147.783 258.292 146.447C257.9 146.302 257.393 146.544 257.196 146.893C256.006 149.001 253.237 149.891 251.066 148.764C250.613 148.528 249.998 148.632 249.739 149.112C248.949 150.569 245.841 149.586 244.651 149.322C242.583 148.864 240.571 148.194 238.64 147.322C238.117 147.086 237.658 147.214 237.313 147.67C236.667 148.525 235.63 149.059 234.566 149.147C233.503 149.235 232.747 148.76 231.803 148.382C230.924 148.031 230.112 148.052 229.243 148.429C228.322 148.83 227.538 149.67 226.472 149.499C225.344 149.319 224.256 148.672 223.149 148.368C221.98 148.047 220.773 147.845 219.566 147.741C217.086 147.527 214.588 147.815 212.204 148.519C212.602 148.745 213 148.971 213.398 149.197C213.132 148.077 212.866 146.957 212.6 145.837C212.443 145.176 211.718 145.01 211.175 145.257C210.146 145.724 209.117 146.192 208.088 146.659C208.337 146.627 208.587 146.594 208.836 146.561C207.18 146.127 205.304 146.29 203.735 145.57C203.072 145.266 201.54 143.286 202.797 142.771C202.431 142.296 202.066 141.82 201.7 141.345C199.805 143.893 197.268 145.817 194.355 147.062C194.798 147.178 195.241 147.294 195.683 147.41C195.144 146.162 194.603 144.915 194.064 143.667C193.832 143.131 192.898 143.011 192.539 143.47C191.885 144.308 191.184 145.261 190.228 145.776C189.524 146.155 187.498 146.197 187.679 144.9C187.776 144.201 187.269 143.484 186.485 143.706C184.751 144.197 183.249 145.109 182.032 146.44C181.189 147.364 182.558 148.74 183.404 147.816Z" fill="#315359"/>
<path d="M183.544 158.774C184.435 159.899 185.795 160.551 187.223 160.622C187.965 160.66 188.642 160.477 189.333 160.231C189.808 160.061 190.003 160.002 190.372 160.334C190.646 160.579 190.838 160.882 191.134 161.116C193.575 163.043 196.869 161.033 198.866 159.412C198.325 159.269 197.784 159.127 197.244 158.984C197.999 161.734 201.946 162.263 203.492 159.933C204.185 158.888 202.504 157.916 201.817 158.953C201.178 159.916 199.408 159.532 199.115 158.468C198.907 157.709 198.043 157.593 197.493 158.04C196.512 158.836 195.351 159.61 194.096 159.874C193.643 159.969 193.143 160.008 192.706 159.825C192.168 159.599 191.913 159.084 191.506 158.705C190.415 157.692 189.339 158.295 188.116 158.602C186.879 158.913 185.685 158.369 184.916 157.402C184.14 156.424 182.775 157.806 183.544 158.774Z" fill="#315359"/>
<path d="M188.988 195.544C211.792 196.698 229.404 216.188 228.25 238.991L249.071 240.045C250.806 205.761 224.326 176.458 190.042 174.724C155.758 172.989 126.455 199.469 124.721 233.753L145.542 234.807C146.695 212.002 166.185 194.39 188.988 195.544Z" fill="#FCD936"/>
<path d="M155.763 183.013C138.121 193.242 125.825 211.913 124.721 233.754L145.542 234.808C146.201 221.794 154.143 209.087 165.024 201.76L155.763 183.013Z" fill="#FE6083"/>
<path d="M222.061 185.55L210.943 203.205C221.459 210.443 228.947 225.213 228.25 238.992L249.071 240.045C250.203 217.661 239.305 197.4 222.061 185.55Z" fill="#ADC436"/>
<path d="M267.732 241.929C267.716 241.929 267.701 241.929 267.684 241.928L106.013 233.747C105.494 233.721 105.096 233.28 105.122 232.761C105.149 232.244 105.619 231.848 106.107 231.871L267.779 240.053C268.296 240.079 268.696 240.52 268.669 241.038C268.643 241.539 268.229 241.929 267.732 241.929Z" fill="#315359"/>
<path d="M186.6 237.824C186.417 237.824 186.23 237.769 186.068 237.657C185.64 237.362 185.534 236.778 185.829 236.35L221.288 185.016C221.582 184.589 222.166 184.484 222.594 184.777C223.02 185.072 223.127 185.657 222.832 186.084L187.373 237.418C187.192 237.682 186.899 237.824 186.6 237.824Z" fill="#315359"/>
<path d="M136.748 294.79C136.673 294.79 136.597 294.788 136.521 294.784L125.092 294.205C123.924 294.147 122.847 293.636 122.061 292.767C121.276 291.899 120.877 290.776 120.935 289.607L121.514 278.178C121.573 277.009 122.084 275.932 122.952 275.148C123.821 274.362 124.935 273.965 126.113 274.022L137.541 274.6C139.955 274.723 141.819 276.786 141.698 279.201L141.119 290.628C141.06 291.798 140.55 292.874 139.681 293.659C138.869 294.393 137.835 294.79 136.748 294.79ZM125.89 276.635C125.453 276.635 125.037 276.795 124.709 277.09C124.36 277.406 124.154 277.839 124.13 278.31L123.552 289.739C123.528 290.209 123.689 290.661 124.004 291.011C124.32 291.361 124.753 291.567 125.224 291.59L136.653 292.169C137.126 292.198 137.576 292.031 137.926 291.715C138.276 291.399 138.481 290.966 138.505 290.495L139.084 279.067C139.133 278.095 138.382 277.264 137.41 277.215L125.982 276.637C125.951 276.635 125.92 276.635 125.89 276.635Z" fill="#CBD3F9"/>
<path d="M189.319 284.3C189.297 284.3 189.274 284.299 189.251 284.298L151.501 282.389C150.779 282.352 150.223 281.737 150.26 281.015C150.296 280.294 150.913 279.746 151.633 279.774L189.383 281.684C190.106 281.72 190.662 282.336 190.625 283.057C190.59 283.756 190.012 284.3 189.319 284.3Z" fill="#CBD3F9"/>
<path d="M212.811 294.184C212.789 294.184 212.766 294.183 212.744 294.182L151.063 291.06C150.341 291.024 149.785 290.408 149.822 289.687C149.859 288.966 150.458 288.419 151.196 288.446L212.877 291.568C213.599 291.604 214.154 292.22 214.118 292.941C214.083 293.64 213.505 294.184 212.811 294.184Z" fill="#CBD3F9"/>
<path d="M245.956 295.861C245.934 295.861 245.911 295.86 245.889 295.859L222.082 294.655C221.361 294.618 220.805 294.003 220.842 293.281C220.878 292.56 221.5 292.014 222.215 292.04L246.022 293.245C246.744 293.281 247.299 293.897 247.263 294.618C247.228 295.318 246.65 295.861 245.956 295.861Z" fill="#CBD3F9"/>
<path d="M138.214 265.81C138.139 265.81 138.063 265.808 137.987 265.804L126.559 265.226C125.39 265.167 124.313 264.655 123.527 263.786C122.743 262.918 122.343 261.795 122.402 260.626L122.981 249.198C123.04 248.028 123.551 246.952 124.419 246.167C125.288 245.382 126.402 244.985 127.58 245.042L139.008 245.62C141.422 245.742 143.286 247.805 143.165 250.22L142.586 261.648C142.527 262.817 142.017 263.894 141.148 264.678C140.336 265.413 139.301 265.81 138.214 265.81ZM127.357 247.655C126.919 247.655 126.503 247.815 126.175 248.109C125.826 248.425 125.62 248.858 125.596 249.33L125.018 260.758C124.968 261.73 125.719 262.561 126.692 262.61L138.12 263.188C138.588 263.218 139.043 263.05 139.393 262.735C139.742 262.419 139.948 261.986 139.972 261.514L140.551 250.086C140.6 249.114 139.849 248.284 138.877 248.234L127.449 247.657C127.417 247.655 127.387 247.655 127.357 247.655Z" fill="#CBD3F9"/>
<path d="M190.786 255.32C190.763 255.32 190.741 255.319 190.718 255.318L152.968 253.408C152.245 253.372 151.69 252.756 151.726 252.034C151.763 251.313 152.374 250.765 153.1 250.794L190.85 252.703C191.573 252.74 192.129 253.355 192.092 254.077C192.057 254.776 191.478 255.32 190.786 255.32Z" fill="#CBD3F9"/>
<path d="M214.278 265.204C214.256 265.204 214.233 265.203 214.211 265.202L152.53 262.08C151.808 262.043 151.252 261.428 151.289 260.706C151.325 259.985 151.919 259.437 152.662 259.465L214.344 262.587C215.065 262.624 215.621 263.239 215.585 263.961C215.549 264.661 214.971 265.204 214.278 265.204Z" fill="#CBD3F9"/>
<path d="M247.423 266.88C247.401 266.88 247.378 266.88 247.356 266.879L223.549 265.674C222.827 265.638 222.272 265.023 222.308 264.301C222.345 263.579 222.976 263.035 223.682 263.06L247.489 264.264C248.211 264.301 248.766 264.916 248.73 265.638C248.695 266.337 248.117 266.88 247.423 266.88Z" fill="#CBD3F9"/>
<path d="M135.277 323.771C135.203 323.771 135.129 323.769 135.055 323.765H135.054L123.625 323.186C122.457 323.127 121.38 322.617 120.595 321.748C119.809 320.88 119.41 319.757 119.469 318.588L120.047 307.159C120.106 305.99 120.618 304.913 121.486 304.128C122.354 303.343 123.47 302.939 124.647 303.003L136.074 303.581C138.488 303.704 140.353 305.767 140.231 308.181L139.652 319.609C139.535 321.947 137.593 323.771 135.277 323.771ZM135.187 321.15C136.141 321.173 136.988 320.448 137.038 319.476L137.616 308.048C137.666 307.076 136.914 306.246 135.942 306.196L124.515 305.619C124.039 305.596 123.592 305.756 123.241 306.071C122.893 306.387 122.687 306.82 122.663 307.292L122.084 318.72C122.06 319.191 122.222 319.643 122.537 319.993C122.853 320.342 123.286 320.548 123.756 320.571L135.187 321.15Z" fill="#CBD3F9"/>
<path d="M187.854 313.28C187.832 313.28 187.81 313.279 187.787 313.278L150.036 311.368C149.314 311.332 148.758 310.716 148.795 309.995C148.83 309.274 149.439 308.727 150.168 308.754L187.919 310.664C188.641 310.7 189.197 311.316 189.16 312.037C189.125 312.737 188.547 313.28 187.854 313.28Z" fill="#CBD3F9"/>
<path d="M211.345 323.165C211.322 323.165 211.3 323.164 211.277 323.163L149.596 320.041C148.874 320.005 148.319 319.389 148.355 318.668C148.391 317.947 148.982 317.401 149.729 317.427L211.41 320.548C212.132 320.585 212.688 321.2 212.651 321.922C212.616 322.621 212.038 323.165 211.345 323.165Z" fill="#CBD3F9"/>
<path d="M244.49 324.841C244.468 324.841 244.445 324.84 244.422 324.839L220.616 323.635C219.894 323.599 219.338 322.983 219.375 322.262C219.412 321.54 220.039 320.992 220.748 321.021L244.555 322.225C245.277 322.262 245.833 322.877 245.796 323.599C245.761 324.298 245.182 324.841 244.49 324.841Z" fill="#CBD3F9"/>
<path d="M133.634 262.415C133.607 262.415 133.58 262.415 133.552 262.414C132.647 262.392 131.786 261.989 131.187 261.309L126.005 255.418C125.343 254.665 125.417 253.519 126.168 252.858C126.922 252.195 128.066 252.269 128.728 253.021L133.641 258.606L144.182 247.075C144.857 246.335 146.005 246.285 146.744 246.96C147.484 247.636 147.535 248.783 146.859 249.522L136.011 261.387C135.36 262.058 134.511 262.415 133.634 262.415Z" fill="#ADC436"/>
<path d="M132.169 291.388C132.142 291.388 132.115 291.388 132.088 291.387C131.182 291.365 130.321 290.962 129.722 290.282L124.54 284.391C123.878 283.639 123.952 282.493 124.703 281.831C125.457 281.169 126.601 281.244 127.264 281.994L132.176 287.578L142.717 276.048C143.393 275.307 144.54 275.257 145.279 275.933C146.019 276.608 146.07 277.756 145.394 278.495L134.546 290.36C133.895 291.03 133.046 291.388 132.169 291.388Z" fill="#ADC436"/>
<path d="M130.701 320.359C130.674 320.359 130.648 320.358 130.62 320.358C129.715 320.335 128.852 319.932 128.254 319.252L123.071 313.361C122.409 312.609 122.483 311.463 123.235 310.801C123.988 310.139 125.133 310.212 125.795 310.965L130.707 316.549L141.248 305.018C141.925 304.277 143.072 304.226 143.811 304.903C144.55 305.578 144.601 306.726 143.926 307.465L133.078 319.33C132.428 320 131.579 320.359 130.701 320.359Z" fill="#ADC436"/>
<path d="M237.912 57.5127L154.24 53.2817L152.529 87.1273L236.201 91.3583L237.912 57.5127Z" fill="#FCD936"/>
<path d="M196.078 81.1801C210.313 81.1801 221.852 69.6409 221.852 55.4065C221.852 41.1721 210.313 29.6328 196.078 29.6328C181.844 29.6328 170.305 41.1721 170.305 55.4065C170.305 69.6409 181.844 81.1801 196.078 81.1801Z" fill="#FCD936"/>
<path d="M196.762 41.8802C189.618 41.5184 183.534 47.0173 183.172 54.1614L209.043 55.4704C209.405 48.3263 203.907 42.2419 196.762 41.8802Z" fill="#F89520"/>
<path d="M236.543 84.5639L152.871 80.333L152.528 87.1261L236.199 91.357L236.543 84.5639Z" fill="#F89520"/>
<path d="M162.204 64.4964C164.635 67.9365 167.064 71.3766 169.495 74.8167C169.996 75.5257 171.176 74.8474 170.67 74.1299C168.239 70.6898 165.809 67.2497 163.378 63.8096C162.877 63.0997 161.697 63.7789 162.204 64.4964Z" fill="#F89520"/>
<path d="M167.255 64.0009C168.614 65.9371 169.973 67.8725 171.332 69.8087C171.543 70.1091 171.927 70.2487 172.262 70.053C172.559 69.8794 172.718 69.4249 172.507 69.1227C171.147 67.1865 169.789 65.2511 168.43 63.3149C168.219 63.0144 167.835 62.8749 167.5 63.0706C167.203 63.2434 167.043 63.6979 167.255 64.0009Z" fill="#F89520"/>
<path d="M220.554 65.9197C222.78 69.3479 225.19 72.6519 227.767 75.8256C228.319 76.5056 229.275 75.5379 228.728 74.8639C226.225 71.7804 223.891 68.5641 221.728 65.2338C221.253 64.501 220.075 65.1827 220.554 65.9197Z" fill="#F89520"/>
<path d="M99.2545 297.931C101.518 302.38 104.228 306.577 107.328 310.489C107.871 311.174 108.828 310.206 108.29 309.527C105.265 305.709 102.638 301.586 100.429 297.246C100.032 296.464 98.8579 297.152 99.2545 297.931Z" fill="#315359"/>
<path d="M98.9469 306.551C100.738 308.504 102.2 310.73 103.302 313.14C103.454 313.475 103.938 313.556 104.232 313.384C104.575 313.184 104.63 312.79 104.476 312.454C103.327 309.941 101.777 307.626 99.9086 305.59C99.3154 304.942 98.3563 305.907 98.9469 306.551Z" fill="#315359"/>
<path d="M262.047 173.196C263.478 175.927 264.908 178.657 266.338 181.388C266.744 182.164 267.919 181.477 267.513 180.702C266.082 177.97 264.652 175.24 263.221 172.509C262.816 171.734 261.641 172.42 262.047 173.196Z" fill="#315359"/>
<g opacity="0.77">
<path d="M305.534 260.272C331.397 260.272 352.363 239.306 352.363 213.443C352.363 187.58 331.397 166.614 305.534 166.614C279.671 166.614 258.705 187.58 258.705 213.443C258.705 239.306 279.671 260.272 305.534 260.272Z" fill="#E1F2F9"/>
</g>
<path d="M339.183 245.896L331.873 252.064L361.414 287.075L368.724 280.907L339.183 245.896Z" fill="#FCD936"/>
<path d="M388.905 308.795L385.502 311.667C382.254 314.408 377.398 313.996 374.658 310.749L352.338 284.297L367.504 271.5L389.824 297.951C392.565 301.199 392.154 306.055 388.905 308.795Z" fill="#FE6083"/>
<path d="M305.574 263.938C291.193 263.938 276.905 257.848 266.926 246.022C258.224 235.708 254.059 222.623 255.198 209.179C256.337 195.734 262.644 183.536 272.957 174.834C283.27 166.131 296.363 161.963 309.799 163.106C323.245 164.245 335.442 170.552 344.145 180.865C362.108 202.153 359.402 234.088 338.114 252.052C328.65 260.038 317.084 263.938 305.574 263.938ZM305.463 170.725C295.405 170.725 285.765 174.235 277.989 180.798C269.267 188.155 263.934 198.469 262.972 209.837C262.008 221.206 265.53 232.27 272.889 240.99C288.077 258.991 315.08 261.28 333.082 246.09C351.083 230.9 353.371 203.898 338.181 185.897C330.823 177.176 320.509 171.844 309.14 170.88C307.91 170.777 306.683 170.725 305.463 170.725Z" fill="#6663DE"/>
<path d="M332.416 194.909C333.083 199.882 333.75 204.856 334.417 209.83C334.605 211.235 335.533 212.622 337.138 212.551C338.449 212.492 340.061 211.342 339.859 209.83C339.191 204.856 338.525 199.882 337.858 194.909C337.67 193.504 336.742 192.116 335.137 192.188C333.824 192.247 332.213 193.398 332.416 194.909Z" fill="white"/>
<path d="M331.841 222.669C331.006 224.409 330.534 226.358 330.77 228.295C330.755 228.669 330.833 229.019 331.004 229.343C331.113 229.68 331.301 229.972 331.566 230.219C332.038 230.69 332.812 231.046 333.49 231.016C334.194 230.984 334.923 230.753 335.413 230.219C335.555 230.035 335.697 229.852 335.839 229.668C336.085 229.244 336.209 228.787 336.21 228.296C336.131 227.645 336.135 226.992 336.219 226.342C336.187 226.583 336.154 226.825 336.122 227.066C336.216 226.392 336.394 225.737 336.657 225.109C336.566 225.326 336.474 225.542 336.383 225.759C336.433 225.643 336.485 225.529 336.539 225.416C336.738 225.104 336.846 224.767 336.862 224.405C336.943 224.043 336.926 223.682 336.813 223.32C336.64 222.689 336.152 222.005 335.563 221.694C334.931 221.361 334.166 221.194 333.467 221.42C332.824 221.626 332.144 222.037 331.841 222.669Z" fill="white"/>
<path d="M376.325 291.427C377.778 294.819 380.065 297.868 382.907 300.221C383.454 300.674 384.302 300.798 384.831 300.221C385.29 299.72 385.416 298.782 384.831 298.298C382.074 296.015 380.094 293.369 378.674 290.054C378.392 289.398 377.378 289.202 376.812 289.567C376.131 290.006 376.024 290.724 376.325 291.427Z" fill="white"/>
<path d="M53.0281 301.876L39.9043 325.143L119.419 369.994L132.543 346.728L53.0281 301.876Z" fill="#FE6083"/>
<path d="M48.7993 309.372L44.1328 317.645L123.648 362.497L128.314 354.224L48.7993 309.372Z" fill="#DD436B"/>
<path d="M132.538 346.729L119.414 369.995L123.935 372.545L137.058 349.278L132.538 346.729Z" fill="#FCD936"/>
<path d="M141.228 364.284L138.91 368.393C135.926 373.683 129.218 375.552 123.928 372.567L137.052 349.302C142.344 352.287 144.213 358.994 141.228 364.284Z" fill="#DD436B"/>
<path d="M39.8965 325.162L28.4629 303.377L53.022 301.896L39.8965 325.162Z" fill="#FCD936"/>
<path d="M31.4358 309.04L34.8478 302.991L28.4629 303.376L31.4358 309.04Z" fill="#315359"/>
<path d="M58.7542 72.3781C75.3845 72.3781 88.8659 58.8967 88.8659 42.2664C88.8659 25.6362 75.3845 12.1548 58.7542 12.1548C42.124 12.1548 28.6426 25.6362 28.6426 42.2664C28.6426 58.8967 42.124 72.3781 58.7542 72.3781Z" fill="#FCD936"/>
<path d="M58.7543 66.2767C72.0148 66.2767 82.7645 55.527 82.7645 42.2665C82.7645 29.0061 72.0148 18.2563 58.7543 18.2563C45.4939 18.2563 34.7441 29.0061 34.7441 42.2665C34.7441 55.527 45.4939 66.2767 58.7543 66.2767Z" fill="#F89520"/>
<path d="M69.1477 51.311C68.1426 52.7519 67.0915 54.0387 65.9936 55.1707C64.8965 56.3026 63.9799 57.1256 63.2429 57.638L57.458 54.1374L61.3483 47.7091C61.9722 48.0862 62.4913 48.2275 62.9075 48.1338C63.3237 48.0402 63.7442 47.6428 64.168 46.9415C64.545 46.3185 64.7221 45.807 64.6982 45.4061C64.6744 45.0061 64.4676 44.6878 64.0778 44.452C63.8054 44.2869 63.4829 44.2588 63.1118 44.3661C62.7407 44.4741 62.2428 44.7788 61.6207 45.2801C59.5134 46.9593 57.7678 48.1841 56.3822 48.956C54.9966 49.7279 53.6502 50.1297 52.3395 50.1611C51.0297 50.1935 49.6347 49.762 48.1538 48.8658C46.1478 47.6521 44.9137 46.1065 44.4524 44.2307C43.9911 42.3549 44.432 40.0008 45.7742 37.1667L42.4141 35.1334L44.7307 31.306L48.0321 33.3035C49.0849 31.7852 50.1794 30.4915 51.3173 29.4243C52.4561 28.3561 53.4085 27.6293 54.1753 27.2412L59.4053 30.4056L55.692 36.5411C54.7183 35.9521 53.9064 36.193 53.2587 37.2645C52.8697 37.9071 52.6731 38.4203 52.6672 38.8025C52.6612 39.1854 52.8638 39.5004 53.2723 39.748C53.5838 39.9361 53.8945 39.9514 54.2034 39.7923C54.5123 39.634 54.9864 39.2689 55.6247 38.6969C57.3167 37.2203 58.8053 36.0909 60.0887 35.3113C61.3722 34.5317 62.7305 34.09 64.1637 33.9853C65.597 33.8823 67.1026 34.307 68.6805 35.2619C70.901 36.6058 72.2364 38.3122 72.6874 40.3812C73.1385 42.4502 72.7198 44.812 71.4338 47.4657L74.9692 49.6054L72.6525 53.4327L69.1477 51.311Z" fill="#FCD936"/>
<path d="M346.785 104.138C364.124 104.138 378.181 90.0812 378.181 72.7417C378.181 55.4022 364.124 41.3457 346.785 41.3457C329.445 41.3457 315.389 55.4022 315.389 72.7417C315.389 90.0812 329.445 104.138 346.785 104.138Z" fill="#FCD936"/>
<path d="M346.784 97.7761C360.61 97.7761 371.818 86.568 371.818 72.7421C371.818 58.9161 360.61 47.708 346.784 47.708C332.958 47.708 321.75 58.9161 321.75 72.7421C321.75 86.568 332.958 97.7761 346.784 97.7761Z" fill="#F89520"/>
<path d="M333.985 79.2649C332.984 77.7304 332.15 76.212 331.483 74.7098C330.817 73.2077 330.378 72 330.17 71.0884L335.812 66.8602L340.51 73.1285C339.901 73.5847 339.563 74.0315 339.491 74.4707C339.419 74.9099 339.64 75.4707 340.152 76.155C340.608 76.7627 341.033 77.1338 341.43 77.2665C341.826 77.3993 342.215 77.3244 342.595 77.0393C342.861 76.8401 343.014 76.5397 343.055 76.1388C343.095 75.738 342.994 75.1379 342.752 74.3405C341.951 71.6485 341.448 69.4824 341.241 67.8415C341.035 66.2006 341.171 64.7418 341.652 63.4626C342.131 62.1835 343.094 61.003 344.537 59.9204C346.493 58.454 348.468 57.8642 350.463 58.1484C352.457 58.4344 354.561 59.7783 356.778 62.1818L360.054 59.7255L362.852 63.4584L359.632 65.8712C360.69 67.4815 361.513 69.0441 362.101 70.5608C362.689 72.0783 363.021 73.2826 363.097 74.1754L357.997 77.9976L353.513 72.0144C354.463 71.3029 354.545 70.4237 353.763 69.3794C353.293 68.753 352.874 68.3624 352.506 68.2075C352.137 68.0526 351.754 68.1249 351.355 68.4245C351.051 68.6526 350.916 68.9462 350.949 69.308C350.982 69.6688 351.15 70.2688 351.454 71.1097C352.222 73.3217 352.733 75.2018 352.987 76.7474C353.24 78.2921 353.138 79.7781 352.68 81.2054C352.22 82.6318 351.223 83.9221 349.684 85.0753C347.519 86.6983 345.347 87.3239 343.17 86.9537C340.994 86.5826 338.873 85.2574 336.808 82.9782L333.361 85.5621L330.563 81.8292L333.985 79.2649Z" fill="#FCD936"/>
<path d="M318.793 66.902C335.424 66.902 348.905 53.4206 348.905 36.7904C348.905 20.1602 335.424 6.67871 318.793 6.67871C302.163 6.67871 288.682 20.1602 288.682 36.7904C288.682 53.4206 302.163 66.902 318.793 66.902Z" fill="#FCD936"/>
<path d="M318.795 60.8006C332.056 60.8006 342.806 50.0509 342.806 36.7905C342.806 23.53 332.056 12.7803 318.795 12.7803C305.535 12.7803 294.785 23.53 294.785 36.7905C294.785 50.0509 305.535 60.8006 318.795 60.8006Z" fill="#F89520"/>
<path d="M329.189 45.8344C328.184 47.2753 327.133 48.5622 326.035 49.6941C324.938 50.8261 324.021 51.6491 323.284 52.1614L317.499 48.6609L321.389 42.2326C322.013 42.6096 322.532 42.7509 322.949 42.6573C323.365 42.5637 323.785 42.1662 324.209 41.4649C324.586 40.8419 324.763 40.3304 324.739 39.9295C324.715 39.5295 324.509 39.2112 324.119 38.9755C323.846 38.8103 323.524 38.7823 323.153 38.8895C322.782 38.9976 322.284 39.3023 321.662 39.8036C319.554 41.4828 317.809 42.7075 316.423 43.4794C315.038 44.2514 313.691 44.6531 312.381 44.6846C311.071 44.7169 309.676 44.2854 308.195 43.3892C306.189 42.1756 304.955 40.63 304.493 38.7542C304.032 36.8784 304.472 34.5242 305.815 31.6901L302.455 29.6568L304.771 25.8295L308.072 27.827C309.125 26.3086 310.22 25.015 311.358 23.9477C312.496 22.8796 313.449 22.1527 314.215 21.7646L319.445 24.929L315.732 31.0645C314.758 30.4756 313.947 30.7164 313.299 31.788C312.91 32.4305 312.713 32.9438 312.707 33.3259C312.701 33.7089 312.904 34.0238 313.312 34.2715C313.624 34.4596 313.935 34.4749 314.244 34.3157C314.553 34.1574 315.027 33.7923 315.665 33.2204C317.357 31.7437 318.845 30.6143 320.129 29.8347C321.412 29.0551 322.771 28.6134 324.204 28.5087C325.637 28.4057 327.143 28.8304 328.721 29.7853C330.941 31.1292 332.277 32.8357 332.728 34.9047C333.179 36.9737 332.76 39.3355 331.474 41.9892L335.009 44.1288L332.693 47.9562L329.189 45.8344Z" fill="#FCD936"/>
</svg>
