<svg width="51" height="49" viewBox="0 0 51 49" fill="none" xmlns="http://www.w3.org/2000/svg">
<path d="M50.798 24.7267C50.798 27.3036 47.5713 29.3391 46.8163 31.6644C46.0338 34.0743 47.4207 37.6125 45.9608 39.6184C44.4864 41.6444 40.683 41.4116 38.657 42.8861C36.651 44.3459 35.7053 48.0432 33.2954 48.8257C30.9701 49.5806 28.0424 47.17 25.4655 47.17C22.8885 47.17 19.9608 49.5806 17.6355 48.8257C15.2256 48.0432 14.2798 44.3459 12.2739 42.8861C10.2479 41.4116 6.44449 41.6445 4.97002 39.6185C3.51014 37.6125 4.89701 34.0744 4.1145 31.6644C3.35951 29.3392 0.132812 27.3037 0.132812 24.7268C0.132812 22.1498 3.35952 20.1143 4.11444 17.7891C4.89695 15.3791 3.51008 11.841 4.96996 9.83503C6.44442 7.80906 10.2478 8.04185 12.2738 6.56745C14.2798 5.10757 15.2255 1.41036 17.6354 0.627858C19.9607 -0.127132 22.8884 2.28347 25.4653 2.28347C28.0422 2.28347 30.97 -0.127132 33.2952 0.627858C35.7052 1.41036 36.6509 5.10757 38.6569 6.56745C40.6829 8.04191 44.4863 7.80906 45.9608 9.8351C47.4206 11.8411 46.0338 15.3792 46.8163 17.7891C47.5713 20.1143 50.798 22.1498 50.798 24.7267Z" fill="black"/>
<path d="M50.798 24.7267C50.798 27.3036 47.5713 29.3391 46.8163 31.6644C46.0338 34.0743 47.4207 37.6125 45.9608 39.6184C44.4864 41.6444 40.683 41.4116 38.657 42.8861C36.651 44.3459 35.7053 48.0432 33.2954 48.8257C30.9701 49.5806 28.0424 47.17 25.4655 47.17C22.8885 47.17 19.9608 49.5806 17.6355 48.8257C15.2256 48.0432 14.2798 44.3459 12.2739 42.8861C10.2479 41.4116 6.44449 41.6445 4.97002 39.6185C3.51014 37.6125 4.89701 34.0744 4.1145 31.6644C3.35951 29.3392 0.132812 27.3037 0.132812 24.7268C0.132812 22.1498 3.35952 20.1143 4.11444 17.7891C4.89695 15.3791 3.51008 11.841 4.96996 9.83503C6.44442 7.80906 10.2478 8.04185 12.2738 6.56745C14.2798 5.10757 15.2255 1.41036 17.6354 0.627858C19.9607 -0.127132 22.8884 2.28347 25.4653 2.28347C28.0422 2.28347 30.97 -0.127132 33.2952 0.627858C35.7052 1.41036 36.6509 5.10757 38.6569 6.56745C40.6829 8.04191 44.4863 7.80906 45.9608 9.8351C47.4206 11.8411 46.0338 15.3792 46.8163 17.7891C47.5713 20.1143 50.798 22.1498 50.798 24.7267Z" fill="url(#paint0_linear_2220_305)"/>
<path d="M22.2108 36.6441L13.1621 28.4211L16.4489 24.8042L21.6821 29.5597L33.9815 14.479L37.769 17.5679L22.2108 36.6441Z" fill="white"/>
<defs>
<linearGradient id="paint0_linear_2220_305" x1="4.25265" y1="0.624112" x2="49.8758" y2="49.8272" gradientUnits="userSpaceOnUse">
<stop stop-color="#8F38FF"/>
<stop offset="0.269231" stop-color="#A237FF"/>
<stop offset="0.730769" stop-color="#E368CD"/>
<stop offset="0.986565" stop-color="#FFDB5E"/>
</linearGradient>
</defs>
</svg>
