<svg width="1281" height="170" viewBox="0 0 1281 170" fill="none" xmlns="http://www.w3.org/2000/svg">
<path d="M0.425781 0.630615H1280.57C1280.57 17.4884 1268.83 32.0738 1252.36 35.6759L654.52 166.442C644.216 168.696 633.548 168.69 623.247 166.426L28.6352 35.7058C12.1647 32.0849 0.430201 17.4944 0.425781 0.630615Z" fill="#101010"/>
<path d="M1271.78 23.9656C1280.52 14.4963 1280.55 0.780029 1280.55 0.780029L1280.78 169.865H0.424557C0.424557 169.865 0.150369 -13.2593 0.424905 2.12187C0.69944 17.5031 16.0561 31.8478 26.2493 34.6307C36.6442 38.4769 582.336 155.991 634.698 167.264C637.613 167.891 640.231 167.805 643.146 167.176L1251.28 35.9978C1251.28 35.9978 1263.04 33.4348 1271.78 23.9656Z" fill="white"/>
<path d="M1271.78 23.9656C1280.52 14.4963 1280.55 0.780029 1280.55 0.780029L1280.78 169.865H0.424557C0.424557 169.865 0.150369 -13.2593 0.424905 2.12187C0.69944 17.5031 16.0561 31.8478 26.2493 34.6307C36.6442 38.4769 582.336 155.991 634.698 167.264C637.613 167.891 640.231 167.805 643.146 167.176L1251.28 35.9978C1251.28 35.9978 1263.04 33.4348 1271.78 23.9656Z" fill="white"/>
</svg>
