<svg width="1281" height="170" viewBox="0 0 1281 170" fill="none" xmlns="http://www.w3.org/2000/svg">
<path d="M1271.78 23.4419C1280.52 13.9726 1280.55 0.256348 1280.55 0.256348L1280.78 169.342H0.424557C0.424557 169.342 0.150369 -13.783 0.424905 1.59819C0.69944 16.9794 16.0561 31.3242 26.2493 34.1071C36.6442 37.9532 582.336 155.468 634.698 166.74C637.613 167.368 640.231 167.282 643.146 166.653L1251.28 35.4741C1251.28 35.4741 1263.04 32.9111 1271.78 23.4419Z" fill="white"/>
<path d="M1271.78 23.4419C1280.52 13.9726 1280.55 0.256348 1280.55 0.256348L1280.78 169.342H0.424557C0.424557 169.342 0.150369 -13.783 0.424905 1.59819C0.69944 16.9794 16.0561 31.3242 26.2493 34.1071C36.6442 37.9532 582.336 155.468 634.698 166.74C637.613 167.368 640.231 167.282 643.146 166.653L1251.28 35.4741C1251.28 35.4741 1263.04 32.9111 1271.78 23.4419Z" fill="url(#paint0_linear_2099_25)"/>
<defs>
<linearGradient id="paint0_linear_2099_25" x1="640.543" y1="-423.345" x2="640.543" y2="169.342" gradientUnits="userSpaceOnUse">
<stop stop-color="#AB33C9"/>
<stop offset="0.509615" stop-color="#F80240"/>
<stop offset="0.899038" stop-color="#E41414"/>
</linearGradient>
</defs>
</svg>
