<svg width="428" height="423" viewBox="0 0 428 423" fill="none" xmlns="http://www.w3.org/2000/svg">
<g clip-path="url(#clip0_2061_74)">
<path opacity="0.74" d="M355.453 159.194C362.114 183.021 389.445 176.94 406.022 204.324C423.243 232.768 419.652 280.515 393.666 309.047C367.297 337.999 328.396 335.601 309.432 334.431C278.262 332.511 267.606 321.181 243.458 313.938C158.925 288.58 103.486 371.62 50.4747 342.24C21.6296 326.253 4.79619 283.2 13.3418 253.108C27.968 201.601 119.072 194.218 117.479 168.126C116.14 146.2 51.6416 148.626 43.5287 115.936C36.2558 86.6278 79.2531 49.0331 108.439 32.7501C121.891 25.2449 161.33 2.46063 191.151 19.4213C214.747 32.8397 211.92 57.719 233.108 64.1721C258.653 71.9529 271.707 38.5162 309.172 36.4556C336.776 34.9371 370.316 50.8548 376.287 76.7151C383.306 107.117 347.421 130.457 355.453 159.194Z" fill="#D5F0FF"/>
<path opacity="0.92" d="M340.093 162.178C346.017 183.373 370.329 177.965 385.074 202.321C400.391 227.62 397.199 270.092 374.082 295.47C350.627 321.222 316.026 319.09 299.156 318.05C271.432 316.341 261.952 306.263 240.471 299.821C165.28 277.266 115.968 351.128 68.8139 324.994C43.1564 310.774 28.185 272.479 35.7846 245.714C48.7952 199.897 129.83 193.331 128.412 170.122C127.222 150.618 69.8496 152.778 62.6343 123.701C56.1647 97.6319 94.4116 64.1906 120.373 49.7086C132.339 43.0328 167.419 22.7663 193.946 37.8524C214.934 49.789 212.42 71.9163 231.268 77.6572C253.988 84.5765 265.602 54.8361 298.926 53.0029C323.479 51.6521 353.313 65.8102 358.625 88.8127C364.869 115.854 332.949 136.616 340.093 162.176V162.178Z" fill="#D5F0FF"/>
<path d="M215.977 422.998C330.892 422.998 424.049 416.058 424.049 407.496C424.049 398.935 330.892 391.994 215.977 391.994C101.061 391.994 7.9043 398.935 7.9043 407.496C7.9043 416.058 101.061 422.998 215.977 422.998Z" fill="#DFE6FF"/>
<path d="M206.9 96.6391C180.812 102.968 118.752 48.2748 139.185 18.709C140.515 16.7839 147.958 6.01429 163.984 1.75056C181.254 -2.84627 197.701 2.9819 199.588 3.6504C239.739 17.8774 233.184 90.2619 206.9 96.6368V96.6391Z" fill="#62CBEC"/>
<path d="M211.344 97.602C185.256 103.931 123.195 49.2377 143.628 19.6719C144.958 17.7468 152.401 6.97718 168.427 2.71345C185.698 -1.88338 202.144 3.94479 204.032 4.61329C244.182 18.8403 237.627 91.2248 211.344 97.5997V97.602Z" fill="#BBE6F9"/>
<path d="M213.279 121.147C213.263 121.147 213.246 121.149 213.23 121.152C212.531 121.2 211.953 120.862 211.939 120.403C211.318 98.9991 206.222 78.0549 196.795 58.1491C189.258 42.2337 178.928 26.9776 166.097 12.8103C165.752 12.429 165.964 11.9052 166.571 11.6433C167.179 11.3814 167.952 11.4779 168.298 11.8615C181.223 26.1322 191.626 41.4986 199.219 57.5289C208.715 77.5794 213.847 98.6775 214.473 120.233C214.487 120.683 213.955 121.087 213.279 121.149V121.147Z" fill="white"/>
<path d="M185.787 36.0606C185.525 36.0859 185.253 36.056 185.019 35.9641C184.436 35.7413 184.275 35.2313 184.662 34.8247C188.222 31.0778 190.673 27.0301 191.951 22.7893C193.187 18.6818 193.265 14.5674 192.183 10.561C192.061 10.113 192.522 9.65355 193.21 9.53639C193.898 9.41923 194.556 9.68571 194.676 10.1337C195.813 14.3423 195.732 18.6657 194.432 22.9846C193.09 27.4413 190.512 31.6958 186.772 35.6333C186.542 35.8745 186.172 36.0262 185.787 36.0606Z" fill="white"/>
<path d="M203.63 67.9147C203.254 67.9492 202.875 67.8734 202.608 67.6896C202.145 67.368 202.196 66.8373 202.718 66.5019C207.551 63.419 211.459 59.8445 214.332 55.8794C217.114 52.036 218.806 47.9883 219.358 43.8486C219.42 43.3845 220.033 43.0101 220.732 43.0147C221.43 43.017 221.943 43.396 221.883 43.8601C221.303 48.2111 219.526 52.4656 216.601 56.5042C213.584 60.6715 209.478 64.4275 204.396 67.6666C204.175 67.8091 203.903 67.8918 203.63 67.917V67.9147Z" fill="white"/>
<path d="M187.667 50.2327C182.387 50.7197 177.119 50.6738 171.957 50.0949C165.6 49.3827 159.669 47.8895 154.334 45.6566C153.765 45.4199 153.634 44.9031 154.042 44.5056C154.449 44.1082 155.241 43.9773 155.809 44.2162C160.889 46.3411 166.53 47.7609 172.58 48.4385C178.822 49.1392 185.225 49.0198 191.612 48.0825C192.305 47.9814 192.944 48.2663 193.041 48.7188C193.138 49.1714 192.654 49.6193 191.962 49.7227C190.532 49.9318 189.101 50.1018 187.672 50.235L187.667 50.2327Z" fill="white"/>
<path d="M208.361 86.6445C208.292 86.6514 208.223 86.6537 208.154 86.6514C201.417 86.5434 194.977 85.5832 189.014 83.7982C183.235 82.0684 178.149 79.6333 173.898 76.5641C173.444 76.2379 173.509 75.7049 174.043 75.3764C174.574 75.0479 175.375 75.0456 175.829 75.3741C179.875 78.2963 184.715 80.6119 190.213 82.259C195.889 83.959 202.015 84.871 208.425 84.9744C209.12 84.9859 209.624 85.3695 209.548 85.8336C209.482 86.2494 208.971 86.5894 208.363 86.6445H208.361Z" fill="white"/>
<path d="M186.997 108.888C175.604 136.697 85.0414 157.002 71.5729 119.042C70.696 116.57 65.7914 102.745 72.4451 85.4125C79.6167 66.7357 95.7321 55.6583 97.5802 54.3879C136.92 27.3445 198.472 80.8731 186.995 108.891L186.997 108.888Z" fill="#8BDCEF"/>
<path d="M190.794 105.491C179.401 133.299 88.8383 153.605 75.3697 115.645C74.4928 113.173 69.5883 99.3479 76.242 82.015C83.4136 63.3383 99.5289 52.2609 101.377 50.9905C140.717 23.9471 202.269 77.4756 190.792 105.493L190.794 105.491Z" fill="#D2EDF7"/>
<path d="M213.49 119.218C213.481 119.234 213.472 119.248 213.463 119.264C213.046 119.93 212.36 120.231 211.932 119.941C192.049 106.434 169.642 97.2835 145.333 92.7441C125.896 89.1144 105.226 88.4482 83.8981 90.7639C83.3227 90.8259 82.9866 90.2906 83.1478 89.567C83.3089 88.8434 83.905 88.207 84.4803 88.145C105.963 85.811 126.78 86.4818 146.359 90.139C170.845 94.7129 193.417 103.929 213.44 117.534C213.859 117.819 213.877 118.565 213.488 119.22L213.49 119.218Z" fill="white"/>
<path d="M117.997 88.202C117.845 88.4569 117.643 88.6821 117.403 88.836C116.816 89.2173 116.248 89.0267 116.13 88.4087C115.063 82.7184 112.989 77.8344 109.972 73.89C107.046 70.0673 103.355 67.2922 98.9979 65.6405C98.5099 65.4567 98.3949 64.7377 98.7401 64.0347C99.0853 63.3341 99.762 62.9137 100.248 63.0997C104.825 64.8342 108.706 67.7517 111.778 71.7696C114.95 75.9162 117.129 81.0483 118.25 87.028C118.319 87.3956 118.211 87.8298 117.99 88.202H117.997Z" fill="white"/>
<path d="M158.712 92.9711C158.498 93.3341 158.18 93.6281 157.835 93.7476C157.239 93.9566 156.787 93.5615 156.829 92.8654C157.202 86.4561 156.518 80.5659 154.799 75.3557C153.133 70.3063 150.562 66.1138 147.156 62.8907C146.773 62.53 146.838 61.7283 147.298 61.0965C147.759 60.4671 148.44 60.2488 148.822 60.6095C152.401 63.9957 155.103 68.4041 156.854 73.7108C158.661 79.1875 159.379 85.3786 158.988 92.1119C158.972 92.406 158.868 92.7046 158.712 92.9711Z" fill="white"/>
<path d="M132.13 95.8152C129.101 100.922 125.598 105.666 121.676 109.966C116.848 115.262 111.591 119.654 106.051 123.024C105.462 123.382 104.905 123.164 104.811 122.532C104.716 121.901 105.119 121.099 105.708 120.741C110.979 117.534 115.982 113.353 120.576 108.315C125.317 103.116 129.419 97.2327 132.763 90.8302C133.126 90.1364 133.805 89.7436 134.279 89.9526C134.754 90.164 134.846 90.8968 134.482 91.5906C133.734 93.0241 132.947 94.4346 132.127 95.8152H132.13Z" fill="white"/>
<path d="M178.864 100.995C178.825 101.062 178.781 101.126 178.735 101.188C174.21 107.223 169.103 112.431 163.556 116.662C158.182 120.763 152.624 123.775 147.036 125.61C146.44 125.806 146 125.399 146.051 124.698C146.101 124 146.626 123.274 147.222 123.079C152.541 121.331 157.83 118.466 162.944 114.565C168.222 110.538 173.08 105.585 177.386 99.8419C177.853 99.2193 178.535 99.0149 178.908 99.387C179.244 99.7224 179.214 100.407 178.866 100.995H178.864Z" fill="white"/>
<path d="M51.3701 260.575C46.7854 258.806 36.5068 267.361 34.1592 277.717C31.1488 291.002 42.5483 301.278 38.0488 306.633C34.005 311.448 23.1187 305.126 19.4639 309.984C16.3407 314.133 21.3489 323.743 26.3409 329.69C36.3457 341.609 50.2032 343.377 49.6416 347.869C49.2112 351.319 40.9487 350.889 40.0488 354.512C38.3917 361.188 62.0722 380.134 76.0356 372.994C91.0692 365.307 87.2947 331.246 78.9747 328.204C74.7928 326.676 69.2323 332.897 67.8467 331.484C65.8145 329.412 79.8101 318.13 79.7342 302.656C79.6996 296.01 77.069 288.043 72.8871 287.182C67.0872 285.987 62.1067 299.056 57.9409 297.915C51.4828 296.146 59.0917 263.554 51.3701 260.575Z" fill="#2C7EFE"/>
<path d="M83.1277 383.639C82.7434 383.873 82.2347 383.791 81.9447 383.432C76.5568 376.731 71.6753 369.557 67.4313 362.107C61.6935 352.031 57.056 341.332 53.6428 330.308C49.0167 315.36 46.6208 299.805 46.5195 284.075C46.5172 283.575 46.92 283.163 47.424 283.161C47.9258 283.159 48.3377 283.561 48.3401 284.064C48.4413 299.616 50.8096 314.994 55.3827 329.773C61.2977 348.888 70.711 366.559 83.3625 382.295C83.6778 382.686 83.6133 383.258 83.2221 383.572C83.1899 383.598 83.1576 383.621 83.1254 383.639H83.1277Z" fill="#84B2FE"/>
<path d="M53.1324 323.397C52.9506 323.508 52.7319 323.556 52.5064 323.517C52.0115 323.432 51.6778 322.963 51.7607 322.469C52.244 319.618 53.0265 316.811 54.0806 314.121C55.0381 311.681 56.2302 309.317 57.625 307.096C57.892 306.671 58.4535 306.542 58.8793 306.809C59.3051 307.075 59.434 307.636 59.167 308.061C57.8321 310.188 56.6906 312.449 55.7745 314.785C54.7642 317.358 54.0185 320.046 53.5536 322.775C53.5075 323.044 53.3464 323.266 53.1301 323.397H53.1324Z" fill="#84B2FE"/>
<path d="M63.0122 351.434C62.8488 351.535 62.6509 351.583 62.4461 351.563C61.9466 351.512 61.583 351.064 61.6336 350.566C61.8845 348.149 62.3862 345.75 63.125 343.439C63.7948 341.342 64.667 339.295 65.7142 337.354C65.9536 336.913 66.506 336.747 66.9479 336.986C67.3898 337.225 67.5555 337.777 67.3161 338.218C66.3218 340.058 65.4956 341.999 64.8581 343.991C64.1584 346.185 63.682 348.461 63.4449 350.754C63.415 351.048 63.247 351.294 63.0122 351.436V351.434Z" fill="#84B2FE"/>
<path d="M53.0031 325.435C52.6141 325.672 52.1009 325.585 51.8132 325.219C49.7326 322.559 47.3712 320.108 44.7958 317.928C42.4575 315.952 39.9212 314.183 37.2537 312.672C36.8164 312.424 36.6645 311.87 36.9108 311.434C37.1593 310.997 37.714 310.845 38.1513 311.091C40.9154 312.658 43.5461 314.491 45.9696 316.54C48.6417 318.799 51.0905 321.342 53.2471 324.098C53.5555 324.493 53.4864 325.065 53.0906 325.373C53.0629 325.396 53.033 325.415 53.0031 325.433V325.435Z" fill="#84B2FE"/>
<path d="M62.6382 349.814C62.2907 350.025 61.8327 349.984 61.5289 349.688C59.11 347.331 56.4402 345.217 53.5932 343.405C51.0109 341.76 48.2582 340.347 45.4135 339.208C44.9463 339.021 44.7208 338.491 44.9072 338.027C45.0936 337.56 45.6253 337.335 46.0902 337.521C49.0407 338.702 51.8946 340.168 54.5713 341.872C57.5219 343.752 60.2906 345.945 62.7993 348.387C63.1583 348.739 63.1653 349.313 62.8154 349.672C62.7602 349.727 62.7003 349.775 62.6382 349.814Z" fill="#84B2FE"/>
<path d="M70.6135 366.354C70.3005 366.545 69.8885 366.534 69.5801 366.297C68.3741 365.362 67.0691 364.549 65.6997 363.88C64.4569 363.274 63.1496 362.78 61.8147 362.412C61.3291 362.279 61.046 361.778 61.1795 361.296C61.313 360.811 61.8147 360.529 62.2981 360.662C63.7411 361.059 65.1543 361.592 66.4984 362.249C67.9805 362.973 69.3914 363.853 70.6963 364.864C71.0922 365.171 71.1659 365.741 70.8575 366.139C70.7884 366.228 70.7056 366.302 70.6135 366.357V366.354Z" fill="#84B2FE"/>
<path d="M70.8579 365.831C70.7359 365.904 70.5932 365.952 70.4413 365.962C69.9396 365.994 69.5069 365.612 69.477 365.112C69.3734 363.467 69.4402 361.806 69.6749 360.177C69.8867 358.698 70.2411 357.232 70.7244 355.817C70.8878 355.341 71.4034 355.089 71.8798 355.252C72.3562 355.415 72.6094 355.929 72.446 356.405C71.9995 357.712 71.6727 359.07 71.4747 360.437C71.2584 361.944 71.1962 363.478 71.2929 364.999C71.3136 365.348 71.1364 365.663 70.8579 365.833V365.831Z" fill="#84B2FE"/>
<path d="M6.25965 306.005C2.15832 306.628 -1.77961 317.198 0.851047 325.769C4.2274 336.763 16.8973 339.52 15.8501 345.328C14.9088 350.549 4.27803 350.471 3.6405 355.562C3.09504 359.908 10.8029 364.854 16.9595 367.122C29.298 371.668 40.1935 367.163 41.6687 370.687C42.8034 373.396 36.5685 376.538 37.4316 379.571C39.022 385.155 64.3319 389.125 71.5633 378.048C79.3471 366.122 62.2721 342.746 54.9002 344C51.1948 344.632 49.7333 351.516 48.1245 351.062C45.7655 350.393 51.2799 336.27 44.7229 324.965C41.9058 320.108 36.6307 315.374 33.206 316.492C28.4533 318.043 30.2946 329.706 26.764 330.614C21.2887 332.022 13.1712 304.956 6.26195 306.005H6.25965Z" fill="#4992FC"/>
<path d="M81.2313 382.881C81.0472 383.215 80.6421 383.366 80.2785 383.224C73.5166 380.568 66.925 377.356 60.6855 373.674C52.2481 368.693 44.3538 362.796 37.2237 356.146C27.5549 347.129 19.2625 336.736 12.5789 325.252C12.3648 324.887 12.4914 324.416 12.8574 324.205C13.2233 323.991 13.6951 324.117 13.9069 324.483C20.5146 335.836 28.7126 346.111 38.2709 355.025C50.6347 366.555 64.9572 375.562 80.8377 381.795C81.2336 381.949 81.4269 382.394 81.2704 382.79C81.2589 382.822 81.2428 382.852 81.229 382.879L81.2313 382.881Z" fill="white"/>
<path d="M33.9448 351.299C33.8597 351.455 33.717 351.581 33.5375 351.648C33.1393 351.795 32.6974 351.59 32.5524 351.193C31.71 348.903 31.1024 346.518 30.7457 344.106C30.4212 341.919 30.3038 339.686 30.3913 337.476C30.4074 337.053 30.7664 336.723 31.1899 336.741C31.6134 336.757 31.9448 337.115 31.9264 337.538C31.8412 339.656 31.9563 341.79 32.2647 343.883C32.6053 346.192 33.1876 348.473 33.9955 350.667C34.076 350.883 34.0507 351.113 33.9471 351.301L33.9448 351.299Z" fill="white"/>
<path d="M52.9613 367.703C52.883 367.845 52.7588 367.963 52.6 368.034C52.211 368.206 51.7576 368.029 51.5873 367.643C50.7564 365.769 50.1166 363.8 49.6839 361.797C49.2927 359.98 49.0717 358.114 49.0257 356.256C49.0142 355.833 49.3502 355.481 49.7737 355.47C50.1972 355.459 50.5493 355.794 50.5608 356.217C50.6045 357.981 50.8163 359.75 51.1868 361.475C51.5965 363.375 52.2018 365.243 52.9912 367.023C53.0925 367.25 53.0741 367.501 52.9613 367.703Z" fill="white"/>
<path d="M34.7067 352.845C34.5203 353.182 34.1083 353.334 33.7423 353.185C31.1002 352.107 28.3406 351.299 25.5374 350.779C22.9942 350.311 20.3934 350.076 17.8042 350.086C17.3807 350.086 17.0355 349.746 17.0332 349.321C17.0332 348.898 17.3738 348.553 17.7996 348.551C20.4832 348.542 23.1806 348.783 25.8182 349.27C28.725 349.808 31.5858 350.646 34.3246 351.763C34.7182 351.923 34.9046 352.371 34.7458 352.762C34.7343 352.789 34.7205 352.817 34.7067 352.842V352.845Z" fill="white"/>
<path d="M52.0091 366.675C51.8434 366.976 51.4912 367.136 51.1437 367.047C48.3819 366.332 45.5372 365.9 42.6902 365.765C40.1078 365.641 37.4979 365.758 34.934 366.114C34.5128 366.171 34.1262 365.88 34.0663 365.459C34.0065 365.039 34.3011 364.653 34.7222 364.593C37.3805 364.223 40.0848 364.102 42.7638 364.233C45.7167 364.375 48.6649 364.823 51.5303 365.563C51.94 365.668 52.1886 366.087 52.0804 366.498C52.0643 366.562 52.039 366.622 52.0091 366.675Z" fill="white"/>
<path d="M64.8028 375.455C64.6532 375.726 64.3471 375.891 64.0225 375.845C62.7475 375.664 61.4471 375.616 60.1629 375.698C58.9983 375.774 57.8314 375.958 56.6991 376.247C56.2871 376.353 55.8705 376.105 55.7646 375.696C55.6588 375.285 55.9073 374.869 56.317 374.763C57.5414 374.451 58.8027 374.249 60.0616 374.168C61.4517 374.079 62.8557 374.131 64.2366 374.327C64.6578 374.386 64.9501 374.775 64.8902 375.193C64.8764 375.287 64.8465 375.377 64.8028 375.455Z" fill="white"/>
<path d="M64.7598 374.97C64.7022 375.075 64.6171 375.17 64.5089 375.241C64.1545 375.473 63.678 375.376 63.4456 375.023C62.6792 373.86 62.0301 372.617 61.5169 371.324C61.052 370.152 60.693 368.928 60.4536 367.69C60.373 367.274 60.6446 366.872 61.0612 366.791C61.4778 366.711 61.8805 366.982 61.9611 367.398C62.182 368.544 62.5135 369.675 62.9439 370.759C63.418 371.953 64.0187 373.104 64.7275 374.179C64.891 374.425 64.891 374.731 64.7598 374.972V374.97Z" fill="white"/>
<path d="M342.076 196.214H81.9198C77.0108 196.214 73.0312 200.186 73.0312 205.086V379.012C73.0312 383.912 77.0108 387.884 81.9198 387.884H342.076C346.985 387.884 350.964 383.912 350.964 379.012V205.086C350.964 200.186 346.985 196.214 342.076 196.214Z" fill="#DFE6FF"/>
<path d="M340.972 389.55H83.0251C76.5947 389.55 71.3633 384.328 71.3633 377.91V206.189C71.3633 199.771 76.5947 194.549 83.0251 194.549H340.972C347.402 194.549 352.634 199.771 352.634 206.189V377.91C352.634 384.328 347.402 389.55 340.972 389.55ZM83.0251 197.88C78.4359 197.88 74.7005 201.606 74.7005 206.189V377.91C74.7005 382.49 78.4336 386.219 83.0251 386.219H340.972C345.561 386.219 349.296 382.493 349.296 377.91V206.189C349.296 201.608 345.563 197.88 340.972 197.88H83.0251Z" fill="#2C7EFE"/>
<path d="M328.173 215.436H95.8241C90.9151 215.436 86.9355 219.408 86.9355 224.308V379.012C86.9355 383.912 90.9151 387.884 95.8241 387.884H328.173C333.082 387.884 337.062 383.912 337.062 379.012V224.308C337.062 219.408 333.082 215.436 328.173 215.436Z" fill="#153663"/>
<path d="M211.999 211.914C215.437 211.914 218.225 209.131 218.225 205.699C218.225 202.267 215.437 199.485 211.999 199.485C208.561 199.485 205.773 202.267 205.773 205.699C205.773 209.131 208.561 211.914 211.999 211.914Z" fill="#0643A3"/>
<path d="M211.999 211.116C214.517 211.116 216.558 209.079 216.558 206.566C216.558 204.052 214.517 202.015 211.999 202.015C209.481 202.015 207.439 204.052 207.439 206.566C207.439 209.079 209.481 211.116 211.999 211.116Z" fill="#62CBEC"/>
<path d="M216.557 203.244C216.557 204.36 215.65 205.268 214.53 205.268C213.409 205.268 212.502 204.362 212.502 203.244C212.502 202.125 213.409 201.22 214.53 201.22C215.65 201.22 216.557 202.125 216.557 203.244Z" fill="white"/>
<path d="M327.069 389.55H96.9294C90.499 389.55 85.2676 384.329 85.2676 377.91V225.411C85.2676 218.992 90.499 213.771 96.9294 213.771H327.069C333.499 213.771 338.731 218.992 338.731 225.411V377.91C338.731 384.329 333.499 389.55 327.069 389.55ZM96.9294 217.102C92.3402 217.102 88.6048 220.83 88.6048 225.411V377.91C88.6048 382.491 92.3379 386.219 96.9294 386.219H327.069C331.658 386.219 335.394 382.493 335.394 377.91V225.411C335.394 220.83 331.661 217.102 327.069 217.102H96.9294Z" fill="#2C7EFE"/>
<path d="M44.8555 375.286V383.68C44.8555 396.06 55.6612 406.095 68.9939 406.095H355.001C368.334 406.095 379.142 396.06 379.142 383.68V375.286H44.8555Z" fill="#84B2FE"/>
<path d="M44.9023 375.286C45.6734 387.018 56.1614 396.311 68.9948 396.311H355.002C367.835 396.311 378.325 387.018 379.096 375.286H44.9023Z" fill="#DFE6FF"/>
<path d="M171.764 375.286V378.038C171.764 382.098 174.364 385.389 177.575 385.389H246.425C249.634 385.389 252.237 382.098 252.237 378.038V375.286H171.766H171.764Z" fill="#84B2FE"/>
<path d="M246.422 387.055H177.572C173.447 387.055 170.092 383.009 170.092 378.038V373.618H253.902V378.038C253.902 383.009 250.546 387.055 246.422 387.055ZM173.431 376.951V378.038C173.431 381.119 175.328 383.722 177.574 383.722H246.424C248.668 383.722 250.567 381.119 250.567 378.038V376.951H173.434H173.431Z" fill="#2C7EFE"/>
<path d="M355.002 407.761H68.993C54.7626 407.761 43.1836 396.959 43.1836 383.681V373.621H380.812V383.681C380.812 396.959 369.233 407.761 355 407.761H355.002ZM46.5231 376.952V383.679C46.5231 395.119 56.6038 404.427 68.993 404.427H355C367.391 404.427 377.472 395.119 377.472 383.679V376.952H46.5231Z" fill="#2C7EFE"/>
<path d="M210.377 45.6035C216.121 45.6035 221.323 48.1512 225.09 52.2702C228.853 56.3846 231.182 62.0749 231.182 68.3602V138.47H189.568V68.3602C189.568 55.7919 198.883 45.6035 210.377 45.6035Z" fill="#0643A3"/>
<path d="M210.377 101.877C216.121 101.877 221.323 104.425 225.09 108.544C228.853 112.658 231.182 118.348 231.182 124.634V194.744H189.568V124.634C189.568 112.065 198.883 101.877 210.377 101.877Z" fill="#0643A3"/>
<path d="M231.183 68.1255V339.244H428.001V81.5875C428.001 61.5852 413.177 45.3711 394.886 45.3711H210.377C216.122 45.3711 221.323 47.9188 225.091 52.0378C228.854 56.1522 231.183 61.8425 231.183 68.1278V68.1255Z" fill="#2C7EFE"/>
<path d="M270.113 95.2501V71.1518C270.113 70.7245 270.459 70.3799 270.887 70.3799H281.234C283.534 70.3799 285.515 70.752 287.179 71.4964C288.843 72.2407 290.127 73.3089 291.032 74.701C291.936 76.0932 292.39 77.7426 292.39 79.6471C292.39 81.5515 291.936 83.2308 291.032 84.6114C290.127 85.9921 288.841 87.0419 287.179 87.761C285.515 88.4823 283.534 88.8407 281.234 88.8407H275.324C274.624 88.8407 274.284 87.9884 274.792 87.5083C275.285 87.042 276.097 87.3911 276.097 88.0688V95.2478C276.097 95.6751 275.752 96.0197 275.324 96.0197H270.889C270.461 96.0197 270.116 95.6751 270.116 95.2478L270.113 95.2501ZM274.765 85.5556L274.638 85.4247C274.166 84.9354 274.514 84.1175 275.195 84.1175H280.903C282.714 84.1175 284.084 83.727 285.013 82.9459C285.943 82.1649 286.408 81.0668 286.408 79.6493C286.408 78.2319 285.943 77.1407 285.013 76.3712C284.084 75.6016 282.714 75.2179 280.903 75.2179H275.195C274.514 75.2179 274.166 74.4024 274.638 73.9108L274.765 73.7798C275.248 73.279 276.095 73.619 276.095 74.3151V85.0249C276.095 85.721 275.246 86.061 274.765 85.5602V85.5556ZM286.252 95.6912L280.864 87.931C280.509 87.4187 280.875 86.7203 281.499 86.7203H286.003C286.256 86.7203 286.493 86.8444 286.638 87.0534L292.026 94.8136C292.381 95.3259 292.015 96.0243 291.391 96.0243H286.887C286.634 96.0243 286.397 95.9002 286.252 95.6912Z" fill="white"/>
<path d="M308.501 96.463C304.855 96.463 302.006 95.4499 299.951 93.4215C297.896 91.3953 296.869 88.4892 296.869 84.7033V71.1518C296.869 70.7245 297.214 70.3799 297.642 70.3799H302.078C302.506 70.3799 302.851 70.7245 302.851 71.1518V84.5563C302.851 86.973 303.353 88.7258 304.356 89.8125C305.36 90.8991 306.754 91.4435 308.54 91.4435C310.326 91.4435 311.758 90.9014 312.761 89.8125C313.765 88.7258 314.266 86.973 314.266 84.5563V71.1518C314.266 70.7245 314.612 70.3799 315.04 70.3799H319.327C319.756 70.3799 320.101 70.7245 320.101 71.1518V84.7033C320.101 88.4892 319.074 91.3953 317.019 93.4215C314.964 95.4499 312.126 96.463 308.506 96.463H308.501Z" fill="white"/>
<path d="M326.006 95.2501V71.1518C326.006 70.7245 326.351 70.3799 326.779 70.3799H331.214C331.642 70.3799 331.988 70.7245 331.988 71.1518V90.4143C331.988 90.8416 332.333 91.1862 332.761 91.1862H344.022C344.45 91.1862 344.796 91.5308 344.796 91.9581V95.2501C344.796 95.6774 344.45 96.022 344.022 96.022H326.779C326.351 96.022 326.006 95.6774 326.006 95.2501Z" fill="white"/>
<path d="M354.854 91.2597H367.289C367.717 91.2597 368.062 91.6043 368.062 92.0316V95.2501C368.062 95.6774 367.717 96.022 367.289 96.022H348.943C348.515 96.022 348.17 95.6774 348.17 95.2501V71.1518C348.17 70.7245 348.515 70.3799 348.943 70.3799H366.81C367.238 70.3799 367.583 70.7245 367.583 71.1518V74.3702C367.583 74.7975 367.238 75.1421 366.81 75.1421H354.851C354.423 75.1421 354.078 75.4867 354.078 75.914V90.4879C354.078 90.9151 354.423 91.2597 354.851 91.2597H354.854ZM354.414 80.6739H365.236C365.664 80.6739 366.009 81.0185 366.009 81.4458V84.554C366.009 84.9813 365.664 85.3259 365.236 85.3259H354.414C353.986 85.3259 353.641 84.9813 353.641 84.554V81.4458C353.641 81.0185 353.986 80.6739 354.414 80.6739Z" fill="white"/>
<path d="M381.275 96.4627C379.22 96.4627 377.243 96.187 375.349 95.638C373.736 95.1693 372.392 94.5835 371.319 93.8783C371.001 93.6692 370.886 93.2626 371.041 92.918L372.421 89.8581C372.615 89.4308 373.137 89.2768 373.538 89.5204C374.454 90.0832 375.503 90.5587 376.689 90.9493C378.205 91.4501 379.733 91.7005 381.275 91.7005C382.449 91.7005 383.397 91.5787 384.12 91.3352C384.841 91.0917 385.374 90.7678 385.717 90.3635C386.06 89.9614 386.231 89.4905 386.231 88.9529C386.231 88.2706 385.961 87.7262 385.423 87.3219C384.884 86.9199 384.168 86.5891 383.276 86.3318C382.383 86.0745 381.409 85.831 380.357 85.5989C379.305 85.3669 378.247 85.0866 377.183 84.7558C376.12 84.425 375.14 83.9863 374.247 83.4372C373.354 82.8882 372.645 82.1668 372.118 81.2755C371.591 80.3841 371.328 79.2677 371.328 77.9238C371.328 76.4581 371.719 75.1211 372.502 73.9127C373.285 72.7044 374.477 71.7395 376.081 71.0182C377.683 70.2991 379.697 69.9385 382.118 69.9385C383.733 69.9385 385.328 70.1337 386.907 70.5243C388.226 70.8505 389.402 71.2962 390.438 71.8613C390.783 72.0497 390.926 72.4701 390.774 72.833L389.492 75.893C389.317 76.3088 388.827 76.4834 388.424 76.2812C387.506 75.8172 386.567 75.4565 385.605 75.1969C384.38 74.8661 383.206 74.703 382.081 74.703C380.956 74.703 379.964 74.8317 379.255 75.0866C378.546 75.3439 378.026 75.6908 377.694 76.1296C377.363 76.5684 377.199 77.0577 377.199 77.5953C377.199 78.2798 377.469 78.8289 378.007 79.2447C378.546 79.6605 379.255 79.9844 380.136 80.2164C381.018 80.4485 381.996 80.6805 383.073 80.9125C384.15 81.1445 385.213 81.4317 386.265 81.774C387.317 82.1163 388.284 82.5505 389.165 83.0742C390.047 83.6003 390.762 84.3079 391.312 85.1992C391.863 86.0905 392.139 87.1955 392.139 88.5142C392.139 89.9545 391.741 91.2732 390.946 92.47C390.15 93.6669 388.946 94.6318 387.331 95.3646C385.715 96.0974 383.697 96.4627 381.275 96.4627Z" fill="white"/>
<path d="M266.475 225.828C276.152 225.828 283.996 217.998 283.996 208.339C283.996 198.68 276.152 190.85 266.475 190.85C256.798 190.85 248.953 198.68 248.953 208.339C248.953 217.998 256.798 225.828 266.475 225.828Z" fill="white"/>
<path d="M266.474 223.301C274.753 223.301 281.464 216.602 281.464 208.339C281.464 200.076 274.753 193.377 266.474 193.377C258.196 193.377 251.484 200.076 251.484 208.339C251.484 216.602 258.196 223.301 266.474 223.301Z" fill="#2C7EFE"/>
<path d="M279.849 211.481C281.593 204.103 277.015 196.71 269.624 194.969C262.232 193.228 254.825 197.797 253.081 205.175C251.336 212.553 255.914 219.946 263.306 221.687C270.698 223.429 278.104 218.859 279.849 211.481Z" fill="#84B2FE"/>
<path d="M278.197 202.701C278.003 202.078 277.58 201.571 277.002 201.267C276.425 200.964 275.764 200.904 275.143 201.097C272.095 202.042 269.212 203.429 266.574 205.221C264.664 206.519 262.899 208.017 261.313 209.689L258.809 207.19C257.856 206.241 256.309 206.241 255.356 207.19C254.896 207.649 254.641 208.263 254.641 208.913C254.641 209.563 254.894 210.176 255.356 210.636L259.709 214.98C260.169 215.439 260.783 215.694 261.435 215.694C261.478 215.694 261.525 215.694 261.571 215.69C262.263 215.651 262.91 215.317 263.343 214.778C265.05 212.646 267.062 210.785 269.322 209.25C271.559 207.73 274.006 206.553 276.593 205.752C277.877 205.354 278.6 203.985 278.199 202.703L278.197 202.701Z" fill="#0643A3"/>
<path d="M316.607 194.847H299.594C298.487 194.847 297.592 193.951 297.592 192.848C297.592 191.746 298.489 190.85 299.594 190.85H316.607C317.714 190.85 318.609 191.746 318.609 192.848C318.609 193.951 317.712 194.847 316.607 194.847Z" fill="white"/>
<path d="M412.961 194.847H366.102C364.995 194.847 364.1 193.951 364.1 192.848C364.1 191.746 364.997 190.85 366.102 190.85H412.961C414.068 190.85 414.963 191.746 414.963 192.848C414.963 193.951 414.066 194.847 412.961 194.847Z" fill="white"/>
<path d="M359.173 194.847H324.022C322.915 194.847 322.02 193.951 322.02 192.848C322.02 191.746 322.917 190.85 324.022 190.85H359.173C360.28 190.85 361.176 191.746 361.176 192.848C361.176 193.951 360.278 194.847 359.173 194.847Z" fill="white"/>
<path d="M335.088 206.274H299.594C298.487 206.274 297.592 205.378 297.592 204.275C297.592 203.172 298.489 202.276 299.594 202.276H335.088C336.195 202.276 337.091 203.172 337.091 204.275C337.091 205.378 336.193 206.274 335.088 206.274Z" fill="white"/>
<path d="M412.961 206.274H343.332C342.225 206.274 341.33 205.378 341.33 204.275C341.33 203.172 342.228 202.276 343.332 202.276H412.961C414.068 202.276 414.963 203.172 414.963 204.275C414.963 205.378 414.065 206.274 412.961 206.274Z" fill="white"/>
<path d="M310.388 216.742H299.594C298.487 216.742 297.592 215.846 297.592 214.744C297.592 213.641 298.489 212.745 299.594 212.745H310.388C311.495 212.745 312.391 213.641 312.391 214.744C312.391 215.846 311.493 216.742 310.388 216.742Z" fill="white"/>
<path d="M337.154 216.742H317.342C316.235 216.742 315.34 215.846 315.34 214.744C315.34 213.641 316.237 212.745 317.342 212.745H337.154C338.261 212.745 339.156 213.641 339.156 214.744C339.156 215.846 338.259 216.742 337.154 216.742Z" fill="white"/>
<path d="M371.099 216.742H345.186C344.079 216.742 343.184 215.846 343.184 214.744C343.184 213.641 344.081 212.745 345.186 212.745H371.099C372.206 212.745 373.101 213.641 373.101 214.744C373.101 215.846 372.204 216.742 371.099 216.742Z" fill="white"/>
<path d="M278.864 154.461C285.707 147.631 285.707 136.558 278.864 129.728C272.022 122.898 260.928 122.898 254.085 129.728C247.242 136.558 247.242 147.631 254.085 154.461C260.928 161.291 272.022 161.291 278.864 154.461Z" fill="white"/>
<path d="M277.074 152.675C282.928 146.831 282.928 137.358 277.074 131.515C271.22 125.672 261.729 125.672 255.875 131.515C250.021 137.358 250.021 146.831 255.875 152.675C261.729 158.518 271.22 158.518 277.074 152.675Z" fill="#2C7EFE"/>
<path d="M276.199 151.801C281.569 146.44 281.569 137.749 276.199 132.389C270.829 127.028 262.122 127.028 256.751 132.389C251.381 137.749 251.381 146.44 256.751 151.801C262.122 157.161 270.829 157.161 276.199 151.801Z" fill="#84B2FE"/>
<path d="M278.197 136.458C278.003 135.835 277.58 135.327 277.002 135.024C276.425 134.721 275.764 134.661 275.143 134.854C272.095 135.798 269.212 137.186 266.574 138.978C264.664 140.276 262.899 141.774 261.313 143.446L258.809 140.947C257.856 139.998 256.309 139.998 255.356 140.947C254.896 141.406 254.641 142.019 254.641 142.669C254.641 143.32 254.894 143.933 255.356 144.392L259.709 148.737C260.169 149.196 260.783 149.451 261.435 149.451C261.478 149.451 261.525 149.451 261.571 149.446C262.263 149.407 262.91 149.074 263.343 148.534C265.05 146.403 267.062 144.542 269.322 143.007C271.559 141.486 274.006 140.31 276.593 139.508C277.877 139.111 278.6 137.742 278.199 136.46L278.197 136.458Z" fill="#0643A3"/>
<path d="M335.088 128.603H299.594C298.487 128.603 297.592 127.707 297.592 126.604C297.592 125.501 298.489 124.605 299.594 124.605H335.088C336.195 124.605 337.091 125.501 337.091 126.604C337.091 127.707 336.193 128.603 335.088 128.603Z" fill="white"/>
<path d="M412.962 128.603H385.465C384.358 128.603 383.463 127.707 383.463 126.604C383.463 125.501 384.361 124.605 385.465 124.605H412.962C414.069 124.605 414.964 125.501 414.964 126.604C414.964 127.707 414.066 128.603 412.962 128.603Z" fill="white"/>
<path d="M359.173 128.603H341.426C340.319 128.603 339.424 127.707 339.424 126.604C339.424 125.501 340.321 124.605 341.426 124.605H359.173C360.28 124.605 361.176 125.501 361.176 126.604C361.176 127.707 360.278 128.603 359.173 128.603Z" fill="white"/>
<path d="M378.926 128.603H366.102C364.995 128.603 364.1 127.707 364.1 126.604C364.1 125.501 364.997 124.605 366.102 124.605H378.926C380.033 124.605 380.928 125.501 380.928 126.604C380.928 127.707 380.031 128.603 378.926 128.603Z" fill="white"/>
<path d="M335.088 140.029H299.594C298.487 140.029 297.592 139.134 297.592 138.031C297.592 136.928 298.489 136.032 299.594 136.032H335.088C336.195 136.032 337.091 136.928 337.091 138.031C337.091 139.134 336.193 140.029 335.088 140.029Z" fill="white"/>
<path d="M359.173 140.029H341.426C340.319 140.029 339.424 139.134 339.424 138.031C339.424 136.928 340.321 136.032 341.426 136.032H359.173C360.28 136.032 361.176 136.928 361.176 138.031C361.176 139.134 360.278 140.029 359.173 140.029Z" fill="white"/>
<path d="M412.961 140.029H366.102C364.995 140.029 364.1 139.134 364.1 138.031C364.1 136.928 364.997 136.032 366.102 136.032H412.961C414.068 136.032 414.963 136.928 414.963 138.031C414.963 139.134 414.066 140.029 412.961 140.029Z" fill="white"/>
<path d="M310.388 150.498H299.594C298.487 150.498 297.592 149.602 297.592 148.5C297.592 147.397 298.489 146.501 299.594 146.501H310.388C311.495 146.501 312.391 147.397 312.391 148.5C312.391 149.602 311.493 150.498 310.388 150.498Z" fill="white"/>
<path d="M359.175 150.498H317.342C316.235 150.498 315.34 149.602 315.34 148.5C315.34 147.397 316.237 146.501 317.342 146.501H359.175C360.282 146.501 361.177 147.397 361.177 148.5C361.177 149.602 360.28 150.498 359.175 150.498Z" fill="white"/>
<path d="M412.961 150.498H378.297C377.19 150.498 376.295 149.602 376.295 148.5C376.295 147.397 377.193 146.501 378.297 146.501H412.961C414.068 146.501 414.963 147.397 414.963 148.5C414.963 149.602 414.065 150.498 412.961 150.498Z" fill="white"/>
<path d="M371.099 150.498H366.102C364.995 150.498 364.1 149.602 364.1 148.5C364.1 147.397 364.997 146.501 366.102 146.501H371.099C372.206 146.501 373.101 147.397 373.101 148.5C373.101 149.602 372.203 150.498 371.099 150.498Z" fill="white"/>
<path d="M278.864 286.95C285.707 280.12 285.707 269.046 278.864 262.216C272.022 255.386 260.928 255.386 254.085 262.216C247.242 269.046 247.242 280.12 254.085 286.95C260.928 293.78 272.022 293.78 278.864 286.95Z" fill="white"/>
<path d="M277.074 285.163C282.928 279.32 282.928 269.846 277.074 264.003C271.22 258.16 261.729 258.16 255.875 264.003C250.021 269.846 250.021 279.32 255.875 285.163C261.729 291.006 271.22 291.006 277.074 285.163Z" fill="#2C7EFE"/>
<path d="M266.474 288.309C274.069 288.309 280.226 282.163 280.226 274.583C280.226 267.002 274.069 260.856 266.474 260.856C258.879 260.856 252.723 267.002 252.723 274.583C252.723 282.163 258.879 288.309 266.474 288.309Z" fill="#84B2FE"/>
<path d="M278.197 268.945C278.003 268.322 277.58 267.815 277.002 267.512C276.425 267.208 275.764 267.149 275.143 267.342C272.095 268.286 269.212 269.673 266.574 271.465C264.664 272.763 262.899 274.261 261.313 275.933L258.809 273.434C257.856 272.485 256.309 272.485 255.356 273.434C254.896 273.893 254.641 274.507 254.641 275.157C254.641 275.807 254.894 276.42 255.356 276.88L259.709 281.224C260.169 281.683 260.783 281.938 261.435 281.938C261.478 281.938 261.525 281.938 261.571 281.934C262.263 281.895 262.91 281.562 263.343 281.022C265.05 278.89 267.062 277.029 269.322 275.494C271.559 273.974 274.006 272.798 276.593 271.996C277.877 271.598 278.6 270.229 278.199 268.947L278.197 268.945Z" fill="#0643A3"/>
<path d="M335.088 261.091H299.594C298.487 261.091 297.592 260.195 297.592 259.092C297.592 257.99 298.489 257.094 299.594 257.094H335.088C336.195 257.094 337.091 257.99 337.091 259.092C337.091 260.195 336.193 261.091 335.088 261.091Z" fill="white"/>
<path d="M382.56 261.091H378.543C377.436 261.091 376.541 260.195 376.541 259.092C376.541 257.99 377.439 257.094 378.543 257.094H382.56C383.667 257.094 384.562 257.99 384.562 259.092C384.562 260.195 383.664 261.091 382.56 261.091Z" fill="white"/>
<path d="M359.173 261.091H341.426C340.319 261.091 339.424 260.195 339.424 259.092C339.424 257.99 340.321 257.094 341.426 257.094H359.173C360.28 257.094 361.176 257.99 361.176 259.092C361.176 260.195 360.278 261.091 359.173 261.091Z" fill="white"/>
<path d="M412.96 261.091H389.797C388.69 261.091 387.795 260.195 387.795 259.092C387.795 257.99 388.693 257.094 389.797 257.094H412.96C414.067 257.094 414.962 257.99 414.962 259.092C414.962 260.195 414.065 261.091 412.96 261.091Z" fill="white"/>
<path d="M372.514 261.091H366.102C364.995 261.091 364.1 260.195 364.1 259.092C364.1 257.99 364.997 257.094 366.102 257.094H372.514C373.621 257.094 374.516 257.99 374.516 259.092C374.516 260.195 373.619 261.091 372.514 261.091Z" fill="white"/>
<path d="M335.088 272.52H299.594C298.487 272.52 297.592 271.624 297.592 270.521C297.592 269.418 298.489 268.522 299.594 268.522H335.088C336.195 268.522 337.091 269.418 337.091 270.521C337.091 271.624 336.193 272.52 335.088 272.52Z" fill="white"/>
<path d="M391.828 272.52H341.424C340.317 272.52 339.422 271.624 339.422 270.521C339.422 269.418 340.319 268.522 341.424 268.522H391.828C392.935 268.522 393.83 269.418 393.83 270.521C393.83 271.624 392.933 272.52 391.828 272.52Z" fill="white"/>
<path d="M412.961 272.52H399.211C398.104 272.52 397.209 271.624 397.209 270.521C397.209 269.418 398.107 268.522 399.211 268.522H412.961C414.068 268.522 414.963 269.418 414.963 270.521C414.963 271.624 414.065 272.52 412.961 272.52Z" fill="white"/>
<path d="M310.388 282.987H299.594C298.487 282.987 297.592 282.091 297.592 280.988C297.592 279.885 298.489 278.989 299.594 278.989H310.388C311.495 278.989 312.391 279.885 312.391 280.988C312.391 282.091 311.493 282.987 310.388 282.987Z" fill="white"/>
<path d="M328.475 282.987H317.342C316.235 282.987 315.34 282.091 315.34 280.988C315.34 279.885 316.237 278.989 317.342 278.989H328.475C329.582 278.989 330.477 279.885 330.477 280.988C330.477 282.091 329.579 282.987 328.475 282.987Z" fill="white"/>
<path d="M344.559 282.987H336.315C335.208 282.987 334.312 282.091 334.312 280.988C334.312 279.885 335.21 278.989 336.315 278.989H344.559C345.666 278.989 346.561 279.885 346.561 280.988C346.561 282.091 345.664 282.987 344.559 282.987Z" fill="white"/>
<path d="M96.5784 227.268C104.489 219.372 104.489 206.571 96.5784 198.675C88.668 190.78 75.8428 190.78 67.9324 198.675C60.022 206.571 60.022 219.372 67.9324 227.268C75.8428 235.164 88.668 235.164 96.5784 227.268Z" fill="white"/>
<path d="M62.5351 221.578C57.7801 210.726 62.7583 198.036 73.6308 193.29C84.5032 188.543 97.2169 193.512 101.972 204.365C106.727 215.217 101.749 227.907 90.8762 232.653C80.0037 237.399 67.29 232.43 62.5351 221.578ZM64.855 220.565C69.0507 230.14 80.2684 234.525 89.8612 230.338C99.454 226.15 103.848 214.953 99.6519 205.378C95.4562 195.803 84.2385 191.417 74.6457 195.605C65.0529 199.793 60.6593 210.99 64.855 220.565Z" fill="#2C7EFE"/>
<path d="M48.1497 232.711C72.6807 232.711 92.567 212.861 92.567 188.376C92.567 163.89 72.6807 144.041 48.1497 144.041C23.6187 144.041 3.73242 163.89 3.73242 188.376C3.73242 212.861 23.6187 232.711 48.1497 232.711Z" fill="white"/>
<path d="M48.7196 233.983C42.8139 234.054 37.0163 232.995 31.4926 230.836C25.969 228.677 20.993 225.527 16.7053 221.47C12.2656 217.271 8.7627 212.283 6.29085 206.643C3.81901 201.004 2.53015 195.049 2.4565 188.945C2.38515 183.051 3.44616 177.264 5.6096 171.75C7.77304 166.237 10.9284 161.27 14.9929 156.99C19.2001 152.559 24.1968 149.063 29.847 146.595C35.4973 144.13 41.4629 142.842 47.578 142.768C53.4838 142.697 59.2813 143.756 64.805 145.915C70.3287 148.075 75.3046 151.224 79.5924 155.281C84.032 159.481 87.535 164.468 90.0068 170.108C92.4764 175.748 93.7675 181.702 93.8412 187.806C93.9125 193.701 92.8515 199.487 90.6881 205.001C88.5246 210.514 85.3692 215.481 81.3047 219.761C77.0975 224.192 72.1009 227.689 66.4506 230.156C60.8004 232.621 54.8348 233.91 48.7196 233.983ZM8.6108 205.63C18.1437 227.39 43.6355 237.353 65.4356 227.838C87.2358 218.323 97.2175 192.878 87.6846 171.119C78.1516 149.359 52.6598 139.396 30.8597 148.911C9.0596 158.426 -0.922152 183.871 8.6108 205.63Z" fill="#2C7EFE"/>
<path d="M118.297 234.89C119.536 230.071 116.627 225.163 111.799 223.926C106.971 222.69 102.054 225.594 100.815 230.413C99.5764 235.231 102.486 240.14 107.313 241.376C112.141 242.613 117.059 239.709 118.297 234.89Z" fill="white"/>
<path d="M100.13 236.777C97.8559 231.587 100.236 225.52 105.435 223.25C110.634 220.981 116.712 223.356 118.986 228.545C121.26 233.735 118.88 239.802 113.681 242.072C108.482 244.341 102.404 241.966 100.13 236.777ZM102.452 235.763C104.167 239.676 108.747 241.465 112.666 239.756C116.586 238.045 118.379 233.471 116.666 229.561C114.952 225.649 110.369 223.859 106.452 225.568C102.533 227.28 100.74 231.854 102.452 235.763Z" fill="#2C7EFE"/>
<path d="M19.8438 187.881L51.8742 199.641L42.8637 201.256L95.1568 145.276L53.674 209.65L53.3126 210.213C51.621 212.839 48.1181 213.597 45.4874 211.909C45.1974 211.722 44.9074 211.493 44.6635 211.265L19.8438 187.884V187.881Z" fill="#153663"/>
<path d="M145.119 267.56C152.954 264.22 163.594 287.4 182.404 290.6C193.217 292.437 208.342 287.949 229.157 264.608C231.328 267.365 233.498 270.122 235.668 272.879C225.401 296.69 203.058 311.679 180.038 310.685C158.12 309.736 144.065 294.668 140.979 291.19C139.931 279.529 140.472 269.543 145.121 267.56H145.119Z" fill="url(#paint0_linear_2061_74)"/>
<path d="M110.727 373.618C114.931 337.849 115.429 315.409 114.015 300.613C113.638 296.636 112.324 285.485 118.83 276.161C120.195 274.208 125.058 267.233 134.31 265.439C135.643 265.182 143.691 263.751 151.247 268.736C156.493 272.198 159.153 277.344 161.098 283.172C166.603 299.687 163.821 314.527 162.872 324.268C161.749 335.795 162.007 352.421 168.721 373.618H110.727Z" fill="white"/>
<path d="M302.523 170.237C281.326 155.222 251.945 160.204 236.904 181.364C221.861 202.522 226.853 231.849 248.05 246.862C269.25 261.877 298.629 256.894 313.672 235.734C328.715 214.574 323.723 185.249 302.523 170.234V170.237ZM251.878 241.479C233.659 228.576 229.367 203.37 242.297 185.185C255.227 166.997 280.477 162.715 298.698 175.621C316.919 188.527 321.209 213.731 308.279 231.918C295.349 250.106 270.099 254.385 251.878 241.482V241.479Z" fill="#8183F1"/>
<path opacity="0.53" d="M308.28 231.916C295.35 250.104 270.1 254.384 251.878 241.48C233.659 228.576 229.367 203.37 242.297 185.185C255.227 166.998 280.477 162.716 298.698 175.622C316.92 188.528 321.21 213.731 308.28 231.919V231.916Z" fill="#DFE6FF"/>
<path d="M257.735 246.616L253.762 243.802L249.058 240.468L245.086 237.654C218.62 272.198 192.153 306.745 165.687 341.289C164.329 343.503 163.846 345.345 163.655 346.549C162.932 351.135 165.061 355.359 169.073 357.953C172.852 360.875 177.549 361.486 181.646 359.292C182.723 358.716 184.304 357.652 185.95 355.642C209.877 319.299 233.806 282.956 257.732 246.614L257.735 246.616Z" fill="#8183F1"/>
<path d="M176.558 352.649C180.747 353.556 180.632 355.107 184.964 356.196C187.221 356.763 192.57 358.135 196.83 355.272C201.417 352.189 203.502 345.27 201.449 342.909C200.971 342.359 200.356 342.155 200.211 342.111C197.758 341.356 196.112 344.795 192.292 345.773C189.175 346.57 185.769 345.436 185.557 344.275C185.341 343.09 188.588 342.426 189.283 339.46C189.456 338.721 189.668 337.046 188.938 336.598C187.348 335.619 184.218 342.263 177.967 343.747C172.234 345.109 168.657 340.795 166.043 342.915C163.817 344.719 163.868 349.849 166.142 351.863C168.31 353.784 170.85 351.413 176.556 352.651L176.558 352.649Z" fill="#FFCDAD"/>
<path d="M140.946 271.895C147.929 281.92 125.991 299.207 129.236 315.215C130.978 323.806 140.527 334.746 177.483 343C177.835 343.788 178.56 345.709 178.127 348.093C177.435 351.895 174.357 353.799 173.851 354.103C142.709 355.81 116.886 340.737 110.538 319.775C104.161 298.718 116.778 269.547 130.246 267.742C133.71 267.278 138.546 268.447 140.948 271.895H140.946Z" fill="url(#paint1_linear_2061_74)"/>
<path d="M146.047 272.203C145.145 280.14 144.793 291.583 147.679 304.85C149.684 314.064 152.71 321.67 155.536 327.459C154.459 330.496 153.382 333.531 152.305 336.568C148.666 334.503 145.025 332.437 141.387 330.374C139.437 324.057 137.58 315.941 136.942 306.396C136.026 292.658 137.99 281.185 140.038 273.207C142.04 272.874 144.043 272.539 146.047 272.205V272.203Z" fill="#84B2FE"/>
<path d="M150.333 258.762C150.766 263.604 149.565 267.54 148.633 269.846C147.756 272.83 144.858 274.741 141.882 274.397C138.697 274.027 136.23 271.165 136.356 267.831C136.347 264.126 136.566 259.894 137.203 255.261C137.944 249.883 139.086 245.153 140.299 241.174C141.864 242.382 149.413 248.479 150.333 258.762Z" fill="#FFCDAD"/>
<path d="M159.533 237.79C161.542 240.012 161.977 242.539 162.449 245.268C162.852 247.606 165.096 260.62 157.227 265.282C151.775 268.509 144.069 266.191 139.664 262.056C133.084 255.879 131.595 243.508 138.596 237.299C144.536 232.031 154.909 232.681 159.533 237.792V237.79Z" fill="#FFCDAD"/>
<path d="M156.736 261.78C155.194 262.01 152.67 262.159 149.737 261.247C147.627 260.593 145.995 259.6 144.879 258.787C145.049 259.357 145.979 262.254 148.64 263.591C151.238 264.898 154.446 264.188 156.736 261.778V261.78Z" fill="white"/>
<path d="M140.013 241.893C147.277 234.542 162.165 244.365 168.023 237.721C171.192 234.129 170.444 227.228 167.337 222.739C164.442 218.555 159.404 216.332 154.628 216.743C148.823 217.241 145.288 221.468 144.464 222.454C142.441 224.871 143.06 225.663 140.943 228.381C137.505 232.789 134.499 232.472 132.363 235.183C127.578 241.259 133.334 254.671 135.728 254.487C137.424 254.356 135.325 246.639 140.016 241.893H140.013Z" fill="#060352"/>
<path d="M371.896 339.309C367.615 325.787 355.097 316.516 341.451 316.764C333.918 316.897 326.645 319.927 320.96 325.286C315.23 330.69 311.642 338.004 310.854 345.879L310.797 346.444L314.194 346.782L314.251 346.217C315.639 332.312 327.246 320.885 340.675 320.2C340.952 320.187 341.232 320.177 341.511 320.17C353.654 319.95 364.809 328.241 368.637 340.336L368.807 340.878L372.064 339.851L371.893 339.309H371.896Z" fill="#62CBEC"/>
<path d="M396.087 412.155C363.562 414.225 331.039 416.295 298.514 418.362C299.425 393.485 300.336 368.608 301.25 343.731C301.25 343.676 301.255 343.618 301.257 343.563C327.918 341.298 354.579 339.035 381.24 336.772C381.334 337.161 381.426 337.549 381.521 337.937C387.468 362.693 392.301 387.439 396.089 412.155H396.087Z" fill="#8FDFF2"/>
<path d="M298.567 418.36C297.7 417.361 295.987 415.661 293.297 414.489C290.155 413.122 287.338 413.198 285.982 413.324C290.696 390.078 295.41 366.83 300.123 343.584C301.108 343.524 302.093 343.467 303.078 343.407C301.575 368.392 300.07 393.375 298.567 418.36Z" fill="#62CBEC"/>
<path d="M381.538 338.311C379.787 348.353 378.038 358.394 376.286 368.435C375.614 372.288 372.385 375.175 368.475 375.424C351.634 376.485 334.794 377.549 317.954 378.61C314.481 378.828 311.307 376.65 310.269 373.333C307.277 363.774 304.287 354.213 301.295 344.654C301.295 344.617 301.295 344.581 301.295 344.544C301.298 344.204 301.284 343.878 301.254 343.565C327.915 341.302 354.576 339.037 381.237 336.774C381.336 337.287 381.437 337.801 381.536 338.314L381.538 338.311Z" fill="#62CBEC"/>
<path d="M344.173 370.901L341.087 371.216C338.096 371.52 335.919 374.187 336.225 377.173L336.308 377.988C336.614 380.973 339.286 383.146 342.276 382.841L345.363 382.527C348.353 382.222 350.53 379.555 350.225 376.57L350.141 375.754C349.836 372.769 347.164 370.596 344.173 370.901Z" fill="#62CBEC"/>
<path d="M339.444 384.039C337.543 384.135 335.874 382.722 335.679 380.813L335.037 374.533C334.834 372.559 336.279 370.79 338.254 370.591L346.813 369.718C347.771 369.619 348.71 369.901 349.456 370.508C350.201 371.114 350.666 371.976 350.765 372.931L351.407 379.212C351.61 381.185 350.164 382.952 348.19 383.154L339.63 384.027C339.568 384.034 339.506 384.039 339.446 384.041L339.444 384.039ZM347.092 371.519C347.062 371.519 347.03 371.523 347 371.526L338.44 372.398C337.462 372.497 336.749 373.373 336.85 374.349L337.492 380.63C337.591 381.606 338.473 382.316 339.446 382.217L348.006 381.344C348.984 381.245 349.697 380.37 349.596 379.394L348.954 373.113C348.906 372.64 348.675 372.215 348.307 371.916C347.962 371.636 347.534 371.496 347.094 371.519H347.092Z" fill="white"/>
<path d="M345.003 314.526L332.481 315.803C330.232 316.032 328.594 318.038 328.824 320.283L328.861 320.64C329.09 322.885 331.1 324.52 333.35 324.291L345.872 323.014C348.121 322.785 349.759 320.779 349.529 318.534L349.493 318.177C349.263 315.932 347.253 314.297 345.003 314.526Z" fill="#62CBEC"/>
</g>
<defs>
<linearGradient id="paint0_linear_2061_74" x1="211.203" y1="304.057" x2="159.747" y2="252.507" gradientUnits="userSpaceOnUse">
<stop stop-color="#84B2FE"/>
<stop offset="0.05" stop-color="#94BCFE"/>
<stop offset="0.15" stop-color="#B5D0FE"/>
<stop offset="0.27" stop-color="#D0E1FE"/>
<stop offset="0.4" stop-color="#E5EEFE"/>
<stop offset="0.54" stop-color="#F3F7FE"/>
<stop offset="0.71" stop-color="#FCFDFE"/>
<stop offset="0.97" stop-color="white"/>
</linearGradient>
<linearGradient id="paint1_linear_2061_74" x1="143.552" y1="354.247" x2="143.554" y2="267.654" gradientUnits="userSpaceOnUse">
<stop stop-color="#84B2FE"/>
<stop offset="0.05" stop-color="#94BCFE"/>
<stop offset="0.15" stop-color="#B5D0FE"/>
<stop offset="0.27" stop-color="#D0E1FE"/>
<stop offset="0.4" stop-color="#E5EEFE"/>
<stop offset="0.54" stop-color="#F3F7FE"/>
<stop offset="0.71" stop-color="#FCFDFE"/>
<stop offset="0.97" stop-color="white"/>
</linearGradient>
<clipPath id="clip0_2061_74">
<rect width="428" height="423" fill="white"/>
</clipPath>
</defs>
</svg>
