<svg width="1282" height="171" viewBox="0 0 1282 171" fill="none" xmlns="http://www.w3.org/2000/svg">
<path d="M1272.42 24.1431C1281.16 14.6738 1281.19 0.95752 1281.19 0.95752L1281.42 170.043H1.06323C1.06323 170.043 0.789041 -13.0819 1.06358 2.29936C1.33811 17.6806 16.6948 32.0253 26.8879 34.8082C37.2828 38.6543 582.974 156.169 635.336 167.441C638.252 168.069 640.87 167.983 643.785 167.354L1251.92 36.1753C1251.92 36.1753 1263.67 33.6123 1272.42 24.1431Z" fill="#101010"/>
<path d="M1272.42 24.1431C1281.16 14.6738 1281.19 0.95752 1281.19 0.95752L1281.42 170.043H1.06323C1.06323 170.043 0.789041 -13.0819 1.06358 2.29936C1.33811 17.6806 16.6948 32.0253 26.8879 34.8082C37.2828 38.6543 582.974 156.169 635.336 167.441C638.252 168.069 640.87 167.983 643.785 167.354L1251.92 36.1753C1251.92 36.1753 1263.67 33.6123 1272.42 24.1431Z" fill="white"/>
</svg>
